<svg width="423" height="914" viewBox="0 0 423 914" fill="none" xmlns="http://www.w3.org/2000/svg">
<rect width="422" height="914" transform="translate(1)" fill="#FAFAFA"/>
<path fill-rule="evenodd" clip-rule="evenodd" d="M54.4697 59.4697C54.7626 59.1768 55.2374 59.1768 55.5303 59.4697L61 64.9393L66.4697 59.4697C66.7626 59.1768 67.2374 59.1768 67.5303 59.4697C67.8232 59.7626 67.8232 60.2374 67.5303 60.5303L62.0607 66L67.5303 71.4697C67.8232 71.7626 67.8232 72.2374 67.5303 72.5303C67.2374 72.8232 66.7626 72.8232 66.4697 72.5303L61 67.0607L55.5303 72.5303C55.2374 72.8232 54.7626 72.8232 54.4697 72.5303C54.1768 72.2374 54.1768 71.7626 54.4697 71.4697L59.9393 66L54.4697 60.5303C54.1768 60.2374 54.1768 59.7626 54.4697 59.4697Z" fill="#0F172A"/>
<path d="M184.835 51.4C184.582 50.9333 184.215 50.58 183.735 50.34C183.269 50.0867 182.715 49.96 182.075 49.96C180.969 49.96 180.082 50.3267 179.415 51.06C178.749 51.78 178.415 52.7467 178.415 53.96C178.415 55.2533 178.762 56.2667 179.455 57C180.162 57.72 181.129 58.08 182.355 58.08C183.195 58.08 183.902 57.8667 184.475 57.44C185.062 57.0133 185.489 56.4 185.755 55.6H181.415V53.08H188.855V56.26C188.602 57.1133 188.169 57.9067 187.555 58.64C186.955 59.3733 186.189 59.9667 185.255 60.42C184.322 60.8733 183.269 61.1 182.095 61.1C180.709 61.1 179.469 60.8 178.375 60.2C177.295 59.5867 176.449 58.74 175.835 57.66C175.235 56.58 174.935 55.3467 174.935 53.96C174.935 52.5733 175.235 51.34 175.835 50.26C176.449 49.1667 177.295 48.32 178.375 47.72C179.455 47.1067 180.689 46.8 182.075 46.8C183.755 46.8 185.169 47.2067 186.315 48.02C187.475 48.8333 188.242 49.96 188.615 51.4H184.835ZM194.17 51.7C194.57 51.0867 195.07 50.6067 195.67 50.26C196.27 49.9 196.936 49.72 197.67 49.72V53.34H196.73C195.876 53.34 195.236 53.5267 194.81 53.9C194.383 54.26 194.17 54.9 194.17 55.82V61H190.75V49.84H194.17V51.7ZM204.384 61.16C203.291 61.16 202.304 60.9267 201.424 60.46C200.558 59.9933 199.871 59.3267 199.364 58.46C198.871 57.5933 198.624 56.58 198.624 55.42C198.624 54.2733 198.878 53.2667 199.384 52.4C199.891 51.52 200.584 50.8467 201.464 50.38C202.344 49.9133 203.331 49.68 204.424 49.68C205.518 49.68 206.504 49.9133 207.384 50.38C208.264 50.8467 208.958 51.52 209.464 52.4C209.971 53.2667 210.224 54.2733 210.224 55.42C210.224 56.5667 209.964 57.58 209.444 58.46C208.938 59.3267 208.238 59.9933 207.344 60.46C206.464 60.9267 205.478 61.16 204.384 61.16ZM204.384 58.2C205.038 58.2 205.591 57.96 206.044 57.48C206.511 57 206.744 56.3133 206.744 55.42C206.744 54.5267 206.518 53.84 206.064 53.36C205.624 52.88 205.078 52.64 204.424 52.64C203.758 52.64 203.204 52.88 202.764 53.36C202.324 53.8267 202.104 54.5133 202.104 55.42C202.104 56.3133 202.318 57 202.744 57.48C203.184 57.96 203.731 58.2 204.384 58.2ZM228.059 49.84L225.039 61H221.259L219.499 53.76L217.679 61H213.919L210.879 49.84H214.299L215.879 57.82L217.759 49.84H221.379L223.279 57.78L224.839 49.84H228.059ZM235.583 58.1V61H233.843C232.603 61 231.636 60.7 230.943 60.1C230.25 59.4867 229.903 58.4933 229.903 57.12V52.68H228.543V49.84H229.903V47.12H233.323V49.84H235.563V52.68H233.323V57.16C233.323 57.4933 233.403 57.7333 233.563 57.88C233.723 58.0267 233.99 58.1 234.363 58.1H235.583ZM244.348 49.72C245.628 49.72 246.655 50.1467 247.428 51C248.201 51.84 248.588 53 248.588 54.48V61H245.188V54.94C245.188 54.1933 244.995 53.6133 244.608 53.2C244.221 52.7867 243.701 52.58 243.048 52.58C242.395 52.58 241.875 52.7867 241.488 53.2C241.101 53.6133 240.908 54.1933 240.908 54.94V61H237.488V46.2H240.908V51.34C241.255 50.8467 241.728 50.4533 242.328 50.16C242.928 49.8667 243.601 49.72 244.348 49.72ZM156.931 77.14C155.611 77.14 154.397 76.8333 153.291 76.22C152.197 75.6067 151.324 74.7533 150.671 73.66C150.031 72.5533 149.711 71.3133 149.711 69.94C149.711 68.5667 150.031 67.3333 150.671 66.24C151.324 65.1467 152.197 64.2933 153.291 63.68C154.397 63.0667 155.611 62.76 156.931 62.76C158.251 62.76 159.457 63.0667 160.551 63.68C161.657 64.2933 162.524 65.1467 163.151 66.24C163.791 67.3333 164.111 68.5667 164.111 69.94C164.111 71.3133 163.791 72.5533 163.151 73.66C162.511 74.7533 161.644 75.6067 160.551 76.22C159.457 76.8333 158.251 77.14 156.931 77.14ZM156.931 74.02C158.051 74.02 158.944 73.6467 159.611 72.9C160.291 72.1533 160.631 71.1667 160.631 69.94C160.631 68.7 160.291 67.7133 159.611 66.98C158.944 66.2333 158.051 65.86 156.931 65.86C155.797 65.86 154.891 66.2267 154.211 66.96C153.544 67.6933 153.211 68.6867 153.211 69.94C153.211 71.18 153.544 72.1733 154.211 72.92C154.891 73.6533 155.797 74.02 156.931 74.02ZM169.433 67.42C169.767 66.9 170.227 66.48 170.813 66.16C171.4 65.84 172.087 65.68 172.873 65.68C173.793 65.68 174.627 65.9133 175.373 66.38C176.12 66.8467 176.707 67.5133 177.133 68.38C177.573 69.2467 177.793 70.2533 177.793 71.4C177.793 72.5467 177.573 73.56 177.133 74.44C176.707 75.3067 176.12 75.98 175.373 76.46C174.627 76.9267 173.793 77.16 172.873 77.16C172.1 77.16 171.413 77 170.813 76.68C170.227 76.36 169.767 75.9467 169.433 75.44V82.32H166.013V65.84H169.433V67.42ZM174.313 71.4C174.313 70.5467 174.073 69.88 173.593 69.4C173.127 68.9067 172.547 68.66 171.853 68.66C171.173 68.66 170.593 68.9067 170.113 69.4C169.647 69.8933 169.413 70.5667 169.413 71.42C169.413 72.2733 169.647 72.9467 170.113 73.44C170.593 73.9333 171.173 74.18 171.853 74.18C172.533 74.18 173.113 73.9333 173.593 73.44C174.073 72.9333 174.313 72.2533 174.313 71.4ZM183.008 67.42C183.341 66.9 183.801 66.48 184.388 66.16C184.974 65.84 185.661 65.68 186.448 65.68C187.368 65.68 188.201 65.9133 188.948 66.38C189.694 66.8467 190.281 67.5133 190.708 68.38C191.148 69.2467 191.368 70.2533 191.368 71.4C191.368 72.5467 191.148 73.56 190.708 74.44C190.281 75.3067 189.694 75.98 188.948 76.46C188.201 76.9267 187.368 77.16 186.448 77.16C185.674 77.16 184.988 77 184.388 76.68C183.801 76.36 183.341 75.9467 183.008 75.44V82.32H179.588V65.84H183.008V67.42ZM187.888 71.4C187.888 70.5467 187.648 69.88 187.168 69.4C186.701 68.9067 186.121 68.66 185.428 68.66C184.748 68.66 184.168 68.9067 183.688 69.4C183.221 69.8933 182.988 70.5667 182.988 71.42C182.988 72.2733 183.221 72.9467 183.688 73.44C184.168 73.9333 184.748 74.18 185.428 74.18C186.108 74.18 186.688 73.9333 187.168 73.44C187.648 72.9333 187.888 72.2533 187.888 71.4ZM198.242 77.16C197.149 77.16 196.162 76.9267 195.282 76.46C194.415 75.9933 193.729 75.3267 193.222 74.46C192.729 73.5933 192.482 72.58 192.482 71.42C192.482 70.2733 192.735 69.2667 193.242 68.4C193.749 67.52 194.442 66.8467 195.322 66.38C196.202 65.9133 197.189 65.68 198.282 65.68C199.375 65.68 200.362 65.9133 201.242 66.38C202.122 66.8467 202.815 67.52 203.322 68.4C203.829 69.2667 204.082 70.2733 204.082 71.42C204.082 72.5667 203.822 73.58 203.302 74.46C202.795 75.3267 202.095 75.9933 201.202 76.46C200.322 76.9267 199.335 77.16 198.242 77.16ZM198.242 74.2C198.895 74.2 199.449 73.96 199.902 73.48C200.369 73 200.602 72.3133 200.602 71.42C200.602 70.5267 200.375 69.84 199.922 69.36C199.482 68.88 198.935 68.64 198.282 68.64C197.615 68.64 197.062 68.88 196.622 69.36C196.182 69.8267 195.962 70.5133 195.962 71.42C195.962 72.3133 196.175 73 196.602 73.48C197.042 73.96 197.589 74.2 198.242 74.2ZM209.316 67.7C209.716 67.0867 210.216 66.6067 210.816 66.26C211.416 65.9 212.083 65.72 212.816 65.72V69.34H211.876C211.023 69.34 210.383 69.5267 209.956 69.9C209.53 70.26 209.316 70.9 209.316 71.82V77H205.896V65.84H209.316V67.7ZM220.671 74.1V77H218.931C217.691 77 216.724 76.7 216.031 76.1C215.338 75.4867 214.991 74.4933 214.991 73.12V68.68H213.631V65.84H214.991V63.12H218.411V65.84H220.651V68.68H218.411V73.16C218.411 73.4933 218.491 73.7333 218.651 73.88C218.811 74.0267 219.078 74.1 219.451 74.1H220.671ZM233.596 65.84V77H230.176V75.48C229.829 75.9733 229.356 76.3733 228.756 76.68C228.169 76.9733 227.516 77.12 226.796 77.12C225.943 77.12 225.189 76.9333 224.536 76.56C223.883 76.1733 223.376 75.62 223.016 74.9C222.656 74.18 222.476 73.3333 222.476 72.36V65.84H225.876V71.9C225.876 72.6467 226.069 73.2267 226.456 73.64C226.843 74.0533 227.363 74.26 228.016 74.26C228.683 74.26 229.209 74.0533 229.596 73.64C229.983 73.2267 230.176 72.6467 230.176 71.9V65.84H233.596ZM242.853 65.72C244.159 65.72 245.199 66.1467 245.973 67C246.759 67.84 247.153 69 247.153 70.48V77H243.753V70.94C243.753 70.1933 243.559 69.6133 243.173 69.2C242.786 68.7867 242.266 68.58 241.613 68.58C240.959 68.58 240.439 68.7867 240.053 69.2C239.666 69.6133 239.473 70.1933 239.473 70.94V77H236.053V65.84H239.473V67.32C239.819 66.8267 240.286 66.44 240.873 66.16C241.459 65.8667 242.119 65.72 242.853 65.72ZM251.249 64.68C250.649 64.68 250.156 64.5067 249.769 64.16C249.396 63.8 249.209 63.36 249.209 62.84C249.209 62.3067 249.396 61.8667 249.769 61.52C250.156 61.16 250.649 60.98 251.249 60.98C251.836 60.98 252.316 61.16 252.689 61.52C253.076 61.8667 253.269 62.3067 253.269 62.84C253.269 63.36 253.076 63.8 252.689 64.16C252.316 64.5067 251.836 64.68 251.249 64.68ZM252.949 65.84V77H249.529V65.84H252.949ZM261.648 74.1V77H259.908C258.668 77 257.701 76.7 257.008 76.1C256.314 75.4867 255.968 74.4933 255.968 73.12V68.68H254.608V65.84H255.968V63.12H259.388V65.84H261.628V68.68H259.388V73.16C259.388 73.4933 259.468 73.7333 259.628 73.88C259.788 74.0267 260.054 74.1 260.428 74.1H261.648ZM274.953 65.84L267.953 82.3H264.273L266.833 76.62L262.292 65.84H266.113L268.693 72.82L271.253 65.84H274.953Z" fill="#851D2D"/>
<path d="M175.516 106.352V109.616H179.356V111.104H175.516V114.512H179.836V116H173.692V104.864H179.836V106.352H175.516ZM185.859 111.536L188.707 116H186.643L184.739 113.008L182.947 116H181.043L183.891 111.664L181.043 107.184H183.107L185.011 110.176L186.803 107.184H188.707L185.859 111.536ZM198.147 111.376C198.147 111.707 198.126 112.005 198.083 112.272H191.347C191.401 112.976 191.662 113.541 192.131 113.968C192.601 114.395 193.177 114.608 193.859 114.608C194.841 114.608 195.534 114.197 195.939 113.376H197.907C197.641 114.187 197.155 114.853 196.451 115.376C195.758 115.888 194.894 116.144 193.859 116.144C193.017 116.144 192.259 115.957 191.587 115.584C190.926 115.2 190.403 114.667 190.019 113.984C189.646 113.291 189.459 112.491 189.459 111.584C189.459 110.677 189.641 109.883 190.003 109.2C190.377 108.507 190.894 107.973 191.555 107.6C192.227 107.227 192.995 107.04 193.859 107.04C194.691 107.04 195.433 107.221 196.083 107.584C196.734 107.947 197.241 108.459 197.603 109.12C197.966 109.771 198.147 110.523 198.147 111.376ZM196.243 110.8C196.233 110.128 195.993 109.589 195.523 109.184C195.054 108.779 194.473 108.576 193.779 108.576C193.15 108.576 192.611 108.779 192.163 109.184C191.715 109.579 191.449 110.117 191.363 110.8H196.243ZM201.766 108.464C202.033 108.016 202.385 107.669 202.822 107.424C203.27 107.168 203.798 107.04 204.406 107.04V108.928H203.942C203.228 108.928 202.684 109.109 202.31 109.472C201.948 109.835 201.766 110.464 201.766 111.36V116H199.942V107.184H201.766V108.464ZM205.475 111.584C205.475 110.677 205.656 109.883 206.019 109.2C206.392 108.507 206.904 107.973 207.555 107.6C208.205 107.227 208.952 107.04 209.795 107.04C210.861 107.04 211.741 107.296 212.435 107.808C213.139 108.309 213.613 109.029 213.859 109.968H211.891C211.731 109.531 211.475 109.189 211.123 108.944C210.771 108.699 210.328 108.576 209.795 108.576C209.048 108.576 208.451 108.843 208.003 109.376C207.565 109.899 207.347 110.635 207.347 111.584C207.347 112.533 207.565 113.275 208.003 113.808C208.451 114.341 209.048 114.608 209.795 114.608C210.851 114.608 211.549 114.144 211.891 113.216H213.859C213.603 114.112 213.123 114.827 212.419 115.36C211.715 115.883 210.84 116.144 209.795 116.144C208.952 116.144 208.205 115.957 207.555 115.584C206.904 115.2 206.392 114.667 206.019 113.984C205.656 113.291 205.475 112.491 205.475 111.584ZM216.605 106.016C216.274 106.016 215.997 105.904 215.773 105.68C215.549 105.456 215.437 105.179 215.437 104.848C215.437 104.517 215.549 104.24 215.773 104.016C215.997 103.792 216.274 103.68 216.605 103.68C216.925 103.68 217.197 103.792 217.421 104.016C217.645 104.24 217.757 104.517 217.757 104.848C217.757 105.179 217.645 105.456 217.421 105.68C217.197 105.904 216.925 106.016 216.605 106.016ZM217.501 107.184V116H215.677V107.184H217.501ZM223.095 116.144C222.402 116.144 221.778 116.021 221.223 115.776C220.679 115.52 220.247 115.179 219.927 114.752C219.607 114.315 219.437 113.829 219.415 113.296H221.303C221.335 113.669 221.511 113.984 221.831 114.24C222.162 114.485 222.573 114.608 223.063 114.608C223.575 114.608 223.97 114.512 224.247 114.32C224.535 114.117 224.679 113.861 224.679 113.552C224.679 113.221 224.519 112.976 224.199 112.816C223.89 112.656 223.394 112.48 222.711 112.288C222.05 112.107 221.511 111.931 221.095 111.76C220.679 111.589 220.317 111.328 220.007 110.976C219.709 110.624 219.559 110.16 219.559 109.584C219.559 109.115 219.698 108.688 219.975 108.304C220.253 107.909 220.647 107.6 221.159 107.376C221.682 107.152 222.279 107.04 222.951 107.04C223.954 107.04 224.759 107.296 225.367 107.808C225.986 108.309 226.317 108.997 226.359 109.872H224.535C224.503 109.477 224.343 109.163 224.055 108.928C223.767 108.693 223.378 108.576 222.887 108.576C222.407 108.576 222.039 108.667 221.783 108.848C221.527 109.029 221.399 109.269 221.399 109.568C221.399 109.803 221.485 110 221.655 110.16C221.826 110.32 222.034 110.448 222.279 110.544C222.525 110.629 222.887 110.741 223.367 110.88C224.007 111.051 224.53 111.227 224.935 111.408C225.351 111.579 225.709 111.835 226.007 112.176C226.306 112.517 226.461 112.971 226.471 113.536C226.471 114.037 226.333 114.485 226.055 114.88C225.778 115.275 225.383 115.584 224.871 115.808C224.37 116.032 223.778 116.144 223.095 116.144ZM236.522 111.376C236.522 111.707 236.501 112.005 236.458 112.272H229.722C229.776 112.976 230.037 113.541 230.506 113.968C230.976 114.395 231.552 114.608 232.234 114.608C233.216 114.608 233.909 114.197 234.314 113.376H236.282C236.016 114.187 235.53 114.853 234.826 115.376C234.133 115.888 233.269 116.144 232.234 116.144C231.392 116.144 230.634 115.957 229.962 115.584C229.301 115.2 228.778 114.667 228.394 113.984C228.021 113.291 227.834 112.491 227.834 111.584C227.834 110.677 228.016 109.883 228.378 109.2C228.752 108.507 229.269 107.973 229.93 107.6C230.602 107.227 231.37 107.04 232.234 107.04C233.066 107.04 233.808 107.221 234.458 107.584C235.109 107.947 235.616 108.459 235.978 109.12C236.341 109.771 236.522 110.523 236.522 111.376ZM234.618 110.8C234.608 110.128 234.368 109.589 233.898 109.184C233.429 108.779 232.848 108.576 232.154 108.576C231.525 108.576 230.986 108.779 230.538 109.184C230.09 109.579 229.824 110.117 229.738 110.8H234.618ZM243.241 113.52C244.265 112.635 245.071 111.909 245.657 111.344C246.255 110.768 246.751 110.171 247.145 109.552C247.54 108.933 247.737 108.315 247.737 107.696C247.737 107.056 247.583 106.555 247.273 106.192C246.975 105.829 246.5 105.648 245.849 105.648C245.22 105.648 244.729 105.851 244.377 106.256C244.036 106.651 243.855 107.184 243.833 107.856H242.073C242.105 106.64 242.468 105.712 243.161 105.072C243.865 104.421 244.756 104.096 245.833 104.096C246.996 104.096 247.903 104.416 248.553 105.056C249.215 105.696 249.545 106.549 249.545 107.616C249.545 108.384 249.348 109.125 248.953 109.84C248.569 110.544 248.105 111.179 247.561 111.744C247.028 112.299 246.345 112.944 245.513 113.68L244.793 114.32H249.865V115.84H242.089V114.512L243.241 113.52Z" fill="#212121"/>
<path d="M57.2653 152.848L55.3193 150.902C54.8433 151.033 54.358 151.098 53.8633 151.098C52.958 151.098 52.132 150.888 51.3853 150.468C50.6387 150.039 50.046 149.446 49.6073 148.69C49.178 147.925 48.9633 147.066 48.9633 146.114C48.9633 145.162 49.178 144.308 49.6073 143.552C50.046 142.787 50.6387 142.194 51.3853 141.774C52.132 141.345 52.958 141.13 53.8633 141.13C54.778 141.13 55.6087 141.345 56.3553 141.774C57.102 142.194 57.69 142.782 58.1193 143.538C58.5487 144.294 58.7633 145.153 58.7633 146.114C58.7633 147.047 58.558 147.887 58.1473 148.634C57.7367 149.381 57.172 149.969 56.4533 150.398L58.9173 152.848H57.2653ZM50.2653 146.114C50.2653 146.889 50.4193 147.57 50.7273 148.158C51.0447 148.746 51.474 149.199 52.0153 149.516C52.566 149.833 53.182 149.992 53.8633 149.992C54.5447 149.992 55.156 149.833 55.6973 149.516C56.248 149.199 56.6773 148.746 56.9853 148.158C57.3027 147.57 57.4613 146.889 57.4613 146.114C57.4613 145.33 57.3027 144.649 56.9853 144.07C56.6773 143.482 56.2527 143.029 55.7113 142.712C55.17 142.395 54.554 142.236 53.8633 142.236C53.1727 142.236 52.5567 142.395 52.0153 142.712C51.474 143.029 51.0447 143.482 50.7273 144.07C50.4193 144.649 50.2653 145.33 50.2653 146.114ZM60.2345 143.426C60.2999 142.567 60.6312 141.895 61.2285 141.41C61.8259 140.925 62.6005 140.682 63.5525 140.682C64.1872 140.682 64.7332 140.799 65.1905 141.032C65.6572 141.256 66.0072 141.564 66.2405 141.956C66.4832 142.348 66.6045 142.791 66.6045 143.286C66.6045 143.865 66.4365 144.364 66.1005 144.784C65.7739 145.204 65.3445 145.475 64.8125 145.596V145.666C65.4192 145.815 65.8999 146.109 66.2545 146.548C66.6092 146.987 66.7865 147.561 66.7865 148.27C66.7865 148.802 66.6652 149.283 66.4225 149.712C66.1799 150.132 65.8159 150.463 65.3305 150.706C64.8452 150.949 64.2619 151.07 63.5805 151.07C62.5912 151.07 61.7792 150.813 61.1445 150.3C60.5099 149.777 60.1552 149.04 60.0805 148.088H61.3125C61.3779 148.648 61.6065 149.105 61.9985 149.46C62.3905 149.815 62.9132 149.992 63.5665 149.992C64.2199 149.992 64.7145 149.824 65.0505 149.488C65.3959 149.143 65.5685 148.699 65.5685 148.158C65.5685 147.458 65.3352 146.954 64.8685 146.646C64.4019 146.338 63.6972 146.184 62.7545 146.184H62.4325V145.12H62.7685C63.6272 145.111 64.2759 144.971 64.7145 144.7C65.1532 144.42 65.3725 143.991 65.3725 143.412C65.3725 142.917 65.2092 142.521 64.8825 142.222C64.5652 141.923 64.1079 141.774 63.5105 141.774C62.9319 141.774 62.4652 141.923 62.1105 142.222C61.7559 142.521 61.5459 142.922 61.4805 143.426H60.2345Z" fill="black"/>
<rect x="76" y="141" width="267" height="10" rx="5" fill="#E0E0E0"/>
<rect x="76" y="141" width="57" height="10" rx="5" fill="#851D2D"/>
<path d="M351.583 142.04V140.878H354.215V151H352.927V142.04H351.583ZM356.403 145.834C356.403 144.229 356.664 142.978 357.187 142.082C357.71 141.177 358.624 140.724 359.931 140.724C361.228 140.724 362.138 141.177 362.661 142.082C363.184 142.978 363.445 144.229 363.445 145.834C363.445 147.467 363.184 148.737 362.661 149.642C362.138 150.547 361.228 151 359.931 151C358.624 151 357.71 150.547 357.187 149.642C356.664 148.737 356.403 147.467 356.403 145.834ZM362.185 145.834C362.185 145.022 362.129 144.336 362.017 143.776C361.914 143.207 361.695 142.749 361.359 142.404C361.032 142.059 360.556 141.886 359.931 141.886C359.296 141.886 358.811 142.059 358.475 142.404C358.148 142.749 357.929 143.207 357.817 143.776C357.714 144.336 357.663 145.022 357.663 145.834C357.663 146.674 357.714 147.379 357.817 147.948C357.929 148.517 358.148 148.975 358.475 149.32C358.811 149.665 359.296 149.838 359.931 149.838C360.556 149.838 361.032 149.665 361.359 149.32C361.695 148.975 361.914 148.517 362.017 147.948C362.129 147.379 362.185 146.674 362.185 145.834ZM364.914 143.16C364.914 142.525 365.106 142.021 365.488 141.648C365.871 141.265 366.361 141.074 366.958 141.074C367.556 141.074 368.046 141.265 368.428 141.648C368.811 142.021 369.002 142.525 369.002 143.16C369.002 143.804 368.811 144.317 368.428 144.7C368.046 145.073 367.556 145.26 366.958 145.26C366.361 145.26 365.871 145.073 365.488 144.7C365.106 144.317 364.914 143.804 364.914 143.16ZM373.09 141.228L367.42 151H366.16L371.83 141.228H373.09ZM366.958 141.858C366.641 141.858 366.389 141.97 366.202 142.194C366.025 142.409 365.936 142.731 365.936 143.16C365.936 143.589 366.025 143.916 366.202 144.14C366.389 144.364 366.641 144.476 366.958 144.476C367.276 144.476 367.528 144.364 367.714 144.14C367.901 143.907 367.994 143.58 367.994 143.16C367.994 142.731 367.901 142.409 367.714 142.194C367.528 141.97 367.276 141.858 366.958 141.858ZM370.276 149.068C370.276 148.424 370.468 147.915 370.85 147.542C371.233 147.159 371.723 146.968 372.32 146.968C372.918 146.968 373.403 147.159 373.776 147.542C374.159 147.915 374.35 148.424 374.35 149.068C374.35 149.703 374.159 150.211 373.776 150.594C373.403 150.977 372.918 151.168 372.32 151.168C371.723 151.168 371.233 150.981 370.85 150.608C370.468 150.225 370.276 149.712 370.276 149.068ZM372.306 147.766C371.989 147.766 371.737 147.878 371.55 148.102C371.364 148.317 371.27 148.639 371.27 149.068C371.27 149.488 371.364 149.81 371.55 150.034C371.737 150.249 371.989 150.356 372.306 150.356C372.624 150.356 372.876 150.249 373.062 150.034C373.249 149.81 373.342 149.488 373.342 149.068C373.342 148.639 373.249 148.317 373.062 148.102C372.876 147.878 372.624 147.766 372.306 147.766Z" fill="black"/>
<path d="M152.394 557.14C151.474 557.14 150.647 556.98 149.914 556.66C149.194 556.327 148.627 555.873 148.214 555.3C147.8 554.713 147.587 554.04 147.574 553.28H149.514C149.58 553.933 149.847 554.487 150.314 554.94C150.794 555.38 151.487 555.6 152.394 555.6C153.26 555.6 153.94 555.387 154.434 554.96C154.94 554.52 155.194 553.96 155.194 553.28C155.194 552.747 155.047 552.313 154.754 551.98C154.46 551.647 154.094 551.393 153.654 551.22C153.214 551.047 152.62 550.86 151.874 550.66C150.954 550.42 150.214 550.18 149.654 549.94C149.107 549.7 148.634 549.327 148.234 548.82C147.847 548.3 147.654 547.607 147.654 546.74C147.654 545.98 147.847 545.307 148.234 544.72C148.62 544.133 149.16 543.68 149.854 543.36C150.56 543.04 151.367 542.88 152.274 542.88C153.58 542.88 154.647 543.207 155.474 543.86C156.314 544.513 156.787 545.38 156.894 546.46H154.894C154.827 545.927 154.547 545.46 154.054 545.06C153.56 544.647 152.907 544.44 152.094 544.44C151.334 544.44 150.714 544.64 150.234 545.04C149.754 545.427 149.514 545.973 149.514 546.68C149.514 547.187 149.654 547.6 149.934 547.92C150.227 548.24 150.58 548.487 150.994 548.66C151.42 548.82 152.014 549.007 152.774 549.22C153.694 549.473 154.434 549.727 154.994 549.98C155.554 550.22 156.034 550.6 156.434 551.12C156.834 551.627 157.034 552.32 157.034 553.2C157.034 553.88 156.854 554.52 156.494 555.12C156.134 555.72 155.6 556.207 154.894 556.58C154.187 556.953 153.354 557.14 152.394 557.14ZM164.492 557.18C163.465 557.18 162.532 556.947 161.692 556.48C160.865 556.013 160.212 555.353 159.732 554.5C159.265 553.633 159.032 552.633 159.032 551.5C159.032 550.38 159.272 549.393 159.752 548.54C160.245 547.673 160.912 547.013 161.752 546.56C162.592 546.093 163.532 545.86 164.572 545.86C165.612 545.86 166.552 546.093 167.392 546.56C168.232 547.013 168.892 547.667 169.372 548.52C169.865 549.373 170.112 550.367 170.112 551.5C170.112 552.633 169.859 553.633 169.352 554.5C168.859 555.353 168.185 556.013 167.332 556.48C166.479 556.947 165.532 557.18 164.492 557.18ZM164.492 555.58C165.145 555.58 165.759 555.427 166.332 555.12C166.905 554.813 167.365 554.353 167.712 553.74C168.072 553.127 168.252 552.38 168.252 551.5C168.252 550.62 168.079 549.873 167.732 549.26C167.385 548.647 166.932 548.193 166.372 547.9C165.812 547.593 165.205 547.44 164.552 547.44C163.885 547.44 163.272 547.593 162.712 547.9C162.165 548.193 161.725 548.647 161.392 549.26C161.059 549.873 160.892 550.62 160.892 551.5C160.892 552.393 161.052 553.147 161.372 553.76C161.705 554.373 162.145 554.833 162.692 555.14C163.239 555.433 163.839 555.58 164.492 555.58ZM185.685 545.84C186.538 545.84 187.298 546.02 187.965 546.38C188.632 546.727 189.158 547.253 189.545 547.96C189.932 548.667 190.125 549.527 190.125 550.54V557H188.325V550.8C188.325 549.707 188.052 548.873 187.505 548.3C186.972 547.713 186.245 547.42 185.325 547.42C184.378 547.42 183.625 547.727 183.065 548.34C182.505 548.94 182.225 549.813 182.225 550.96V557H180.425V550.8C180.425 549.707 180.152 548.873 179.605 548.3C179.072 547.713 178.345 547.42 177.425 547.42C176.478 547.42 175.725 547.727 175.165 548.34C174.605 548.94 174.325 549.813 174.325 550.96V557H172.505V546.04H174.325V547.62C174.685 547.047 175.165 546.607 175.765 546.3C176.378 545.993 177.052 545.84 177.785 545.84C178.705 545.84 179.518 546.047 180.225 546.46C180.932 546.873 181.458 547.48 181.805 548.28C182.112 547.507 182.618 546.907 183.325 546.48C184.032 546.053 184.818 545.84 185.685 545.84ZM203.11 551.1C203.11 551.447 203.09 551.813 203.05 552.2H194.29C194.357 553.28 194.724 554.127 195.39 554.74C196.07 555.34 196.89 555.64 197.85 555.64C198.637 555.64 199.29 555.46 199.81 555.1C200.344 554.727 200.717 554.233 200.93 553.62H202.89C202.597 554.673 202.01 555.533 201.13 556.2C200.25 556.853 199.157 557.18 197.85 557.18C196.81 557.18 195.877 556.947 195.05 556.48C194.237 556.013 193.597 555.353 193.13 554.5C192.664 553.633 192.43 552.633 192.43 551.5C192.43 550.367 192.657 549.373 193.11 548.52C193.564 547.667 194.197 547.013 195.01 546.56C195.837 546.093 196.784 545.86 197.85 545.86C198.89 545.86 199.81 546.087 200.61 546.54C201.41 546.993 202.024 547.62 202.45 548.42C202.89 549.207 203.11 550.1 203.11 551.1ZM201.23 550.72C201.23 550.027 201.077 549.433 200.77 548.94C200.464 548.433 200.044 548.053 199.51 547.8C198.99 547.533 198.41 547.4 197.77 547.4C196.85 547.4 196.064 547.693 195.41 548.28C194.77 548.867 194.404 549.68 194.31 550.72H201.23ZM207.733 547.54V554C207.733 554.533 207.846 554.913 208.073 555.14C208.299 555.353 208.693 555.46 209.253 555.46H210.593V557H208.953C207.939 557 207.179 556.767 206.673 556.3C206.166 555.833 205.913 555.067 205.913 554V547.54H204.493V546.04H205.913V543.28H207.733V546.04H210.593V547.54H207.733ZM213.738 544.26C213.391 544.26 213.098 544.14 212.858 543.9C212.618 543.66 212.498 543.367 212.498 543.02C212.498 542.673 212.618 542.38 212.858 542.14C213.098 541.9 213.391 541.78 213.738 541.78C214.071 541.78 214.351 541.9 214.578 542.14C214.818 542.38 214.938 542.673 214.938 543.02C214.938 543.367 214.818 543.66 214.578 543.9C214.351 544.14 214.071 544.26 213.738 544.26ZM214.618 546.04V557H212.798V546.04H214.618ZM230.9 545.84C231.753 545.84 232.513 546.02 233.18 546.38C233.846 546.727 234.373 547.253 234.76 547.96C235.146 548.667 235.34 549.527 235.34 550.54V557H233.54V550.8C233.54 549.707 233.266 548.873 232.72 548.3C232.186 547.713 231.46 547.42 230.54 547.42C229.593 547.42 228.84 547.727 228.28 548.34C227.72 548.94 227.44 549.813 227.44 550.96V557H225.64V550.8C225.64 549.707 225.366 548.873 224.82 548.3C224.286 547.713 223.56 547.42 222.64 547.42C221.693 547.42 220.94 547.727 220.38 548.34C219.82 548.94 219.54 549.813 219.54 550.96V557H217.72V546.04H219.54V547.62C219.9 547.047 220.38 546.607 220.98 546.3C221.593 545.993 222.266 545.84 223 545.84C223.92 545.84 224.733 546.047 225.44 546.46C226.146 546.873 226.673 547.48 227.02 548.28C227.326 547.507 227.833 546.907 228.54 546.48C229.246 546.053 230.033 545.84 230.9 545.84ZM248.325 551.1C248.325 551.447 248.305 551.813 248.265 552.2H239.505C239.572 553.28 239.938 554.127 240.605 554.74C241.285 555.34 242.105 555.64 243.065 555.64C243.852 555.64 244.505 555.46 245.025 555.1C245.558 554.727 245.932 554.233 246.145 553.62H248.105C247.812 554.673 247.225 555.533 246.345 556.2C245.465 556.853 244.372 557.18 243.065 557.18C242.025 557.18 241.092 556.947 240.265 556.48C239.452 556.013 238.812 555.353 238.345 554.5C237.878 553.633 237.645 552.633 237.645 551.5C237.645 550.367 237.872 549.373 238.325 548.52C238.778 547.667 239.412 547.013 240.225 546.56C241.052 546.093 241.998 545.86 243.065 545.86C244.105 545.86 245.025 546.087 245.825 546.54C246.625 546.993 247.238 547.62 247.665 548.42C248.105 549.207 248.325 550.1 248.325 551.1ZM246.445 550.72C246.445 550.027 246.292 549.433 245.985 548.94C245.678 548.433 245.258 548.053 244.725 547.8C244.205 547.533 243.625 547.4 242.985 547.4C242.065 547.4 241.278 547.693 240.625 548.28C239.985 548.867 239.618 549.68 239.525 550.72H246.445ZM254.608 557.18C253.768 557.18 253.014 557.04 252.348 556.76C251.681 556.467 251.154 556.067 250.768 555.56C250.381 555.04 250.168 554.447 250.128 553.78H252.008C252.061 554.327 252.314 554.773 252.768 555.12C253.234 555.467 253.841 555.64 254.588 555.64C255.281 555.64 255.828 555.487 256.228 555.18C256.628 554.873 256.828 554.487 256.828 554.02C256.828 553.54 256.614 553.187 256.188 552.96C255.761 552.72 255.101 552.487 254.208 552.26C253.394 552.047 252.728 551.833 252.208 551.62C251.701 551.393 251.261 551.067 250.888 550.64C250.528 550.2 250.348 549.627 250.348 548.92C250.348 548.36 250.514 547.847 250.848 547.38C251.181 546.913 251.654 546.547 252.268 546.28C252.881 546 253.581 545.86 254.368 545.86C255.581 545.86 256.561 546.167 257.308 546.78C258.054 547.393 258.454 548.233 258.508 549.3H256.688C256.648 548.727 256.414 548.267 255.988 547.92C255.574 547.573 255.014 547.4 254.308 547.4C253.654 547.4 253.134 547.54 252.748 547.82C252.361 548.1 252.168 548.467 252.168 548.92C252.168 549.28 252.281 549.58 252.508 549.82C252.748 550.047 253.041 550.233 253.388 550.38C253.748 550.513 254.241 550.667 254.868 550.84C255.654 551.053 256.294 551.267 256.788 551.48C257.281 551.68 257.701 551.987 258.048 552.4C258.408 552.813 258.594 553.353 258.608 554.02C258.608 554.62 258.441 555.16 258.108 555.64C257.774 556.12 257.301 556.5 256.688 556.78C256.088 557.047 255.394 557.18 254.608 557.18ZM267.089 557.12C266.742 557.12 266.449 557 266.209 556.76C265.969 556.52 265.849 556.227 265.849 555.88C265.849 555.533 265.969 555.24 266.209 555C266.449 554.76 266.742 554.64 267.089 554.64C267.422 554.64 267.702 554.76 267.929 555C268.169 555.24 268.289 555.533 268.289 555.88C268.289 556.227 268.169 556.52 267.929 556.76C267.702 557 267.422 557.12 267.089 557.12ZM271.288 557.12C270.941 557.12 270.648 557 270.408 556.76C270.168 556.52 270.048 556.227 270.048 555.88C270.048 555.533 270.168 555.24 270.408 555C270.648 554.76 270.941 554.64 271.288 554.64C271.621 554.64 271.901 554.76 272.128 555C272.368 555.24 272.488 555.533 272.488 555.88C272.488 556.227 272.368 556.52 272.128 556.76C271.901 557 271.621 557.12 271.288 557.12ZM275.487 557.12C275.141 557.12 274.847 557 274.607 556.76C274.367 556.52 274.247 556.227 274.247 555.88C274.247 555.533 274.367 555.24 274.607 555C274.847 554.76 275.141 554.64 275.487 554.64C275.821 554.64 276.101 554.76 276.327 555C276.567 555.24 276.687 555.533 276.687 555.88C276.687 556.227 276.567 556.52 276.327 556.76C276.101 557 275.821 557.12 275.487 557.12Z" fill="#212121"/>
<path fill-rule="evenodd" clip-rule="evenodd" d="M273.475 462.33C273.418 462.316 273.361 462.304 273.303 462.294L264.67 460.781C264.148 457.398 261.46 454.602 257.887 453.916L253.787 453.128C251.526 452.694 249.227 453.137 247.317 454.377C246.654 454.807 246.073 455.318 245.57 455.887C245.374 453.438 244.044 451.111 241.788 449.666L237.641 447.011C247.058 438.32 253.112 424.872 253.112 409.804V409.04C271.717 405.508 279.44 400.439 279.921 400.114C280.826 399.501 281.256 398.423 281.01 397.386C280.763 396.348 279.889 395.556 278.797 395.381L250.198 390.788V384.962C250.198 383.554 249.172 382.373 247.801 382.068L242.191 347.938C241.777 345.416 240.355 343.214 238.188 341.737C236.021 340.26 233.388 339.698 230.773 340.155L212.498 343.347L194.222 340.155C191.607 339.698 188.975 340.261 186.807 341.737C184.64 343.215 183.218 345.416 182.804 347.938L177.194 382.068C175.823 382.373 174.797 383.554 174.797 384.962V390.788L146.198 395.381C145.106 395.556 144.232 396.349 143.985 397.386C143.739 398.423 144.169 399.5 145.075 400.114C145.555 400.439 153.278 405.508 171.883 409.04V409.804C171.883 424.872 177.937 438.32 187.354 447.011L183.208 449.666C180.951 451.111 179.622 453.438 179.425 455.888C178.923 455.318 178.341 454.807 177.679 454.377C175.769 453.137 173.47 452.693 171.209 453.128L167.108 453.916C163.536 454.602 160.848 457.398 160.326 460.781L151.693 462.294C151.635 462.304 151.578 462.316 151.521 462.33C141.205 464.807 134 473.671 134 483.884V493.778C134 498.311 137.84 502 142.56 502H282.436C287.156 502 290.996 498.311 290.996 493.778V483.884C290.996 473.671 283.791 464.807 273.475 462.33ZM249.064 460.643C249.218 459.856 249.684 459.175 250.375 458.726C251.066 458.278 251.896 458.117 252.715 458.275L256.816 459.062C258.258 459.34 259.305 460.566 259.305 461.978V496.751H242.016L249.064 460.643ZM239.811 457.835C235.747 465.647 231.444 473.917 229.175 478.273C224.489 474.316 220.219 471.888 217.29 470.493L236.159 452.369L238.758 454.034C240.054 454.863 240.506 456.498 239.811 457.835ZM244.735 387.237V390.386H180.261V387.237H244.735ZM188.201 348.757C188.384 347.643 189.012 346.67 189.969 346.018C190.927 345.365 192.089 345.118 193.244 345.318L211.941 348.584C214.818 349.19 218.958 351.733 220.312 352.664C220.794 352.996 221.351 353.156 221.902 353.156C222.752 353.156 223.591 352.776 224.125 352.062C225.004 350.884 224.723 349.245 223.497 348.4C223.296 348.261 222.551 347.756 221.481 347.112L231.75 345.319C232.906 345.118 234.068 345.366 235.025 346.018C235.983 346.671 236.611 347.643 236.794 348.757L242.256 381.989H182.738L188.201 348.757ZM177.817 395.631L177.833 395.632C177.853 395.633 177.873 395.634 177.893 395.634H247.102C247.138 395.634 247.172 395.631 247.208 395.629L269.405 399.194C260.366 402.544 242.445 407.181 212.498 407.181C182.545 407.181 164.623 402.543 155.59 399.195L177.788 395.629C177.797 395.629 177.807 395.63 177.817 395.631ZM212.498 457.214C217.356 457.214 222.018 456.212 226.34 454.377L212.498 467.674L198.655 454.377C202.977 456.212 207.639 457.214 212.498 457.214ZM186.238 454.033L188.837 452.369L207.706 470.493C204.776 471.887 200.506 474.315 195.82 478.273C194.173 475.111 191.006 469.026 185.184 457.835C184.489 456.498 184.941 454.863 186.238 454.033ZM168.179 459.063L172.28 458.275C173.098 458.118 173.929 458.278 174.62 458.727C175.311 459.175 175.777 459.856 175.931 460.643L182.98 496.752H165.69V461.979C165.69 460.566 166.737 459.34 168.179 459.063ZM139.464 493.778V483.884C139.464 476.11 144.928 469.36 152.763 467.441L160.226 466.134V496.752H142.56C140.852 496.752 139.464 495.418 139.464 493.778ZM285.532 493.778C285.532 495.418 284.143 496.752 282.436 496.752H264.769V466.134L272.232 467.441C280.068 469.36 285.532 476.11 285.532 483.884V493.778ZM177.348 409.979C182.563 410.785 188.492 411.455 195.195 411.89L200.659 412.181C204.388 412.34 208.327 412.429 212.498 412.429C216.668 412.429 220.608 412.34 224.336 412.181L229.8 411.89C236.504 411.455 242.433 410.785 247.647 409.979C247.568 433.147 231.832 451.966 212.498 451.966C193.164 451.966 177.427 433.147 177.348 409.979ZM194.575 485.171C193.195 484.956 192.738 484.081 192.209 483.068L182.061 463.571L188.538 496.752H236.457L242.933 463.574C241.098 467.101 238.922 471.284 237.027 474.925L232.786 483.068C232.257 484.082 231.799 484.957 230.42 485.172C230.274 485.195 230.127 485.206 229.982 485.206C229.269 485.206 228.578 484.938 228.063 484.449C223.096 479.741 215.747 474.183 212.607 472.6C209.464 474.183 201.899 479.741 196.932 484.449C196.417 484.937 195.725 485.205 195.013 485.205C194.868 485.205 194.721 485.194 194.575 485.171Z" fill="#851D2D"/>
<path d="M212.497 440.42C207.351 440.42 202.542 439.206 199.304 437.089C198.057 436.274 197.733 434.641 198.583 433.443C199.432 432.246 201.131 431.935 202.378 432.751C204.698 434.267 208.48 435.172 212.497 435.172C216.514 435.172 220.297 434.267 222.617 432.751C223.865 431.935 225.564 432.246 226.412 433.444C227.262 434.642 226.938 436.274 225.691 437.09C222.452 439.206 217.644 440.42 212.497 440.42Z" fill="#851D2D"/>
<g filter="url(#filter0_d_168_6638)">
<rect x="30" y="819" width="364" height="49" rx="12" fill="#851D2D" shape-rendering="crispEdges"/>
<path d="M185.42 850.5H183.14L176.28 840.12V850.5H174V836.58H176.28L183.14 846.94V836.58H185.42V850.5ZM198.514 844.72C198.514 845.133 198.487 845.507 198.434 845.84H190.014C190.081 846.72 190.407 847.427 190.994 847.96C191.581 848.493 192.301 848.76 193.154 848.76C194.381 848.76 195.247 848.247 195.754 847.22H198.214C197.881 848.233 197.274 849.067 196.394 849.72C195.527 850.36 194.447 850.68 193.154 850.68C192.101 850.68 191.154 850.447 190.314 849.98C189.487 849.5 188.834 848.833 188.354 847.98C187.887 847.113 187.654 846.113 187.654 844.98C187.654 843.847 187.881 842.853 188.334 842C188.801 841.133 189.447 840.467 190.274 840C191.114 839.533 192.074 839.3 193.154 839.3C194.194 839.3 195.121 839.527 195.934 839.98C196.747 840.433 197.381 841.073 197.834 841.9C198.287 842.713 198.514 843.653 198.514 844.72ZM196.134 844C196.121 843.16 195.821 842.487 195.234 841.98C194.647 841.473 193.921 841.22 193.054 841.22C192.267 841.22 191.594 841.473 191.034 841.98C190.474 842.473 190.141 843.147 190.034 844H196.134ZM205.478 844.92L209.038 850.5H206.458L204.078 846.76L201.838 850.5H199.458L203.018 845.08L199.458 839.48H202.038L204.418 843.22L206.658 839.48H209.038L205.478 844.92ZM213.398 841.34V847.44C213.398 847.853 213.492 848.153 213.678 848.34C213.878 848.513 214.212 848.6 214.678 848.6H216.078V850.5H214.278C213.252 850.5 212.465 850.26 211.918 849.78C211.372 849.3 211.098 848.52 211.098 847.44V841.34H209.798V839.48H211.098V836.74H213.398V839.48H216.078V841.34H213.398Z" fill="#F5F5F5"/>
<path fill-rule="evenodd" clip-rule="evenodd" d="M236.151 849.224C235.807 848.866 235.818 848.296 236.176 847.951L240.902 843.5L236.176 839.049C235.818 838.704 235.807 838.134 236.151 837.776C236.496 837.418 237.066 837.407 237.424 837.751L242.824 842.851C243 843.021 243.1 843.255 243.1 843.5C243.1 843.745 243 843.979 242.824 844.149L237.424 849.249C237.066 849.593 236.496 849.582 236.151 849.224Z" fill="#FAFAFA"/>
</g>
<rect width="423" height="44" fill="#FAFAFA"/>
<rect opacity="0.35" x="384.834" y="18.5" width="21" height="10.3333" rx="2.16667" stroke="black"/>
<path opacity="0.4" d="M407.334 21.6667V25.6667C408.139 25.328 408.662 24.5399 408.662 23.6667C408.662 22.7936 408.139 22.0055 407.334 21.6667Z" fill="black"/>
<rect x="386.334" y="20" width="18" height="7.33333" rx="1.33333" fill="black"/>
<path d="M369.448 26.4267C370.729 25.3444 372.605 25.3444 373.886 26.4267C373.95 26.4849 373.987 26.5675 373.989 26.6542C373.991 26.7409 373.956 26.824 373.895 26.8847L371.89 28.9072C371.831 28.9666 371.751 28.9999 371.667 28.9999C371.583 28.9999 371.503 28.9666 371.444 28.9072L369.438 26.8847C369.377 26.824 369.343 26.7407 369.345 26.6542C369.347 26.5675 369.384 26.4848 369.448 26.4267ZM366.772 23.7294C369.532 21.165 373.804 21.1651 376.563 23.7294C376.626 23.7896 376.661 23.8724 376.662 23.9589C376.663 24.0453 376.629 24.1281 376.568 24.1894L375.409 25.3603C375.29 25.4796 375.097 25.4814 374.975 25.3652C374.069 24.5454 372.889 24.0917 371.667 24.0917C370.446 24.0923 369.268 24.5461 368.362 25.3652C368.24 25.4815 368.046 25.4798 367.927 25.3603L366.769 24.1894C366.707 24.1282 366.673 24.0453 366.674 23.9589C366.675 23.8724 366.71 23.7895 366.772 23.7294ZM364.097 21.039C368.328 16.9869 375.004 16.9871 379.236 21.039C379.298 21.0992 379.333 21.1817 379.333 21.2675C379.333 21.3533 379.3 21.4361 379.239 21.497L378.079 22.6669C377.96 22.787 377.765 22.7881 377.644 22.6699C376.031 21.1384 373.892 20.2842 371.667 20.2841C369.442 20.2841 367.302 21.1382 365.689 22.6699C365.568 22.7882 365.374 22.787 365.255 22.6669L364.094 21.497C364.033 21.4361 364 21.3532 364 21.2675C364.001 21.1817 364.035 21.0991 364.097 21.039Z" fill="black"/>
<path d="M344 24.667C344.552 24.667 345 25.1147 345 25.667V27.667C345 28.2191 344.552 28.667 344 28.667H343C342.448 28.667 342 28.2191 342 27.667V25.667C342 25.1147 342.448 24.667 343 24.667H344ZM348.667 22.667C349.219 22.6672 349.667 23.1148 349.667 23.667V27.667C349.667 28.219 349.219 28.6668 348.667 28.667H347.667C347.115 28.667 346.667 28.2191 346.667 27.667V23.667C346.667 23.1147 347.115 22.667 347.667 22.667H348.667ZM353.333 20.333C353.885 20.333 354.333 20.7809 354.333 21.333V27.667C354.333 28.2191 353.885 28.667 353.333 28.667H352.333C351.781 28.6668 351.333 28.219 351.333 27.667V21.333C351.333 20.781 351.781 20.3332 352.333 20.333H353.333ZM358 18C358.552 18 359 18.4477 359 19V27.667C359 28.2191 358.552 28.667 358 28.667H357C356.448 28.667 356 28.2191 356 27.667V19C356 18.4477 356.448 18 357 18H358Z" fill="black"/>
<path d="M36.856 18.1675C34.5635 18.1675 32.9302 19.7349 32.9302 21.8809V21.8955C32.9302 23.9023 34.3511 25.3818 36.3799 25.3818C37.8301 25.3818 38.7529 24.6421 39.1411 23.8071H39.2876C39.2876 23.8877 39.2803 23.9683 39.2803 24.0488C39.1997 26.0703 38.4893 27.7109 36.812 27.7109C35.8818 27.7109 35.23 27.2275 34.9517 26.4878L34.9297 26.4146H33.0693L33.084 26.4951C33.4209 28.1138 34.8711 29.2637 36.812 29.2637C39.4707 29.2637 41.0747 27.1543 41.0747 23.5947V23.5801C41.0747 19.7715 39.1118 18.1675 36.856 18.1675ZM36.8486 23.9316C35.6475 23.9316 34.7759 23.0527 34.7759 21.8296V21.8149C34.7759 20.6357 35.7061 19.7056 36.8706 19.7056C38.0425 19.7056 38.958 20.6504 38.958 21.8589V21.8735C38.958 23.0674 38.0425 23.9316 36.8486 23.9316ZM44.2331 23.7046C44.907 23.7046 45.3977 23.1992 45.3977 22.5547C45.3977 21.9028 44.907 21.3975 44.2331 21.3975C43.5666 21.3975 43.0686 21.9028 43.0686 22.5547C43.0686 23.1992 43.5666 23.7046 44.2331 23.7046ZM44.2331 29.1465C44.907 29.1465 45.3977 28.6338 45.3977 27.9893C45.3977 27.3374 44.907 26.832 44.2331 26.832C43.5666 26.832 43.0686 27.3374 43.0686 27.9893C43.0686 28.6338 43.5666 29.1465 44.2331 29.1465ZM52.2988 29H54.1079V26.9712H55.5288V25.4111H54.1079V18.4312H51.4346C49.999 20.6138 48.4975 23.0454 47.1279 25.4258V26.9712H52.2988V29ZM48.8857 25.4551V25.3452C49.9111 23.5508 51.1343 21.5952 52.2182 19.9399H52.3281V25.4551H48.8857ZM59.6687 29H61.5583V18.4312H59.676L56.9148 20.3721V22.1519L59.5442 20.2915H59.6687V29Z" fill="black"/>
<rect width="375" height="34" transform="translate(22 868)" fill="#FAFAFA"/>
<rect x="143" y="889" width="134" height="5" rx="2.5" fill="black"/>
<defs>
<filter id="filter0_d_168_6638" x="26" y="815" width="372" height="57" filterUnits="userSpaceOnUse" color-interpolation-filters="sRGB">
<feFlood flood-opacity="0" result="BackgroundImageFix"/>
<feColorMatrix in="SourceAlpha" type="matrix" values="0 0 0 0 0 0 0 0 0 0 0 0 0 0 0 0 0 0 127 0" result="hardAlpha"/>
<feOffset/>
<feGaussianBlur stdDeviation="2"/>
<feComposite in2="hardAlpha" operator="out"/>
<feColorMatrix type="matrix" values="0 0 0 0 0 0 0 0 0 0 0 0 0 0 0 0 0 0 0.15 0"/>
<feBlend mode="normal" in2="BackgroundImageFix" result="effect1_dropShadow_168_6638"/>
<feBlend mode="normal" in="SourceGraphic" in2="effect1_dropShadow_168_6638" result="shape"/>
</filter>
</defs>
</svg>
