<svg width="423" height="914" viewBox="0 0 423 914" fill="none" xmlns="http://www.w3.org/2000/svg">
<rect width="422" height="914" transform="translate(1)" fill="#FAFAFA"/>
<path fill-rule="evenodd" clip-rule="evenodd" d="M54.4697 59.4697C54.7626 59.1768 55.2374 59.1768 55.5303 59.4697L61 64.9393L66.4697 59.4697C66.7626 59.1768 67.2374 59.1768 67.5303 59.4697C67.8232 59.7626 67.8232 60.2374 67.5303 60.5303L62.0607 66L67.5303 71.4697C67.8232 71.7626 67.8232 72.2374 67.5303 72.5303C67.2374 72.8232 66.7626 72.8232 66.4697 72.5303L61 67.0607L55.5303 72.5303C55.2374 72.8232 54.7626 72.8232 54.4697 72.5303C54.1768 72.2374 54.1768 71.7626 54.4697 71.4697L59.9393 66L54.4697 60.5303C54.1768 60.2374 54.1768 59.7626 54.4697 59.4697Z" fill="#0F172A"/>
<path d="M184.835 51.4C184.582 50.9333 184.215 50.58 183.735 50.34C183.269 50.0867 182.715 49.96 182.075 49.96C180.969 49.96 180.082 50.3267 179.415 51.06C178.749 51.78 178.415 52.7467 178.415 53.96C178.415 55.2533 178.762 56.2667 179.455 57C180.162 57.72 181.129 58.08 182.355 58.08C183.195 58.08 183.902 57.8667 184.475 57.44C185.062 57.0133 185.489 56.4 185.755 55.6H181.415V53.08H188.855V56.26C188.602 57.1133 188.169 57.9067 187.555 58.64C186.955 59.3733 186.189 59.9667 185.255 60.42C184.322 60.8733 183.269 61.1 182.095 61.1C180.709 61.1 179.469 60.8 178.375 60.2C177.295 59.5867 176.449 58.74 175.835 57.66C175.235 56.58 174.935 55.3467 174.935 53.96C174.935 52.5733 175.235 51.34 175.835 50.26C176.449 49.1667 177.295 48.32 178.375 47.72C179.455 47.1067 180.689 46.8 182.075 46.8C183.755 46.8 185.169 47.2067 186.315 48.02C187.475 48.8333 188.242 49.96 188.615 51.4H184.835ZM194.17 51.7C194.57 51.0867 195.07 50.6067 195.67 50.26C196.27 49.9 196.936 49.72 197.67 49.72V53.34H196.73C195.876 53.34 195.236 53.5267 194.81 53.9C194.383 54.26 194.17 54.9 194.17 55.82V61H190.75V49.84H194.17V51.7ZM204.384 61.16C203.291 61.16 202.304 60.9267 201.424 60.46C200.558 59.9933 199.871 59.3267 199.364 58.46C198.871 57.5933 198.624 56.58 198.624 55.42C198.624 54.2733 198.878 53.2667 199.384 52.4C199.891 51.52 200.584 50.8467 201.464 50.38C202.344 49.9133 203.331 49.68 204.424 49.68C205.518 49.68 206.504 49.9133 207.384 50.38C208.264 50.8467 208.958 51.52 209.464 52.4C209.971 53.2667 210.224 54.2733 210.224 55.42C210.224 56.5667 209.964 57.58 209.444 58.46C208.938 59.3267 208.238 59.9933 207.344 60.46C206.464 60.9267 205.478 61.16 204.384 61.16ZM204.384 58.2C205.038 58.2 205.591 57.96 206.044 57.48C206.511 57 206.744 56.3133 206.744 55.42C206.744 54.5267 206.518 53.84 206.064 53.36C205.624 52.88 205.078 52.64 204.424 52.64C203.758 52.64 203.204 52.88 202.764 53.36C202.324 53.8267 202.104 54.5133 202.104 55.42C202.104 56.3133 202.318 57 202.744 57.48C203.184 57.96 203.731 58.2 204.384 58.2ZM228.059 49.84L225.039 61H221.259L219.499 53.76L217.679 61H213.919L210.879 49.84H214.299L215.879 57.82L217.759 49.84H221.379L223.279 57.78L224.839 49.84H228.059ZM235.583 58.1V61H233.843C232.603 61 231.636 60.7 230.943 60.1C230.25 59.4867 229.903 58.4933 229.903 57.12V52.68H228.543V49.84H229.903V47.12H233.323V49.84H235.563V52.68H233.323V57.16C233.323 57.4933 233.403 57.7333 233.563 57.88C233.723 58.0267 233.99 58.1 234.363 58.1H235.583ZM244.348 49.72C245.628 49.72 246.655 50.1467 247.428 51C248.201 51.84 248.588 53 248.588 54.48V61H245.188V54.94C245.188 54.1933 244.995 53.6133 244.608 53.2C244.221 52.7867 243.701 52.58 243.048 52.58C242.395 52.58 241.875 52.7867 241.488 53.2C241.101 53.6133 240.908 54.1933 240.908 54.94V61H237.488V46.2H240.908V51.34C241.255 50.8467 241.728 50.4533 242.328 50.16C242.928 49.8667 243.601 49.72 244.348 49.72ZM156.931 77.14C155.611 77.14 154.397 76.8333 153.291 76.22C152.197 75.6067 151.324 74.7533 150.671 73.66C150.031 72.5533 149.711 71.3133 149.711 69.94C149.711 68.5667 150.031 67.3333 150.671 66.24C151.324 65.1467 152.197 64.2933 153.291 63.68C154.397 63.0667 155.611 62.76 156.931 62.76C158.251 62.76 159.457 63.0667 160.551 63.68C161.657 64.2933 162.524 65.1467 163.151 66.24C163.791 67.3333 164.111 68.5667 164.111 69.94C164.111 71.3133 163.791 72.5533 163.151 73.66C162.511 74.7533 161.644 75.6067 160.551 76.22C159.457 76.8333 158.251 77.14 156.931 77.14ZM156.931 74.02C158.051 74.02 158.944 73.6467 159.611 72.9C160.291 72.1533 160.631 71.1667 160.631 69.94C160.631 68.7 160.291 67.7133 159.611 66.98C158.944 66.2333 158.051 65.86 156.931 65.86C155.797 65.86 154.891 66.2267 154.211 66.96C153.544 67.6933 153.211 68.6867 153.211 69.94C153.211 71.18 153.544 72.1733 154.211 72.92C154.891 73.6533 155.797 74.02 156.931 74.02ZM169.433 67.42C169.767 66.9 170.227 66.48 170.813 66.16C171.4 65.84 172.087 65.68 172.873 65.68C173.793 65.68 174.627 65.9133 175.373 66.38C176.12 66.8467 176.707 67.5133 177.133 68.38C177.573 69.2467 177.793 70.2533 177.793 71.4C177.793 72.5467 177.573 73.56 177.133 74.44C176.707 75.3067 176.12 75.98 175.373 76.46C174.627 76.9267 173.793 77.16 172.873 77.16C172.1 77.16 171.413 77 170.813 76.68C170.227 76.36 169.767 75.9467 169.433 75.44V82.32H166.013V65.84H169.433V67.42ZM174.313 71.4C174.313 70.5467 174.073 69.88 173.593 69.4C173.127 68.9067 172.547 68.66 171.853 68.66C171.173 68.66 170.593 68.9067 170.113 69.4C169.647 69.8933 169.413 70.5667 169.413 71.42C169.413 72.2733 169.647 72.9467 170.113 73.44C170.593 73.9333 171.173 74.18 171.853 74.18C172.533 74.18 173.113 73.9333 173.593 73.44C174.073 72.9333 174.313 72.2533 174.313 71.4ZM183.008 67.42C183.341 66.9 183.801 66.48 184.388 66.16C184.974 65.84 185.661 65.68 186.448 65.68C187.368 65.68 188.201 65.9133 188.948 66.38C189.694 66.8467 190.281 67.5133 190.708 68.38C191.148 69.2467 191.368 70.2533 191.368 71.4C191.368 72.5467 191.148 73.56 190.708 74.44C190.281 75.3067 189.694 75.98 188.948 76.46C188.201 76.9267 187.368 77.16 186.448 77.16C185.674 77.16 184.988 77 184.388 76.68C183.801 76.36 183.341 75.9467 183.008 75.44V82.32H179.588V65.84H183.008V67.42ZM187.888 71.4C187.888 70.5467 187.648 69.88 187.168 69.4C186.701 68.9067 186.121 68.66 185.428 68.66C184.748 68.66 184.168 68.9067 183.688 69.4C183.221 69.8933 182.988 70.5667 182.988 71.42C182.988 72.2733 183.221 72.9467 183.688 73.44C184.168 73.9333 184.748 74.18 185.428 74.18C186.108 74.18 186.688 73.9333 187.168 73.44C187.648 72.9333 187.888 72.2533 187.888 71.4ZM198.242 77.16C197.149 77.16 196.162 76.9267 195.282 76.46C194.415 75.9933 193.729 75.3267 193.222 74.46C192.729 73.5933 192.482 72.58 192.482 71.42C192.482 70.2733 192.735 69.2667 193.242 68.4C193.749 67.52 194.442 66.8467 195.322 66.38C196.202 65.9133 197.189 65.68 198.282 65.68C199.375 65.68 200.362 65.9133 201.242 66.38C202.122 66.8467 202.815 67.52 203.322 68.4C203.829 69.2667 204.082 70.2733 204.082 71.42C204.082 72.5667 203.822 73.58 203.302 74.46C202.795 75.3267 202.095 75.9933 201.202 76.46C200.322 76.9267 199.335 77.16 198.242 77.16ZM198.242 74.2C198.895 74.2 199.449 73.96 199.902 73.48C200.369 73 200.602 72.3133 200.602 71.42C200.602 70.5267 200.375 69.84 199.922 69.36C199.482 68.88 198.935 68.64 198.282 68.64C197.615 68.64 197.062 68.88 196.622 69.36C196.182 69.8267 195.962 70.5133 195.962 71.42C195.962 72.3133 196.175 73 196.602 73.48C197.042 73.96 197.589 74.2 198.242 74.2ZM209.316 67.7C209.716 67.0867 210.216 66.6067 210.816 66.26C211.416 65.9 212.083 65.72 212.816 65.72V69.34H211.876C211.023 69.34 210.383 69.5267 209.956 69.9C209.53 70.26 209.316 70.9 209.316 71.82V77H205.896V65.84H209.316V67.7ZM220.671 74.1V77H218.931C217.691 77 216.724 76.7 216.031 76.1C215.338 75.4867 214.991 74.4933 214.991 73.12V68.68H213.631V65.84H214.991V63.12H218.411V65.84H220.651V68.68H218.411V73.16C218.411 73.4933 218.491 73.7333 218.651 73.88C218.811 74.0267 219.078 74.1 219.451 74.1H220.671ZM233.596 65.84V77H230.176V75.48C229.829 75.9733 229.356 76.3733 228.756 76.68C228.169 76.9733 227.516 77.12 226.796 77.12C225.943 77.12 225.189 76.9333 224.536 76.56C223.883 76.1733 223.376 75.62 223.016 74.9C222.656 74.18 222.476 73.3333 222.476 72.36V65.84H225.876V71.9C225.876 72.6467 226.069 73.2267 226.456 73.64C226.843 74.0533 227.363 74.26 228.016 74.26C228.683 74.26 229.209 74.0533 229.596 73.64C229.983 73.2267 230.176 72.6467 230.176 71.9V65.84H233.596ZM242.853 65.72C244.159 65.72 245.199 66.1467 245.973 67C246.759 67.84 247.153 69 247.153 70.48V77H243.753V70.94C243.753 70.1933 243.559 69.6133 243.173 69.2C242.786 68.7867 242.266 68.58 241.613 68.58C240.959 68.58 240.439 68.7867 240.053 69.2C239.666 69.6133 239.473 70.1933 239.473 70.94V77H236.053V65.84H239.473V67.32C239.819 66.8267 240.286 66.44 240.873 66.16C241.459 65.8667 242.119 65.72 242.853 65.72ZM251.249 64.68C250.649 64.68 250.156 64.5067 249.769 64.16C249.396 63.8 249.209 63.36 249.209 62.84C249.209 62.3067 249.396 61.8667 249.769 61.52C250.156 61.16 250.649 60.98 251.249 60.98C251.836 60.98 252.316 61.16 252.689 61.52C253.076 61.8667 253.269 62.3067 253.269 62.84C253.269 63.36 253.076 63.8 252.689 64.16C252.316 64.5067 251.836 64.68 251.249 64.68ZM252.949 65.84V77H249.529V65.84H252.949ZM261.648 74.1V77H259.908C258.668 77 257.701 76.7 257.008 76.1C256.314 75.4867 255.968 74.4933 255.968 73.12V68.68H254.608V65.84H255.968V63.12H259.388V65.84H261.628V68.68H259.388V73.16C259.388 73.4933 259.468 73.7333 259.628 73.88C259.788 74.0267 260.054 74.1 260.428 74.1H261.648ZM274.953 65.84L267.953 82.3H264.273L266.833 76.62L262.292 65.84H266.113L268.693 72.82L271.253 65.84H274.953Z" fill="#851D2D"/>
<path d="M175.516 106.352V109.616H179.356V111.104H175.516V114.512H179.836V116H173.692V104.864H179.836V106.352H175.516ZM185.859 111.536L188.707 116H186.643L184.739 113.008L182.947 116H181.043L183.891 111.664L181.043 107.184H183.107L185.011 110.176L186.803 107.184H188.707L185.859 111.536ZM198.147 111.376C198.147 111.707 198.126 112.005 198.083 112.272H191.347C191.401 112.976 191.662 113.541 192.131 113.968C192.601 114.395 193.177 114.608 193.859 114.608C194.841 114.608 195.534 114.197 195.939 113.376H197.907C197.641 114.187 197.155 114.853 196.451 115.376C195.758 115.888 194.894 116.144 193.859 116.144C193.017 116.144 192.259 115.957 191.587 115.584C190.926 115.2 190.403 114.667 190.019 113.984C189.646 113.291 189.459 112.491 189.459 111.584C189.459 110.677 189.641 109.883 190.003 109.2C190.377 108.507 190.894 107.973 191.555 107.6C192.227 107.227 192.995 107.04 193.859 107.04C194.691 107.04 195.433 107.221 196.083 107.584C196.734 107.947 197.241 108.459 197.603 109.12C197.966 109.771 198.147 110.523 198.147 111.376ZM196.243 110.8C196.233 110.128 195.993 109.589 195.523 109.184C195.054 108.779 194.473 108.576 193.779 108.576C193.15 108.576 192.611 108.779 192.163 109.184C191.715 109.579 191.449 110.117 191.363 110.8H196.243ZM201.766 108.464C202.033 108.016 202.385 107.669 202.822 107.424C203.27 107.168 203.798 107.04 204.406 107.04V108.928H203.942C203.228 108.928 202.684 109.109 202.31 109.472C201.948 109.835 201.766 110.464 201.766 111.36V116H199.942V107.184H201.766V108.464ZM205.475 111.584C205.475 110.677 205.656 109.883 206.019 109.2C206.392 108.507 206.904 107.973 207.555 107.6C208.205 107.227 208.952 107.04 209.795 107.04C210.861 107.04 211.741 107.296 212.435 107.808C213.139 108.309 213.613 109.029 213.859 109.968H211.891C211.731 109.531 211.475 109.189 211.123 108.944C210.771 108.699 210.328 108.576 209.795 108.576C209.048 108.576 208.451 108.843 208.003 109.376C207.565 109.899 207.347 110.635 207.347 111.584C207.347 112.533 207.565 113.275 208.003 113.808C208.451 114.341 209.048 114.608 209.795 114.608C210.851 114.608 211.549 114.144 211.891 113.216H213.859C213.603 114.112 213.123 114.827 212.419 115.36C211.715 115.883 210.84 116.144 209.795 116.144C208.952 116.144 208.205 115.957 207.555 115.584C206.904 115.2 206.392 114.667 206.019 113.984C205.656 113.291 205.475 112.491 205.475 111.584ZM216.605 106.016C216.274 106.016 215.997 105.904 215.773 105.68C215.549 105.456 215.437 105.179 215.437 104.848C215.437 104.517 215.549 104.24 215.773 104.016C215.997 103.792 216.274 103.68 216.605 103.68C216.925 103.68 217.197 103.792 217.421 104.016C217.645 104.24 217.757 104.517 217.757 104.848C217.757 105.179 217.645 105.456 217.421 105.68C217.197 105.904 216.925 106.016 216.605 106.016ZM217.501 107.184V116H215.677V107.184H217.501ZM223.095 116.144C222.402 116.144 221.778 116.021 221.223 115.776C220.679 115.52 220.247 115.179 219.927 114.752C219.607 114.315 219.437 113.829 219.415 113.296H221.303C221.335 113.669 221.511 113.984 221.831 114.24C222.162 114.485 222.573 114.608 223.063 114.608C223.575 114.608 223.97 114.512 224.247 114.32C224.535 114.117 224.679 113.861 224.679 113.552C224.679 113.221 224.519 112.976 224.199 112.816C223.89 112.656 223.394 112.48 222.711 112.288C222.05 112.107 221.511 111.931 221.095 111.76C220.679 111.589 220.317 111.328 220.007 110.976C219.709 110.624 219.559 110.16 219.559 109.584C219.559 109.115 219.698 108.688 219.975 108.304C220.253 107.909 220.647 107.6 221.159 107.376C221.682 107.152 222.279 107.04 222.951 107.04C223.954 107.04 224.759 107.296 225.367 107.808C225.986 108.309 226.317 108.997 226.359 109.872H224.535C224.503 109.477 224.343 109.163 224.055 108.928C223.767 108.693 223.378 108.576 222.887 108.576C222.407 108.576 222.039 108.667 221.783 108.848C221.527 109.029 221.399 109.269 221.399 109.568C221.399 109.803 221.485 110 221.655 110.16C221.826 110.32 222.034 110.448 222.279 110.544C222.525 110.629 222.887 110.741 223.367 110.88C224.007 111.051 224.53 111.227 224.935 111.408C225.351 111.579 225.709 111.835 226.007 112.176C226.306 112.517 226.461 112.971 226.471 113.536C226.471 114.037 226.333 114.485 226.055 114.88C225.778 115.275 225.383 115.584 224.871 115.808C224.37 116.032 223.778 116.144 223.095 116.144ZM236.522 111.376C236.522 111.707 236.501 112.005 236.458 112.272H229.722C229.776 112.976 230.037 113.541 230.506 113.968C230.976 114.395 231.552 114.608 232.234 114.608C233.216 114.608 233.909 114.197 234.314 113.376H236.282C236.016 114.187 235.53 114.853 234.826 115.376C234.133 115.888 233.269 116.144 232.234 116.144C231.392 116.144 230.634 115.957 229.962 115.584C229.301 115.2 228.778 114.667 228.394 113.984C228.021 113.291 227.834 112.491 227.834 111.584C227.834 110.677 228.016 109.883 228.378 109.2C228.752 108.507 229.269 107.973 229.93 107.6C230.602 107.227 231.37 107.04 232.234 107.04C233.066 107.04 233.808 107.221 234.458 107.584C235.109 107.947 235.616 108.459 235.978 109.12C236.341 109.771 236.522 110.523 236.522 111.376ZM234.618 110.8C234.608 110.128 234.368 109.589 233.898 109.184C233.429 108.779 232.848 108.576 232.154 108.576C231.525 108.576 230.986 108.779 230.538 109.184C230.09 109.579 229.824 110.117 229.738 110.8H234.618ZM243.241 113.52C244.265 112.635 245.071 111.909 245.657 111.344C246.255 110.768 246.751 110.171 247.145 109.552C247.54 108.933 247.737 108.315 247.737 107.696C247.737 107.056 247.583 106.555 247.273 106.192C246.975 105.829 246.5 105.648 245.849 105.648C245.22 105.648 244.729 105.851 244.377 106.256C244.036 106.651 243.855 107.184 243.833 107.856H242.073C242.105 106.64 242.468 105.712 243.161 105.072C243.865 104.421 244.756 104.096 245.833 104.096C246.996 104.096 247.903 104.416 248.553 105.056C249.215 105.696 249.545 106.549 249.545 107.616C249.545 108.384 249.348 109.125 248.953 109.84C248.569 110.544 248.105 111.179 247.561 111.744C247.028 112.299 246.345 112.944 245.513 113.68L244.793 114.32H249.865V115.84H242.089V114.512L243.241 113.52Z" fill="#212121"/>
<path d="M57.2653 152.848L55.3193 150.902C54.8433 151.033 54.358 151.098 53.8633 151.098C52.958 151.098 52.132 150.888 51.3853 150.468C50.6387 150.039 50.046 149.446 49.6073 148.69C49.178 147.925 48.9633 147.066 48.9633 146.114C48.9633 145.162 49.178 144.308 49.6073 143.552C50.046 142.787 50.6387 142.194 51.3853 141.774C52.132 141.345 52.958 141.13 53.8633 141.13C54.778 141.13 55.6087 141.345 56.3553 141.774C57.102 142.194 57.69 142.782 58.1193 143.538C58.5487 144.294 58.7633 145.153 58.7633 146.114C58.7633 147.047 58.558 147.887 58.1473 148.634C57.7367 149.381 57.172 149.969 56.4533 150.398L58.9173 152.848H57.2653ZM50.2653 146.114C50.2653 146.889 50.4193 147.57 50.7273 148.158C51.0447 148.746 51.474 149.199 52.0153 149.516C52.566 149.833 53.182 149.992 53.8633 149.992C54.5447 149.992 55.156 149.833 55.6973 149.516C56.248 149.199 56.6773 148.746 56.9853 148.158C57.3027 147.57 57.4613 146.889 57.4613 146.114C57.4613 145.33 57.3027 144.649 56.9853 144.07C56.6773 143.482 56.2527 143.029 55.7113 142.712C55.17 142.395 54.554 142.236 53.8633 142.236C53.1727 142.236 52.5567 142.395 52.0153 142.712C51.474 143.029 51.0447 143.482 50.7273 144.07C50.4193 144.649 50.2653 145.33 50.2653 146.114ZM60.2345 143.426C60.2999 142.567 60.6312 141.895 61.2285 141.41C61.8259 140.925 62.6005 140.682 63.5525 140.682C64.1872 140.682 64.7332 140.799 65.1905 141.032C65.6572 141.256 66.0072 141.564 66.2405 141.956C66.4832 142.348 66.6045 142.791 66.6045 143.286C66.6045 143.865 66.4365 144.364 66.1005 144.784C65.7739 145.204 65.3445 145.475 64.8125 145.596V145.666C65.4192 145.815 65.8999 146.109 66.2545 146.548C66.6092 146.987 66.7865 147.561 66.7865 148.27C66.7865 148.802 66.6652 149.283 66.4225 149.712C66.1799 150.132 65.8159 150.463 65.3305 150.706C64.8452 150.949 64.2619 151.07 63.5805 151.07C62.5912 151.07 61.7792 150.813 61.1445 150.3C60.5099 149.777 60.1552 149.04 60.0805 148.088H61.3125C61.3779 148.648 61.6065 149.105 61.9985 149.46C62.3905 149.815 62.9132 149.992 63.5665 149.992C64.2199 149.992 64.7145 149.824 65.0505 149.488C65.3959 149.143 65.5685 148.699 65.5685 148.158C65.5685 147.458 65.3352 146.954 64.8685 146.646C64.4019 146.338 63.6972 146.184 62.7545 146.184H62.4325V145.12H62.7685C63.6272 145.111 64.2759 144.971 64.7145 144.7C65.1532 144.42 65.3725 143.991 65.3725 143.412C65.3725 142.917 65.2092 142.521 64.8825 142.222C64.5652 141.923 64.1079 141.774 63.5105 141.774C62.9319 141.774 62.4652 141.923 62.1105 142.222C61.7559 142.521 61.5459 142.922 61.4805 143.426H60.2345Z" fill="black"/>
<rect x="76" y="141" width="267" height="10" rx="5" fill="#E0E0E0"/>
<rect x="76" y="141" width="57" height="10" rx="5" fill="#851D2D"/>
<path d="M351.583 142.04V140.878H354.215V151H352.927V142.04H351.583ZM356.403 145.834C356.403 144.229 356.664 142.978 357.187 142.082C357.71 141.177 358.624 140.724 359.931 140.724C361.228 140.724 362.138 141.177 362.661 142.082C363.184 142.978 363.445 144.229 363.445 145.834C363.445 147.467 363.184 148.737 362.661 149.642C362.138 150.547 361.228 151 359.931 151C358.624 151 357.71 150.547 357.187 149.642C356.664 148.737 356.403 147.467 356.403 145.834ZM362.185 145.834C362.185 145.022 362.129 144.336 362.017 143.776C361.914 143.207 361.695 142.749 361.359 142.404C361.032 142.059 360.556 141.886 359.931 141.886C359.296 141.886 358.811 142.059 358.475 142.404C358.148 142.749 357.929 143.207 357.817 143.776C357.714 144.336 357.663 145.022 357.663 145.834C357.663 146.674 357.714 147.379 357.817 147.948C357.929 148.517 358.148 148.975 358.475 149.32C358.811 149.665 359.296 149.838 359.931 149.838C360.556 149.838 361.032 149.665 361.359 149.32C361.695 148.975 361.914 148.517 362.017 147.948C362.129 147.379 362.185 146.674 362.185 145.834ZM364.914 143.16C364.914 142.525 365.106 142.021 365.488 141.648C365.871 141.265 366.361 141.074 366.958 141.074C367.556 141.074 368.046 141.265 368.428 141.648C368.811 142.021 369.002 142.525 369.002 143.16C369.002 143.804 368.811 144.317 368.428 144.7C368.046 145.073 367.556 145.26 366.958 145.26C366.361 145.26 365.871 145.073 365.488 144.7C365.106 144.317 364.914 143.804 364.914 143.16ZM373.09 141.228L367.42 151H366.16L371.83 141.228H373.09ZM366.958 141.858C366.641 141.858 366.389 141.97 366.202 142.194C366.025 142.409 365.936 142.731 365.936 143.16C365.936 143.589 366.025 143.916 366.202 144.14C366.389 144.364 366.641 144.476 366.958 144.476C367.276 144.476 367.528 144.364 367.714 144.14C367.901 143.907 367.994 143.58 367.994 143.16C367.994 142.731 367.901 142.409 367.714 142.194C367.528 141.97 367.276 141.858 366.958 141.858ZM370.276 149.068C370.276 148.424 370.468 147.915 370.85 147.542C371.233 147.159 371.723 146.968 372.32 146.968C372.918 146.968 373.403 147.159 373.776 147.542C374.159 147.915 374.35 148.424 374.35 149.068C374.35 149.703 374.159 150.211 373.776 150.594C373.403 150.977 372.918 151.168 372.32 151.168C371.723 151.168 371.233 150.981 370.85 150.608C370.468 150.225 370.276 149.712 370.276 149.068ZM372.306 147.766C371.989 147.766 371.737 147.878 371.55 148.102C371.364 148.317 371.27 148.639 371.27 149.068C371.27 149.488 371.364 149.81 371.55 150.034C371.737 150.249 371.989 150.356 372.306 150.356C372.624 150.356 372.876 150.249 373.062 150.034C373.249 149.81 373.342 149.488 373.342 149.068C373.342 148.639 373.249 148.317 373.062 148.102C372.876 147.878 372.624 147.766 372.306 147.766Z" fill="black"/>
<path d="M103.873 543.06L99.8325 557H97.7925L94.5525 545.78L91.1925 557L89.1725 557.02L85.2725 543.06H87.2125L90.2525 554.88L93.6125 543.06H95.6525L98.8525 554.84L101.913 543.06H103.873ZM110.644 557.18C109.618 557.18 108.684 556.947 107.844 556.48C107.018 556.013 106.364 555.353 105.884 554.5C105.418 553.633 105.184 552.633 105.184 551.5C105.184 550.38 105.424 549.393 105.904 548.54C106.398 547.673 107.064 547.013 107.904 546.56C108.744 546.093 109.684 545.86 110.724 545.86C111.764 545.86 112.704 546.093 113.544 546.56C114.384 547.013 115.044 547.667 115.524 548.52C116.018 549.373 116.264 550.367 116.264 551.5C116.264 552.633 116.011 553.633 115.504 554.5C115.011 555.353 114.338 556.013 113.484 556.48C112.631 556.947 111.684 557.18 110.644 557.18ZM110.644 555.58C111.298 555.58 111.911 555.427 112.484 555.12C113.058 554.813 113.518 554.353 113.864 553.74C114.224 553.127 114.404 552.38 114.404 551.5C114.404 550.62 114.231 549.873 113.884 549.26C113.538 548.647 113.084 548.193 112.524 547.9C111.964 547.593 111.358 547.44 110.704 547.44C110.038 547.44 109.424 547.593 108.864 547.9C108.318 548.193 107.878 548.647 107.544 549.26C107.211 549.873 107.044 550.62 107.044 551.5C107.044 552.393 107.204 553.147 107.524 553.76C107.858 554.373 108.298 554.833 108.844 555.14C109.391 555.433 109.991 555.58 110.644 555.58ZM133.257 546.04L129.837 557H127.957L125.317 548.3L122.677 557H120.797L117.357 546.04H119.217L121.737 555.24L124.457 546.04H126.317L128.977 555.26L131.457 546.04H133.257ZM137.423 543.06L137.203 553.06H135.683L135.463 543.06H137.423ZM136.523 557.12C136.177 557.12 135.883 557 135.643 556.76C135.403 556.52 135.283 556.227 135.283 555.88C135.283 555.533 135.403 555.24 135.643 555C135.883 554.76 136.177 554.64 136.523 554.64C136.857 554.64 137.137 554.76 137.363 555C137.603 555.24 137.723 555.533 137.723 555.88C137.723 556.227 137.603 556.52 137.363 556.76C137.137 557 136.857 557.12 136.523 557.12ZM148.173 543.06V557H146.353V543.06H148.173ZM151.554 543.06H153.574L151.654 547.6H150.374L151.554 543.06ZM168.829 545.84C169.683 545.84 170.443 546.02 171.109 546.38C171.776 546.727 172.303 547.253 172.689 547.96C173.076 548.667 173.269 549.527 173.269 550.54V557H171.469V550.8C171.469 549.707 171.196 548.873 170.649 548.3C170.116 547.713 169.389 547.42 168.469 547.42C167.523 547.42 166.769 547.727 166.209 548.34C165.649 548.94 165.369 549.813 165.369 550.96V557H163.569V550.8C163.569 549.707 163.296 548.873 162.749 548.3C162.216 547.713 161.489 547.42 160.569 547.42C159.623 547.42 158.869 547.727 158.309 548.34C157.749 548.94 157.469 549.813 157.469 550.96V557H155.649V546.04H157.469V547.62C157.829 547.047 158.309 546.607 158.909 546.3C159.523 545.993 160.196 545.84 160.929 545.84C161.849 545.84 162.663 546.047 163.369 546.46C164.076 546.873 164.603 547.48 164.949 548.28C165.256 547.507 165.763 546.907 166.469 546.48C167.176 546.053 167.963 545.84 168.829 545.84ZM183.407 548.06C183.767 547.433 184.3 546.913 185.007 546.5C185.727 546.073 186.56 545.86 187.507 545.86C188.48 545.86 189.36 546.093 190.147 546.56C190.947 547.027 191.574 547.687 192.027 548.54C192.48 549.38 192.707 550.36 192.707 551.48C192.707 552.587 192.48 553.573 192.027 554.44C191.574 555.307 190.947 555.98 190.147 556.46C189.36 556.94 188.48 557.18 187.507 557.18C186.574 557.18 185.747 556.973 185.027 556.56C184.32 556.133 183.78 555.607 183.407 554.98V562.2H181.587V546.04H183.407V548.06ZM190.847 551.48C190.847 550.653 190.68 549.933 190.347 549.32C190.014 548.707 189.56 548.24 188.987 547.92C188.427 547.6 187.807 547.44 187.127 547.44C186.46 547.44 185.84 547.607 185.267 547.94C184.707 548.26 184.254 548.733 183.907 549.36C183.574 549.973 183.407 550.687 183.407 551.5C183.407 552.327 183.574 553.053 183.907 553.68C184.254 554.293 184.707 554.767 185.267 555.1C185.84 555.42 186.46 555.58 187.127 555.58C187.807 555.58 188.427 555.42 188.987 555.1C189.56 554.767 190.014 554.293 190.347 553.68C190.68 553.053 190.847 552.32 190.847 551.48ZM196.923 547.82C197.243 547.193 197.696 546.707 198.283 546.36C198.883 546.013 199.609 545.84 200.463 545.84V547.72H199.983C197.943 547.72 196.923 548.827 196.923 551.04V557H195.103V546.04H196.923V547.82ZM207.343 557.18C206.317 557.18 205.383 556.947 204.543 556.48C203.717 556.013 203.063 555.353 202.583 554.5C202.117 553.633 201.883 552.633 201.883 551.5C201.883 550.38 202.123 549.393 202.603 548.54C203.097 547.673 203.763 547.013 204.603 546.56C205.443 546.093 206.383 545.86 207.423 545.86C208.463 545.86 209.403 546.093 210.243 546.56C211.083 547.013 211.743 547.667 212.223 548.52C212.717 549.373 212.963 550.367 212.963 551.5C212.963 552.633 212.71 553.633 212.203 554.5C211.71 555.353 211.037 556.013 210.183 556.48C209.33 556.947 208.383 557.18 207.343 557.18ZM207.343 555.58C207.997 555.58 208.61 555.427 209.183 555.12C209.757 554.813 210.217 554.353 210.563 553.74C210.923 553.127 211.103 552.38 211.103 551.5C211.103 550.62 210.93 549.873 210.583 549.26C210.237 548.647 209.783 548.193 209.223 547.9C208.663 547.593 208.057 547.44 207.403 547.44C206.737 547.44 206.123 547.593 205.563 547.9C205.017 548.193 204.577 548.647 204.243 549.26C203.91 549.873 203.743 550.62 203.743 551.5C203.743 552.393 203.903 553.147 204.223 553.76C204.557 554.373 204.997 554.833 205.543 555.14C206.09 555.433 206.69 555.58 207.343 555.58ZM225.076 546.04V557H223.256V555.38C222.91 555.94 222.423 556.38 221.796 556.7C221.183 557.007 220.503 557.16 219.756 557.16C218.903 557.16 218.136 556.987 217.456 556.64C216.776 556.28 216.236 555.747 215.836 555.04C215.45 554.333 215.256 553.473 215.256 552.46V546.04H217.056V552.22C217.056 553.3 217.33 554.133 217.876 554.72C218.423 555.293 219.17 555.58 220.116 555.58C221.09 555.58 221.856 555.28 222.416 554.68C222.976 554.08 223.256 553.207 223.256 552.06V546.04H225.076ZM227.469 551.48C227.469 550.36 227.696 549.38 228.149 548.54C228.603 547.687 229.223 547.027 230.009 546.56C230.809 546.093 231.703 545.86 232.689 545.86C233.543 545.86 234.336 546.06 235.069 546.46C235.803 546.847 236.363 547.36 236.749 548V542.2H238.589V557H236.749V554.94C236.389 555.593 235.856 556.133 235.149 556.56C234.443 556.973 233.616 557.18 232.669 557.18C231.696 557.18 230.809 556.94 230.009 556.46C229.223 555.98 228.603 555.307 228.149 554.44C227.696 553.573 227.469 552.587 227.469 551.48ZM236.749 551.5C236.749 550.673 236.583 549.953 236.249 549.34C235.916 548.727 235.463 548.26 234.889 547.94C234.329 547.607 233.709 547.44 233.029 547.44C232.349 547.44 231.729 547.6 231.169 547.92C230.609 548.24 230.163 548.707 229.829 549.32C229.496 549.933 229.329 550.653 229.329 551.48C229.329 552.32 229.496 553.053 229.829 553.68C230.163 554.293 230.609 554.767 231.169 555.1C231.729 555.42 232.349 555.58 233.029 555.58C233.709 555.58 234.329 555.42 234.889 555.1C235.463 554.767 235.916 554.293 236.249 553.68C236.583 553.053 236.749 552.327 236.749 551.5ZM251.777 557.18C250.75 557.18 249.817 556.947 248.977 556.48C248.15 556.013 247.497 555.353 247.017 554.5C246.55 553.633 246.317 552.633 246.317 551.5C246.317 550.38 246.557 549.393 247.037 548.54C247.53 547.673 248.197 547.013 249.037 546.56C249.877 546.093 250.817 545.86 251.857 545.86C252.897 545.86 253.837 546.093 254.677 546.56C255.517 547.013 256.177 547.667 256.657 548.52C257.15 549.373 257.397 550.367 257.397 551.5C257.397 552.633 257.144 553.633 256.637 554.5C256.144 555.353 255.47 556.013 254.617 556.48C253.764 556.947 252.817 557.18 251.777 557.18ZM251.777 555.58C252.43 555.58 253.044 555.427 253.617 555.12C254.19 554.813 254.65 554.353 254.997 553.74C255.357 553.127 255.537 552.38 255.537 551.5C255.537 550.62 255.364 549.873 255.017 549.26C254.67 548.647 254.217 548.193 253.657 547.9C253.097 547.593 252.49 547.44 251.837 547.44C251.17 547.44 250.557 547.593 249.997 547.9C249.45 548.193 249.01 548.647 248.677 549.26C248.344 549.873 248.177 550.62 248.177 551.5C248.177 552.393 248.337 553.147 248.657 553.76C248.99 554.373 249.43 554.833 249.977 555.14C250.524 555.433 251.124 555.58 251.777 555.58ZM264.25 547.54H261.95V557H260.13V547.54H258.71V546.04H260.13V545.26C260.13 544.033 260.443 543.14 261.07 542.58C261.71 542.007 262.73 541.72 264.13 541.72V543.24C263.33 543.24 262.763 543.4 262.43 543.72C262.11 544.027 261.95 544.54 261.95 545.26V546.04H264.25V547.54ZM281.144 546.04L274.544 562.16H272.664L274.824 556.88L270.404 546.04H272.424L275.864 554.92L279.264 546.04H281.144ZM287.754 557.18C286.727 557.18 285.794 556.947 284.954 556.48C284.127 556.013 283.474 555.353 282.994 554.5C282.527 553.633 282.294 552.633 282.294 551.5C282.294 550.38 282.534 549.393 283.014 548.54C283.507 547.673 284.174 547.013 285.014 546.56C285.854 546.093 286.794 545.86 287.834 545.86C288.874 545.86 289.814 546.093 290.654 546.56C291.494 547.013 292.154 547.667 292.634 548.52C293.127 549.373 293.374 550.367 293.374 551.5C293.374 552.633 293.12 553.633 292.614 554.5C292.12 555.353 291.447 556.013 290.594 556.48C289.74 556.947 288.794 557.18 287.754 557.18ZM287.754 555.58C288.407 555.58 289.02 555.427 289.594 555.12C290.167 554.813 290.627 554.353 290.974 553.74C291.334 553.127 291.514 552.38 291.514 551.5C291.514 550.62 291.34 549.873 290.994 549.26C290.647 548.647 290.194 548.193 289.634 547.9C289.074 547.593 288.467 547.44 287.814 547.44C287.147 547.44 286.534 547.593 285.974 547.9C285.427 548.193 284.987 548.647 284.654 549.26C284.32 549.873 284.154 550.62 284.154 551.5C284.154 552.393 284.314 553.147 284.634 553.76C284.967 554.373 285.407 554.833 285.954 555.14C286.5 555.433 287.1 555.58 287.754 555.58ZM305.487 546.04V557H303.667V555.38C303.32 555.94 302.833 556.38 302.207 556.7C301.593 557.007 300.913 557.16 300.167 557.16C299.313 557.16 298.547 556.987 297.867 556.64C297.187 556.28 296.647 555.747 296.247 555.04C295.86 554.333 295.667 553.473 295.667 552.46V546.04H297.467V552.22C297.467 553.3 297.74 554.133 298.287 554.72C298.833 555.293 299.58 555.58 300.527 555.58C301.5 555.58 302.267 555.28 302.827 554.68C303.387 554.08 303.667 553.207 303.667 552.06V546.04H305.487ZM318.352 547.54H316.052V557H314.232V547.54H312.812V546.04H314.232V545.26C314.232 544.033 314.545 543.14 315.172 542.58C315.812 542.007 316.832 541.72 318.232 541.72V543.24C317.432 543.24 316.865 543.4 316.532 543.72C316.212 544.027 316.052 544.54 316.052 545.26V546.04H318.352V547.54ZM325.254 557.18C324.227 557.18 323.294 556.947 322.454 556.48C321.627 556.013 320.974 555.353 320.494 554.5C320.027 553.633 319.794 552.633 319.794 551.5C319.794 550.38 320.034 549.393 320.514 548.54C321.007 547.673 321.674 547.013 322.514 546.56C323.354 546.093 324.294 545.86 325.334 545.86C326.374 545.86 327.314 546.093 328.154 546.56C328.994 547.013 329.654 547.667 330.134 548.52C330.627 549.373 330.874 550.367 330.874 551.5C330.874 552.633 330.62 553.633 330.114 554.5C329.62 555.353 328.947 556.013 328.094 556.48C327.24 556.947 326.294 557.18 325.254 557.18ZM325.254 555.58C325.907 555.58 326.52 555.427 327.094 555.12C327.667 554.813 328.127 554.353 328.474 553.74C328.834 553.127 329.014 552.38 329.014 551.5C329.014 550.62 328.84 549.873 328.494 549.26C328.147 548.647 327.694 548.193 327.134 547.9C326.574 547.593 325.967 547.44 325.314 547.44C324.647 547.44 324.034 547.593 323.474 547.9C322.927 548.193 322.487 548.647 322.154 549.26C321.82 549.873 321.654 550.62 321.654 551.5C321.654 552.393 321.814 553.147 322.134 553.76C322.467 554.373 322.907 554.833 323.454 555.14C324 555.433 324.6 555.58 325.254 555.58ZM335.087 547.82C335.407 547.193 335.86 546.707 336.447 546.36C337.047 546.013 337.773 545.84 338.627 545.84V547.72H338.147C336.107 547.72 335.087 548.827 335.087 551.04V557H333.267V546.04H335.087V547.82ZM87.5666 567.54V574C87.5666 574.533 87.68 574.913 87.9066 575.14C88.1333 575.353 88.5266 575.46 89.0866 575.46H90.4266V577H88.7866C87.7733 577 87.0133 576.767 86.5066 576.3C86 575.833 85.7466 575.067 85.7466 574V567.54H84.3266V566.04H85.7466V563.28H87.5666V566.04H90.4266V567.54H87.5666ZM94.4518 567.82C94.7718 567.193 95.2251 566.707 95.8118 566.36C96.4118 566.013 97.1385 565.84 97.9918 565.84V567.72H97.5118C95.4718 567.72 94.4518 568.827 94.4518 571.04V577H92.6318V566.04H94.4518V567.82ZM109.533 566.04L102.933 582.16H101.053L103.213 576.88L98.7927 566.04H100.813L104.253 574.92L107.653 566.04H109.533ZM112.302 564.26C111.956 564.26 111.662 564.14 111.422 563.9C111.182 563.66 111.062 563.367 111.062 563.02C111.062 562.673 111.182 562.38 111.422 562.14C111.662 561.9 111.956 561.78 112.302 561.78C112.636 561.78 112.916 561.9 113.142 562.14C113.382 562.38 113.502 562.673 113.502 563.02C113.502 563.367 113.382 563.66 113.142 563.9C112.916 564.14 112.636 564.26 112.302 564.26ZM113.182 566.04V577H111.362V566.04H113.182ZM121.624 565.84C122.957 565.84 124.037 566.247 124.864 567.06C125.691 567.86 126.104 569.02 126.104 570.54V577H124.304V570.8C124.304 569.707 124.031 568.873 123.484 568.3C122.937 567.713 122.191 567.42 121.244 567.42C120.284 567.42 119.517 567.72 118.944 568.32C118.384 568.92 118.104 569.793 118.104 570.94V577H116.284V566.04H118.104V567.6C118.464 567.04 118.951 566.607 119.564 566.3C120.191 565.993 120.877 565.84 121.624 565.84ZM133.597 565.86C134.544 565.86 135.37 566.067 136.077 566.48C136.797 566.893 137.33 567.413 137.677 568.04V566.04H139.517V577.24C139.517 578.24 139.304 579.127 138.877 579.9C138.45 580.687 137.837 581.3 137.037 581.74C136.25 582.18 135.33 582.4 134.277 582.4C132.837 582.4 131.637 582.06 130.677 581.38C129.717 580.7 129.15 579.773 128.977 578.6H130.777C130.977 579.267 131.39 579.8 132.017 580.2C132.644 580.613 133.397 580.82 134.277 580.82C135.277 580.82 136.09 580.507 136.717 579.88C137.357 579.253 137.677 578.373 137.677 577.24V574.94C137.317 575.58 136.784 576.113 136.077 576.54C135.37 576.967 134.544 577.18 133.597 577.18C132.624 577.18 131.737 576.94 130.937 576.46C130.15 575.98 129.53 575.307 129.077 574.44C128.624 573.573 128.397 572.587 128.397 571.48C128.397 570.36 128.624 569.38 129.077 568.54C129.53 567.687 130.15 567.027 130.937 566.56C131.737 566.093 132.624 565.86 133.597 565.86ZM137.677 571.5C137.677 570.673 137.51 569.953 137.177 569.34C136.844 568.727 136.39 568.26 135.817 567.94C135.257 567.607 134.637 567.44 133.957 567.44C133.277 567.44 132.657 567.6 132.097 567.92C131.537 568.24 131.09 568.707 130.757 569.32C130.424 569.933 130.257 570.653 130.257 571.48C130.257 572.32 130.424 573.053 130.757 573.68C131.09 574.293 131.537 574.767 132.097 575.1C132.657 575.42 133.277 575.58 133.957 575.58C134.637 575.58 135.257 575.42 135.817 575.1C136.39 574.767 136.844 574.293 137.177 573.68C137.51 573.053 137.677 572.327 137.677 571.5ZM150.145 567.54V574C150.145 574.533 150.258 574.913 150.485 575.14C150.711 575.353 151.105 575.46 151.665 575.46H153.005V577H151.365C150.351 577 149.591 576.767 149.085 576.3C148.578 575.833 148.325 575.067 148.325 574V567.54H146.905V566.04H148.325V563.28H150.145V566.04H153.005V567.54H150.145ZM159.99 577.18C158.963 577.18 158.03 576.947 157.19 576.48C156.363 576.013 155.71 575.353 155.23 574.5C154.763 573.633 154.53 572.633 154.53 571.5C154.53 570.38 154.77 569.393 155.25 568.54C155.743 567.673 156.41 567.013 157.25 566.56C158.09 566.093 159.03 565.86 160.07 565.86C161.11 565.86 162.05 566.093 162.89 566.56C163.73 567.013 164.39 567.667 164.87 568.52C165.363 569.373 165.61 570.367 165.61 571.5C165.61 572.633 165.357 573.633 164.85 574.5C164.357 575.353 163.683 576.013 162.83 576.48C161.977 576.947 161.03 577.18 159.99 577.18ZM159.99 575.58C160.643 575.58 161.257 575.427 161.83 575.12C162.403 574.813 162.863 574.353 163.21 573.74C163.57 573.127 163.75 572.38 163.75 571.5C163.75 570.62 163.577 569.873 163.23 569.26C162.883 568.647 162.43 568.193 161.87 567.9C161.31 567.593 160.703 567.44 160.05 567.44C159.383 567.44 158.77 567.593 158.21 567.9C157.663 568.193 157.223 568.647 156.89 569.26C156.557 569.873 156.39 570.62 156.39 571.5C156.39 572.393 156.55 573.147 156.87 573.76C157.203 574.373 157.643 574.833 158.19 575.14C158.737 575.433 159.337 575.58 159.99 575.58ZM175.155 568.08C175.528 567.427 176.075 566.893 176.795 566.48C177.515 566.067 178.335 565.86 179.255 565.86C180.242 565.86 181.128 566.093 181.915 566.56C182.702 567.027 183.322 567.687 183.775 568.54C184.228 569.38 184.455 570.36 184.455 571.48C184.455 572.587 184.228 573.573 183.775 574.44C183.322 575.307 182.695 575.98 181.895 576.46C181.108 576.94 180.228 577.18 179.255 577.18C178.308 577.18 177.475 576.973 176.755 576.56C176.048 576.147 175.515 575.62 175.155 574.98V577H173.335V562.2H175.155V568.08ZM182.595 571.48C182.595 570.653 182.428 569.933 182.095 569.32C181.762 568.707 181.308 568.24 180.735 567.92C180.175 567.6 179.555 567.44 178.875 567.44C178.208 567.44 177.588 567.607 177.015 567.94C176.455 568.26 176.002 568.733 175.655 569.36C175.322 569.973 175.155 570.687 175.155 571.5C175.155 572.327 175.322 573.053 175.655 573.68C176.002 574.293 176.455 574.767 177.015 575.1C177.588 575.42 178.208 575.58 178.875 575.58C179.555 575.58 180.175 575.42 180.735 575.1C181.308 574.767 181.762 574.293 182.095 573.68C182.428 573.053 182.595 572.32 182.595 571.48ZM196.851 571.1C196.851 571.447 196.831 571.813 196.791 572.2H188.031C188.097 573.28 188.464 574.127 189.131 574.74C189.811 575.34 190.631 575.64 191.591 575.64C192.377 575.64 193.031 575.46 193.551 575.1C194.084 574.727 194.457 574.233 194.671 573.62H196.631C196.337 574.673 195.751 575.533 194.871 576.2C193.991 576.853 192.897 577.18 191.591 577.18C190.551 577.18 189.617 576.947 188.791 576.48C187.977 576.013 187.337 575.353 186.871 574.5C186.404 573.633 186.171 572.633 186.171 571.5C186.171 570.367 186.397 569.373 186.851 568.52C187.304 567.667 187.937 567.013 188.751 566.56C189.577 566.093 190.524 565.86 191.591 565.86C192.631 565.86 193.551 566.087 194.351 566.54C195.151 566.993 195.764 567.62 196.191 568.42C196.631 569.207 196.851 570.1 196.851 571.1ZM194.971 570.72C194.971 570.027 194.817 569.433 194.511 568.94C194.204 568.433 193.784 568.053 193.251 567.8C192.731 567.533 192.151 567.4 191.511 567.4C190.591 567.4 189.804 567.693 189.151 568.28C188.511 568.867 188.144 569.68 188.051 570.72H194.971ZM198.573 571.5C198.573 570.367 198.8 569.38 199.253 568.54C199.706 567.687 200.333 567.027 201.133 566.56C201.946 566.093 202.873 565.86 203.913 565.86C205.26 565.86 206.366 566.187 207.233 566.84C208.113 567.493 208.693 568.4 208.973 569.56H207.013C206.826 568.893 206.46 568.367 205.913 567.98C205.38 567.593 204.713 567.4 203.913 567.4C202.873 567.4 202.033 567.76 201.393 568.48C200.753 569.187 200.433 570.193 200.433 571.5C200.433 572.82 200.753 573.84 201.393 574.56C202.033 575.28 202.873 575.64 203.913 575.64C204.713 575.64 205.38 575.453 205.913 575.08C206.446 574.707 206.813 574.173 207.013 573.48H208.973C208.68 574.6 208.093 575.5 207.213 576.18C206.333 576.847 205.233 577.18 203.913 577.18C202.873 577.18 201.946 576.947 201.133 576.48C200.333 576.013 199.706 575.353 199.253 574.5C198.8 573.647 198.573 572.647 198.573 571.5ZM216.181 577.18C215.155 577.18 214.221 576.947 213.381 576.48C212.555 576.013 211.901 575.353 211.421 574.5C210.955 573.633 210.721 572.633 210.721 571.5C210.721 570.38 210.961 569.393 211.441 568.54C211.935 567.673 212.601 567.013 213.441 566.56C214.281 566.093 215.221 565.86 216.261 565.86C217.301 565.86 218.241 566.093 219.081 566.56C219.921 567.013 220.581 567.667 221.061 568.52C221.555 569.373 221.801 570.367 221.801 571.5C221.801 572.633 221.548 573.633 221.041 574.5C220.548 575.353 219.875 576.013 219.021 576.48C218.168 576.947 217.221 577.18 216.181 577.18ZM216.181 575.58C216.835 575.58 217.448 575.427 218.021 575.12C218.595 574.813 219.055 574.353 219.401 573.74C219.761 573.127 219.941 572.38 219.941 571.5C219.941 570.62 219.768 569.873 219.421 569.26C219.075 568.647 218.621 568.193 218.061 567.9C217.501 567.593 216.895 567.44 216.241 567.44C215.575 567.44 214.961 567.593 214.401 567.9C213.855 568.193 213.415 568.647 213.081 569.26C212.748 569.873 212.581 570.62 212.581 571.5C212.581 572.393 212.741 573.147 213.061 573.76C213.395 574.373 213.835 574.833 214.381 575.14C214.928 575.433 215.528 575.58 216.181 575.58ZM237.374 565.84C238.228 565.84 238.988 566.02 239.654 566.38C240.321 566.727 240.848 567.253 241.234 567.96C241.621 568.667 241.814 569.527 241.814 570.54V577H240.014V570.8C240.014 569.707 239.741 568.873 239.194 568.3C238.661 567.713 237.934 567.42 237.014 567.42C236.068 567.42 235.314 567.727 234.754 568.34C234.194 568.94 233.914 569.813 233.914 570.96V577H232.114V570.8C232.114 569.707 231.841 568.873 231.294 568.3C230.761 567.713 230.034 567.42 229.114 567.42C228.168 567.42 227.414 567.727 226.854 568.34C226.294 568.94 226.014 569.813 226.014 570.96V577H224.194V566.04H226.014V567.62C226.374 567.047 226.854 566.607 227.454 566.3C228.068 565.993 228.741 565.84 229.474 565.84C230.394 565.84 231.208 566.047 231.914 566.46C232.621 566.873 233.148 567.48 233.494 568.28C233.801 567.507 234.308 566.907 235.014 566.48C235.721 566.053 236.508 565.84 237.374 565.84ZM254.8 571.1C254.8 571.447 254.78 571.813 254.74 572.2H245.98C246.046 573.28 246.413 574.127 247.08 574.74C247.76 575.34 248.58 575.64 249.54 575.64C250.326 575.64 250.98 575.46 251.5 575.1C252.033 574.727 252.406 574.233 252.62 573.62H254.58C254.286 574.673 253.7 575.533 252.82 576.2C251.94 576.853 250.846 577.18 249.54 577.18C248.5 577.18 247.566 576.947 246.74 576.48C245.926 576.013 245.286 575.353 244.82 574.5C244.353 573.633 244.12 572.633 244.12 571.5C244.12 570.367 244.346 569.373 244.8 568.52C245.253 567.667 245.886 567.013 246.7 566.56C247.526 566.093 248.473 565.86 249.54 565.86C250.58 565.86 251.5 566.087 252.3 566.54C253.1 566.993 253.713 567.62 254.14 568.42C254.58 569.207 254.8 570.1 254.8 571.1ZM252.92 570.72C252.92 570.027 252.766 569.433 252.46 568.94C252.153 568.433 251.733 568.053 251.2 567.8C250.68 567.533 250.1 567.4 249.46 567.4C248.54 567.4 247.753 567.693 247.1 568.28C246.46 568.867 246.093 569.68 246 570.72H252.92ZM261.854 571.48C261.854 570.36 262.081 569.38 262.534 568.54C262.987 567.687 263.607 567.027 264.394 566.56C265.194 566.093 266.081 565.86 267.054 565.86C268.014 565.86 268.847 566.067 269.554 566.48C270.261 566.893 270.787 567.413 271.134 568.04V566.04H272.974V577H271.134V574.96C270.774 575.6 270.234 576.133 269.514 576.56C268.807 576.973 267.981 577.18 267.034 577.18C266.061 577.18 265.181 576.94 264.394 576.46C263.607 575.98 262.987 575.307 262.534 574.44C262.081 573.573 261.854 572.587 261.854 571.48ZM271.134 571.5C271.134 570.673 270.967 569.953 270.634 569.34C270.301 568.727 269.847 568.26 269.274 567.94C268.714 567.607 268.094 567.44 267.414 567.44C266.734 567.44 266.114 567.6 265.554 567.92C264.994 568.24 264.547 568.707 264.214 569.32C263.881 569.933 263.714 570.653 263.714 571.48C263.714 572.32 263.881 573.053 264.214 573.68C264.547 574.293 264.994 574.767 265.554 575.1C266.114 575.42 266.734 575.58 267.414 575.58C268.094 575.58 268.714 575.42 269.274 575.1C269.847 574.767 270.301 574.293 270.634 573.68C270.967 573.053 271.134 572.327 271.134 571.5ZM283.202 568.08C283.575 567.427 284.122 566.893 284.842 566.48C285.562 566.067 286.382 565.86 287.302 565.86C288.288 565.86 289.175 566.093 289.962 566.56C290.748 567.027 291.368 567.687 291.822 568.54C292.275 569.38 292.502 570.36 292.502 571.48C292.502 572.587 292.275 573.573 291.822 574.44C291.368 575.307 290.742 575.98 289.942 576.46C289.155 576.94 288.275 577.18 287.302 577.18C286.355 577.18 285.522 576.973 284.802 576.56C284.095 576.147 283.562 575.62 283.202 574.98V577H281.382V562.2H283.202V568.08ZM290.642 571.48C290.642 570.653 290.475 569.933 290.142 569.32C289.808 568.707 289.355 568.24 288.782 567.92C288.222 567.6 287.602 567.44 286.922 567.44C286.255 567.44 285.635 567.607 285.062 567.94C284.502 568.26 284.048 568.733 283.702 569.36C283.368 569.973 283.202 570.687 283.202 571.5C283.202 572.327 283.368 573.053 283.702 573.68C284.048 574.293 284.502 574.767 285.062 575.1C285.635 575.42 286.255 575.58 286.922 575.58C287.602 575.58 288.222 575.42 288.782 575.1C289.355 574.767 289.808 574.293 290.142 573.68C290.475 573.053 290.642 572.32 290.642 571.48ZM304.897 571.1C304.897 571.447 304.877 571.813 304.837 572.2H296.077C296.144 573.28 296.511 574.127 297.177 574.74C297.857 575.34 298.677 575.64 299.637 575.64C300.424 575.64 301.077 575.46 301.597 575.1C302.131 574.727 302.504 574.233 302.717 573.62H304.677C304.384 574.673 303.797 575.533 302.917 576.2C302.037 576.853 300.944 577.18 299.637 577.18C298.597 577.18 297.664 576.947 296.837 576.48C296.024 576.013 295.384 575.353 294.917 574.5C294.451 573.633 294.217 572.633 294.217 571.5C294.217 570.367 294.444 569.373 294.897 568.52C295.351 567.667 295.984 567.013 296.797 566.56C297.624 566.093 298.571 565.86 299.637 565.86C300.677 565.86 301.597 566.087 302.397 566.54C303.197 566.993 303.811 567.62 304.237 568.42C304.677 569.207 304.897 570.1 304.897 571.1ZM303.017 570.72C303.017 570.027 302.864 569.433 302.557 568.94C302.251 568.433 301.831 568.053 301.297 567.8C300.777 567.533 300.197 567.4 299.557 567.4C298.637 567.4 297.851 567.693 297.197 568.28C296.557 568.867 296.191 569.68 296.097 570.72H303.017ZM309.52 567.54V574C309.52 574.533 309.633 574.913 309.86 575.14C310.086 575.353 310.48 575.46 311.04 575.46H312.38V577H310.74C309.726 577 308.966 576.767 308.46 576.3C307.953 575.833 307.7 575.067 307.7 574V567.54H306.28V566.04H307.7V563.28H309.52V566.04H312.38V567.54H309.52ZM316.805 567.54V574C316.805 574.533 316.918 574.913 317.145 575.14C317.372 575.353 317.765 575.46 318.325 575.46H319.665V577H318.025C317.012 577 316.252 576.767 315.745 576.3C315.238 575.833 314.985 575.067 314.985 574V567.54H313.565V566.04H314.985V563.28H316.805V566.04H319.665V567.54H316.805ZM331.87 571.1C331.87 571.447 331.85 571.813 331.81 572.2H323.05C323.117 573.28 323.483 574.127 324.15 574.74C324.83 575.34 325.65 575.64 326.61 575.64C327.397 575.64 328.05 575.46 328.57 575.1C329.103 574.727 329.477 574.233 329.69 573.62H331.65C331.357 574.673 330.77 575.533 329.89 576.2C329.01 576.853 327.917 577.18 326.61 577.18C325.57 577.18 324.637 576.947 323.81 576.48C322.997 576.013 322.357 575.353 321.89 574.5C321.423 573.633 321.19 572.633 321.19 571.5C321.19 570.367 321.417 569.373 321.87 568.52C322.323 567.667 322.957 567.013 323.77 566.56C324.597 566.093 325.543 565.86 326.61 565.86C327.65 565.86 328.57 566.087 329.37 566.54C330.17 566.993 330.783 567.62 331.21 568.42C331.65 569.207 331.87 570.1 331.87 571.1ZM329.99 570.72C329.99 570.027 329.837 569.433 329.53 568.94C329.223 568.433 328.803 568.053 328.27 567.8C327.75 567.533 327.17 567.4 326.53 567.4C325.61 567.4 324.823 567.693 324.17 568.28C323.53 568.867 323.163 569.68 323.07 570.72H329.99ZM336.092 567.82C336.412 567.193 336.866 566.707 337.452 566.36C338.052 566.013 338.779 565.84 339.632 565.84V567.72H339.152C337.112 567.72 336.092 568.827 336.092 571.04V577H334.272V566.04H336.092V567.82ZM68.7194 588.06C69.0794 587.433 69.6127 586.913 70.3194 586.5C71.0394 586.073 71.8727 585.86 72.8194 585.86C73.7927 585.86 74.6727 586.093 75.4594 586.56C76.2594 587.027 76.886 587.687 77.3394 588.54C77.7927 589.38 78.0194 590.36 78.0194 591.48C78.0194 592.587 77.7927 593.573 77.3394 594.44C76.886 595.307 76.2594 595.98 75.4594 596.46C74.6727 596.94 73.7927 597.18 72.8194 597.18C71.886 597.18 71.0594 596.973 70.3394 596.56C69.6327 596.133 69.0927 595.607 68.7194 594.98V602.2H66.8994V586.04H68.7194V588.06ZM76.1594 591.48C76.1594 590.653 75.9927 589.933 75.6594 589.32C75.326 588.707 74.8727 588.24 74.2994 587.92C73.7394 587.6 73.1194 587.44 72.4394 587.44C71.7727 587.44 71.1527 587.607 70.5794 587.94C70.0194 588.26 69.566 588.733 69.2194 589.36C68.886 589.973 68.7194 590.687 68.7194 591.5C68.7194 592.327 68.886 593.053 69.2194 593.68C69.566 594.293 70.0194 594.767 70.5794 595.1C71.1527 595.42 71.7727 595.58 72.4394 595.58C73.1194 595.58 73.7394 595.42 74.2994 595.1C74.8727 594.767 75.326 594.293 75.6594 593.68C75.9927 593.053 76.1594 592.32 76.1594 591.48ZM90.415 591.1C90.415 591.447 90.395 591.813 90.355 592.2H81.595C81.6617 593.28 82.0283 594.127 82.695 594.74C83.375 595.34 84.195 595.64 85.155 595.64C85.9417 595.64 86.595 595.46 87.115 595.1C87.6483 594.727 88.0217 594.233 88.235 593.62H90.195C89.9017 594.673 89.315 595.533 88.435 596.2C87.555 596.853 86.4617 597.18 85.155 597.18C84.115 597.18 83.1817 596.947 82.355 596.48C81.5417 596.013 80.9017 595.353 80.435 594.5C79.9683 593.633 79.735 592.633 79.735 591.5C79.735 590.367 79.9617 589.373 80.415 588.52C80.8683 587.667 81.5017 587.013 82.315 586.56C83.1417 586.093 84.0883 585.86 85.155 585.86C86.195 585.86 87.115 586.087 87.915 586.54C88.715 586.993 89.3283 587.62 89.755 588.42C90.195 589.207 90.415 590.1 90.415 591.1ZM88.535 590.72C88.535 590.027 88.3817 589.433 88.075 588.94C87.7683 588.433 87.3483 588.053 86.815 587.8C86.295 587.533 85.715 587.4 85.075 587.4C84.155 587.4 83.3683 587.693 82.715 588.28C82.075 588.867 81.7083 589.68 81.615 590.72H88.535ZM94.6373 587.82C94.9573 587.193 95.4107 586.707 95.9973 586.36C96.5973 586.013 97.324 585.84 98.1773 585.84V587.72H97.6973C95.6573 587.72 94.6373 588.827 94.6373 591.04V597H92.8173V586.04H94.6373V587.82ZM104.158 597.18C103.318 597.18 102.565 597.04 101.898 596.76C101.232 596.467 100.705 596.067 100.318 595.56C99.9316 595.04 99.7183 594.447 99.6783 593.78H101.558C101.612 594.327 101.865 594.773 102.318 595.12C102.785 595.467 103.392 595.64 104.138 595.64C104.832 595.64 105.378 595.487 105.778 595.18C106.178 594.873 106.378 594.487 106.378 594.02C106.378 593.54 106.165 593.187 105.738 592.96C105.312 592.72 104.652 592.487 103.758 592.26C102.945 592.047 102.278 591.833 101.758 591.62C101.252 591.393 100.812 591.067 100.438 590.64C100.078 590.2 99.8983 589.627 99.8983 588.92C99.8983 588.36 100.065 587.847 100.398 587.38C100.732 586.913 101.205 586.547 101.818 586.28C102.432 586 103.132 585.86 103.918 585.86C105.132 585.86 106.112 586.167 106.858 586.78C107.605 587.393 108.005 588.233 108.058 589.3H106.238C106.198 588.727 105.965 588.267 105.538 587.92C105.125 587.573 104.565 587.4 103.858 587.4C103.205 587.4 102.685 587.54 102.298 587.82C101.912 588.1 101.718 588.467 101.718 588.92C101.718 589.28 101.832 589.58 102.058 589.82C102.298 590.047 102.592 590.233 102.938 590.38C103.298 590.513 103.792 590.667 104.418 590.84C105.205 591.053 105.845 591.267 106.338 591.48C106.832 591.68 107.252 591.987 107.598 592.4C107.958 592.813 108.145 593.353 108.158 594.02C108.158 594.62 107.992 595.16 107.658 595.64C107.325 596.12 106.852 596.5 106.238 596.78C105.638 597.047 104.945 597.18 104.158 597.18ZM115.508 597.18C114.481 597.18 113.548 596.947 112.708 596.48C111.881 596.013 111.228 595.353 110.748 594.5C110.281 593.633 110.048 592.633 110.048 591.5C110.048 590.38 110.288 589.393 110.768 588.54C111.261 587.673 111.928 587.013 112.768 586.56C113.608 586.093 114.548 585.86 115.588 585.86C116.628 585.86 117.568 586.093 118.408 586.56C119.248 587.013 119.908 587.667 120.388 588.52C120.881 589.373 121.128 590.367 121.128 591.5C121.128 592.633 120.874 593.633 120.368 594.5C119.874 595.353 119.201 596.013 118.348 596.48C117.494 596.947 116.548 597.18 115.508 597.18ZM115.508 595.58C116.161 595.58 116.774 595.427 117.348 595.12C117.921 594.813 118.381 594.353 118.728 593.74C119.088 593.127 119.268 592.38 119.268 591.5C119.268 590.62 119.094 589.873 118.748 589.26C118.401 588.647 117.948 588.193 117.388 587.9C116.828 587.593 116.221 587.44 115.568 587.44C114.901 587.44 114.288 587.593 113.728 587.9C113.181 588.193 112.741 588.647 112.408 589.26C112.074 589.873 111.908 590.62 111.908 591.5C111.908 592.393 112.068 593.147 112.388 593.76C112.721 594.373 113.161 594.833 113.708 595.14C114.254 595.433 114.854 595.58 115.508 595.58ZM128.86 585.84C130.194 585.84 131.274 586.247 132.1 587.06C132.927 587.86 133.34 589.02 133.34 590.54V597H131.54V590.8C131.54 589.707 131.267 588.873 130.72 588.3C130.174 587.713 129.427 587.42 128.48 587.42C127.52 587.42 126.754 587.72 126.18 588.32C125.62 588.92 125.34 589.793 125.34 590.94V597H123.52V586.04H125.34V587.6C125.7 587.04 126.187 586.607 126.8 586.3C127.427 585.993 128.114 585.84 128.86 585.84ZM136.893 597.12C136.547 597.12 136.253 597 136.013 596.76C135.773 596.52 135.653 596.227 135.653 595.88C135.653 595.533 135.773 595.24 136.013 595C136.253 594.76 136.547 594.64 136.893 594.64C137.227 594.64 137.507 594.76 137.733 595C137.973 595.24 138.093 595.533 138.093 595.88C138.093 596.227 137.973 596.52 137.733 596.76C137.507 597 137.227 597.12 136.893 597.12ZM147.665 583.06V597H145.845V583.06H147.665ZM151.047 583.06H153.067L151.147 587.6H149.867L151.047 583.06ZM168.322 585.84C169.175 585.84 169.935 586.02 170.602 586.38C171.268 586.727 171.795 587.253 172.182 587.96C172.568 588.667 172.762 589.527 172.762 590.54V597H170.962V590.8C170.962 589.707 170.688 588.873 170.142 588.3C169.608 587.713 168.882 587.42 167.962 587.42C167.015 587.42 166.262 587.727 165.702 588.34C165.142 588.94 164.862 589.813 164.862 590.96V597H163.062V590.8C163.062 589.707 162.788 588.873 162.242 588.3C161.708 587.713 160.982 587.42 160.062 587.42C159.115 587.42 158.362 587.727 157.802 588.34C157.242 588.94 156.962 589.813 156.962 590.96V597H155.142V586.04H156.962V587.62C157.322 587.047 157.802 586.607 158.402 586.3C159.015 585.993 159.688 585.84 160.422 585.84C161.342 585.84 162.155 586.047 162.862 586.46C163.568 586.873 164.095 587.48 164.442 588.28C164.748 587.507 165.255 586.907 165.962 586.48C166.668 586.053 167.455 585.84 168.322 585.84ZM186.519 585.84C187.346 585.84 188.092 586.02 188.759 586.38C189.426 586.727 189.946 587.253 190.319 587.96C190.706 588.667 190.899 589.527 190.899 590.54V597H189.099V590.8C189.099 589.707 188.826 588.873 188.279 588.3C187.732 587.713 186.986 587.42 186.039 587.42C185.079 587.42 184.312 587.72 183.739 588.32C183.179 588.92 182.899 589.793 182.899 590.94V597H181.079V582.2H182.899V587.6C183.259 587.04 183.752 586.607 184.379 586.3C185.019 585.993 185.732 585.84 186.519 585.84ZM203.872 591.1C203.872 591.447 203.852 591.813 203.812 592.2H195.052C195.119 593.28 195.485 594.127 196.152 594.74C196.832 595.34 197.652 595.64 198.612 595.64C199.399 595.64 200.052 595.46 200.572 595.1C201.105 594.727 201.479 594.233 201.692 593.62H203.652C203.359 594.673 202.772 595.533 201.892 596.2C201.012 596.853 199.919 597.18 198.612 597.18C197.572 597.18 196.639 596.947 195.812 596.48C194.999 596.013 194.359 595.353 193.892 594.5C193.425 593.633 193.192 592.633 193.192 591.5C193.192 590.367 193.419 589.373 193.872 588.52C194.325 587.667 194.959 587.013 195.772 586.56C196.599 586.093 197.545 585.86 198.612 585.86C199.652 585.86 200.572 586.087 201.372 586.54C202.172 586.993 202.785 587.62 203.212 588.42C203.652 589.207 203.872 590.1 203.872 591.1ZM201.992 590.72C201.992 590.027 201.839 589.433 201.532 588.94C201.225 588.433 200.805 588.053 200.272 587.8C199.752 587.533 199.172 587.4 198.532 587.4C197.612 587.4 196.825 587.693 196.172 588.28C195.532 588.867 195.165 589.68 195.072 590.72H201.992ZM208.094 587.82C208.414 587.193 208.868 586.707 209.454 586.36C210.054 586.013 210.781 585.84 211.634 585.84V587.72H211.154C209.114 587.72 208.094 588.827 208.094 591.04V597H206.274V586.04H208.094V587.82ZM223.735 591.1C223.735 591.447 223.715 591.813 223.675 592.2H214.915C214.982 593.28 215.349 594.127 216.015 594.74C216.695 595.34 217.515 595.64 218.475 595.64C219.262 595.64 219.915 595.46 220.435 595.1C220.969 594.727 221.342 594.233 221.555 593.62H223.515C223.222 594.673 222.635 595.533 221.755 596.2C220.875 596.853 219.782 597.18 218.475 597.18C217.435 597.18 216.502 596.947 215.675 596.48C214.862 596.013 214.222 595.353 213.755 594.5C213.289 593.633 213.055 592.633 213.055 591.5C213.055 590.367 213.282 589.373 213.735 588.52C214.189 587.667 214.822 587.013 215.635 586.56C216.462 586.093 217.409 585.86 218.475 585.86C219.515 585.86 220.435 586.087 221.235 586.54C222.035 586.993 222.649 587.62 223.075 588.42C223.515 589.207 223.735 590.1 223.735 591.1ZM221.855 590.72C221.855 590.027 221.702 589.433 221.395 588.94C221.089 588.433 220.669 588.053 220.135 587.8C219.615 587.533 219.035 587.4 218.395 587.4C217.475 587.4 216.689 587.693 216.035 588.28C215.395 588.867 215.029 589.68 214.935 590.72H221.855ZM233.69 587.54V594C233.69 594.533 233.803 594.913 234.03 595.14C234.256 595.353 234.65 595.46 235.21 595.46H236.55V597H234.91C233.896 597 233.136 596.767 232.63 596.3C232.123 595.833 231.87 595.067 231.87 594V587.54H230.45V586.04H231.87V583.28H233.69V586.04H236.55V587.54H233.69ZM243.535 597.18C242.508 597.18 241.575 596.947 240.735 596.48C239.908 596.013 239.255 595.353 238.775 594.5C238.308 593.633 238.075 592.633 238.075 591.5C238.075 590.38 238.315 589.393 238.795 588.54C239.288 587.673 239.955 587.013 240.795 586.56C241.635 586.093 242.575 585.86 243.615 585.86C244.655 585.86 245.595 586.093 246.435 586.56C247.275 587.013 247.935 587.667 248.415 588.52C248.908 589.373 249.155 590.367 249.155 591.5C249.155 592.633 248.902 593.633 248.395 594.5C247.902 595.353 247.228 596.013 246.375 596.48C245.522 596.947 244.575 597.18 243.535 597.18ZM243.535 595.58C244.188 595.58 244.802 595.427 245.375 595.12C245.948 594.813 246.408 594.353 246.755 593.74C247.115 593.127 247.295 592.38 247.295 591.5C247.295 590.62 247.122 589.873 246.775 589.26C246.428 588.647 245.975 588.193 245.415 587.9C244.855 587.593 244.248 587.44 243.595 587.44C242.928 587.44 242.315 587.593 241.755 587.9C241.208 588.193 240.768 588.647 240.435 589.26C240.102 589.873 239.935 590.62 239.935 591.5C239.935 592.393 240.095 593.147 240.415 593.76C240.748 594.373 241.188 594.833 241.735 595.14C242.282 595.433 242.882 595.58 243.535 595.58ZM261.4 585.86C262.347 585.86 263.173 586.067 263.88 586.48C264.6 586.893 265.133 587.413 265.48 588.04V586.04H267.32V597.24C267.32 598.24 267.107 599.127 266.68 599.9C266.253 600.687 265.64 601.3 264.84 601.74C264.053 602.18 263.133 602.4 262.08 602.4C260.64 602.4 259.44 602.06 258.48 601.38C257.52 600.7 256.953 599.773 256.78 598.6H258.58C258.78 599.267 259.193 599.8 259.82 600.2C260.447 600.613 261.2 600.82 262.08 600.82C263.08 600.82 263.893 600.507 264.52 599.88C265.16 599.253 265.48 598.373 265.48 597.24V594.94C265.12 595.58 264.587 596.113 263.88 596.54C263.173 596.967 262.347 597.18 261.4 597.18C260.427 597.18 259.54 596.94 258.74 596.46C257.953 595.98 257.333 595.307 256.88 594.44C256.427 593.573 256.2 592.587 256.2 591.48C256.2 590.36 256.427 589.38 256.88 588.54C257.333 587.687 257.953 587.027 258.74 586.56C259.54 586.093 260.427 585.86 261.4 585.86ZM265.48 591.5C265.48 590.673 265.313 589.953 264.98 589.34C264.647 588.727 264.193 588.26 263.62 587.94C263.06 587.607 262.44 587.44 261.76 587.44C261.08 587.44 260.46 587.6 259.9 587.92C259.34 588.24 258.893 588.707 258.56 589.32C258.227 589.933 258.06 590.653 258.06 591.48C258.06 592.32 258.227 593.053 258.56 593.68C258.893 594.293 259.34 594.767 259.9 595.1C260.46 595.42 261.08 595.58 261.76 595.58C262.44 595.58 263.06 595.42 263.62 595.1C264.193 594.767 264.647 594.293 264.98 593.68C265.313 593.053 265.48 592.327 265.48 591.5ZM280.115 586.04V597H278.295V595.38C277.949 595.94 277.462 596.38 276.835 596.7C276.222 597.007 275.542 597.16 274.795 597.16C273.942 597.16 273.175 596.987 272.495 596.64C271.815 596.28 271.275 595.747 270.875 595.04C270.489 594.333 270.295 593.473 270.295 592.46V586.04H272.095V592.22C272.095 593.3 272.369 594.133 272.915 594.72C273.462 595.293 274.209 595.58 275.155 595.58C276.129 595.58 276.895 595.28 277.455 594.68C278.015 594.08 278.295 593.207 278.295 592.06V586.04H280.115ZM284.128 584.26C283.782 584.26 283.488 584.14 283.248 583.9C283.008 583.66 282.888 583.367 282.888 583.02C282.888 582.673 283.008 582.38 283.248 582.14C283.488 581.9 283.782 581.78 284.128 581.78C284.462 581.78 284.742 581.9 284.968 582.14C285.208 582.38 285.328 582.673 285.328 583.02C285.328 583.367 285.208 583.66 284.968 583.9C284.742 584.14 284.462 584.26 284.128 584.26ZM285.008 586.04V597H283.188V586.04H285.008ZM287.43 591.48C287.43 590.36 287.657 589.38 288.11 588.54C288.564 587.687 289.184 587.027 289.97 586.56C290.77 586.093 291.664 585.86 292.65 585.86C293.504 585.86 294.297 586.06 295.03 586.46C295.764 586.847 296.324 587.36 296.71 588V582.2H298.55V597H296.71V594.94C296.35 595.593 295.817 596.133 295.11 596.56C294.404 596.973 293.577 597.18 292.63 597.18C291.657 597.18 290.77 596.94 289.97 596.46C289.184 595.98 288.564 595.307 288.11 594.44C287.657 593.573 287.43 592.587 287.43 591.48ZM296.71 591.5C296.71 590.673 296.544 589.953 296.21 589.34C295.877 588.727 295.424 588.26 294.85 587.94C294.29 587.607 293.67 587.44 292.99 587.44C292.31 587.44 291.69 587.6 291.13 587.92C290.57 588.24 290.124 588.707 289.79 589.32C289.457 589.933 289.29 590.653 289.29 591.48C289.29 592.32 289.457 593.053 289.79 593.68C290.124 594.293 290.57 594.767 291.13 595.1C291.69 595.42 292.31 595.58 292.99 595.58C293.67 595.58 294.29 595.42 294.85 595.1C295.424 594.767 295.877 594.293 296.21 593.68C296.544 593.053 296.71 592.327 296.71 591.5ZM311.626 591.1C311.626 591.447 311.606 591.813 311.566 592.2H302.806C302.873 593.28 303.239 594.127 303.906 594.74C304.586 595.34 305.406 595.64 306.366 595.64C307.153 595.64 307.806 595.46 308.326 595.1C308.859 594.727 309.233 594.233 309.446 593.62H311.406C311.113 594.673 310.526 595.533 309.646 596.2C308.766 596.853 307.673 597.18 306.366 597.18C305.326 597.18 304.393 596.947 303.566 596.48C302.753 596.013 302.113 595.353 301.646 594.5C301.179 593.633 300.946 592.633 300.946 591.5C300.946 590.367 301.173 589.373 301.626 588.52C302.079 587.667 302.713 587.013 303.526 586.56C304.353 586.093 305.299 585.86 306.366 585.86C307.406 585.86 308.326 586.087 309.126 586.54C309.926 586.993 310.539 587.62 310.966 588.42C311.406 589.207 311.626 590.1 311.626 591.1ZM309.746 590.72C309.746 590.027 309.593 589.433 309.286 588.94C308.979 588.433 308.559 588.053 308.026 587.8C307.506 587.533 306.926 587.4 306.286 587.4C305.366 587.4 304.579 587.693 303.926 588.28C303.286 588.867 302.919 589.68 302.826 590.72H309.746ZM328.8 586.04L322.2 602.16H320.32L322.48 596.88L318.06 586.04H320.08L323.52 594.92L326.92 586.04H328.8ZM335.41 597.18C334.383 597.18 333.45 596.947 332.61 596.48C331.783 596.013 331.13 595.353 330.65 594.5C330.183 593.633 329.95 592.633 329.95 591.5C329.95 590.38 330.19 589.393 330.67 588.54C331.163 587.673 331.83 587.013 332.67 586.56C333.51 586.093 334.45 585.86 335.49 585.86C336.53 585.86 337.47 586.093 338.31 586.56C339.15 587.013 339.81 587.667 340.29 588.52C340.783 589.373 341.03 590.367 341.03 591.5C341.03 592.633 340.777 593.633 340.27 594.5C339.777 595.353 339.103 596.013 338.25 596.48C337.397 596.947 336.45 597.18 335.41 597.18ZM335.41 595.58C336.063 595.58 336.677 595.427 337.25 595.12C337.823 594.813 338.283 594.353 338.63 593.74C338.99 593.127 339.17 592.38 339.17 591.5C339.17 590.62 338.997 589.873 338.65 589.26C338.303 588.647 337.85 588.193 337.29 587.9C336.73 587.593 336.123 587.44 335.47 587.44C334.803 587.44 334.19 587.593 333.63 587.9C333.083 588.193 332.643 588.647 332.31 589.26C331.977 589.873 331.81 590.62 331.81 591.5C331.81 592.393 331.97 593.147 332.29 593.76C332.623 594.373 333.063 594.833 333.61 595.14C334.157 595.433 334.757 595.58 335.41 595.58ZM353.143 586.04V597H351.323V595.38C350.976 595.94 350.489 596.38 349.863 596.7C349.249 597.007 348.569 597.16 347.823 597.16C346.969 597.16 346.203 596.987 345.523 596.64C344.843 596.28 344.303 595.747 343.903 595.04C343.516 594.333 343.323 593.473 343.323 592.46V586.04H345.123V592.22C345.123 593.3 345.396 594.133 345.943 594.72C346.489 595.293 347.236 595.58 348.183 595.58C349.156 595.58 349.923 595.28 350.483 594.68C351.043 594.08 351.323 593.207 351.323 592.06V586.04H353.143ZM358.096 594.48L355.856 599.86H354.636L356.096 594.48H358.096ZM78.4655 608.08C78.8388 607.427 79.3855 606.893 80.1055 606.48C80.8255 606.067 81.6455 605.86 82.5655 605.86C83.5521 605.86 84.4388 606.093 85.2255 606.56C86.0121 607.027 86.6321 607.687 87.0855 608.54C87.5388 609.38 87.7655 610.36 87.7655 611.48C87.7655 612.587 87.5388 613.573 87.0855 614.44C86.6321 615.307 86.0055 615.98 85.2055 616.46C84.4188 616.94 83.5388 617.18 82.5655 617.18C81.6188 617.18 80.7855 616.973 80.0655 616.56C79.3588 616.147 78.8255 615.62 78.4655 614.98V617H76.6455V602.2H78.4655V608.08ZM85.9055 611.48C85.9055 610.653 85.7388 609.933 85.4055 609.32C85.0721 608.707 84.6188 608.24 84.0455 607.92C83.4855 607.6 82.8655 607.44 82.1855 607.44C81.5188 607.44 80.8988 607.607 80.3255 607.94C79.7655 608.26 79.3121 608.733 78.9655 609.36C78.6321 609.973 78.4655 610.687 78.4655 611.5C78.4655 612.327 78.6321 613.053 78.9655 613.68C79.3121 614.293 79.7655 614.767 80.3255 615.1C80.8988 615.42 81.5188 615.58 82.1855 615.58C82.8655 615.58 83.4855 615.42 84.0455 615.1C84.6188 614.767 85.0721 614.293 85.4055 613.68C85.7388 613.053 85.9055 612.32 85.9055 611.48ZM99.8811 606.04V617H98.0611V615.38C97.7144 615.94 97.2278 616.38 96.6011 616.7C95.9878 617.007 95.3078 617.16 94.5611 617.16C93.7078 617.16 92.9411 616.987 92.2611 616.64C91.5811 616.28 91.0411 615.747 90.6411 615.04C90.2544 614.333 90.0611 613.473 90.0611 612.46V606.04H91.8611V612.22C91.8611 613.3 92.1344 614.133 92.6811 614.72C93.2278 615.293 93.9744 615.58 94.9211 615.58C95.8944 615.58 96.6611 615.28 97.2211 614.68C97.7811 614.08 98.0611 613.207 98.0611 612.06V606.04H99.8811ZM105.174 607.54V614C105.174 614.533 105.287 614.913 105.514 615.14C105.741 615.353 106.134 615.46 106.694 615.46H108.034V617H106.394C105.381 617 104.621 616.767 104.114 616.3C103.607 615.833 103.354 615.067 103.354 614V607.54H101.934V606.04H103.354V603.28H105.174V606.04H108.034V607.54H105.174ZM120.351 617.18C119.325 617.18 118.391 616.947 117.551 616.48C116.725 616.013 116.071 615.353 115.591 614.5C115.125 613.633 114.891 612.633 114.891 611.5C114.891 610.38 115.131 609.393 115.611 608.54C116.105 607.673 116.771 607.013 117.611 606.56C118.451 606.093 119.391 605.86 120.431 605.86C121.471 605.86 122.411 606.093 123.251 606.56C124.091 607.013 124.751 607.667 125.231 608.52C125.725 609.373 125.971 610.367 125.971 611.5C125.971 612.633 125.718 613.633 125.211 614.5C124.718 615.353 124.045 616.013 123.191 616.48C122.338 616.947 121.391 617.18 120.351 617.18ZM120.351 615.58C121.005 615.58 121.618 615.427 122.191 615.12C122.765 614.813 123.225 614.353 123.571 613.74C123.931 613.127 124.111 612.38 124.111 611.5C124.111 610.62 123.938 609.873 123.591 609.26C123.245 608.647 122.791 608.193 122.231 607.9C121.671 607.593 121.065 607.44 120.411 607.44C119.745 607.44 119.131 607.593 118.571 607.9C118.025 608.193 117.585 608.647 117.251 609.26C116.918 609.873 116.751 610.62 116.751 611.5C116.751 612.393 116.911 613.147 117.231 613.76C117.565 614.373 118.005 614.833 118.551 615.14C119.098 615.433 119.698 615.58 120.351 615.58ZM133.704 605.84C135.038 605.84 136.118 606.247 136.944 607.06C137.771 607.86 138.184 609.02 138.184 610.54V617H136.384V610.8C136.384 609.707 136.111 608.873 135.564 608.3C135.018 607.713 134.271 607.42 133.324 607.42C132.364 607.42 131.598 607.72 131.024 608.32C130.464 608.92 130.184 609.793 130.184 610.94V617H128.364V606.04H130.184V607.6C130.544 607.04 131.031 606.607 131.644 606.3C132.271 605.993 132.958 605.84 133.704 605.84ZM142.977 602.2V617H141.157V602.2H142.977ZM155.519 606.04L148.919 622.16H147.039L149.199 616.88L144.779 606.04H146.799L150.239 614.92L153.639 606.04H155.519ZM172.121 606.04L165.521 622.16H163.641L165.801 616.88L161.381 606.04H163.401L166.841 614.92L170.241 606.04H172.121ZM178.73 617.18C177.703 617.18 176.77 616.947 175.93 616.48C175.103 616.013 174.45 615.353 173.97 614.5C173.503 613.633 173.27 612.633 173.27 611.5C173.27 610.38 173.51 609.393 173.99 608.54C174.483 607.673 175.15 607.013 175.99 606.56C176.83 606.093 177.77 605.86 178.81 605.86C179.85 605.86 180.79 606.093 181.63 606.56C182.47 607.013 183.13 607.667 183.61 608.52C184.103 609.373 184.35 610.367 184.35 611.5C184.35 612.633 184.097 613.633 183.59 614.5C183.097 615.353 182.423 616.013 181.57 616.48C180.717 616.947 179.77 617.18 178.73 617.18ZM178.73 615.58C179.383 615.58 179.997 615.427 180.57 615.12C181.143 614.813 181.603 614.353 181.95 613.74C182.31 613.127 182.49 612.38 182.49 611.5C182.49 610.62 182.317 609.873 181.97 609.26C181.623 608.647 181.17 608.193 180.61 607.9C180.05 607.593 179.443 607.44 178.79 607.44C178.123 607.44 177.51 607.593 176.95 607.9C176.403 608.193 175.963 608.647 175.63 609.26C175.297 609.873 175.13 610.62 175.13 611.5C175.13 612.393 175.29 613.147 175.61 613.76C175.943 614.373 176.383 614.833 176.93 615.14C177.477 615.433 178.077 615.58 178.73 615.58ZM196.463 606.04V617H194.643V615.38C194.296 615.94 193.81 616.38 193.183 616.7C192.57 617.007 191.89 617.16 191.143 617.16C190.29 617.16 189.523 616.987 188.843 616.64C188.163 616.28 187.623 615.747 187.223 615.04C186.836 614.333 186.643 613.473 186.643 612.46V606.04H188.443V612.22C188.443 613.3 188.716 614.133 189.263 614.72C189.81 615.293 190.556 615.58 191.503 615.58C192.476 615.58 193.243 615.28 193.803 614.68C194.363 614.08 194.643 613.207 194.643 612.06V606.04H196.463ZM204.188 611.5C204.188 610.367 204.415 609.38 204.868 608.54C205.321 607.687 205.948 607.027 206.748 606.56C207.561 606.093 208.488 605.86 209.528 605.86C210.875 605.86 211.981 606.187 212.848 606.84C213.728 607.493 214.308 608.4 214.588 609.56H212.628C212.441 608.893 212.075 608.367 211.528 607.98C210.995 607.593 210.328 607.4 209.528 607.4C208.488 607.4 207.648 607.76 207.008 608.48C206.368 609.187 206.048 610.193 206.048 611.5C206.048 612.82 206.368 613.84 207.008 614.56C207.648 615.28 208.488 615.64 209.528 615.64C210.328 615.64 210.995 615.453 211.528 615.08C212.061 614.707 212.428 614.173 212.628 613.48H214.588C214.295 614.6 213.708 615.5 212.828 616.18C211.948 616.847 210.848 617.18 209.528 617.18C208.488 617.18 207.561 616.947 206.748 616.48C205.948 616.013 205.321 615.353 204.868 614.5C204.415 613.647 204.188 612.647 204.188 611.5ZM216.337 611.48C216.337 610.36 216.563 609.38 217.017 608.54C217.47 607.687 218.09 607.027 218.877 606.56C219.677 606.093 220.563 605.86 221.537 605.86C222.497 605.86 223.33 606.067 224.037 606.48C224.743 606.893 225.27 607.413 225.617 608.04V606.04H227.457V617H225.617V614.96C225.257 615.6 224.717 616.133 223.997 616.56C223.29 616.973 222.463 617.18 221.517 617.18C220.543 617.18 219.663 616.94 218.877 616.46C218.09 615.98 217.47 615.307 217.017 614.44C216.563 613.573 216.337 612.587 216.337 611.48ZM225.617 611.5C225.617 610.673 225.45 609.953 225.117 609.34C224.783 608.727 224.33 608.26 223.757 607.94C223.197 607.607 222.577 607.44 221.897 607.44C221.217 607.44 220.597 607.6 220.037 607.92C219.477 608.24 219.03 608.707 218.697 609.32C218.363 609.933 218.197 610.653 218.197 611.48C218.197 612.32 218.363 613.053 218.697 613.68C219.03 614.293 219.477 614.767 220.037 615.1C220.597 615.42 221.217 615.58 221.897 615.58C222.577 615.58 223.197 615.42 223.757 615.1C224.33 614.767 224.783 614.293 225.117 613.68C225.45 613.053 225.617 612.327 225.617 611.5ZM235.872 605.84C237.206 605.84 238.286 606.247 239.112 607.06C239.939 607.86 240.352 609.02 240.352 610.54V617H238.552V610.8C238.552 609.707 238.279 608.873 237.732 608.3C237.186 607.713 236.439 607.42 235.492 607.42C234.532 607.42 233.766 607.72 233.192 608.32C232.632 608.92 232.352 609.793 232.352 610.94V617H230.532V606.04H232.352V607.6C232.712 607.04 233.199 606.607 233.812 606.3C234.439 605.993 235.126 605.84 235.872 605.84ZM258.657 611.1C258.657 611.447 258.637 611.813 258.597 612.2H249.837C249.904 613.28 250.271 614.127 250.937 614.74C251.617 615.34 252.437 615.64 253.397 615.64C254.184 615.64 254.837 615.46 255.357 615.1C255.891 614.727 256.264 614.233 256.477 613.62H258.437C258.144 614.673 257.557 615.533 256.677 616.2C255.797 616.853 254.704 617.18 253.397 617.18C252.357 617.18 251.424 616.947 250.597 616.48C249.784 616.013 249.144 615.353 248.677 614.5C248.211 613.633 247.977 612.633 247.977 611.5C247.977 610.367 248.204 609.373 248.657 608.52C249.111 607.667 249.744 607.013 250.557 606.56C251.384 606.093 252.331 605.86 253.397 605.86C254.437 605.86 255.357 606.087 256.157 606.54C256.957 606.993 257.571 607.62 257.997 608.42C258.437 609.207 258.657 610.1 258.657 611.1ZM256.777 610.72C256.777 610.027 256.624 609.433 256.317 608.94C256.011 608.433 255.591 608.053 255.057 607.8C254.537 607.533 253.957 607.4 253.317 607.4C252.397 607.4 251.611 607.693 250.957 608.28C250.317 608.867 249.951 609.68 249.857 610.72H256.777ZM266.4 605.84C267.733 605.84 268.813 606.247 269.64 607.06C270.466 607.86 270.88 609.02 270.88 610.54V617H269.08V610.8C269.08 609.707 268.806 608.873 268.26 608.3C267.713 607.713 266.966 607.42 266.02 607.42C265.06 607.42 264.293 607.72 263.72 608.32C263.16 608.92 262.88 609.793 262.88 610.94V617H261.06V606.04H262.88V607.6C263.24 607.04 263.726 606.607 264.34 606.3C264.966 605.993 265.653 605.84 266.4 605.84ZM273.173 611.48C273.173 610.36 273.399 609.38 273.853 608.54C274.306 607.687 274.926 607.027 275.713 606.56C276.513 606.093 277.399 605.86 278.373 605.86C279.333 605.86 280.166 606.067 280.873 606.48C281.579 606.893 282.106 607.413 282.453 608.04V606.04H284.293V617H282.453V614.96C282.093 615.6 281.553 616.133 280.833 616.56C280.126 616.973 279.299 617.18 278.353 617.18C277.379 617.18 276.499 616.94 275.713 616.46C274.926 615.98 274.306 615.307 273.853 614.44C273.399 613.573 273.173 612.587 273.173 611.48ZM282.453 611.5C282.453 610.673 282.286 609.953 281.953 609.34C281.619 608.727 281.166 608.26 280.593 607.94C280.033 607.607 279.413 607.44 278.733 607.44C278.053 607.44 277.433 607.6 276.873 607.92C276.313 608.24 275.866 608.707 275.533 609.32C275.199 609.933 275.033 610.653 275.033 611.48C275.033 612.32 275.199 613.053 275.533 613.68C275.866 614.293 276.313 614.767 276.873 615.1C277.433 615.42 278.053 615.58 278.733 615.58C279.413 615.58 280.033 615.42 280.593 615.1C281.166 614.767 281.619 614.293 281.953 613.68C282.286 613.053 282.453 612.327 282.453 611.5ZM286.688 611.5C286.688 610.367 286.915 609.38 287.368 608.54C287.821 607.687 288.448 607.027 289.248 606.56C290.061 606.093 290.988 605.86 292.028 605.86C293.375 605.86 294.481 606.187 295.348 606.84C296.228 607.493 296.808 608.4 297.088 609.56H295.128C294.941 608.893 294.575 608.367 294.028 607.98C293.495 607.593 292.828 607.4 292.028 607.4C290.988 607.4 290.148 607.76 289.508 608.48C288.868 609.187 288.548 610.193 288.548 611.5C288.548 612.82 288.868 613.84 289.508 614.56C290.148 615.28 290.988 615.64 292.028 615.64C292.828 615.64 293.495 615.453 294.028 615.08C294.561 614.707 294.928 614.173 295.128 613.48H297.088C296.795 614.6 296.208 615.5 295.328 616.18C294.448 616.847 293.348 617.18 292.028 617.18C290.988 617.18 290.061 616.947 289.248 616.48C288.448 616.013 287.821 615.353 287.368 614.5C286.915 613.647 286.688 612.647 286.688 611.5ZM301.737 607.54V614C301.737 614.533 301.85 614.913 302.077 615.14C302.303 615.353 302.697 615.46 303.257 615.46H304.597V617H302.957C301.943 617 301.183 616.767 300.677 616.3C300.17 615.833 299.917 615.067 299.917 614V607.54H298.497V606.04H299.917V603.28H301.737V606.04H304.597V607.54H301.737ZM313.954 607.82C314.274 607.193 314.727 606.707 315.314 606.36C315.914 606.013 316.64 605.84 317.494 605.84V607.72H317.014C314.974 607.72 313.954 608.827 313.954 611.04V617H312.134V606.04H313.954V607.82ZM329.595 611.1C329.595 611.447 329.575 611.813 329.535 612.2H320.775C320.841 613.28 321.208 614.127 321.875 614.74C322.555 615.34 323.375 615.64 324.335 615.64C325.121 615.64 325.775 615.46 326.295 615.1C326.828 614.727 327.201 614.233 327.415 613.62H329.375C329.081 614.673 328.495 615.533 327.615 616.2C326.735 616.853 325.641 617.18 324.335 617.18C323.295 617.18 322.361 616.947 321.535 616.48C320.721 616.013 320.081 615.353 319.615 614.5C319.148 613.633 318.915 612.633 318.915 611.5C318.915 610.367 319.141 609.373 319.595 608.52C320.048 607.667 320.681 607.013 321.495 606.56C322.321 606.093 323.268 605.86 324.335 605.86C325.375 605.86 326.295 606.087 327.095 606.54C327.895 606.993 328.508 607.62 328.935 608.42C329.375 609.207 329.595 610.1 329.595 611.1ZM327.715 610.72C327.715 610.027 327.561 609.433 327.255 608.94C326.948 608.433 326.528 608.053 325.995 607.8C325.475 607.533 324.895 607.4 324.255 607.4C323.335 607.4 322.548 607.693 321.895 608.28C321.255 608.867 320.888 609.68 320.795 610.72H327.715ZM331.317 611.48C331.317 610.36 331.544 609.38 331.997 608.54C332.45 607.687 333.07 607.027 333.857 606.56C334.657 606.093 335.544 605.86 336.517 605.86C337.477 605.86 338.31 606.067 339.017 606.48C339.724 606.893 340.25 607.413 340.597 608.04V606.04H342.437V617H340.597V614.96C340.237 615.6 339.697 616.133 338.977 616.56C338.27 616.973 337.444 617.18 336.497 617.18C335.524 617.18 334.644 616.94 333.857 616.46C333.07 615.98 332.45 615.307 331.997 614.44C331.544 613.573 331.317 612.587 331.317 611.48ZM340.597 611.5C340.597 610.673 340.43 609.953 340.097 609.34C339.764 608.727 339.31 608.26 338.737 607.94C338.177 607.607 337.557 607.44 336.877 607.44C336.197 607.44 335.577 607.6 335.017 607.92C334.457 608.24 334.01 608.707 333.677 609.32C333.344 609.933 333.177 610.653 333.177 611.48C333.177 612.32 333.344 613.053 333.677 613.68C334.01 614.293 334.457 614.767 335.017 615.1C335.577 615.42 336.197 615.58 336.877 615.58C337.557 615.58 338.177 615.42 338.737 615.1C339.31 614.767 339.764 614.293 340.097 613.68C340.43 613.053 340.597 612.327 340.597 611.5ZM347.333 602.2V617H345.513V602.2H347.333ZM174.276 631.5C174.276 630.367 174.503 629.38 174.956 628.54C175.409 627.687 176.036 627.027 176.836 626.56C177.649 626.093 178.576 625.86 179.616 625.86C180.963 625.86 182.069 626.187 182.936 626.84C183.816 627.493 184.396 628.4 184.676 629.56H182.716C182.529 628.893 182.163 628.367 181.616 627.98C181.083 627.593 180.416 627.4 179.616 627.4C178.576 627.4 177.736 627.76 177.096 628.48C176.456 629.187 176.136 630.193 176.136 631.5C176.136 632.82 176.456 633.84 177.096 634.56C177.736 635.28 178.576 635.64 179.616 635.64C180.416 635.64 181.083 635.453 181.616 635.08C182.149 634.707 182.516 634.173 182.716 633.48H184.676C184.383 634.6 183.796 635.5 182.916 636.18C182.036 636.847 180.936 637.18 179.616 637.18C178.576 637.18 177.649 636.947 176.836 636.48C176.036 636.013 175.409 635.353 174.956 634.5C174.503 633.647 174.276 632.647 174.276 631.5ZM192.544 625.84C193.371 625.84 194.118 626.02 194.784 626.38C195.451 626.727 195.971 627.253 196.344 627.96C196.731 628.667 196.924 629.527 196.924 630.54V637H195.124V630.8C195.124 629.707 194.851 628.873 194.304 628.3C193.758 627.713 193.011 627.42 192.064 627.42C191.104 627.42 190.338 627.72 189.764 628.32C189.204 628.92 188.924 629.793 188.924 630.94V637H187.104V622.2H188.924V627.6C189.284 627.04 189.778 626.607 190.404 626.3C191.044 625.993 191.758 625.84 192.544 625.84ZM199.217 631.48C199.217 630.36 199.444 629.38 199.897 628.54C200.351 627.687 200.971 627.027 201.757 626.56C202.557 626.093 203.444 625.86 204.417 625.86C205.377 625.86 206.211 626.067 206.917 626.48C207.624 626.893 208.151 627.413 208.497 628.04V626.04H210.337V637H208.497V634.96C208.137 635.6 207.597 636.133 206.877 636.56C206.171 636.973 205.344 637.18 204.397 637.18C203.424 637.18 202.544 636.94 201.757 636.46C200.971 635.98 200.351 635.307 199.897 634.44C199.444 633.573 199.217 632.587 199.217 631.48ZM208.497 631.5C208.497 630.673 208.331 629.953 207.997 629.34C207.664 628.727 207.211 628.26 206.637 627.94C206.077 627.607 205.457 627.44 204.777 627.44C204.097 627.44 203.477 627.6 202.917 627.92C202.357 628.24 201.911 628.707 201.577 629.32C201.244 629.933 201.077 630.653 201.077 631.48C201.077 632.32 201.244 633.053 201.577 633.68C201.911 634.293 202.357 634.767 202.917 635.1C203.477 635.42 204.097 635.58 204.777 635.58C205.457 635.58 206.077 635.42 206.637 635.1C207.211 634.767 207.664 634.293 207.997 633.68C208.331 633.053 208.497 632.327 208.497 631.5ZM218.753 625.84C220.086 625.84 221.166 626.247 221.993 627.06C222.82 627.86 223.233 629.02 223.233 630.54V637H221.433V630.8C221.433 629.707 221.16 628.873 220.613 628.3C220.066 627.713 219.32 627.42 218.373 627.42C217.413 627.42 216.646 627.72 216.073 628.32C215.513 628.92 215.233 629.793 215.233 630.94V637H213.413V626.04H215.233V627.6C215.593 627.04 216.08 626.607 216.693 626.3C217.32 625.993 218.006 625.84 218.753 625.84ZM230.726 625.86C231.673 625.86 232.499 626.067 233.206 626.48C233.926 626.893 234.459 627.413 234.806 628.04V626.04H236.646V637.24C236.646 638.24 236.433 639.127 236.006 639.9C235.579 640.687 234.966 641.3 234.166 641.74C233.379 642.18 232.459 642.4 231.406 642.4C229.966 642.4 228.766 642.06 227.806 641.38C226.846 640.7 226.279 639.773 226.106 638.6H227.906C228.106 639.267 228.519 639.8 229.146 640.2C229.773 640.613 230.526 640.82 231.406 640.82C232.406 640.82 233.219 640.507 233.846 639.88C234.486 639.253 234.806 638.373 234.806 637.24V634.94C234.446 635.58 233.913 636.113 233.206 636.54C232.499 636.967 231.673 637.18 230.726 637.18C229.753 637.18 228.866 636.94 228.066 636.46C227.279 635.98 226.659 635.307 226.206 634.44C225.753 633.573 225.526 632.587 225.526 631.48C225.526 630.36 225.753 629.38 226.206 628.54C226.659 627.687 227.279 627.027 228.066 626.56C228.866 626.093 229.753 625.86 230.726 625.86ZM234.806 631.5C234.806 630.673 234.639 629.953 234.306 629.34C233.973 628.727 233.519 628.26 232.946 627.94C232.386 627.607 231.766 627.44 231.086 627.44C230.406 627.44 229.786 627.6 229.226 627.92C228.666 628.24 228.219 628.707 227.886 629.32C227.553 629.933 227.386 630.653 227.386 631.48C227.386 632.32 227.553 633.053 227.886 633.68C228.219 634.293 228.666 634.767 229.226 635.1C229.786 635.42 230.406 635.58 231.086 635.58C231.766 635.58 232.386 635.42 232.946 635.1C233.519 634.767 233.973 634.293 234.306 633.68C234.639 633.053 234.806 632.327 234.806 631.5ZM249.722 631.1C249.722 631.447 249.702 631.813 249.662 632.2H240.902C240.968 633.28 241.335 634.127 242.002 634.74C242.682 635.34 243.502 635.64 244.462 635.64C245.248 635.64 245.902 635.46 246.422 635.1C246.955 634.727 247.328 634.233 247.542 633.62H249.502C249.208 634.673 248.622 635.533 247.742 636.2C246.862 636.853 245.768 637.18 244.462 637.18C243.422 637.18 242.488 636.947 241.662 636.48C240.848 636.013 240.208 635.353 239.742 634.5C239.275 633.633 239.042 632.633 239.042 631.5C239.042 630.367 239.268 629.373 239.722 628.52C240.175 627.667 240.808 627.013 241.622 626.56C242.448 626.093 243.395 625.86 244.462 625.86C245.502 625.86 246.422 626.087 247.222 626.54C248.022 626.993 248.635 627.62 249.062 628.42C249.502 629.207 249.722 630.1 249.722 631.1ZM247.842 630.72C247.842 630.027 247.688 629.433 247.382 628.94C247.075 628.433 246.655 628.053 246.122 627.8C245.602 627.533 245.022 627.4 244.382 627.4C243.462 627.4 242.675 627.693 242.022 628.28C241.382 628.867 241.015 629.68 240.922 630.72H247.842Z" fill="#212121"/>
<path fill-rule="evenodd" clip-rule="evenodd" d="M273.475 462.33C273.418 462.316 273.361 462.304 273.303 462.294L264.67 460.781C264.148 457.398 261.46 454.602 257.887 453.916L253.787 453.128C251.526 452.694 249.227 453.137 247.317 454.377C246.654 454.807 246.073 455.318 245.57 455.887C245.374 453.438 244.044 451.111 241.788 449.666L237.641 447.011C247.058 438.32 253.112 424.872 253.112 409.804V409.04C271.717 405.508 279.44 400.439 279.921 400.114C280.826 399.501 281.256 398.423 281.01 397.386C280.763 396.348 279.889 395.556 278.797 395.381L250.198 390.788V384.962C250.198 383.554 249.172 382.373 247.801 382.068L242.191 347.938C241.777 345.416 240.355 343.214 238.188 341.737C236.021 340.26 233.388 339.698 230.773 340.155L212.498 343.347L194.222 340.155C191.607 339.698 188.975 340.261 186.807 341.737C184.64 343.215 183.218 345.416 182.804 347.938L177.194 382.068C175.823 382.373 174.797 383.554 174.797 384.962V390.788L146.198 395.381C145.106 395.556 144.232 396.349 143.985 397.386C143.739 398.423 144.169 399.5 145.075 400.114C145.555 400.439 153.278 405.508 171.883 409.04V409.804C171.883 424.872 177.937 438.32 187.354 447.011L183.208 449.666C180.951 451.111 179.622 453.438 179.425 455.888C178.923 455.318 178.341 454.807 177.679 454.377C175.769 453.137 173.47 452.693 171.209 453.128L167.108 453.916C163.536 454.602 160.848 457.398 160.326 460.781L151.693 462.294C151.635 462.304 151.578 462.316 151.521 462.33C141.205 464.807 134 473.671 134 483.884V493.778C134 498.311 137.84 502 142.56 502H282.436C287.156 502 290.996 498.311 290.996 493.778V483.884C290.996 473.671 283.791 464.807 273.475 462.33ZM249.064 460.643C249.218 459.856 249.684 459.175 250.375 458.726C251.066 458.278 251.896 458.117 252.715 458.275L256.816 459.062C258.258 459.34 259.305 460.566 259.305 461.978V496.751H242.016L249.064 460.643ZM239.811 457.835C235.747 465.647 231.444 473.917 229.175 478.273C224.489 474.316 220.219 471.888 217.29 470.493L236.159 452.369L238.758 454.034C240.054 454.863 240.506 456.498 239.811 457.835ZM244.735 387.237V390.386H180.261V387.237H244.735ZM188.201 348.757C188.384 347.643 189.012 346.67 189.969 346.018C190.927 345.365 192.089 345.118 193.244 345.318L211.941 348.584C214.818 349.19 218.958 351.733 220.312 352.664C220.794 352.996 221.351 353.156 221.902 353.156C222.752 353.156 223.591 352.776 224.125 352.062C225.004 350.884 224.723 349.245 223.497 348.4C223.296 348.261 222.551 347.756 221.481 347.112L231.75 345.319C232.906 345.118 234.068 345.366 235.025 346.018C235.983 346.671 236.611 347.643 236.794 348.757L242.256 381.989H182.738L188.201 348.757ZM177.817 395.631L177.833 395.632C177.853 395.633 177.873 395.634 177.893 395.634H247.102C247.138 395.634 247.172 395.631 247.208 395.629L269.405 399.194C260.366 402.544 242.445 407.181 212.498 407.181C182.545 407.181 164.623 402.543 155.59 399.195L177.788 395.629C177.797 395.629 177.807 395.63 177.817 395.631ZM212.498 457.214C217.356 457.214 222.018 456.212 226.34 454.377L212.498 467.674L198.655 454.377C202.977 456.212 207.639 457.214 212.498 457.214ZM186.238 454.033L188.837 452.369L207.706 470.493C204.776 471.887 200.506 474.315 195.82 478.273C194.173 475.111 191.006 469.026 185.184 457.835C184.489 456.498 184.941 454.863 186.238 454.033ZM168.179 459.063L172.28 458.275C173.098 458.118 173.929 458.278 174.62 458.727C175.311 459.175 175.777 459.856 175.931 460.643L182.98 496.752H165.69V461.979C165.69 460.566 166.737 459.34 168.179 459.063ZM139.464 493.778V483.884C139.464 476.11 144.928 469.36 152.763 467.441L160.226 466.134V496.752H142.56C140.852 496.752 139.464 495.418 139.464 493.778ZM285.532 493.778C285.532 495.418 284.143 496.752 282.436 496.752H264.769V466.134L272.232 467.441C280.068 469.36 285.532 476.11 285.532 483.884V493.778ZM177.348 409.979C182.563 410.785 188.492 411.455 195.195 411.89L200.659 412.181C204.388 412.34 208.327 412.429 212.498 412.429C216.668 412.429 220.608 412.34 224.336 412.181L229.8 411.89C236.504 411.455 242.433 410.785 247.647 409.979C247.568 433.147 231.832 451.966 212.498 451.966C193.164 451.966 177.427 433.147 177.348 409.979ZM194.575 485.171C193.195 484.956 192.738 484.081 192.209 483.068L182.061 463.571L188.538 496.752H236.457L242.933 463.574C241.098 467.101 238.922 471.284 237.027 474.925L232.786 483.068C232.257 484.082 231.799 484.957 230.42 485.172C230.274 485.195 230.127 485.206 229.982 485.206C229.269 485.206 228.578 484.938 228.063 484.449C223.096 479.741 215.747 474.183 212.607 472.6C209.464 474.183 201.899 479.741 196.932 484.449C196.417 484.937 195.725 485.205 195.013 485.205C194.868 485.205 194.721 485.194 194.575 485.171Z" fill="#851D2D"/>
<path d="M212.497 440.42C207.351 440.42 202.542 439.206 199.304 437.089C198.057 436.274 197.733 434.641 198.583 433.443C199.432 432.246 201.131 431.935 202.378 432.751C204.698 434.267 208.48 435.172 212.497 435.172C216.514 435.172 220.297 434.267 222.617 432.751C223.865 431.935 225.564 432.246 226.412 433.444C227.262 434.642 226.938 436.274 225.691 437.09C222.452 439.206 217.644 440.42 212.497 440.42Z" fill="#851D2D"/>
<rect width="423" height="44" fill="#FAFAFA"/>
<rect opacity="0.35" x="384.834" y="18.5" width="21" height="10.3333" rx="2.16667" stroke="black"/>
<path opacity="0.4" d="M407.334 21.6667V25.6667C408.139 25.328 408.662 24.5399 408.662 23.6667C408.662 22.7936 408.139 22.0055 407.334 21.6667Z" fill="black"/>
<rect x="386.334" y="20" width="18" height="7.33333" rx="1.33333" fill="black"/>
<path d="M369.448 26.4267C370.729 25.3444 372.605 25.3444 373.886 26.4267C373.95 26.4849 373.987 26.5675 373.989 26.6542C373.991 26.7409 373.956 26.824 373.895 26.8847L371.89 28.9072C371.831 28.9666 371.751 28.9999 371.667 28.9999C371.583 28.9999 371.503 28.9666 371.444 28.9072L369.438 26.8847C369.377 26.824 369.343 26.7407 369.345 26.6542C369.347 26.5675 369.384 26.4848 369.448 26.4267ZM366.772 23.7294C369.532 21.165 373.804 21.1651 376.563 23.7294C376.626 23.7896 376.661 23.8724 376.662 23.9589C376.663 24.0453 376.629 24.1281 376.568 24.1894L375.409 25.3603C375.29 25.4796 375.097 25.4814 374.975 25.3652C374.069 24.5454 372.889 24.0917 371.667 24.0917C370.446 24.0923 369.268 24.5461 368.362 25.3652C368.24 25.4815 368.046 25.4798 367.927 25.3603L366.769 24.1894C366.707 24.1282 366.673 24.0453 366.674 23.9589C366.675 23.8724 366.71 23.7895 366.772 23.7294ZM364.097 21.039C368.328 16.9869 375.004 16.9871 379.236 21.039C379.298 21.0992 379.333 21.1817 379.333 21.2675C379.333 21.3533 379.3 21.4361 379.239 21.497L378.079 22.6669C377.96 22.787 377.765 22.7881 377.644 22.6699C376.031 21.1384 373.892 20.2842 371.667 20.2841C369.442 20.2841 367.302 21.1382 365.689 22.6699C365.568 22.7882 365.374 22.787 365.255 22.6669L364.094 21.497C364.033 21.4361 364 21.3532 364 21.2675C364.001 21.1817 364.035 21.0991 364.097 21.039Z" fill="black"/>
<path d="M344 24.667C344.552 24.667 345 25.1147 345 25.667V27.667C345 28.2191 344.552 28.667 344 28.667H343C342.448 28.667 342 28.2191 342 27.667V25.667C342 25.1147 342.448 24.667 343 24.667H344ZM348.667 22.667C349.219 22.6672 349.667 23.1148 349.667 23.667V27.667C349.667 28.219 349.219 28.6668 348.667 28.667H347.667C347.115 28.667 346.667 28.2191 346.667 27.667V23.667C346.667 23.1147 347.115 22.667 347.667 22.667H348.667ZM353.333 20.333C353.885 20.333 354.333 20.7809 354.333 21.333V27.667C354.333 28.2191 353.885 28.667 353.333 28.667H352.333C351.781 28.6668 351.333 28.219 351.333 27.667V21.333C351.333 20.781 351.781 20.3332 352.333 20.333H353.333ZM358 18C358.552 18 359 18.4477 359 19V27.667C359 28.2191 358.552 28.667 358 28.667H357C356.448 28.667 356 28.2191 356 27.667V19C356 18.4477 356.448 18 357 18H358Z" fill="black"/>
<path d="M36.856 18.1675C34.5635 18.1675 32.9302 19.7349 32.9302 21.8809V21.8955C32.9302 23.9023 34.3511 25.3818 36.3799 25.3818C37.8301 25.3818 38.7529 24.6421 39.1411 23.8071H39.2876C39.2876 23.8877 39.2803 23.9683 39.2803 24.0488C39.1997 26.0703 38.4893 27.7109 36.812 27.7109C35.8818 27.7109 35.23 27.2275 34.9517 26.4878L34.9297 26.4146H33.0693L33.084 26.4951C33.4209 28.1138 34.8711 29.2637 36.812 29.2637C39.4707 29.2637 41.0747 27.1543 41.0747 23.5947V23.5801C41.0747 19.7715 39.1118 18.1675 36.856 18.1675ZM36.8486 23.9316C35.6475 23.9316 34.7759 23.0527 34.7759 21.8296V21.8149C34.7759 20.6357 35.7061 19.7056 36.8706 19.7056C38.0425 19.7056 38.958 20.6504 38.958 21.8589V21.8735C38.958 23.0674 38.0425 23.9316 36.8486 23.9316ZM44.2331 23.7046C44.907 23.7046 45.3977 23.1992 45.3977 22.5547C45.3977 21.9028 44.907 21.3975 44.2331 21.3975C43.5666 21.3975 43.0686 21.9028 43.0686 22.5547C43.0686 23.1992 43.5666 23.7046 44.2331 23.7046ZM44.2331 29.1465C44.907 29.1465 45.3977 28.6338 45.3977 27.9893C45.3977 27.3374 44.907 26.832 44.2331 26.832C43.5666 26.832 43.0686 27.3374 43.0686 27.9893C43.0686 28.6338 43.5666 29.1465 44.2331 29.1465ZM52.2988 29H54.1079V26.9712H55.5288V25.4111H54.1079V18.4312H51.4346C49.999 20.6138 48.4975 23.0454 47.1279 25.4258V26.9712H52.2988V29ZM48.8857 25.4551V25.3452C49.9111 23.5508 51.1343 21.5952 52.2182 19.9399H52.3281V25.4551H48.8857ZM59.6687 29H61.5583V18.4312H59.676L56.9148 20.3721V22.1519L59.5442 20.2915H59.6687V29Z" fill="black"/>
<rect width="375" height="34" transform="translate(22 868)" fill="#FAFAFA"/>
<rect x="143" y="889" width="134" height="5" rx="2.5" fill="black"/>
</svg>
