<svg width="423" height="914" viewBox="0 0 423 914" fill="none" xmlns="http://www.w3.org/2000/svg">
<rect width="422" height="914" transform="translate(1)" fill="#FAFAFA"/>
<path fill-rule="evenodd" clip-rule="evenodd" d="M54.4697 59.4697C54.7626 59.1768 55.2374 59.1768 55.5303 59.4697L61 64.9393L66.4697 59.4697C66.7626 59.1768 67.2374 59.1768 67.5303 59.4697C67.8232 59.7626 67.8232 60.2374 67.5303 60.5303L62.0607 66L67.5303 71.4697C67.8232 71.7626 67.8232 72.2374 67.5303 72.5303C67.2374 72.8232 66.7626 72.8232 66.4697 72.5303L61 67.0607L55.5303 72.5303C55.2374 72.8232 54.7626 72.8232 54.4697 72.5303C54.1768 72.2374 54.1768 71.7626 54.4697 71.4697L59.9393 66L54.4697 60.5303C54.1768 60.2374 54.1768 59.7626 54.4697 59.4697Z" fill="#0F172A"/>
<path d="M184.835 51.4C184.582 50.9333 184.215 50.58 183.735 50.34C183.269 50.0867 182.715 49.96 182.075 49.96C180.969 49.96 180.082 50.3267 179.415 51.06C178.749 51.78 178.415 52.7467 178.415 53.96C178.415 55.2533 178.762 56.2667 179.455 57C180.162 57.72 181.129 58.08 182.355 58.08C183.195 58.08 183.902 57.8667 184.475 57.44C185.062 57.0133 185.489 56.4 185.755 55.6H181.415V53.08H188.855V56.26C188.602 57.1133 188.169 57.9067 187.555 58.64C186.955 59.3733 186.189 59.9667 185.255 60.42C184.322 60.8733 183.269 61.1 182.095 61.1C180.709 61.1 179.469 60.8 178.375 60.2C177.295 59.5867 176.449 58.74 175.835 57.66C175.235 56.58 174.935 55.3467 174.935 53.96C174.935 52.5733 175.235 51.34 175.835 50.26C176.449 49.1667 177.295 48.32 178.375 47.72C179.455 47.1067 180.689 46.8 182.075 46.8C183.755 46.8 185.169 47.2067 186.315 48.02C187.475 48.8333 188.242 49.96 188.615 51.4H184.835ZM194.17 51.7C194.57 51.0867 195.07 50.6067 195.67 50.26C196.27 49.9 196.936 49.72 197.67 49.72V53.34H196.73C195.876 53.34 195.236 53.5267 194.81 53.9C194.383 54.26 194.17 54.9 194.17 55.82V61H190.75V49.84H194.17V51.7ZM204.384 61.16C203.291 61.16 202.304 60.9267 201.424 60.46C200.558 59.9933 199.871 59.3267 199.364 58.46C198.871 57.5933 198.624 56.58 198.624 55.42C198.624 54.2733 198.878 53.2667 199.384 52.4C199.891 51.52 200.584 50.8467 201.464 50.38C202.344 49.9133 203.331 49.68 204.424 49.68C205.518 49.68 206.504 49.9133 207.384 50.38C208.264 50.8467 208.958 51.52 209.464 52.4C209.971 53.2667 210.224 54.2733 210.224 55.42C210.224 56.5667 209.964 57.58 209.444 58.46C208.938 59.3267 208.238 59.9933 207.344 60.46C206.464 60.9267 205.478 61.16 204.384 61.16ZM204.384 58.2C205.038 58.2 205.591 57.96 206.044 57.48C206.511 57 206.744 56.3133 206.744 55.42C206.744 54.5267 206.518 53.84 206.064 53.36C205.624 52.88 205.078 52.64 204.424 52.64C203.758 52.64 203.204 52.88 202.764 53.36C202.324 53.8267 202.104 54.5133 202.104 55.42C202.104 56.3133 202.318 57 202.744 57.48C203.184 57.96 203.731 58.2 204.384 58.2ZM228.059 49.84L225.039 61H221.259L219.499 53.76L217.679 61H213.919L210.879 49.84H214.299L215.879 57.82L217.759 49.84H221.379L223.279 57.78L224.839 49.84H228.059ZM235.583 58.1V61H233.843C232.603 61 231.636 60.7 230.943 60.1C230.25 59.4867 229.903 58.4933 229.903 57.12V52.68H228.543V49.84H229.903V47.12H233.323V49.84H235.563V52.68H233.323V57.16C233.323 57.4933 233.403 57.7333 233.563 57.88C233.723 58.0267 233.99 58.1 234.363 58.1H235.583ZM244.348 49.72C245.628 49.72 246.655 50.1467 247.428 51C248.201 51.84 248.588 53 248.588 54.48V61H245.188V54.94C245.188 54.1933 244.995 53.6133 244.608 53.2C244.221 52.7867 243.701 52.58 243.048 52.58C242.395 52.58 241.875 52.7867 241.488 53.2C241.101 53.6133 240.908 54.1933 240.908 54.94V61H237.488V46.2H240.908V51.34C241.255 50.8467 241.728 50.4533 242.328 50.16C242.928 49.8667 243.601 49.72 244.348 49.72ZM156.931 77.14C155.611 77.14 154.397 76.8333 153.291 76.22C152.197 75.6067 151.324 74.7533 150.671 73.66C150.031 72.5533 149.711 71.3133 149.711 69.94C149.711 68.5667 150.031 67.3333 150.671 66.24C151.324 65.1467 152.197 64.2933 153.291 63.68C154.397 63.0667 155.611 62.76 156.931 62.76C158.251 62.76 159.457 63.0667 160.551 63.68C161.657 64.2933 162.524 65.1467 163.151 66.24C163.791 67.3333 164.111 68.5667 164.111 69.94C164.111 71.3133 163.791 72.5533 163.151 73.66C162.511 74.7533 161.644 75.6067 160.551 76.22C159.457 76.8333 158.251 77.14 156.931 77.14ZM156.931 74.02C158.051 74.02 158.944 73.6467 159.611 72.9C160.291 72.1533 160.631 71.1667 160.631 69.94C160.631 68.7 160.291 67.7133 159.611 66.98C158.944 66.2333 158.051 65.86 156.931 65.86C155.797 65.86 154.891 66.2267 154.211 66.96C153.544 67.6933 153.211 68.6867 153.211 69.94C153.211 71.18 153.544 72.1733 154.211 72.92C154.891 73.6533 155.797 74.02 156.931 74.02ZM169.433 67.42C169.767 66.9 170.227 66.48 170.813 66.16C171.4 65.84 172.087 65.68 172.873 65.68C173.793 65.68 174.627 65.9133 175.373 66.38C176.12 66.8467 176.707 67.5133 177.133 68.38C177.573 69.2467 177.793 70.2533 177.793 71.4C177.793 72.5467 177.573 73.56 177.133 74.44C176.707 75.3067 176.12 75.98 175.373 76.46C174.627 76.9267 173.793 77.16 172.873 77.16C172.1 77.16 171.413 77 170.813 76.68C170.227 76.36 169.767 75.9467 169.433 75.44V82.32H166.013V65.84H169.433V67.42ZM174.313 71.4C174.313 70.5467 174.073 69.88 173.593 69.4C173.127 68.9067 172.547 68.66 171.853 68.66C171.173 68.66 170.593 68.9067 170.113 69.4C169.647 69.8933 169.413 70.5667 169.413 71.42C169.413 72.2733 169.647 72.9467 170.113 73.44C170.593 73.9333 171.173 74.18 171.853 74.18C172.533 74.18 173.113 73.9333 173.593 73.44C174.073 72.9333 174.313 72.2533 174.313 71.4ZM183.008 67.42C183.341 66.9 183.801 66.48 184.388 66.16C184.974 65.84 185.661 65.68 186.448 65.68C187.368 65.68 188.201 65.9133 188.948 66.38C189.694 66.8467 190.281 67.5133 190.708 68.38C191.148 69.2467 191.368 70.2533 191.368 71.4C191.368 72.5467 191.148 73.56 190.708 74.44C190.281 75.3067 189.694 75.98 188.948 76.46C188.201 76.9267 187.368 77.16 186.448 77.16C185.674 77.16 184.988 77 184.388 76.68C183.801 76.36 183.341 75.9467 183.008 75.44V82.32H179.588V65.84H183.008V67.42ZM187.888 71.4C187.888 70.5467 187.648 69.88 187.168 69.4C186.701 68.9067 186.121 68.66 185.428 68.66C184.748 68.66 184.168 68.9067 183.688 69.4C183.221 69.8933 182.988 70.5667 182.988 71.42C182.988 72.2733 183.221 72.9467 183.688 73.44C184.168 73.9333 184.748 74.18 185.428 74.18C186.108 74.18 186.688 73.9333 187.168 73.44C187.648 72.9333 187.888 72.2533 187.888 71.4ZM198.242 77.16C197.149 77.16 196.162 76.9267 195.282 76.46C194.415 75.9933 193.729 75.3267 193.222 74.46C192.729 73.5933 192.482 72.58 192.482 71.42C192.482 70.2733 192.735 69.2667 193.242 68.4C193.749 67.52 194.442 66.8467 195.322 66.38C196.202 65.9133 197.189 65.68 198.282 65.68C199.375 65.68 200.362 65.9133 201.242 66.38C202.122 66.8467 202.815 67.52 203.322 68.4C203.829 69.2667 204.082 70.2733 204.082 71.42C204.082 72.5667 203.822 73.58 203.302 74.46C202.795 75.3267 202.095 75.9933 201.202 76.46C200.322 76.9267 199.335 77.16 198.242 77.16ZM198.242 74.2C198.895 74.2 199.449 73.96 199.902 73.48C200.369 73 200.602 72.3133 200.602 71.42C200.602 70.5267 200.375 69.84 199.922 69.36C199.482 68.88 198.935 68.64 198.282 68.64C197.615 68.64 197.062 68.88 196.622 69.36C196.182 69.8267 195.962 70.5133 195.962 71.42C195.962 72.3133 196.175 73 196.602 73.48C197.042 73.96 197.589 74.2 198.242 74.2ZM209.316 67.7C209.716 67.0867 210.216 66.6067 210.816 66.26C211.416 65.9 212.083 65.72 212.816 65.72V69.34H211.876C211.023 69.34 210.383 69.5267 209.956 69.9C209.53 70.26 209.316 70.9 209.316 71.82V77H205.896V65.84H209.316V67.7ZM220.671 74.1V77H218.931C217.691 77 216.724 76.7 216.031 76.1C215.338 75.4867 214.991 74.4933 214.991 73.12V68.68H213.631V65.84H214.991V63.12H218.411V65.84H220.651V68.68H218.411V73.16C218.411 73.4933 218.491 73.7333 218.651 73.88C218.811 74.0267 219.078 74.1 219.451 74.1H220.671ZM233.596 65.84V77H230.176V75.48C229.829 75.9733 229.356 76.3733 228.756 76.68C228.169 76.9733 227.516 77.12 226.796 77.12C225.943 77.12 225.189 76.9333 224.536 76.56C223.883 76.1733 223.376 75.62 223.016 74.9C222.656 74.18 222.476 73.3333 222.476 72.36V65.84H225.876V71.9C225.876 72.6467 226.069 73.2267 226.456 73.64C226.843 74.0533 227.363 74.26 228.016 74.26C228.683 74.26 229.209 74.0533 229.596 73.64C229.983 73.2267 230.176 72.6467 230.176 71.9V65.84H233.596ZM242.853 65.72C244.159 65.72 245.199 66.1467 245.973 67C246.759 67.84 247.153 69 247.153 70.48V77H243.753V70.94C243.753 70.1933 243.559 69.6133 243.173 69.2C242.786 68.7867 242.266 68.58 241.613 68.58C240.959 68.58 240.439 68.7867 240.053 69.2C239.666 69.6133 239.473 70.1933 239.473 70.94V77H236.053V65.84H239.473V67.32C239.819 66.8267 240.286 66.44 240.873 66.16C241.459 65.8667 242.119 65.72 242.853 65.72ZM251.249 64.68C250.649 64.68 250.156 64.5067 249.769 64.16C249.396 63.8 249.209 63.36 249.209 62.84C249.209 62.3067 249.396 61.8667 249.769 61.52C250.156 61.16 250.649 60.98 251.249 60.98C251.836 60.98 252.316 61.16 252.689 61.52C253.076 61.8667 253.269 62.3067 253.269 62.84C253.269 63.36 253.076 63.8 252.689 64.16C252.316 64.5067 251.836 64.68 251.249 64.68ZM252.949 65.84V77H249.529V65.84H252.949ZM261.648 74.1V77H259.908C258.668 77 257.701 76.7 257.008 76.1C256.314 75.4867 255.968 74.4933 255.968 73.12V68.68H254.608V65.84H255.968V63.12H259.388V65.84H261.628V68.68H259.388V73.16C259.388 73.4933 259.468 73.7333 259.628 73.88C259.788 74.0267 260.054 74.1 260.428 74.1H261.648ZM274.953 65.84L267.953 82.3H264.273L266.833 76.62L262.292 65.84H266.113L268.693 72.82L271.253 65.84H274.953Z" fill="#851D2D"/>
<path d="M175.516 106.352V109.616H179.356V111.104H175.516V114.512H179.836V116H173.692V104.864H179.836V106.352H175.516ZM185.859 111.536L188.707 116H186.643L184.739 113.008L182.947 116H181.043L183.891 111.664L181.043 107.184H183.107L185.011 110.176L186.803 107.184H188.707L185.859 111.536ZM198.147 111.376C198.147 111.707 198.126 112.005 198.083 112.272H191.347C191.401 112.976 191.662 113.541 192.131 113.968C192.601 114.395 193.177 114.608 193.859 114.608C194.841 114.608 195.534 114.197 195.939 113.376H197.907C197.641 114.187 197.155 114.853 196.451 115.376C195.758 115.888 194.894 116.144 193.859 116.144C193.017 116.144 192.259 115.957 191.587 115.584C190.926 115.2 190.403 114.667 190.019 113.984C189.646 113.291 189.459 112.491 189.459 111.584C189.459 110.677 189.641 109.883 190.003 109.2C190.377 108.507 190.894 107.973 191.555 107.6C192.227 107.227 192.995 107.04 193.859 107.04C194.691 107.04 195.433 107.221 196.083 107.584C196.734 107.947 197.241 108.459 197.603 109.12C197.966 109.771 198.147 110.523 198.147 111.376ZM196.243 110.8C196.233 110.128 195.993 109.589 195.523 109.184C195.054 108.779 194.473 108.576 193.779 108.576C193.15 108.576 192.611 108.779 192.163 109.184C191.715 109.579 191.449 110.117 191.363 110.8H196.243ZM201.766 108.464C202.033 108.016 202.385 107.669 202.822 107.424C203.27 107.168 203.798 107.04 204.406 107.04V108.928H203.942C203.228 108.928 202.684 109.109 202.31 109.472C201.948 109.835 201.766 110.464 201.766 111.36V116H199.942V107.184H201.766V108.464ZM205.475 111.584C205.475 110.677 205.656 109.883 206.019 109.2C206.392 108.507 206.904 107.973 207.555 107.6C208.205 107.227 208.952 107.04 209.795 107.04C210.861 107.04 211.741 107.296 212.435 107.808C213.139 108.309 213.613 109.029 213.859 109.968H211.891C211.731 109.531 211.475 109.189 211.123 108.944C210.771 108.699 210.328 108.576 209.795 108.576C209.048 108.576 208.451 108.843 208.003 109.376C207.565 109.899 207.347 110.635 207.347 111.584C207.347 112.533 207.565 113.275 208.003 113.808C208.451 114.341 209.048 114.608 209.795 114.608C210.851 114.608 211.549 114.144 211.891 113.216H213.859C213.603 114.112 213.123 114.827 212.419 115.36C211.715 115.883 210.84 116.144 209.795 116.144C208.952 116.144 208.205 115.957 207.555 115.584C206.904 115.2 206.392 114.667 206.019 113.984C205.656 113.291 205.475 112.491 205.475 111.584ZM216.605 106.016C216.274 106.016 215.997 105.904 215.773 105.68C215.549 105.456 215.437 105.179 215.437 104.848C215.437 104.517 215.549 104.24 215.773 104.016C215.997 103.792 216.274 103.68 216.605 103.68C216.925 103.68 217.197 103.792 217.421 104.016C217.645 104.24 217.757 104.517 217.757 104.848C217.757 105.179 217.645 105.456 217.421 105.68C217.197 105.904 216.925 106.016 216.605 106.016ZM217.501 107.184V116H215.677V107.184H217.501ZM223.095 116.144C222.402 116.144 221.778 116.021 221.223 115.776C220.679 115.52 220.247 115.179 219.927 114.752C219.607 114.315 219.437 113.829 219.415 113.296H221.303C221.335 113.669 221.511 113.984 221.831 114.24C222.162 114.485 222.573 114.608 223.063 114.608C223.575 114.608 223.97 114.512 224.247 114.32C224.535 114.117 224.679 113.861 224.679 113.552C224.679 113.221 224.519 112.976 224.199 112.816C223.89 112.656 223.394 112.48 222.711 112.288C222.05 112.107 221.511 111.931 221.095 111.76C220.679 111.589 220.317 111.328 220.007 110.976C219.709 110.624 219.559 110.16 219.559 109.584C219.559 109.115 219.698 108.688 219.975 108.304C220.253 107.909 220.647 107.6 221.159 107.376C221.682 107.152 222.279 107.04 222.951 107.04C223.954 107.04 224.759 107.296 225.367 107.808C225.986 108.309 226.317 108.997 226.359 109.872H224.535C224.503 109.477 224.343 109.163 224.055 108.928C223.767 108.693 223.378 108.576 222.887 108.576C222.407 108.576 222.039 108.667 221.783 108.848C221.527 109.029 221.399 109.269 221.399 109.568C221.399 109.803 221.485 110 221.655 110.16C221.826 110.32 222.034 110.448 222.279 110.544C222.525 110.629 222.887 110.741 223.367 110.88C224.007 111.051 224.53 111.227 224.935 111.408C225.351 111.579 225.709 111.835 226.007 112.176C226.306 112.517 226.461 112.971 226.471 113.536C226.471 114.037 226.333 114.485 226.055 114.88C225.778 115.275 225.383 115.584 224.871 115.808C224.37 116.032 223.778 116.144 223.095 116.144ZM236.522 111.376C236.522 111.707 236.501 112.005 236.458 112.272H229.722C229.776 112.976 230.037 113.541 230.506 113.968C230.976 114.395 231.552 114.608 232.234 114.608C233.216 114.608 233.909 114.197 234.314 113.376H236.282C236.016 114.187 235.53 114.853 234.826 115.376C234.133 115.888 233.269 116.144 232.234 116.144C231.392 116.144 230.634 115.957 229.962 115.584C229.301 115.2 228.778 114.667 228.394 113.984C228.021 113.291 227.834 112.491 227.834 111.584C227.834 110.677 228.016 109.883 228.378 109.2C228.752 108.507 229.269 107.973 229.93 107.6C230.602 107.227 231.37 107.04 232.234 107.04C233.066 107.04 233.808 107.221 234.458 107.584C235.109 107.947 235.616 108.459 235.978 109.12C236.341 109.771 236.522 110.523 236.522 111.376ZM234.618 110.8C234.608 110.128 234.368 109.589 233.898 109.184C233.429 108.779 232.848 108.576 232.154 108.576C231.525 108.576 230.986 108.779 230.538 109.184C230.09 109.579 229.824 110.117 229.738 110.8H234.618ZM243.241 113.52C244.265 112.635 245.071 111.909 245.657 111.344C246.255 110.768 246.751 110.171 247.145 109.552C247.54 108.933 247.737 108.315 247.737 107.696C247.737 107.056 247.583 106.555 247.273 106.192C246.975 105.829 246.5 105.648 245.849 105.648C245.22 105.648 244.729 105.851 244.377 106.256C244.036 106.651 243.855 107.184 243.833 107.856H242.073C242.105 106.64 242.468 105.712 243.161 105.072C243.865 104.421 244.756 104.096 245.833 104.096C246.996 104.096 247.903 104.416 248.553 105.056C249.215 105.696 249.545 106.549 249.545 107.616C249.545 108.384 249.348 109.125 248.953 109.84C248.569 110.544 248.105 111.179 247.561 111.744C247.028 112.299 246.345 112.944 245.513 113.68L244.793 114.32H249.865V115.84H242.089V114.512L243.241 113.52Z" fill="#212121"/>
<path d="M57.2653 152.848L55.3193 150.902C54.8433 151.033 54.358 151.098 53.8633 151.098C52.958 151.098 52.132 150.888 51.3853 150.468C50.6387 150.039 50.046 149.446 49.6073 148.69C49.178 147.925 48.9633 147.066 48.9633 146.114C48.9633 145.162 49.178 144.308 49.6073 143.552C50.046 142.787 50.6387 142.194 51.3853 141.774C52.132 141.345 52.958 141.13 53.8633 141.13C54.778 141.13 55.6087 141.345 56.3553 141.774C57.102 142.194 57.69 142.782 58.1193 143.538C58.5487 144.294 58.7633 145.153 58.7633 146.114C58.7633 147.047 58.558 147.887 58.1473 148.634C57.7367 149.381 57.172 149.969 56.4533 150.398L58.9173 152.848H57.2653ZM50.2653 146.114C50.2653 146.889 50.4193 147.57 50.7273 148.158C51.0447 148.746 51.474 149.199 52.0153 149.516C52.566 149.833 53.182 149.992 53.8633 149.992C54.5447 149.992 55.156 149.833 55.6973 149.516C56.248 149.199 56.6773 148.746 56.9853 148.158C57.3027 147.57 57.4613 146.889 57.4613 146.114C57.4613 145.33 57.3027 144.649 56.9853 144.07C56.6773 143.482 56.2527 143.029 55.7113 142.712C55.17 142.395 54.554 142.236 53.8633 142.236C53.1727 142.236 52.5567 142.395 52.0153 142.712C51.474 143.029 51.0447 143.482 50.7273 144.07C50.4193 144.649 50.2653 145.33 50.2653 146.114ZM60.2345 143.426C60.2999 142.567 60.6312 141.895 61.2285 141.41C61.8259 140.925 62.6005 140.682 63.5525 140.682C64.1872 140.682 64.7332 140.799 65.1905 141.032C65.6572 141.256 66.0072 141.564 66.2405 141.956C66.4832 142.348 66.6045 142.791 66.6045 143.286C66.6045 143.865 66.4365 144.364 66.1005 144.784C65.7739 145.204 65.3445 145.475 64.8125 145.596V145.666C65.4192 145.815 65.8999 146.109 66.2545 146.548C66.6092 146.987 66.7865 147.561 66.7865 148.27C66.7865 148.802 66.6652 149.283 66.4225 149.712C66.1799 150.132 65.8159 150.463 65.3305 150.706C64.8452 150.949 64.2619 151.07 63.5805 151.07C62.5912 151.07 61.7792 150.813 61.1445 150.3C60.5099 149.777 60.1552 149.04 60.0805 148.088H61.3125C61.3779 148.648 61.6065 149.105 61.9985 149.46C62.3905 149.815 62.9132 149.992 63.5665 149.992C64.2199 149.992 64.7145 149.824 65.0505 149.488C65.3959 149.143 65.5685 148.699 65.5685 148.158C65.5685 147.458 65.3352 146.954 64.8685 146.646C64.4019 146.338 63.6972 146.184 62.7545 146.184H62.4325V145.12H62.7685C63.6272 145.111 64.2759 144.971 64.7145 144.7C65.1532 144.42 65.3725 143.991 65.3725 143.412C65.3725 142.917 65.2092 142.521 64.8825 142.222C64.5652 141.923 64.1079 141.774 63.5105 141.774C62.9319 141.774 62.4652 141.923 62.1105 142.222C61.7559 142.521 61.5459 142.922 61.4805 143.426H60.2345Z" fill="black"/>
<rect x="76" y="141" width="267" height="10" rx="5" fill="#E0E0E0"/>
<rect x="76" y="141" width="57" height="10" rx="5" fill="#851D2D"/>
<path d="M351.583 142.04V140.878H354.215V151H352.927V142.04H351.583ZM356.403 145.834C356.403 144.229 356.664 142.978 357.187 142.082C357.71 141.177 358.624 140.724 359.931 140.724C361.228 140.724 362.138 141.177 362.661 142.082C363.184 142.978 363.445 144.229 363.445 145.834C363.445 147.467 363.184 148.737 362.661 149.642C362.138 150.547 361.228 151 359.931 151C358.624 151 357.71 150.547 357.187 149.642C356.664 148.737 356.403 147.467 356.403 145.834ZM362.185 145.834C362.185 145.022 362.129 144.336 362.017 143.776C361.914 143.207 361.695 142.749 361.359 142.404C361.032 142.059 360.556 141.886 359.931 141.886C359.296 141.886 358.811 142.059 358.475 142.404C358.148 142.749 357.929 143.207 357.817 143.776C357.714 144.336 357.663 145.022 357.663 145.834C357.663 146.674 357.714 147.379 357.817 147.948C357.929 148.517 358.148 148.975 358.475 149.32C358.811 149.665 359.296 149.838 359.931 149.838C360.556 149.838 361.032 149.665 361.359 149.32C361.695 148.975 361.914 148.517 362.017 147.948C362.129 147.379 362.185 146.674 362.185 145.834ZM364.914 143.16C364.914 142.525 365.106 142.021 365.488 141.648C365.871 141.265 366.361 141.074 366.958 141.074C367.556 141.074 368.046 141.265 368.428 141.648C368.811 142.021 369.002 142.525 369.002 143.16C369.002 143.804 368.811 144.317 368.428 144.7C368.046 145.073 367.556 145.26 366.958 145.26C366.361 145.26 365.871 145.073 365.488 144.7C365.106 144.317 364.914 143.804 364.914 143.16ZM373.09 141.228L367.42 151H366.16L371.83 141.228H373.09ZM366.958 141.858C366.641 141.858 366.389 141.97 366.202 142.194C366.025 142.409 365.936 142.731 365.936 143.16C365.936 143.589 366.025 143.916 366.202 144.14C366.389 144.364 366.641 144.476 366.958 144.476C367.276 144.476 367.528 144.364 367.714 144.14C367.901 143.907 367.994 143.58 367.994 143.16C367.994 142.731 367.901 142.409 367.714 142.194C367.528 141.97 367.276 141.858 366.958 141.858ZM370.276 149.068C370.276 148.424 370.468 147.915 370.85 147.542C371.233 147.159 371.723 146.968 372.32 146.968C372.918 146.968 373.403 147.159 373.776 147.542C374.159 147.915 374.35 148.424 374.35 149.068C374.35 149.703 374.159 150.211 373.776 150.594C373.403 150.977 372.918 151.168 372.32 151.168C371.723 151.168 371.233 150.981 370.85 150.608C370.468 150.225 370.276 149.712 370.276 149.068ZM372.306 147.766C371.989 147.766 371.737 147.878 371.55 148.102C371.364 148.317 371.27 148.639 371.27 149.068C371.27 149.488 371.364 149.81 371.55 150.034C371.737 150.249 371.989 150.356 372.306 150.356C372.624 150.356 372.876 150.249 373.062 150.034C373.249 149.81 373.342 149.488 373.342 149.068C373.342 148.639 373.249 148.317 373.062 148.102C372.876 147.878 372.624 147.766 372.306 147.766Z" fill="black"/>
<path d="M79.0342 557.14C78.1142 557.14 77.2876 556.98 76.5542 556.66C75.8342 556.327 75.2676 555.873 74.8542 555.3C74.4409 554.713 74.2276 554.04 74.2142 553.28H76.1542C76.2209 553.933 76.4876 554.487 76.9542 554.94C77.4342 555.38 78.1276 555.6 79.0342 555.6C79.9009 555.6 80.5809 555.387 81.0742 554.96C81.5809 554.52 81.8342 553.96 81.8342 553.28C81.8342 552.747 81.6876 552.313 81.3942 551.98C81.1009 551.647 80.7342 551.393 80.2942 551.22C79.8542 551.047 79.2609 550.86 78.5142 550.66C77.5942 550.42 76.8542 550.18 76.2942 549.94C75.7476 549.7 75.2742 549.327 74.8742 548.82C74.4876 548.3 74.2942 547.607 74.2942 546.74C74.2942 545.98 74.4876 545.307 74.8742 544.72C75.2609 544.133 75.8009 543.68 76.4942 543.36C77.2009 543.04 78.0076 542.88 78.9142 542.88C80.2209 542.88 81.2876 543.207 82.1142 543.86C82.9542 544.513 83.4276 545.38 83.5342 546.46H81.5342C81.4676 545.927 81.1876 545.46 80.6942 545.06C80.2009 544.647 79.5476 544.44 78.7342 544.44C77.9742 544.44 77.3542 544.64 76.8742 545.04C76.3942 545.427 76.1542 545.973 76.1542 546.68C76.1542 547.187 76.2942 547.6 76.5742 547.92C76.8676 548.24 77.2209 548.487 77.6342 548.66C78.0609 548.82 78.6542 549.007 79.4142 549.22C80.3342 549.473 81.0742 549.727 81.6342 549.98C82.1942 550.22 82.6742 550.6 83.0742 551.12C83.4742 551.627 83.6742 552.32 83.6742 553.2C83.6742 553.88 83.4942 554.52 83.1342 555.12C82.7742 555.72 82.2409 556.207 81.5342 556.58C80.8276 556.953 79.9942 557.14 79.0342 557.14ZM91.1325 557.18C90.1058 557.18 89.1725 556.947 88.3325 556.48C87.5058 556.013 86.8525 555.353 86.3725 554.5C85.9058 553.633 85.6725 552.633 85.6725 551.5C85.6725 550.38 85.9125 549.393 86.3925 548.54C86.8858 547.673 87.5525 547.013 88.3925 546.56C89.2325 546.093 90.1725 545.86 91.2125 545.86C92.2525 545.86 93.1925 546.093 94.0325 546.56C94.8725 547.013 95.5325 547.667 96.0125 548.52C96.5058 549.373 96.7525 550.367 96.7525 551.5C96.7525 552.633 96.4992 553.633 95.9925 554.5C95.4992 555.353 94.8258 556.013 93.9725 556.48C93.1192 556.947 92.1725 557.18 91.1325 557.18ZM91.1325 555.58C91.7858 555.58 92.3992 555.427 92.9725 555.12C93.5458 554.813 94.0058 554.353 94.3525 553.74C94.7125 553.127 94.8925 552.38 94.8925 551.5C94.8925 550.62 94.7192 549.873 94.3725 549.26C94.0258 548.647 93.5725 548.193 93.0125 547.9C92.4525 547.593 91.8458 547.44 91.1925 547.44C90.5258 547.44 89.9125 547.593 89.3525 547.9C88.8058 548.193 88.3658 548.647 88.0325 549.26C87.6992 549.873 87.5325 550.62 87.5325 551.5C87.5325 552.393 87.6925 553.147 88.0125 553.76C88.3458 554.373 88.7858 554.833 89.3325 555.14C89.8792 555.433 90.4792 555.58 91.1325 555.58ZM112.325 545.84C113.179 545.84 113.939 546.02 114.605 546.38C115.272 546.727 115.799 547.253 116.185 547.96C116.572 548.667 116.765 549.527 116.765 550.54V557H114.965V550.8C114.965 549.707 114.692 548.873 114.145 548.3C113.612 547.713 112.885 547.42 111.965 547.42C111.019 547.42 110.265 547.727 109.705 548.34C109.145 548.94 108.865 549.813 108.865 550.96V557H107.065V550.8C107.065 549.707 106.792 548.873 106.245 548.3C105.712 547.713 104.985 547.42 104.065 547.42C103.119 547.42 102.365 547.727 101.805 548.34C101.245 548.94 100.965 549.813 100.965 550.96V557H99.1455V546.04H100.965V547.62C101.325 547.047 101.805 546.607 102.405 546.3C103.019 545.993 103.692 545.84 104.425 545.84C105.345 545.84 106.159 546.047 106.865 546.46C107.572 546.873 108.099 547.48 108.445 548.28C108.752 547.507 109.259 546.907 109.965 546.48C110.672 546.053 111.459 545.84 112.325 545.84ZM129.751 551.1C129.751 551.447 129.731 551.813 129.691 552.2H120.931C120.998 553.28 121.364 554.127 122.031 554.74C122.711 555.34 123.531 555.64 124.491 555.64C125.278 555.64 125.931 555.46 126.451 555.1C126.984 554.727 127.358 554.233 127.571 553.62H129.531C129.238 554.673 128.651 555.533 127.771 556.2C126.891 556.853 125.798 557.18 124.491 557.18C123.451 557.18 122.518 556.947 121.691 556.48C120.878 556.013 120.238 555.353 119.771 554.5C119.304 553.633 119.071 552.633 119.071 551.5C119.071 550.367 119.298 549.373 119.751 548.52C120.204 547.667 120.838 547.013 121.651 546.56C122.478 546.093 123.424 545.86 124.491 545.86C125.531 545.86 126.451 546.087 127.251 546.54C128.051 546.993 128.664 547.62 129.091 548.42C129.531 549.207 129.751 550.1 129.751 551.1ZM127.871 550.72C127.871 550.027 127.718 549.433 127.411 548.94C127.104 548.433 126.684 548.053 126.151 547.8C125.631 547.533 125.051 547.4 124.411 547.4C123.491 547.4 122.704 547.693 122.051 548.28C121.411 548.867 121.044 549.68 120.951 550.72H127.871ZM134.373 547.54V554C134.373 554.533 134.487 554.913 134.713 555.14C134.94 555.353 135.333 555.46 135.893 555.46H137.233V557H135.593C134.58 557 133.82 556.767 133.313 556.3C132.807 555.833 132.553 555.067 132.553 554V547.54H131.133V546.04H132.553V543.28H134.373V546.04H137.233V547.54H134.373ZM140.378 544.26C140.032 544.26 139.738 544.14 139.498 543.9C139.258 543.66 139.138 543.367 139.138 543.02C139.138 542.673 139.258 542.38 139.498 542.14C139.738 541.9 140.032 541.78 140.378 541.78C140.712 541.78 140.992 541.9 141.218 542.14C141.458 542.38 141.578 542.673 141.578 543.02C141.578 543.367 141.458 543.66 141.218 543.9C140.992 544.14 140.712 544.26 140.378 544.26ZM141.258 546.04V557H139.438V546.04H141.258ZM157.54 545.84C158.394 545.84 159.154 546.02 159.82 546.38C160.487 546.727 161.014 547.253 161.4 547.96C161.787 548.667 161.98 549.527 161.98 550.54V557H160.18V550.8C160.18 549.707 159.907 548.873 159.36 548.3C158.827 547.713 158.1 547.42 157.18 547.42C156.234 547.42 155.48 547.727 154.92 548.34C154.36 548.94 154.08 549.813 154.08 550.96V557H152.28V550.8C152.28 549.707 152.007 548.873 151.46 548.3C150.927 547.713 150.2 547.42 149.28 547.42C148.334 547.42 147.58 547.727 147.02 548.34C146.46 548.94 146.18 549.813 146.18 550.96V557H144.36V546.04H146.18V547.62C146.54 547.047 147.02 546.607 147.62 546.3C148.234 545.993 148.907 545.84 149.64 545.84C150.56 545.84 151.374 546.047 152.08 546.46C152.787 546.873 153.314 547.48 153.66 548.28C153.967 547.507 154.474 546.907 155.18 546.48C155.887 546.053 156.674 545.84 157.54 545.84ZM174.966 551.1C174.966 551.447 174.946 551.813 174.906 552.2H166.146C166.212 553.28 166.579 554.127 167.246 554.74C167.926 555.34 168.746 555.64 169.706 555.64C170.492 555.64 171.146 555.46 171.666 555.1C172.199 554.727 172.572 554.233 172.786 553.62H174.746C174.452 554.673 173.866 555.533 172.986 556.2C172.106 556.853 171.012 557.18 169.706 557.18C168.666 557.18 167.732 556.947 166.906 556.48C166.092 556.013 165.452 555.353 164.986 554.5C164.519 553.633 164.286 552.633 164.286 551.5C164.286 550.367 164.512 549.373 164.966 548.52C165.419 547.667 166.052 547.013 166.866 546.56C167.692 546.093 168.639 545.86 169.706 545.86C170.746 545.86 171.666 546.087 172.466 546.54C173.266 546.993 173.879 547.62 174.306 548.42C174.746 549.207 174.966 550.1 174.966 551.1ZM173.086 550.72C173.086 550.027 172.932 549.433 172.626 548.94C172.319 548.433 171.899 548.053 171.366 547.8C170.846 547.533 170.266 547.4 169.626 547.4C168.706 547.4 167.919 547.693 167.266 548.28C166.626 548.867 166.259 549.68 166.166 550.72H173.086ZM181.248 557.18C180.408 557.18 179.655 557.04 178.988 556.76C178.321 556.467 177.795 556.067 177.408 555.56C177.021 555.04 176.808 554.447 176.768 553.78H178.648C178.701 554.327 178.955 554.773 179.408 555.12C179.875 555.467 180.481 555.64 181.228 555.64C181.921 555.64 182.468 555.487 182.868 555.18C183.268 554.873 183.468 554.487 183.468 554.02C183.468 553.54 183.255 553.187 182.828 552.96C182.401 552.72 181.741 552.487 180.848 552.26C180.035 552.047 179.368 551.833 178.848 551.62C178.341 551.393 177.901 551.067 177.528 550.64C177.168 550.2 176.988 549.627 176.988 548.92C176.988 548.36 177.155 547.847 177.488 547.38C177.821 546.913 178.295 546.547 178.908 546.28C179.521 546 180.221 545.86 181.008 545.86C182.221 545.86 183.201 546.167 183.948 546.78C184.695 547.393 185.095 548.233 185.148 549.3H183.328C183.288 548.727 183.055 548.267 182.628 547.92C182.215 547.573 181.655 547.4 180.948 547.4C180.295 547.4 179.775 547.54 179.388 547.82C179.001 548.1 178.808 548.467 178.808 548.92C178.808 549.28 178.921 549.58 179.148 549.82C179.388 550.047 179.681 550.233 180.028 550.38C180.388 550.513 180.881 550.667 181.508 550.84C182.295 551.053 182.935 551.267 183.428 551.48C183.921 551.68 184.341 551.987 184.688 552.4C185.048 552.813 185.235 553.353 185.248 554.02C185.248 554.62 185.081 555.16 184.748 555.64C184.415 556.12 183.941 556.5 183.328 556.78C182.728 557.047 182.035 557.18 181.248 557.18ZM194.969 543.06V557H193.149V543.06H194.969ZM207.863 547.54H205.563V557H203.743V547.54H202.323V546.04H203.743V545.26C203.743 544.033 204.057 543.14 204.683 542.58C205.323 542.007 206.343 541.72 207.743 541.72V543.24C206.943 543.24 206.377 543.4 206.043 543.72C205.723 544.027 205.563 544.54 205.563 545.26V546.04H207.863V547.54ZM219.985 551.1C219.985 551.447 219.965 551.813 219.925 552.2H211.165C211.232 553.28 211.599 554.127 212.265 554.74C212.945 555.34 213.765 555.64 214.725 555.64C215.512 555.64 216.165 555.46 216.685 555.1C217.219 554.727 217.592 554.233 217.805 553.62H219.765C219.472 554.673 218.885 555.533 218.005 556.2C217.125 556.853 216.032 557.18 214.725 557.18C213.685 557.18 212.752 556.947 211.925 556.48C211.112 556.013 210.472 555.353 210.005 554.5C209.539 553.633 209.305 552.633 209.305 551.5C209.305 550.367 209.532 549.373 209.985 548.52C210.439 547.667 211.072 547.013 211.885 546.56C212.712 546.093 213.659 545.86 214.725 545.86C215.765 545.86 216.685 546.087 217.485 546.54C218.285 546.993 218.899 547.62 219.325 548.42C219.765 549.207 219.985 550.1 219.985 551.1ZM218.105 550.72C218.105 550.027 217.952 549.433 217.645 548.94C217.339 548.433 216.919 548.053 216.385 547.8C215.865 547.533 215.285 547.4 214.645 547.4C213.725 547.4 212.939 547.693 212.285 548.28C211.645 548.867 211.279 549.68 211.185 550.72H218.105ZM232.388 551.1C232.388 551.447 232.368 551.813 232.328 552.2H223.568C223.634 553.28 224.001 554.127 224.668 554.74C225.348 555.34 226.168 555.64 227.128 555.64C227.914 555.64 228.568 555.46 229.088 555.1C229.621 554.727 229.994 554.233 230.208 553.62H232.168C231.874 554.673 231.288 555.533 230.408 556.2C229.528 556.853 228.434 557.18 227.128 557.18C226.088 557.18 225.154 556.947 224.328 556.48C223.514 556.013 222.874 555.353 222.408 554.5C221.941 553.633 221.708 552.633 221.708 551.5C221.708 550.367 221.934 549.373 222.388 548.52C222.841 547.667 223.474 547.013 224.288 546.56C225.114 546.093 226.061 545.86 227.128 545.86C228.168 545.86 229.088 546.087 229.888 546.54C230.688 546.993 231.301 547.62 231.728 548.42C232.168 549.207 232.388 550.1 232.388 551.1ZM230.508 550.72C230.508 550.027 230.354 549.433 230.048 548.94C229.741 548.433 229.321 548.053 228.788 547.8C228.268 547.533 227.688 547.4 227.048 547.4C226.128 547.4 225.341 547.693 224.688 548.28C224.048 548.867 223.681 549.68 223.588 550.72H230.508ZM236.61 542.2V557H234.79V542.2H236.61ZM246.864 542.2V557H245.044V542.2H246.864ZM250.906 544.26C250.559 544.26 250.266 544.14 250.026 543.9C249.786 543.66 249.666 543.367 249.666 543.02C249.666 542.673 249.786 542.38 250.026 542.14C250.266 541.9 250.559 541.78 250.906 541.78C251.239 541.78 251.519 541.9 251.746 542.14C251.986 542.38 252.106 542.673 252.106 543.02C252.106 543.367 251.986 543.66 251.746 543.9C251.519 544.14 251.239 544.26 250.906 544.26ZM251.786 546.04V557H249.966V546.04H251.786ZM261.008 557L256.708 552.16V557H254.888V542.2H256.708V550.9L260.928 546.04H263.468L258.308 551.5L263.488 557H261.008ZM275.181 551.1C275.181 551.447 275.161 551.813 275.121 552.2H266.361C266.427 553.28 266.794 554.127 267.461 554.74C268.141 555.34 268.961 555.64 269.921 555.64C270.707 555.64 271.361 555.46 271.881 555.1C272.414 554.727 272.787 554.233 273.001 553.62H274.961C274.667 554.673 274.081 555.533 273.201 556.2C272.321 556.853 271.227 557.18 269.921 557.18C268.881 557.18 267.947 556.947 267.121 556.48C266.307 556.013 265.667 555.353 265.201 554.5C264.734 553.633 264.501 552.633 264.501 551.5C264.501 550.367 264.727 549.373 265.181 548.52C265.634 547.667 266.267 547.013 267.081 546.56C267.907 546.093 268.854 545.86 269.921 545.86C270.961 545.86 271.881 546.087 272.681 546.54C273.481 546.993 274.094 547.62 274.521 548.42C274.961 549.207 275.181 550.1 275.181 551.1ZM273.301 550.72C273.301 550.027 273.147 549.433 272.841 548.94C272.534 548.433 272.114 548.053 271.581 547.8C271.061 547.533 270.481 547.4 269.841 547.4C268.921 547.4 268.134 547.693 267.481 548.28C266.841 548.867 266.474 549.68 266.381 550.72H273.301ZM284.735 548.06C285.095 547.433 285.628 546.913 286.335 546.5C287.055 546.073 287.888 545.86 288.835 545.86C289.808 545.86 290.688 546.093 291.475 546.56C292.275 547.027 292.902 547.687 293.355 548.54C293.808 549.38 294.035 550.36 294.035 551.48C294.035 552.587 293.808 553.573 293.355 554.44C292.902 555.307 292.275 555.98 291.475 556.46C290.688 556.94 289.808 557.18 288.835 557.18C287.902 557.18 287.075 556.973 286.355 556.56C285.648 556.133 285.108 555.607 284.735 554.98V562.2H282.915V546.04H284.735V548.06ZM292.175 551.48C292.175 550.653 292.008 549.933 291.675 549.32C291.342 548.707 290.888 548.24 290.315 547.92C289.755 547.6 289.135 547.44 288.455 547.44C287.788 547.44 287.168 547.607 286.595 547.94C286.035 548.26 285.582 548.733 285.235 549.36C284.902 549.973 284.735 550.687 284.735 551.5C284.735 552.327 284.902 553.053 285.235 553.68C285.582 554.293 286.035 554.767 286.595 555.1C287.168 555.42 287.788 555.58 288.455 555.58C289.135 555.58 289.755 555.42 290.315 555.1C290.888 554.767 291.342 554.293 291.675 553.68C292.008 553.053 292.175 552.32 292.175 551.48ZM306.431 551.1C306.431 551.447 306.411 551.813 306.371 552.2H297.611C297.677 553.28 298.044 554.127 298.711 554.74C299.391 555.34 300.211 555.64 301.171 555.64C301.957 555.64 302.611 555.46 303.131 555.1C303.664 554.727 304.037 554.233 304.251 553.62H306.211C305.917 554.673 305.331 555.533 304.451 556.2C303.571 556.853 302.477 557.18 301.171 557.18C300.131 557.18 299.197 556.947 298.371 556.48C297.557 556.013 296.917 555.353 296.451 554.5C295.984 553.633 295.751 552.633 295.751 551.5C295.751 550.367 295.977 549.373 296.431 548.52C296.884 547.667 297.517 547.013 298.331 546.56C299.157 546.093 300.104 545.86 301.171 545.86C302.211 545.86 303.131 546.087 303.931 546.54C304.731 546.993 305.344 547.62 305.771 548.42C306.211 549.207 306.431 550.1 306.431 551.1ZM304.551 550.72C304.551 550.027 304.397 549.433 304.091 548.94C303.784 548.433 303.364 548.053 302.831 547.8C302.311 547.533 301.731 547.4 301.091 547.4C300.171 547.4 299.384 547.693 298.731 548.28C298.091 548.867 297.724 549.68 297.631 550.72H304.551ZM313.613 557.18C312.586 557.18 311.653 556.947 310.813 556.48C309.986 556.013 309.333 555.353 308.853 554.5C308.386 553.633 308.153 552.633 308.153 551.5C308.153 550.38 308.393 549.393 308.873 548.54C309.366 547.673 310.033 547.013 310.873 546.56C311.713 546.093 312.653 545.86 313.693 545.86C314.733 545.86 315.673 546.093 316.513 546.56C317.353 547.013 318.013 547.667 318.493 548.52C318.986 549.373 319.233 550.367 319.233 551.5C319.233 552.633 318.98 553.633 318.473 554.5C317.98 555.353 317.306 556.013 316.453 556.48C315.6 556.947 314.653 557.18 313.613 557.18ZM313.613 555.58C314.266 555.58 314.88 555.427 315.453 555.12C316.026 554.813 316.486 554.353 316.833 553.74C317.193 553.127 317.373 552.38 317.373 551.5C317.373 550.62 317.2 549.873 316.853 549.26C316.506 548.647 316.053 548.193 315.493 547.9C314.933 547.593 314.326 547.44 313.673 547.44C313.006 547.44 312.393 547.593 311.833 547.9C311.286 548.193 310.846 548.647 310.513 549.26C310.18 549.873 310.013 550.62 310.013 551.5C310.013 552.393 310.173 553.147 310.493 553.76C310.826 554.373 311.266 554.833 311.813 555.14C312.36 555.433 312.96 555.58 313.613 555.58ZM323.446 548.06C323.806 547.433 324.339 546.913 325.046 546.5C325.766 546.073 326.599 545.86 327.546 545.86C328.519 545.86 329.399 546.093 330.186 546.56C330.986 547.027 331.613 547.687 332.066 548.54C332.519 549.38 332.746 550.36 332.746 551.48C332.746 552.587 332.519 553.573 332.066 554.44C331.613 555.307 330.986 555.98 330.186 556.46C329.399 556.94 328.519 557.18 327.546 557.18C326.613 557.18 325.786 556.973 325.066 556.56C324.359 556.133 323.819 555.607 323.446 554.98V562.2H321.626V546.04H323.446V548.06ZM330.886 551.48C330.886 550.653 330.719 549.933 330.386 549.32C330.053 548.707 329.599 548.24 329.026 547.92C328.466 547.6 327.846 547.44 327.166 547.44C326.499 547.44 325.879 547.607 325.306 547.94C324.746 548.26 324.293 548.733 323.946 549.36C323.613 549.973 323.446 550.687 323.446 551.5C323.446 552.327 323.613 553.053 323.946 553.68C324.293 554.293 324.746 554.767 325.306 555.1C325.879 555.42 326.499 555.58 327.166 555.58C327.846 555.58 328.466 555.42 329.026 555.1C329.599 554.767 330.053 554.293 330.386 553.68C330.719 553.053 330.886 552.32 330.886 551.48ZM336.962 542.2V557H335.142V542.2H336.962ZM350.063 551.1C350.063 551.447 350.043 551.813 350.003 552.2H341.243C341.31 553.28 341.677 554.127 342.343 554.74C343.023 555.34 343.843 555.64 344.803 555.64C345.59 555.64 346.243 555.46 346.763 555.1C347.297 554.727 347.67 554.233 347.883 553.62H349.843C349.55 554.673 348.963 555.533 348.083 556.2C347.203 556.853 346.11 557.18 344.803 557.18C343.763 557.18 342.83 556.947 342.003 556.48C341.19 556.013 340.55 555.353 340.083 554.5C339.617 553.633 339.383 552.633 339.383 551.5C339.383 550.367 339.61 549.373 340.063 548.52C340.517 547.667 341.15 547.013 341.963 546.56C342.79 546.093 343.737 545.86 344.803 545.86C345.843 545.86 346.763 546.087 347.563 546.54C348.363 546.993 348.977 547.62 349.403 548.42C349.843 549.207 350.063 550.1 350.063 551.1ZM348.183 550.72C348.183 550.027 348.03 549.433 347.723 548.94C347.417 548.433 346.997 548.053 346.463 547.8C345.943 547.533 345.363 547.4 344.723 547.4C343.803 547.4 343.017 547.693 342.363 548.28C341.723 548.867 341.357 549.68 341.263 550.72H348.183ZM79.1556 566.04L75.7356 577H73.8556L71.2156 568.3L68.5756 577H66.6956L63.2556 566.04H65.1156L67.6356 575.24L70.3556 566.04H72.2156L74.8756 575.26L77.3556 566.04H79.1556ZM85.7419 577.18C84.7152 577.18 83.7819 576.947 82.9419 576.48C82.1152 576.013 81.4619 575.353 80.9819 574.5C80.5152 573.633 80.2819 572.633 80.2819 571.5C80.2819 570.38 80.5219 569.393 81.0019 568.54C81.4952 567.673 82.1619 567.013 83.0019 566.56C83.8419 566.093 84.7819 565.86 85.8219 565.86C86.8619 565.86 87.8019 566.093 88.6419 566.56C89.4819 567.013 90.1419 567.667 90.6219 568.52C91.1152 569.373 91.3619 570.367 91.3619 571.5C91.3619 572.633 91.1085 573.633 90.6019 574.5C90.1085 575.353 89.4352 576.013 88.5819 576.48C87.7285 576.947 86.7819 577.18 85.7419 577.18ZM85.7419 575.58C86.3952 575.58 87.0085 575.427 87.5819 575.12C88.1552 574.813 88.6152 574.353 88.9619 573.74C89.3219 573.127 89.5019 572.38 89.5019 571.5C89.5019 570.62 89.3285 569.873 88.9819 569.26C88.6352 568.647 88.1819 568.193 87.6219 567.9C87.0619 567.593 86.4552 567.44 85.8019 567.44C85.1352 567.44 84.5219 567.593 83.9619 567.9C83.4152 568.193 82.9752 568.647 82.6419 569.26C82.3085 569.873 82.1419 570.62 82.1419 571.5C82.1419 572.393 82.3019 573.147 82.6219 573.76C82.9552 574.373 83.3952 574.833 83.9419 575.14C84.4885 575.433 85.0885 575.58 85.7419 575.58ZM99.0948 565.84C100.428 565.84 101.508 566.247 102.335 567.06C103.162 567.86 103.575 569.02 103.575 570.54V577H101.775V570.8C101.775 569.707 101.502 568.873 100.955 568.3C100.408 567.713 99.6615 567.42 98.7148 567.42C97.7548 567.42 96.9882 567.72 96.4148 568.32C95.8548 568.92 95.5748 569.793 95.5748 570.94V577H93.7548V566.04H95.5748V567.6C95.9348 567.04 96.4215 566.607 97.0348 566.3C97.6615 565.993 98.3482 565.84 99.0948 565.84ZM106.828 563.06H108.848L106.928 567.6H105.648L106.828 563.06ZM113.143 567.54V574C113.143 574.533 113.256 574.913 113.483 575.14C113.709 575.353 114.103 575.46 114.663 575.46H116.003V577H114.363C113.349 577 112.589 576.767 112.083 576.3C111.576 575.833 111.323 575.067 111.323 574V567.54H109.903V566.04H111.323V563.28H113.143V566.04H116.003V567.54H113.143ZM125.36 562.2V577H123.54V562.2H125.36ZM133.242 577.18C132.215 577.18 131.282 576.947 130.442 576.48C129.615 576.013 128.962 575.353 128.482 574.5C128.015 573.633 127.782 572.633 127.782 571.5C127.782 570.38 128.022 569.393 128.502 568.54C128.995 567.673 129.662 567.013 130.502 566.56C131.342 566.093 132.282 565.86 133.322 565.86C134.362 565.86 135.302 566.093 136.142 566.56C136.982 567.013 137.642 567.667 138.122 568.52C138.615 569.373 138.862 570.367 138.862 571.5C138.862 572.633 138.609 573.633 138.102 574.5C137.609 575.353 136.935 576.013 136.082 576.48C135.229 576.947 134.282 577.18 133.242 577.18ZM133.242 575.58C133.895 575.58 134.509 575.427 135.082 575.12C135.655 574.813 136.115 574.353 136.462 573.74C136.822 573.127 137.002 572.38 137.002 571.5C137.002 570.62 136.829 569.873 136.482 569.26C136.135 568.647 135.682 568.193 135.122 567.9C134.562 567.593 133.955 567.44 133.302 567.44C132.635 567.44 132.022 567.593 131.462 567.9C130.915 568.193 130.475 568.647 130.142 569.26C129.809 569.873 129.642 570.62 129.642 571.5C129.642 572.393 129.802 573.147 130.122 573.76C130.455 574.373 130.895 574.833 131.442 575.14C131.989 575.433 132.589 575.58 133.242 575.58ZM145.335 575.32L148.735 566.04H150.675L146.375 577H144.255L139.955 566.04H141.915L145.335 575.32ZM162.466 571.1C162.466 571.447 162.446 571.813 162.406 572.2H153.646C153.712 573.28 154.079 574.127 154.746 574.74C155.426 575.34 156.246 575.64 157.206 575.64C157.992 575.64 158.646 575.46 159.166 575.1C159.699 574.727 160.072 574.233 160.286 573.62H162.246C161.952 574.673 161.366 575.533 160.486 576.2C159.606 576.853 158.512 577.18 157.206 577.18C156.166 577.18 155.232 576.947 154.406 576.48C153.592 576.013 152.952 575.353 152.486 574.5C152.019 573.633 151.786 572.633 151.786 571.5C151.786 570.367 152.012 569.373 152.466 568.52C152.919 567.667 153.552 567.013 154.366 566.56C155.192 566.093 156.139 565.86 157.206 565.86C158.246 565.86 159.166 566.087 159.966 566.54C160.766 566.993 161.379 567.62 161.806 568.42C162.246 569.207 162.466 570.1 162.466 571.1ZM160.586 570.72C160.586 570.027 160.432 569.433 160.126 568.94C159.819 568.433 159.399 568.053 158.866 567.8C158.346 567.533 157.766 567.4 157.126 567.4C156.206 567.4 155.419 567.693 154.766 568.28C154.126 568.867 153.759 569.68 153.666 570.72H160.586ZM183.38 565.84C184.233 565.84 184.993 566.02 185.66 566.38C186.327 566.727 186.853 567.253 187.24 567.96C187.627 568.667 187.82 569.527 187.82 570.54V577H186.02V570.8C186.02 569.707 185.747 568.873 185.2 568.3C184.667 567.713 183.94 567.42 183.02 567.42C182.073 567.42 181.32 567.727 180.76 568.34C180.2 568.94 179.92 569.813 179.92 570.96V577H178.12V570.8C178.12 569.707 177.847 568.873 177.3 568.3C176.767 567.713 176.04 567.42 175.12 567.42C174.173 567.42 173.42 567.727 172.86 568.34C172.3 568.94 172.02 569.813 172.02 570.96V577H170.2V566.04H172.02V567.62C172.38 567.047 172.86 566.607 173.46 566.3C174.073 565.993 174.747 565.84 175.48 565.84C176.4 565.84 177.213 566.047 177.92 566.46C178.627 566.873 179.153 567.48 179.5 568.28C179.807 567.507 180.313 566.907 181.02 566.48C181.727 566.053 182.513 565.84 183.38 565.84ZM200.806 571.1C200.806 571.447 200.786 571.813 200.746 572.2H191.986C192.052 573.28 192.419 574.127 193.086 574.74C193.766 575.34 194.586 575.64 195.546 575.64C196.332 575.64 196.986 575.46 197.506 575.1C198.039 574.727 198.412 574.233 198.626 573.62H200.586C200.292 574.673 199.706 575.533 198.826 576.2C197.946 576.853 196.852 577.18 195.546 577.18C194.506 577.18 193.572 576.947 192.746 576.48C191.932 576.013 191.292 575.353 190.826 574.5C190.359 573.633 190.126 572.633 190.126 571.5C190.126 570.367 190.352 569.373 190.806 568.52C191.259 567.667 191.892 567.013 192.706 566.56C193.532 566.093 194.479 565.86 195.546 565.86C196.586 565.86 197.506 566.087 198.306 566.54C199.106 566.993 199.719 567.62 200.146 568.42C200.586 569.207 200.806 570.1 200.806 571.1ZM198.926 570.72C198.926 570.027 198.772 569.433 198.466 568.94C198.159 568.433 197.739 568.053 197.206 567.8C196.686 567.533 196.106 567.4 195.466 567.4C194.546 567.4 193.759 567.693 193.106 568.28C192.466 568.867 192.099 569.68 192.006 570.72H198.926ZM209.48 564.26C209.133 564.26 208.84 564.14 208.6 563.9C208.36 563.66 208.24 563.367 208.24 563.02C208.24 562.673 208.36 562.38 208.6 562.14C208.84 561.9 209.133 561.78 209.48 561.78C209.813 561.78 210.093 561.9 210.32 562.14C210.56 562.38 210.68 562.673 210.68 563.02C210.68 563.367 210.56 563.66 210.32 563.9C210.093 564.14 209.813 564.26 209.48 564.26ZM210.36 566.04V577H208.54V566.04H210.36ZM217.922 567.54H215.622V577H213.802V567.54H212.382V566.04H213.802V565.26C213.802 564.033 214.115 563.14 214.742 562.58C215.382 562.007 216.402 561.72 217.802 561.72V563.24C217.002 563.24 216.435 563.4 216.102 563.72C215.782 564.027 215.622 564.54 215.622 565.26V566.04H217.922V567.54ZM226.316 564.26C225.969 564.26 225.676 564.14 225.436 563.9C225.196 563.66 225.076 563.367 225.076 563.02C225.076 562.673 225.196 562.38 225.436 562.14C225.676 561.9 225.969 561.78 226.316 561.78C226.649 561.78 226.929 561.9 227.156 562.14C227.396 562.38 227.516 562.673 227.516 563.02C227.516 563.367 227.396 563.66 227.156 563.9C226.929 564.14 226.649 564.26 226.316 564.26ZM227.196 566.04V577H225.376V566.04H227.196ZM234.95 571.5C234.95 570.367 235.177 569.38 235.63 568.54C236.083 567.687 236.71 567.027 237.51 566.56C238.323 566.093 239.25 565.86 240.29 565.86C241.637 565.86 242.743 566.187 243.61 566.84C244.49 567.493 245.07 568.4 245.35 569.56H243.39C243.203 568.893 242.837 568.367 242.29 567.98C241.757 567.593 241.09 567.4 240.29 567.4C239.25 567.4 238.41 567.76 237.77 568.48C237.13 569.187 236.81 570.193 236.81 571.5C236.81 572.82 237.13 573.84 237.77 574.56C238.41 575.28 239.25 575.64 240.29 575.64C241.09 575.64 241.757 575.453 242.29 575.08C242.823 574.707 243.19 574.173 243.39 573.48H245.35C245.057 574.6 244.47 575.5 243.59 576.18C242.71 576.847 241.61 577.18 240.29 577.18C239.25 577.18 238.323 576.947 237.51 576.48C236.71 576.013 236.083 575.353 235.63 574.5C235.177 573.647 234.95 572.647 234.95 571.5ZM247.098 571.48C247.098 570.36 247.325 569.38 247.778 568.54C248.232 567.687 248.852 567.027 249.638 566.56C250.438 566.093 251.325 565.86 252.298 565.86C253.258 565.86 254.092 566.067 254.798 566.48C255.505 566.893 256.032 567.413 256.378 568.04V566.04H258.218V577H256.378V574.96C256.018 575.6 255.478 576.133 254.758 576.56C254.052 576.973 253.225 577.18 252.278 577.18C251.305 577.18 250.425 576.94 249.638 576.46C248.852 575.98 248.232 575.307 247.778 574.44C247.325 573.573 247.098 572.587 247.098 571.48ZM256.378 571.5C256.378 570.673 256.212 569.953 255.878 569.34C255.545 568.727 255.092 568.26 254.518 567.94C253.958 567.607 253.338 567.44 252.658 567.44C251.978 567.44 251.358 567.6 250.798 567.92C250.238 568.24 249.792 568.707 249.458 569.32C249.125 569.933 248.958 570.653 248.958 571.48C248.958 572.32 249.125 573.053 249.458 573.68C249.792 574.293 250.238 574.767 250.798 575.1C251.358 575.42 251.978 575.58 252.658 575.58C253.338 575.58 253.958 575.42 254.518 575.1C255.092 574.767 255.545 574.293 255.878 573.68C256.212 573.053 256.378 572.327 256.378 571.5ZM266.634 565.84C267.967 565.84 269.047 566.247 269.874 567.06C270.701 567.86 271.114 569.02 271.114 570.54V577H269.314V570.8C269.314 569.707 269.041 568.873 268.494 568.3C267.947 567.713 267.201 567.42 266.254 567.42C265.294 567.42 264.527 567.72 263.954 568.32C263.394 568.92 263.114 569.793 263.114 570.94V577H261.294V566.04H263.114V567.6C263.474 567.04 263.961 566.607 264.574 566.3C265.201 565.993 265.887 565.84 266.634 565.84ZM276.307 567.54V574C276.307 574.533 276.42 574.913 276.647 575.14C276.874 575.353 277.267 575.46 277.827 575.46H279.167V577H277.527C276.514 577 275.754 576.767 275.247 576.3C274.74 575.833 274.487 575.067 274.487 574V567.54H273.067V566.04H274.487V563.28H276.307V566.04H279.167V567.54H276.307ZM288.524 568.06C288.884 567.433 289.417 566.913 290.124 566.5C290.844 566.073 291.677 565.86 292.624 565.86C293.597 565.86 294.477 566.093 295.264 566.56C296.064 567.027 296.691 567.687 297.144 568.54C297.597 569.38 297.824 570.36 297.824 571.48C297.824 572.587 297.597 573.573 297.144 574.44C296.691 575.307 296.064 575.98 295.264 576.46C294.477 576.94 293.597 577.18 292.624 577.18C291.691 577.18 290.864 576.973 290.144 576.56C289.437 576.133 288.897 575.607 288.524 574.98V582.2H286.704V566.04H288.524V568.06ZM295.964 571.48C295.964 570.653 295.797 569.933 295.464 569.32C295.131 568.707 294.677 568.24 294.104 567.92C293.544 567.6 292.924 567.44 292.244 567.44C291.577 567.44 290.957 567.607 290.384 567.94C289.824 568.26 289.371 568.733 289.024 569.36C288.691 569.973 288.524 570.687 288.524 571.5C288.524 572.327 288.691 573.053 289.024 573.68C289.371 574.293 289.824 574.767 290.384 575.1C290.957 575.42 291.577 575.58 292.244 575.58C292.924 575.58 293.544 575.42 294.104 575.1C294.677 574.767 295.131 574.293 295.464 573.68C295.797 573.053 295.964 572.32 295.964 571.48ZM302.04 567.82C302.36 567.193 302.813 566.707 303.4 566.36C304 566.013 304.726 565.84 305.58 565.84V567.72H305.1C303.06 567.72 302.04 568.827 302.04 571.04V577H300.22V566.04H302.04V567.82ZM312.461 577.18C311.434 577.18 310.501 576.947 309.661 576.48C308.834 576.013 308.181 575.353 307.701 574.5C307.234 573.633 307.001 572.633 307.001 571.5C307.001 570.38 307.241 569.393 307.721 568.54C308.214 567.673 308.881 567.013 309.721 566.56C310.561 566.093 311.501 565.86 312.541 565.86C313.581 565.86 314.521 566.093 315.361 566.56C316.201 567.013 316.861 567.667 317.341 568.52C317.834 569.373 318.081 570.367 318.081 571.5C318.081 572.633 317.827 573.633 317.321 574.5C316.827 575.353 316.154 576.013 315.301 576.48C314.447 576.947 313.501 577.18 312.461 577.18ZM312.461 575.58C313.114 575.58 313.727 575.427 314.301 575.12C314.874 574.813 315.334 574.353 315.681 573.74C316.041 573.127 316.221 572.38 316.221 571.5C316.221 570.62 316.047 569.873 315.701 569.26C315.354 568.647 314.901 568.193 314.341 567.9C313.781 567.593 313.174 567.44 312.521 567.44C311.854 567.44 311.241 567.593 310.681 567.9C310.134 568.193 309.694 568.647 309.361 569.26C309.027 569.873 308.861 570.62 308.861 571.5C308.861 572.393 309.021 573.147 309.341 573.76C309.674 574.373 310.114 574.833 310.661 575.14C311.207 575.433 311.807 575.58 312.461 575.58ZM324.554 575.32L327.954 566.04H329.894L325.594 577H323.474L319.174 566.04H321.134L324.554 575.32ZM332.625 564.26C332.278 564.26 331.985 564.14 331.745 563.9C331.505 563.66 331.385 563.367 331.385 563.02C331.385 562.673 331.505 562.38 331.745 562.14C331.985 561.9 332.278 561.78 332.625 561.78C332.958 561.78 333.238 561.9 333.465 562.14C333.705 562.38 333.825 562.673 333.825 563.02C333.825 563.367 333.705 563.66 333.465 563.9C333.238 564.14 332.958 564.26 332.625 564.26ZM333.505 566.04V577H331.685V566.04H333.505ZM335.926 571.48C335.926 570.36 336.153 569.38 336.606 568.54C337.06 567.687 337.68 567.027 338.466 566.56C339.266 566.093 340.16 565.86 341.146 565.86C342 565.86 342.793 566.06 343.526 566.46C344.26 566.847 344.82 567.36 345.206 568V562.2H347.046V577H345.206V574.94C344.846 575.593 344.313 576.133 343.606 576.56C342.9 576.973 342.073 577.18 341.126 577.18C340.153 577.18 339.266 576.94 338.466 576.46C337.68 575.98 337.06 575.307 336.606 574.44C336.153 573.573 335.926 572.587 335.926 571.48ZM345.206 571.5C345.206 570.673 345.04 569.953 344.706 569.34C344.373 568.727 343.92 568.26 343.346 567.94C342.786 567.607 342.166 567.44 341.486 567.44C340.806 567.44 340.186 567.6 339.626 567.92C339.066 568.24 338.62 568.707 338.286 569.32C337.953 569.933 337.786 570.653 337.786 571.48C337.786 572.32 337.953 573.053 338.286 573.68C338.62 574.293 339.066 574.767 339.626 575.1C340.186 575.42 340.806 575.58 341.486 575.58C342.166 575.58 342.786 575.42 343.346 575.1C343.92 574.767 344.373 574.293 344.706 573.68C345.04 573.053 345.206 572.327 345.206 571.5ZM360.122 571.1C360.122 571.447 360.102 571.813 360.062 572.2H351.302C351.369 573.28 351.735 574.127 352.402 574.74C353.082 575.34 353.902 575.64 354.862 575.64C355.649 575.64 356.302 575.46 356.822 575.1C357.355 574.727 357.729 574.233 357.942 573.62H359.902C359.609 574.673 359.022 575.533 358.142 576.2C357.262 576.853 356.169 577.18 354.862 577.18C353.822 577.18 352.889 576.947 352.062 576.48C351.249 576.013 350.609 575.353 350.142 574.5C349.675 573.633 349.442 572.633 349.442 571.5C349.442 570.367 349.669 569.373 350.122 568.52C350.575 567.667 351.209 567.013 352.022 566.56C352.849 566.093 353.795 565.86 354.862 565.86C355.902 565.86 356.822 566.087 357.622 566.54C358.422 566.993 359.035 567.62 359.462 568.42C359.902 569.207 360.122 570.1 360.122 571.1ZM358.242 570.72C358.242 570.027 358.089 569.433 357.782 568.94C357.475 568.433 357.055 568.053 356.522 567.8C356.002 567.533 355.422 567.4 354.782 567.4C353.862 567.4 353.075 567.693 352.422 568.28C351.782 568.867 351.415 569.68 351.322 570.72H358.242ZM173.273 587.54H170.973V597H169.153V587.54H167.733V586.04H169.153V585.26C169.153 584.033 169.467 583.14 170.093 582.58C170.733 582.007 171.753 581.72 173.153 581.72V583.24C172.353 583.24 171.787 583.4 171.453 583.72C171.133 584.027 170.973 584.54 170.973 585.26V586.04H173.273V587.54ZM180.175 597.18C179.149 597.18 178.215 596.947 177.375 596.48C176.549 596.013 175.895 595.353 175.415 594.5C174.949 593.633 174.715 592.633 174.715 591.5C174.715 590.38 174.955 589.393 175.435 588.54C175.929 587.673 176.595 587.013 177.435 586.56C178.275 586.093 179.215 585.86 180.255 585.86C181.295 585.86 182.235 586.093 183.075 586.56C183.915 587.013 184.575 587.667 185.055 588.52C185.549 589.373 185.795 590.367 185.795 591.5C185.795 592.633 185.542 593.633 185.035 594.5C184.542 595.353 183.869 596.013 183.015 596.48C182.162 596.947 181.215 597.18 180.175 597.18ZM180.175 595.58C180.829 595.58 181.442 595.427 182.015 595.12C182.589 594.813 183.049 594.353 183.395 593.74C183.755 593.127 183.935 592.38 183.935 591.5C183.935 590.62 183.762 589.873 183.415 589.26C183.069 588.647 182.615 588.193 182.055 587.9C181.495 587.593 180.889 587.44 180.235 587.44C179.569 587.44 178.955 587.593 178.395 587.9C177.849 588.193 177.409 588.647 177.075 589.26C176.742 589.873 176.575 590.62 176.575 591.5C176.575 592.393 176.735 593.147 177.055 593.76C177.389 594.373 177.829 594.833 178.375 595.14C178.922 595.433 179.522 595.58 180.175 595.58ZM190.008 587.82C190.328 587.193 190.782 586.707 191.368 586.36C191.968 586.013 192.695 585.84 193.548 585.84V587.72H193.068C191.028 587.72 190.008 588.827 190.008 591.04V597H188.188V586.04H190.008V587.82ZM203.201 587.54V594C203.201 594.533 203.315 594.913 203.541 595.14C203.768 595.353 204.161 595.46 204.721 595.46H206.061V597H204.421C203.408 597 202.648 596.767 202.141 596.3C201.635 595.833 201.381 595.067 201.381 594V587.54H199.961V586.04H201.381V583.28H203.201V586.04H206.061V587.54H203.201ZM213.707 585.84C214.533 585.84 215.28 586.02 215.947 586.38C216.613 586.727 217.133 587.253 217.507 587.96C217.893 588.667 218.087 589.527 218.087 590.54V597H216.287V590.8C216.287 589.707 216.013 588.873 215.467 588.3C214.92 587.713 214.173 587.42 213.227 587.42C212.267 587.42 211.5 587.72 210.927 588.32C210.367 588.92 210.087 589.793 210.087 590.94V597H208.267V582.2H210.087V587.6C210.447 587.04 210.94 586.607 211.567 586.3C212.207 585.993 212.92 585.84 213.707 585.84ZM231.06 591.1C231.06 591.447 231.04 591.813 231 592.2H222.24C222.306 593.28 222.673 594.127 223.34 594.74C224.02 595.34 224.84 595.64 225.8 595.64C226.586 595.64 227.24 595.46 227.76 595.1C228.293 594.727 228.666 594.233 228.88 593.62H230.84C230.546 594.673 229.96 595.533 229.08 596.2C228.2 596.853 227.106 597.18 225.8 597.18C224.76 597.18 223.826 596.947 223 596.48C222.186 596.013 221.546 595.353 221.08 594.5C220.613 593.633 220.38 592.633 220.38 591.5C220.38 590.367 220.606 589.373 221.06 588.52C221.513 587.667 222.146 587.013 222.96 586.56C223.786 586.093 224.733 585.86 225.8 585.86C226.84 585.86 227.76 586.087 228.56 586.54C229.36 586.993 229.973 587.62 230.4 588.42C230.84 589.207 231.06 590.1 231.06 591.1ZM229.18 590.72C229.18 590.027 229.026 589.433 228.72 588.94C228.413 588.433 227.993 588.053 227.46 587.8C226.94 587.533 226.36 587.4 225.72 587.4C224.8 587.4 224.013 587.693 223.36 588.28C222.72 588.867 222.353 589.68 222.26 590.72H229.18ZM246.642 585.84C247.495 585.84 248.255 586.02 248.922 586.38C249.589 586.727 250.115 587.253 250.502 587.96C250.889 588.667 251.082 589.527 251.082 590.54V597H249.282V590.8C249.282 589.707 249.009 588.873 248.462 588.3C247.929 587.713 247.202 587.42 246.282 587.42C245.335 587.42 244.582 587.727 244.022 588.34C243.462 588.94 243.182 589.813 243.182 590.96V597H241.382V590.8C241.382 589.707 241.109 588.873 240.562 588.3C240.029 587.713 239.302 587.42 238.382 587.42C237.435 587.42 236.682 587.727 236.122 588.34C235.562 588.94 235.282 589.813 235.282 590.96V597H233.462V586.04H235.282V587.62C235.642 587.047 236.122 586.607 236.722 586.3C237.335 585.993 238.009 585.84 238.742 585.84C239.662 585.84 240.475 586.047 241.182 586.46C241.889 586.873 242.415 587.48 242.762 588.28C243.069 587.507 243.575 586.907 244.282 586.48C244.989 586.053 245.775 585.84 246.642 585.84ZM254.647 597.12C254.301 597.12 254.007 597 253.767 596.76C253.527 596.52 253.407 596.227 253.407 595.88C253.407 595.533 253.527 595.24 253.767 595C254.007 594.76 254.301 594.64 254.647 594.64C254.981 594.64 255.261 594.76 255.487 595C255.727 595.24 255.847 595.533 255.847 595.88C255.847 596.227 255.727 596.52 255.487 596.76C255.261 597 254.981 597.12 254.647 597.12Z" fill="#212121"/>
<path fill-rule="evenodd" clip-rule="evenodd" d="M273.475 462.33C273.418 462.316 273.361 462.304 273.303 462.294L264.67 460.781C264.148 457.398 261.46 454.602 257.887 453.916L253.787 453.128C251.526 452.694 249.227 453.137 247.317 454.377C246.654 454.807 246.073 455.318 245.57 455.887C245.374 453.438 244.044 451.111 241.788 449.666L237.641 447.011C247.058 438.32 253.112 424.872 253.112 409.804V409.04C271.717 405.508 279.44 400.439 279.921 400.114C280.826 399.501 281.256 398.423 281.01 397.386C280.763 396.348 279.889 395.556 278.797 395.381L250.198 390.788V384.962C250.198 383.554 249.172 382.373 247.801 382.068L242.191 347.938C241.777 345.416 240.355 343.214 238.188 341.737C236.021 340.26 233.388 339.698 230.773 340.155L212.498 343.347L194.222 340.155C191.607 339.698 188.975 340.261 186.807 341.737C184.64 343.215 183.218 345.416 182.804 347.938L177.194 382.068C175.823 382.373 174.797 383.554 174.797 384.962V390.788L146.198 395.381C145.106 395.556 144.232 396.349 143.985 397.386C143.739 398.423 144.169 399.5 145.075 400.114C145.555 400.439 153.278 405.508 171.883 409.04V409.804C171.883 424.872 177.937 438.32 187.354 447.011L183.208 449.666C180.951 451.111 179.622 453.438 179.425 455.888C178.923 455.318 178.341 454.807 177.679 454.377C175.769 453.137 173.47 452.693 171.209 453.128L167.108 453.916C163.536 454.602 160.848 457.398 160.326 460.781L151.693 462.294C151.635 462.304 151.578 462.316 151.521 462.33C141.205 464.807 134 473.671 134 483.884V493.778C134 498.311 137.84 502 142.56 502H282.436C287.156 502 290.996 498.311 290.996 493.778V483.884C290.996 473.671 283.791 464.807 273.475 462.33ZM249.064 460.643C249.218 459.856 249.684 459.175 250.375 458.726C251.066 458.278 251.896 458.117 252.715 458.275L256.816 459.062C258.258 459.34 259.305 460.566 259.305 461.978V496.751H242.016L249.064 460.643ZM239.811 457.835C235.747 465.647 231.444 473.917 229.175 478.273C224.489 474.316 220.219 471.888 217.29 470.493L236.159 452.369L238.758 454.034C240.054 454.863 240.506 456.498 239.811 457.835ZM244.735 387.237V390.386H180.261V387.237H244.735ZM188.201 348.757C188.384 347.643 189.012 346.67 189.969 346.018C190.927 345.365 192.089 345.118 193.244 345.318L211.941 348.584C214.818 349.19 218.958 351.733 220.312 352.664C220.794 352.996 221.351 353.156 221.902 353.156C222.752 353.156 223.591 352.776 224.125 352.062C225.004 350.884 224.723 349.245 223.497 348.4C223.296 348.261 222.551 347.756 221.481 347.112L231.75 345.319C232.906 345.118 234.068 345.366 235.025 346.018C235.983 346.671 236.611 347.643 236.794 348.757L242.256 381.989H182.738L188.201 348.757ZM177.817 395.631L177.833 395.632C177.853 395.633 177.873 395.634 177.893 395.634H247.102C247.138 395.634 247.172 395.631 247.208 395.629L269.405 399.194C260.366 402.544 242.445 407.181 212.498 407.181C182.545 407.181 164.623 402.543 155.59 399.195L177.788 395.629C177.797 395.629 177.807 395.63 177.817 395.631ZM212.498 457.214C217.356 457.214 222.018 456.212 226.34 454.377L212.498 467.674L198.655 454.377C202.977 456.212 207.639 457.214 212.498 457.214ZM186.238 454.033L188.837 452.369L207.706 470.493C204.776 471.887 200.506 474.315 195.82 478.273C194.173 475.111 191.006 469.026 185.184 457.835C184.489 456.498 184.941 454.863 186.238 454.033ZM168.179 459.063L172.28 458.275C173.098 458.118 173.929 458.278 174.62 458.727C175.311 459.175 175.777 459.856 175.931 460.643L182.98 496.752H165.69V461.979C165.69 460.566 166.737 459.34 168.179 459.063ZM139.464 493.778V483.884C139.464 476.11 144.928 469.36 152.763 467.441L160.226 466.134V496.752H142.56C140.852 496.752 139.464 495.418 139.464 493.778ZM285.532 493.778C285.532 495.418 284.143 496.752 282.436 496.752H264.769V466.134L272.232 467.441C280.068 469.36 285.532 476.11 285.532 483.884V493.778ZM177.348 409.979C182.563 410.785 188.492 411.455 195.195 411.89L200.659 412.181C204.388 412.34 208.327 412.429 212.498 412.429C216.668 412.429 220.608 412.34 224.336 412.181L229.8 411.89C236.504 411.455 242.433 410.785 247.647 409.979C247.568 433.147 231.832 451.966 212.498 451.966C193.164 451.966 177.427 433.147 177.348 409.979ZM194.575 485.171C193.195 484.956 192.738 484.081 192.209 483.068L182.061 463.571L188.538 496.752H236.457L242.933 463.574C241.098 467.101 238.922 471.284 237.027 474.925L232.786 483.068C232.257 484.082 231.799 484.957 230.42 485.172C230.274 485.195 230.127 485.206 229.982 485.206C229.269 485.206 228.578 484.938 228.063 484.449C223.096 479.741 215.747 474.183 212.607 472.6C209.464 474.183 201.899 479.741 196.932 484.449C196.417 484.937 195.725 485.205 195.013 485.205C194.868 485.205 194.721 485.194 194.575 485.171Z" fill="#851D2D"/>
<path d="M212.497 440.42C207.351 440.42 202.542 439.206 199.304 437.089C198.057 436.274 197.733 434.641 198.583 433.443C199.432 432.246 201.131 431.935 202.378 432.751C204.697 434.267 208.48 435.172 212.497 435.172C216.514 435.172 220.297 434.267 222.616 432.751C223.865 431.935 225.564 432.246 226.412 433.444C227.262 434.642 226.938 436.274 225.691 437.09C222.452 439.206 217.644 440.42 212.497 440.42Z" fill="#851D2D"/>
<g filter="url(#filter0_d_168_6679)">
<rect x="30" y="819" width="364" height="49" rx="12" fill="#851D2D" shape-rendering="crispEdges"/>
<path d="M185.42 850.5H183.14L176.28 840.12V850.5H174V836.58H176.28L183.14 846.94V836.58H185.42V850.5ZM198.514 844.72C198.514 845.133 198.487 845.507 198.434 845.84H190.014C190.081 846.72 190.407 847.427 190.994 847.96C191.581 848.493 192.301 848.76 193.154 848.76C194.381 848.76 195.247 848.247 195.754 847.22H198.214C197.881 848.233 197.274 849.067 196.394 849.72C195.527 850.36 194.447 850.68 193.154 850.68C192.101 850.68 191.154 850.447 190.314 849.98C189.487 849.5 188.834 848.833 188.354 847.98C187.887 847.113 187.654 846.113 187.654 844.98C187.654 843.847 187.881 842.853 188.334 842C188.801 841.133 189.447 840.467 190.274 840C191.114 839.533 192.074 839.3 193.154 839.3C194.194 839.3 195.121 839.527 195.934 839.98C196.747 840.433 197.381 841.073 197.834 841.9C198.287 842.713 198.514 843.653 198.514 844.72ZM196.134 844C196.121 843.16 195.821 842.487 195.234 841.98C194.647 841.473 193.921 841.22 193.054 841.22C192.267 841.22 191.594 841.473 191.034 841.98C190.474 842.473 190.141 843.147 190.034 844H196.134ZM205.478 844.92L209.038 850.5H206.458L204.078 846.76L201.838 850.5H199.458L203.018 845.08L199.458 839.48H202.038L204.418 843.22L206.658 839.48H209.038L205.478 844.92ZM213.398 841.34V847.44C213.398 847.853 213.492 848.153 213.678 848.34C213.878 848.513 214.212 848.6 214.678 848.6H216.078V850.5H214.278C213.252 850.5 212.465 850.26 211.918 849.78C211.372 849.3 211.098 848.52 211.098 847.44V841.34H209.798V839.48H211.098V836.74H213.398V839.48H216.078V841.34H213.398Z" fill="#F5F5F5"/>
<path fill-rule="evenodd" clip-rule="evenodd" d="M236.151 849.224C235.807 848.866 235.818 848.296 236.176 847.951L240.901 843.5L236.176 839.049C235.818 838.704 235.807 838.134 236.151 837.776C236.496 837.418 237.065 837.407 237.424 837.751L242.824 842.851C243 843.021 243.1 843.255 243.1 843.5C243.1 843.745 243 843.979 242.824 844.149L237.424 849.249C237.065 849.593 236.496 849.582 236.151 849.224Z" fill="#FAFAFA"/>
</g>
<rect width="423" height="44" fill="#FAFAFA"/>
<rect opacity="0.35" x="384.834" y="18.5" width="21" height="10.3333" rx="2.16667" stroke="black"/>
<path opacity="0.4" d="M407.334 21.6667V25.6667C408.139 25.328 408.662 24.5399 408.662 23.6667C408.662 22.7936 408.139 22.0055 407.334 21.6667Z" fill="black"/>
<rect x="386.334" y="20" width="18" height="7.33333" rx="1.33333" fill="black"/>
<path d="M369.448 26.4267C370.729 25.3444 372.605 25.3444 373.886 26.4267C373.95 26.4849 373.987 26.5675 373.989 26.6542C373.991 26.7409 373.956 26.824 373.895 26.8847L371.89 28.9072C371.831 28.9666 371.751 28.9999 371.667 28.9999C371.583 28.9999 371.503 28.9666 371.444 28.9072L369.438 26.8847C369.377 26.824 369.343 26.7407 369.345 26.6542C369.347 26.5675 369.384 26.4848 369.448 26.4267ZM366.772 23.7294C369.532 21.165 373.804 21.1651 376.563 23.7294C376.626 23.7896 376.661 23.8724 376.662 23.9589C376.663 24.0453 376.629 24.1281 376.568 24.1894L375.409 25.3603C375.29 25.4796 375.097 25.4814 374.975 25.3652C374.069 24.5454 372.889 24.0917 371.667 24.0917C370.446 24.0923 369.268 24.5461 368.362 25.3652C368.24 25.4815 368.046 25.4798 367.927 25.3603L366.769 24.1894C366.707 24.1282 366.673 24.0453 366.674 23.9589C366.675 23.8724 366.71 23.7895 366.772 23.7294ZM364.097 21.039C368.328 16.9869 375.004 16.9871 379.236 21.039C379.298 21.0992 379.333 21.1817 379.333 21.2675C379.333 21.3533 379.3 21.4361 379.239 21.497L378.079 22.6669C377.96 22.787 377.765 22.7881 377.644 22.6699C376.031 21.1384 373.892 20.2842 371.667 20.2841C369.442 20.2841 367.302 21.1382 365.689 22.6699C365.568 22.7882 365.374 22.787 365.255 22.6669L364.094 21.497C364.033 21.4361 364 21.3532 364 21.2675C364.001 21.1817 364.035 21.0991 364.097 21.039Z" fill="black"/>
<path d="M344 24.667C344.552 24.667 345 25.1147 345 25.667V27.667C345 28.2191 344.552 28.667 344 28.667H343C342.448 28.667 342 28.2191 342 27.667V25.667C342 25.1147 342.448 24.667 343 24.667H344ZM348.667 22.667C349.219 22.6672 349.667 23.1148 349.667 23.667V27.667C349.667 28.219 349.219 28.6668 348.667 28.667H347.667C347.115 28.667 346.667 28.2191 346.667 27.667V23.667C346.667 23.1147 347.115 22.667 347.667 22.667H348.667ZM353.333 20.333C353.885 20.333 354.333 20.7809 354.333 21.333V27.667C354.333 28.2191 353.885 28.667 353.333 28.667H352.333C351.781 28.6668 351.333 28.219 351.333 27.667V21.333C351.333 20.781 351.781 20.3332 352.333 20.333H353.333ZM358 18C358.552 18 359 18.4477 359 19V27.667C359 28.2191 358.552 28.667 358 28.667H357C356.448 28.667 356 28.2191 356 27.667V19C356 18.4477 356.448 18 357 18H358Z" fill="black"/>
<path d="M36.856 18.1675C34.5635 18.1675 32.9302 19.7349 32.9302 21.8809V21.8955C32.9302 23.9023 34.3511 25.3818 36.3799 25.3818C37.8301 25.3818 38.7529 24.6421 39.1411 23.8071H39.2876C39.2876 23.8877 39.2803 23.9683 39.2803 24.0488C39.1997 26.0703 38.4893 27.7109 36.812 27.7109C35.8818 27.7109 35.23 27.2275 34.9517 26.4878L34.9297 26.4146H33.0693L33.084 26.4951C33.4209 28.1138 34.8711 29.2637 36.812 29.2637C39.4707 29.2637 41.0747 27.1543 41.0747 23.5947V23.5801C41.0747 19.7715 39.1118 18.1675 36.856 18.1675ZM36.8486 23.9316C35.6475 23.9316 34.7759 23.0527 34.7759 21.8296V21.8149C34.7759 20.6357 35.7061 19.7056 36.8706 19.7056C38.0425 19.7056 38.958 20.6504 38.958 21.8589V21.8735C38.958 23.0674 38.0425 23.9316 36.8486 23.9316ZM44.2331 23.7046C44.907 23.7046 45.3977 23.1992 45.3977 22.5547C45.3977 21.9028 44.907 21.3975 44.2331 21.3975C43.5666 21.3975 43.0686 21.9028 43.0686 22.5547C43.0686 23.1992 43.5666 23.7046 44.2331 23.7046ZM44.2331 29.1465C44.907 29.1465 45.3977 28.6338 45.3977 27.9893C45.3977 27.3374 44.907 26.832 44.2331 26.832C43.5666 26.832 43.0686 27.3374 43.0686 27.9893C43.0686 28.6338 43.5666 29.1465 44.2331 29.1465ZM52.2988 29H54.1079V26.9712H55.5288V25.4111H54.1079V18.4312H51.4346C49.999 20.6138 48.4975 23.0454 47.1279 25.4258V26.9712H52.2988V29ZM48.8857 25.4551V25.3452C49.9111 23.5508 51.1343 21.5952 52.2182 19.9399H52.3281V25.4551H48.8857ZM59.6687 29H61.5583V18.4312H59.676L56.9148 20.3721V22.1519L59.5442 20.2915H59.6687V29Z" fill="black"/>
<rect width="375" height="34" transform="translate(22 868)" fill="#FAFAFA"/>
<rect x="143" y="889" width="134" height="5" rx="2.5" fill="black"/>
<defs>
<filter id="filter0_d_168_6679" x="26" y="815" width="372" height="57" filterUnits="userSpaceOnUse" color-interpolation-filters="sRGB">
<feFlood flood-opacity="0" result="BackgroundImageFix"/>
<feColorMatrix in="SourceAlpha" type="matrix" values="0 0 0 0 0 0 0 0 0 0 0 0 0 0 0 0 0 0 127 0" result="hardAlpha"/>
<feOffset/>
<feGaussianBlur stdDeviation="2"/>
<feComposite in2="hardAlpha" operator="out"/>
<feColorMatrix type="matrix" values="0 0 0 0 0 0 0 0 0 0 0 0 0 0 0 0 0 0 0.15 0"/>
<feBlend mode="normal" in2="BackgroundImageFix" result="effect1_dropShadow_168_6679"/>
<feBlend mode="normal" in="SourceGraphic" in2="effect1_dropShadow_168_6679" result="shape"/>
</filter>
</defs>
</svg>
