<svg width="423" height="914" viewBox="0 0 423 914" fill="none" xmlns="http://www.w3.org/2000/svg">
<rect width="422" height="914" transform="translate(1)" fill="#FAFAFA"/>
<path fill-rule="evenodd" clip-rule="evenodd" d="M54.4697 59.4697C54.7626 59.1768 55.2374 59.1768 55.5303 59.4697L61 64.9393L66.4697 59.4697C66.7626 59.1768 67.2374 59.1768 67.5303 59.4697C67.8232 59.7626 67.8232 60.2374 67.5303 60.5303L62.0607 66L67.5303 71.4697C67.8232 71.7626 67.8232 72.2374 67.5303 72.5303C67.2374 72.8232 66.7626 72.8232 66.4697 72.5303L61 67.0607L55.5303 72.5303C55.2374 72.8232 54.7626 72.8232 54.4697 72.5303C54.1768 72.2374 54.1768 71.7626 54.4697 71.4697L59.9393 66L54.4697 60.5303C54.1768 60.2374 54.1768 59.7626 54.4697 59.4697Z" fill="#0F172A"/>
<path d="M184.835 51.4C184.582 50.9333 184.215 50.58 183.735 50.34C183.269 50.0867 182.715 49.96 182.075 49.96C180.969 49.96 180.082 50.3267 179.415 51.06C178.749 51.78 178.415 52.7467 178.415 53.96C178.415 55.2533 178.762 56.2667 179.455 57C180.162 57.72 181.129 58.08 182.355 58.08C183.195 58.08 183.902 57.8667 184.475 57.44C185.062 57.0133 185.489 56.4 185.755 55.6H181.415V53.08H188.855V56.26C188.602 57.1133 188.169 57.9067 187.555 58.64C186.955 59.3733 186.189 59.9667 185.255 60.42C184.322 60.8733 183.269 61.1 182.095 61.1C180.709 61.1 179.469 60.8 178.375 60.2C177.295 59.5867 176.449 58.74 175.835 57.66C175.235 56.58 174.935 55.3467 174.935 53.96C174.935 52.5733 175.235 51.34 175.835 50.26C176.449 49.1667 177.295 48.32 178.375 47.72C179.455 47.1067 180.689 46.8 182.075 46.8C183.755 46.8 185.169 47.2067 186.315 48.02C187.475 48.8333 188.242 49.96 188.615 51.4H184.835ZM194.17 51.7C194.57 51.0867 195.07 50.6067 195.67 50.26C196.27 49.9 196.936 49.72 197.67 49.72V53.34H196.73C195.876 53.34 195.236 53.5267 194.81 53.9C194.383 54.26 194.17 54.9 194.17 55.82V61H190.75V49.84H194.17V51.7ZM204.384 61.16C203.291 61.16 202.304 60.9267 201.424 60.46C200.558 59.9933 199.871 59.3267 199.364 58.46C198.871 57.5933 198.624 56.58 198.624 55.42C198.624 54.2733 198.878 53.2667 199.384 52.4C199.891 51.52 200.584 50.8467 201.464 50.38C202.344 49.9133 203.331 49.68 204.424 49.68C205.518 49.68 206.504 49.9133 207.384 50.38C208.264 50.8467 208.958 51.52 209.464 52.4C209.971 53.2667 210.224 54.2733 210.224 55.42C210.224 56.5667 209.964 57.58 209.444 58.46C208.938 59.3267 208.238 59.9933 207.344 60.46C206.464 60.9267 205.478 61.16 204.384 61.16ZM204.384 58.2C205.038 58.2 205.591 57.96 206.044 57.48C206.511 57 206.744 56.3133 206.744 55.42C206.744 54.5267 206.518 53.84 206.064 53.36C205.624 52.88 205.078 52.64 204.424 52.64C203.758 52.64 203.204 52.88 202.764 53.36C202.324 53.8267 202.104 54.5133 202.104 55.42C202.104 56.3133 202.318 57 202.744 57.48C203.184 57.96 203.731 58.2 204.384 58.2ZM228.059 49.84L225.039 61H221.259L219.499 53.76L217.679 61H213.919L210.879 49.84H214.299L215.879 57.82L217.759 49.84H221.379L223.279 57.78L224.839 49.84H228.059ZM235.583 58.1V61H233.843C232.603 61 231.636 60.7 230.943 60.1C230.25 59.4867 229.903 58.4933 229.903 57.12V52.68H228.543V49.84H229.903V47.12H233.323V49.84H235.563V52.68H233.323V57.16C233.323 57.4933 233.403 57.7333 233.563 57.88C233.723 58.0267 233.99 58.1 234.363 58.1H235.583ZM244.348 49.72C245.628 49.72 246.655 50.1467 247.428 51C248.201 51.84 248.588 53 248.588 54.48V61H245.188V54.94C245.188 54.1933 244.995 53.6133 244.608 53.2C244.221 52.7867 243.701 52.58 243.048 52.58C242.395 52.58 241.875 52.7867 241.488 53.2C241.101 53.6133 240.908 54.1933 240.908 54.94V61H237.488V46.2H240.908V51.34C241.255 50.8467 241.728 50.4533 242.328 50.16C242.928 49.8667 243.601 49.72 244.348 49.72ZM156.931 77.14C155.611 77.14 154.397 76.8333 153.291 76.22C152.197 75.6067 151.324 74.7533 150.671 73.66C150.031 72.5533 149.711 71.3133 149.711 69.94C149.711 68.5667 150.031 67.3333 150.671 66.24C151.324 65.1467 152.197 64.2933 153.291 63.68C154.397 63.0667 155.611 62.76 156.931 62.76C158.251 62.76 159.457 63.0667 160.551 63.68C161.657 64.2933 162.524 65.1467 163.151 66.24C163.791 67.3333 164.111 68.5667 164.111 69.94C164.111 71.3133 163.791 72.5533 163.151 73.66C162.511 74.7533 161.644 75.6067 160.551 76.22C159.457 76.8333 158.251 77.14 156.931 77.14ZM156.931 74.02C158.051 74.02 158.944 73.6467 159.611 72.9C160.291 72.1533 160.631 71.1667 160.631 69.94C160.631 68.7 160.291 67.7133 159.611 66.98C158.944 66.2333 158.051 65.86 156.931 65.86C155.797 65.86 154.891 66.2267 154.211 66.96C153.544 67.6933 153.211 68.6867 153.211 69.94C153.211 71.18 153.544 72.1733 154.211 72.92C154.891 73.6533 155.797 74.02 156.931 74.02ZM169.433 67.42C169.767 66.9 170.227 66.48 170.813 66.16C171.4 65.84 172.087 65.68 172.873 65.68C173.793 65.68 174.627 65.9133 175.373 66.38C176.12 66.8467 176.707 67.5133 177.133 68.38C177.573 69.2467 177.793 70.2533 177.793 71.4C177.793 72.5467 177.573 73.56 177.133 74.44C176.707 75.3067 176.12 75.98 175.373 76.46C174.627 76.9267 173.793 77.16 172.873 77.16C172.1 77.16 171.413 77 170.813 76.68C170.227 76.36 169.767 75.9467 169.433 75.44V82.32H166.013V65.84H169.433V67.42ZM174.313 71.4C174.313 70.5467 174.073 69.88 173.593 69.4C173.127 68.9067 172.547 68.66 171.853 68.66C171.173 68.66 170.593 68.9067 170.113 69.4C169.647 69.8933 169.413 70.5667 169.413 71.42C169.413 72.2733 169.647 72.9467 170.113 73.44C170.593 73.9333 171.173 74.18 171.853 74.18C172.533 74.18 173.113 73.9333 173.593 73.44C174.073 72.9333 174.313 72.2533 174.313 71.4ZM183.008 67.42C183.341 66.9 183.801 66.48 184.388 66.16C184.974 65.84 185.661 65.68 186.448 65.68C187.368 65.68 188.201 65.9133 188.948 66.38C189.694 66.8467 190.281 67.5133 190.708 68.38C191.148 69.2467 191.368 70.2533 191.368 71.4C191.368 72.5467 191.148 73.56 190.708 74.44C190.281 75.3067 189.694 75.98 188.948 76.46C188.201 76.9267 187.368 77.16 186.448 77.16C185.674 77.16 184.988 77 184.388 76.68C183.801 76.36 183.341 75.9467 183.008 75.44V82.32H179.588V65.84H183.008V67.42ZM187.888 71.4C187.888 70.5467 187.648 69.88 187.168 69.4C186.701 68.9067 186.121 68.66 185.428 68.66C184.748 68.66 184.168 68.9067 183.688 69.4C183.221 69.8933 182.988 70.5667 182.988 71.42C182.988 72.2733 183.221 72.9467 183.688 73.44C184.168 73.9333 184.748 74.18 185.428 74.18C186.108 74.18 186.688 73.9333 187.168 73.44C187.648 72.9333 187.888 72.2533 187.888 71.4ZM198.242 77.16C197.149 77.16 196.162 76.9267 195.282 76.46C194.415 75.9933 193.729 75.3267 193.222 74.46C192.729 73.5933 192.482 72.58 192.482 71.42C192.482 70.2733 192.735 69.2667 193.242 68.4C193.749 67.52 194.442 66.8467 195.322 66.38C196.202 65.9133 197.189 65.68 198.282 65.68C199.375 65.68 200.362 65.9133 201.242 66.38C202.122 66.8467 202.815 67.52 203.322 68.4C203.829 69.2667 204.082 70.2733 204.082 71.42C204.082 72.5667 203.822 73.58 203.302 74.46C202.795 75.3267 202.095 75.9933 201.202 76.46C200.322 76.9267 199.335 77.16 198.242 77.16ZM198.242 74.2C198.895 74.2 199.449 73.96 199.902 73.48C200.369 73 200.602 72.3133 200.602 71.42C200.602 70.5267 200.375 69.84 199.922 69.36C199.482 68.88 198.935 68.64 198.282 68.64C197.615 68.64 197.062 68.88 196.622 69.36C196.182 69.8267 195.962 70.5133 195.962 71.42C195.962 72.3133 196.175 73 196.602 73.48C197.042 73.96 197.589 74.2 198.242 74.2ZM209.316 67.7C209.716 67.0867 210.216 66.6067 210.816 66.26C211.416 65.9 212.083 65.72 212.816 65.72V69.34H211.876C211.023 69.34 210.383 69.5267 209.956 69.9C209.53 70.26 209.316 70.9 209.316 71.82V77H205.896V65.84H209.316V67.7ZM220.671 74.1V77H218.931C217.691 77 216.724 76.7 216.031 76.1C215.338 75.4867 214.991 74.4933 214.991 73.12V68.68H213.631V65.84H214.991V63.12H218.411V65.84H220.651V68.68H218.411V73.16C218.411 73.4933 218.491 73.7333 218.651 73.88C218.811 74.0267 219.078 74.1 219.451 74.1H220.671ZM233.596 65.84V77H230.176V75.48C229.829 75.9733 229.356 76.3733 228.756 76.68C228.169 76.9733 227.516 77.12 226.796 77.12C225.943 77.12 225.189 76.9333 224.536 76.56C223.883 76.1733 223.376 75.62 223.016 74.9C222.656 74.18 222.476 73.3333 222.476 72.36V65.84H225.876V71.9C225.876 72.6467 226.069 73.2267 226.456 73.64C226.843 74.0533 227.363 74.26 228.016 74.26C228.683 74.26 229.209 74.0533 229.596 73.64C229.983 73.2267 230.176 72.6467 230.176 71.9V65.84H233.596ZM242.853 65.72C244.159 65.72 245.199 66.1467 245.973 67C246.759 67.84 247.153 69 247.153 70.48V77H243.753V70.94C243.753 70.1933 243.559 69.6133 243.173 69.2C242.786 68.7867 242.266 68.58 241.613 68.58C240.959 68.58 240.439 68.7867 240.053 69.2C239.666 69.6133 239.473 70.1933 239.473 70.94V77H236.053V65.84H239.473V67.32C239.819 66.8267 240.286 66.44 240.873 66.16C241.459 65.8667 242.119 65.72 242.853 65.72ZM251.249 64.68C250.649 64.68 250.156 64.5067 249.769 64.16C249.396 63.8 249.209 63.36 249.209 62.84C249.209 62.3067 249.396 61.8667 249.769 61.52C250.156 61.16 250.649 60.98 251.249 60.98C251.836 60.98 252.316 61.16 252.689 61.52C253.076 61.8667 253.269 62.3067 253.269 62.84C253.269 63.36 253.076 63.8 252.689 64.16C252.316 64.5067 251.836 64.68 251.249 64.68ZM252.949 65.84V77H249.529V65.84H252.949ZM261.648 74.1V77H259.908C258.668 77 257.701 76.7 257.008 76.1C256.314 75.4867 255.968 74.4933 255.968 73.12V68.68H254.608V65.84H255.968V63.12H259.388V65.84H261.628V68.68H259.388V73.16C259.388 73.4933 259.468 73.7333 259.628 73.88C259.788 74.0267 260.054 74.1 260.428 74.1H261.648ZM274.953 65.84L267.953 82.3H264.273L266.833 76.62L262.292 65.84H266.113L268.693 72.82L271.253 65.84H274.953Z" fill="#851D2D"/>
<path d="M175.516 106.352V109.616H179.356V111.104H175.516V114.512H179.836V116H173.692V104.864H179.836V106.352H175.516ZM185.859 111.536L188.707 116H186.643L184.739 113.008L182.947 116H181.043L183.891 111.664L181.043 107.184H183.107L185.011 110.176L186.803 107.184H188.707L185.859 111.536ZM198.147 111.376C198.147 111.707 198.126 112.005 198.083 112.272H191.347C191.401 112.976 191.662 113.541 192.131 113.968C192.601 114.395 193.177 114.608 193.859 114.608C194.841 114.608 195.534 114.197 195.939 113.376H197.907C197.641 114.187 197.155 114.853 196.451 115.376C195.758 115.888 194.894 116.144 193.859 116.144C193.017 116.144 192.259 115.957 191.587 115.584C190.926 115.2 190.403 114.667 190.019 113.984C189.646 113.291 189.459 112.491 189.459 111.584C189.459 110.677 189.641 109.883 190.003 109.2C190.377 108.507 190.894 107.973 191.555 107.6C192.227 107.227 192.995 107.04 193.859 107.04C194.691 107.04 195.433 107.221 196.083 107.584C196.734 107.947 197.241 108.459 197.603 109.12C197.966 109.771 198.147 110.523 198.147 111.376ZM196.243 110.8C196.233 110.128 195.993 109.589 195.523 109.184C195.054 108.779 194.473 108.576 193.779 108.576C193.15 108.576 192.611 108.779 192.163 109.184C191.715 109.579 191.449 110.117 191.363 110.8H196.243ZM201.766 108.464C202.033 108.016 202.385 107.669 202.822 107.424C203.27 107.168 203.798 107.04 204.406 107.04V108.928H203.942C203.228 108.928 202.684 109.109 202.31 109.472C201.948 109.835 201.766 110.464 201.766 111.36V116H199.942V107.184H201.766V108.464ZM205.475 111.584C205.475 110.677 205.656 109.883 206.019 109.2C206.392 108.507 206.904 107.973 207.555 107.6C208.205 107.227 208.952 107.04 209.795 107.04C210.861 107.04 211.741 107.296 212.435 107.808C213.139 108.309 213.613 109.029 213.859 109.968H211.891C211.731 109.531 211.475 109.189 211.123 108.944C210.771 108.699 210.328 108.576 209.795 108.576C209.048 108.576 208.451 108.843 208.003 109.376C207.565 109.899 207.347 110.635 207.347 111.584C207.347 112.533 207.565 113.275 208.003 113.808C208.451 114.341 209.048 114.608 209.795 114.608C210.851 114.608 211.549 114.144 211.891 113.216H213.859C213.603 114.112 213.123 114.827 212.419 115.36C211.715 115.883 210.84 116.144 209.795 116.144C208.952 116.144 208.205 115.957 207.555 115.584C206.904 115.2 206.392 114.667 206.019 113.984C205.656 113.291 205.475 112.491 205.475 111.584ZM216.605 106.016C216.274 106.016 215.997 105.904 215.773 105.68C215.549 105.456 215.437 105.179 215.437 104.848C215.437 104.517 215.549 104.24 215.773 104.016C215.997 103.792 216.274 103.68 216.605 103.68C216.925 103.68 217.197 103.792 217.421 104.016C217.645 104.24 217.757 104.517 217.757 104.848C217.757 105.179 217.645 105.456 217.421 105.68C217.197 105.904 216.925 106.016 216.605 106.016ZM217.501 107.184V116H215.677V107.184H217.501ZM223.095 116.144C222.402 116.144 221.778 116.021 221.223 115.776C220.679 115.52 220.247 115.179 219.927 114.752C219.607 114.315 219.437 113.829 219.415 113.296H221.303C221.335 113.669 221.511 113.984 221.831 114.24C222.162 114.485 222.573 114.608 223.063 114.608C223.575 114.608 223.97 114.512 224.247 114.32C224.535 114.117 224.679 113.861 224.679 113.552C224.679 113.221 224.519 112.976 224.199 112.816C223.89 112.656 223.394 112.48 222.711 112.288C222.05 112.107 221.511 111.931 221.095 111.76C220.679 111.589 220.317 111.328 220.007 110.976C219.709 110.624 219.559 110.16 219.559 109.584C219.559 109.115 219.698 108.688 219.975 108.304C220.253 107.909 220.647 107.6 221.159 107.376C221.682 107.152 222.279 107.04 222.951 107.04C223.954 107.04 224.759 107.296 225.367 107.808C225.986 108.309 226.317 108.997 226.359 109.872H224.535C224.503 109.477 224.343 109.163 224.055 108.928C223.767 108.693 223.378 108.576 222.887 108.576C222.407 108.576 222.039 108.667 221.783 108.848C221.527 109.029 221.399 109.269 221.399 109.568C221.399 109.803 221.485 110 221.655 110.16C221.826 110.32 222.034 110.448 222.279 110.544C222.525 110.629 222.887 110.741 223.367 110.88C224.007 111.051 224.53 111.227 224.935 111.408C225.351 111.579 225.709 111.835 226.007 112.176C226.306 112.517 226.461 112.971 226.471 113.536C226.471 114.037 226.333 114.485 226.055 114.88C225.778 115.275 225.383 115.584 224.871 115.808C224.37 116.032 223.778 116.144 223.095 116.144ZM236.522 111.376C236.522 111.707 236.501 112.005 236.458 112.272H229.722C229.776 112.976 230.037 113.541 230.506 113.968C230.976 114.395 231.552 114.608 232.234 114.608C233.216 114.608 233.909 114.197 234.314 113.376H236.282C236.016 114.187 235.53 114.853 234.826 115.376C234.133 115.888 233.269 116.144 232.234 116.144C231.392 116.144 230.634 115.957 229.962 115.584C229.301 115.2 228.778 114.667 228.394 113.984C228.021 113.291 227.834 112.491 227.834 111.584C227.834 110.677 228.016 109.883 228.378 109.2C228.752 108.507 229.269 107.973 229.93 107.6C230.602 107.227 231.37 107.04 232.234 107.04C233.066 107.04 233.808 107.221 234.458 107.584C235.109 107.947 235.616 108.459 235.978 109.12C236.341 109.771 236.522 110.523 236.522 111.376ZM234.618 110.8C234.608 110.128 234.368 109.589 233.898 109.184C233.429 108.779 232.848 108.576 232.154 108.576C231.525 108.576 230.986 108.779 230.538 109.184C230.09 109.579 229.824 110.117 229.738 110.8H234.618ZM243.241 113.52C244.265 112.635 245.071 111.909 245.657 111.344C246.255 110.768 246.751 110.171 247.145 109.552C247.54 108.933 247.737 108.315 247.737 107.696C247.737 107.056 247.583 106.555 247.273 106.192C246.975 105.829 246.5 105.648 245.849 105.648C245.22 105.648 244.729 105.851 244.377 106.256C244.036 106.651 243.855 107.184 243.833 107.856H242.073C242.105 106.64 242.468 105.712 243.161 105.072C243.865 104.421 244.756 104.096 245.833 104.096C246.996 104.096 247.903 104.416 248.553 105.056C249.215 105.696 249.545 106.549 249.545 107.616C249.545 108.384 249.348 109.125 248.953 109.84C248.569 110.544 248.105 111.179 247.561 111.744C247.028 112.299 246.345 112.944 245.513 113.68L244.793 114.32H249.865V115.84H242.089V114.512L243.241 113.52Z" fill="#212121"/>
<path d="M57.2653 152.848L55.3193 150.902C54.8433 151.033 54.358 151.098 53.8633 151.098C52.958 151.098 52.132 150.888 51.3853 150.468C50.6387 150.039 50.046 149.446 49.6073 148.69C49.178 147.925 48.9633 147.066 48.9633 146.114C48.9633 145.162 49.178 144.308 49.6073 143.552C50.046 142.787 50.6387 142.194 51.3853 141.774C52.132 141.345 52.958 141.13 53.8633 141.13C54.778 141.13 55.6087 141.345 56.3553 141.774C57.102 142.194 57.69 142.782 58.1193 143.538C58.5487 144.294 58.7633 145.153 58.7633 146.114C58.7633 147.047 58.558 147.887 58.1473 148.634C57.7367 149.381 57.172 149.969 56.4533 150.398L58.9173 152.848H57.2653ZM50.2653 146.114C50.2653 146.889 50.4193 147.57 50.7273 148.158C51.0447 148.746 51.474 149.199 52.0153 149.516C52.566 149.833 53.182 149.992 53.8633 149.992C54.5447 149.992 55.156 149.833 55.6973 149.516C56.248 149.199 56.6773 148.746 56.9853 148.158C57.3027 147.57 57.4613 146.889 57.4613 146.114C57.4613 145.33 57.3027 144.649 56.9853 144.07C56.6773 143.482 56.2527 143.029 55.7113 142.712C55.17 142.395 54.554 142.236 53.8633 142.236C53.1727 142.236 52.5567 142.395 52.0153 142.712C51.474 143.029 51.0447 143.482 50.7273 144.07C50.4193 144.649 50.2653 145.33 50.2653 146.114ZM60.2345 143.426C60.2999 142.567 60.6312 141.895 61.2285 141.41C61.8259 140.925 62.6005 140.682 63.5525 140.682C64.1872 140.682 64.7332 140.799 65.1905 141.032C65.6572 141.256 66.0072 141.564 66.2405 141.956C66.4832 142.348 66.6045 142.791 66.6045 143.286C66.6045 143.865 66.4365 144.364 66.1005 144.784C65.7739 145.204 65.3445 145.475 64.8125 145.596V145.666C65.4192 145.815 65.8999 146.109 66.2545 146.548C66.6092 146.987 66.7865 147.561 66.7865 148.27C66.7865 148.802 66.6652 149.283 66.4225 149.712C66.1799 150.132 65.8159 150.463 65.3305 150.706C64.8452 150.949 64.2619 151.07 63.5805 151.07C62.5912 151.07 61.7792 150.813 61.1445 150.3C60.5099 149.777 60.1552 149.04 60.0805 148.088H61.3125C61.3779 148.648 61.6065 149.105 61.9985 149.46C62.3905 149.815 62.9132 149.992 63.5665 149.992C64.2199 149.992 64.7145 149.824 65.0505 149.488C65.3959 149.143 65.5685 148.699 65.5685 148.158C65.5685 147.458 65.3352 146.954 64.8685 146.646C64.4019 146.338 63.6972 146.184 62.7545 146.184H62.4325V145.12H62.7685C63.6272 145.111 64.2759 144.971 64.7145 144.7C65.1532 144.42 65.3725 143.991 65.3725 143.412C65.3725 142.917 65.2092 142.521 64.8825 142.222C64.5652 141.923 64.1079 141.774 63.5105 141.774C62.9319 141.774 62.4652 141.923 62.1105 142.222C61.7559 142.521 61.5459 142.922 61.4805 143.426H60.2345Z" fill="black"/>
<rect x="76" y="141" width="267" height="10" rx="5" fill="#E0E0E0"/>
<rect x="76" y="141" width="57" height="10" rx="5" fill="#851D2D"/>
<path d="M351.583 142.04V140.878H354.215V151H352.927V142.04H351.583ZM356.403 145.834C356.403 144.229 356.664 142.978 357.187 142.082C357.71 141.177 358.624 140.724 359.931 140.724C361.228 140.724 362.138 141.177 362.661 142.082C363.184 142.978 363.445 144.229 363.445 145.834C363.445 147.467 363.184 148.737 362.661 149.642C362.138 150.547 361.228 151 359.931 151C358.624 151 357.71 150.547 357.187 149.642C356.664 148.737 356.403 147.467 356.403 145.834ZM362.185 145.834C362.185 145.022 362.129 144.336 362.017 143.776C361.914 143.207 361.695 142.749 361.359 142.404C361.032 142.059 360.556 141.886 359.931 141.886C359.296 141.886 358.811 142.059 358.475 142.404C358.148 142.749 357.929 143.207 357.817 143.776C357.714 144.336 357.663 145.022 357.663 145.834C357.663 146.674 357.714 147.379 357.817 147.948C357.929 148.517 358.148 148.975 358.475 149.32C358.811 149.665 359.296 149.838 359.931 149.838C360.556 149.838 361.032 149.665 361.359 149.32C361.695 148.975 361.914 148.517 362.017 147.948C362.129 147.379 362.185 146.674 362.185 145.834ZM364.914 143.16C364.914 142.525 365.106 142.021 365.488 141.648C365.871 141.265 366.361 141.074 366.958 141.074C367.556 141.074 368.046 141.265 368.428 141.648C368.811 142.021 369.002 142.525 369.002 143.16C369.002 143.804 368.811 144.317 368.428 144.7C368.046 145.073 367.556 145.26 366.958 145.26C366.361 145.26 365.871 145.073 365.488 144.7C365.106 144.317 364.914 143.804 364.914 143.16ZM373.09 141.228L367.42 151H366.16L371.83 141.228H373.09ZM366.958 141.858C366.641 141.858 366.389 141.97 366.202 142.194C366.025 142.409 365.936 142.731 365.936 143.16C365.936 143.589 366.025 143.916 366.202 144.14C366.389 144.364 366.641 144.476 366.958 144.476C367.276 144.476 367.528 144.364 367.714 144.14C367.901 143.907 367.994 143.58 367.994 143.16C367.994 142.731 367.901 142.409 367.714 142.194C367.528 141.97 367.276 141.858 366.958 141.858ZM370.276 149.068C370.276 148.424 370.468 147.915 370.85 147.542C371.233 147.159 371.723 146.968 372.32 146.968C372.918 146.968 373.403 147.159 373.776 147.542C374.159 147.915 374.35 148.424 374.35 149.068C374.35 149.703 374.159 150.211 373.776 150.594C373.403 150.977 372.918 151.168 372.32 151.168C371.723 151.168 371.233 150.981 370.85 150.608C370.468 150.225 370.276 149.712 370.276 149.068ZM372.306 147.766C371.989 147.766 371.737 147.878 371.55 148.102C371.364 148.317 371.27 148.639 371.27 149.068C371.27 149.488 371.364 149.81 371.55 150.034C371.737 150.249 371.989 150.356 372.306 150.356C372.624 150.356 372.876 150.249 373.062 150.034C373.249 149.81 373.342 149.488 373.342 149.068C373.342 148.639 373.249 148.317 373.062 148.102C372.876 147.878 372.624 147.766 372.306 147.766Z" fill="black"/>
<path d="M65.5009 390.848C66.7169 390.848 67.7675 391.077 68.6529 391.536C69.5489 391.984 70.2315 392.629 70.7009 393.472C71.1809 394.315 71.4209 395.307 71.4209 396.448C71.4209 397.589 71.1809 398.581 70.7009 399.424C70.2315 400.256 69.5489 400.896 68.6529 401.344C67.7675 401.781 66.7169 402 65.5009 402H62.0289V390.848H65.5009ZM65.5009 400.8C66.9409 400.8 68.0395 400.421 68.7969 399.664C69.5542 398.896 69.9329 397.824 69.9329 396.448C69.9329 395.061 69.5489 393.979 68.7809 393.2C68.0235 392.421 66.9302 392.032 65.5009 392.032H63.4849V400.8H65.5009ZM77.1654 402.144C76.344 402.144 75.5974 401.957 74.9254 401.584C74.264 401.211 73.7414 400.683 73.3574 400C72.984 399.307 72.7974 398.507 72.7974 397.6C72.7974 396.704 72.9894 395.915 73.3734 395.232C73.768 394.539 74.3014 394.011 74.9734 393.648C75.6454 393.275 76.3974 393.088 77.2294 393.088C78.0614 393.088 78.8134 393.275 79.4854 393.648C80.1574 394.011 80.6854 394.533 81.0694 395.216C81.464 395.899 81.6614 396.693 81.6614 397.6C81.6614 398.507 81.4587 399.307 81.0534 400C80.6587 400.683 80.12 401.211 79.4374 401.584C78.7547 401.957 77.9974 402.144 77.1654 402.144ZM77.1654 400.864C77.688 400.864 78.1787 400.741 78.6374 400.496C79.096 400.251 79.464 399.883 79.7414 399.392C80.0294 398.901 80.1734 398.304 80.1734 397.6C80.1734 396.896 80.0347 396.299 79.7574 395.808C79.48 395.317 79.1174 394.955 78.6694 394.72C78.2214 394.475 77.736 394.352 77.2134 394.352C76.68 394.352 76.1894 394.475 75.7414 394.72C75.304 394.955 74.952 395.317 74.6854 395.808C74.4187 396.299 74.2854 396.896 74.2854 397.6C74.2854 398.315 74.4134 398.917 74.6694 399.408C74.936 399.899 75.288 400.267 75.7254 400.512C76.1627 400.747 76.6427 400.864 77.1654 400.864ZM95.3934 393.232L90.1134 406.128H88.6094L90.3374 401.904L86.8014 393.232H88.4174L91.1694 400.336L93.8894 393.232H95.3934ZM100.681 402.144C99.8597 402.144 99.113 401.957 98.441 401.584C97.7797 401.211 97.257 400.683 96.873 400C96.4997 399.307 96.313 398.507 96.313 397.6C96.313 396.704 96.505 395.915 96.889 395.232C97.2837 394.539 97.817 394.011 98.489 393.648C99.161 393.275 99.913 393.088 100.745 393.088C101.577 393.088 102.329 393.275 103.001 393.648C103.673 394.011 104.201 394.533 104.585 395.216C104.98 395.899 105.177 396.693 105.177 397.6C105.177 398.507 104.974 399.307 104.569 400C104.174 400.683 103.636 401.211 102.953 401.584C102.27 401.957 101.513 402.144 100.681 402.144ZM100.681 400.864C101.204 400.864 101.694 400.741 102.153 400.496C102.612 400.251 102.98 399.883 103.257 399.392C103.545 398.901 103.689 398.304 103.689 397.6C103.689 396.896 103.55 396.299 103.273 395.808C102.996 395.317 102.633 394.955 102.185 394.72C101.737 394.475 101.252 394.352 100.729 394.352C100.196 394.352 99.705 394.475 99.257 394.72C98.8197 394.955 98.4677 395.317 98.201 395.808C97.9343 396.299 97.801 396.896 97.801 397.6C97.801 398.315 97.929 398.917 98.185 399.408C98.4517 399.899 98.8037 400.267 99.241 400.512C99.6783 400.747 100.158 400.864 100.681 400.864ZM114.867 393.232V402H113.411V400.704C113.134 401.152 112.745 401.504 112.243 401.76C111.753 402.005 111.209 402.128 110.611 402.128C109.929 402.128 109.315 401.989 108.771 401.712C108.227 401.424 107.795 400.997 107.475 400.432C107.166 399.867 107.011 399.179 107.011 398.368V393.232H108.451V398.176C108.451 399.04 108.67 399.707 109.107 400.176C109.545 400.635 110.142 400.864 110.899 400.864C111.678 400.864 112.291 400.624 112.739 400.144C113.187 399.664 113.411 398.965 113.411 398.048V393.232H114.867ZM125.159 394.432H123.319V402H121.863V394.432H120.727V393.232H121.863V392.608C121.863 391.627 122.114 390.912 122.615 390.464C123.127 390.005 123.943 389.776 125.063 389.776V390.992C124.423 390.992 123.97 391.12 123.703 391.376C123.447 391.621 123.319 392.032 123.319 392.608V393.232H125.159V394.432ZM134.857 397.28C134.857 397.557 134.841 397.851 134.809 398.16H127.801C127.854 399.024 128.148 399.701 128.681 400.192C129.225 400.672 129.881 400.912 130.649 400.912C131.278 400.912 131.801 400.768 132.217 400.48C132.644 400.181 132.942 399.787 133.113 399.296H134.681C134.446 400.139 133.977 400.827 133.273 401.36C132.569 401.883 131.694 402.144 130.649 402.144C129.817 402.144 129.07 401.957 128.409 401.584C127.758 401.211 127.246 400.683 126.873 400C126.5 399.307 126.313 398.507 126.313 397.6C126.313 396.693 126.494 395.899 126.857 395.216C127.22 394.533 127.726 394.011 128.377 393.648C129.038 393.275 129.796 393.088 130.649 393.088C131.481 393.088 132.217 393.269 132.857 393.632C133.497 393.995 133.988 394.496 134.329 395.136C134.681 395.765 134.857 396.48 134.857 397.28ZM133.353 396.976C133.353 396.421 133.23 395.947 132.985 395.552C132.74 395.147 132.404 394.843 131.977 394.64C131.561 394.427 131.097 394.32 130.585 394.32C129.849 394.32 129.22 394.555 128.697 395.024C128.185 395.493 127.892 396.144 127.817 396.976H133.353ZM144.779 397.28C144.779 397.557 144.763 397.851 144.731 398.16H137.723C137.776 399.024 138.07 399.701 138.603 400.192C139.147 400.672 139.803 400.912 140.571 400.912C141.2 400.912 141.723 400.768 142.139 400.48C142.566 400.181 142.864 399.787 143.035 399.296H144.603C144.368 400.139 143.899 400.827 143.195 401.36C142.491 401.883 141.616 402.144 140.571 402.144C139.739 402.144 138.992 401.957 138.331 401.584C137.68 401.211 137.168 400.683 136.795 400C136.422 399.307 136.235 398.507 136.235 397.6C136.235 396.693 136.416 395.899 136.779 395.216C137.142 394.533 137.648 394.011 138.299 393.648C138.96 393.275 139.718 393.088 140.571 393.088C141.403 393.088 142.139 393.269 142.779 393.632C143.419 393.995 143.91 394.496 144.251 395.136C144.603 395.765 144.779 396.48 144.779 397.28ZM143.275 396.976C143.275 396.421 143.152 395.947 142.907 395.552C142.662 395.147 142.326 394.843 141.899 394.64C141.483 394.427 141.019 394.32 140.507 394.32C139.771 394.32 139.142 394.555 138.619 395.024C138.107 395.493 137.814 396.144 137.739 396.976H143.275ZM148.157 390.16V402H146.701V390.16H148.157ZM156.36 390.16V402H154.904V390.16H156.36ZM159.593 391.808C159.316 391.808 159.081 391.712 158.889 391.52C158.697 391.328 158.601 391.093 158.601 390.816C158.601 390.539 158.697 390.304 158.889 390.112C159.081 389.92 159.316 389.824 159.593 389.824C159.86 389.824 160.084 389.92 160.265 390.112C160.457 390.304 160.553 390.539 160.553 390.816C160.553 391.093 160.457 391.328 160.265 391.52C160.084 391.712 159.86 391.808 159.593 391.808ZM160.297 393.232V402H158.841V393.232H160.297ZM167.675 402L164.235 398.128V402H162.779V390.16H164.235V397.12L167.611 393.232H169.643L165.515 397.6L169.659 402H167.675ZM179.013 397.28C179.013 397.557 178.997 397.851 178.965 398.16H171.957C172.011 399.024 172.304 399.701 172.837 400.192C173.381 400.672 174.037 400.912 174.805 400.912C175.435 400.912 175.957 400.768 176.373 400.48C176.8 400.181 177.099 399.787 177.269 399.296H178.837C178.603 400.139 178.133 400.827 177.429 401.36C176.725 401.883 175.851 402.144 174.805 402.144C173.973 402.144 173.227 401.957 172.565 401.584C171.915 401.211 171.403 400.683 171.029 400C170.656 399.307 170.469 398.507 170.469 397.6C170.469 396.693 170.651 395.899 171.013 395.216C171.376 394.533 171.883 394.011 172.533 393.648C173.195 393.275 173.952 393.088 174.805 393.088C175.637 393.088 176.373 393.269 177.013 393.632C177.653 393.995 178.144 394.496 178.485 395.136C178.837 395.765 179.013 396.48 179.013 397.28ZM177.509 396.976C177.509 396.421 177.387 395.947 177.141 395.552C176.896 395.147 176.56 394.843 176.133 394.64C175.717 394.427 175.253 394.32 174.741 394.32C174.005 394.32 173.376 394.555 172.853 395.024C172.341 395.493 172.048 396.144 171.973 396.976H177.509ZM186.977 394.432V399.6C186.977 400.027 187.067 400.331 187.249 400.512C187.43 400.683 187.745 400.768 188.193 400.768H189.265V402H187.953C187.142 402 186.534 401.813 186.129 401.44C185.723 401.067 185.521 400.453 185.521 399.6V394.432H184.385V393.232H185.521V391.024H186.977V393.232H189.265V394.432H186.977ZM199.029 397.28C199.029 397.557 199.013 397.851 198.981 398.16H191.973C192.026 399.024 192.32 399.701 192.853 400.192C193.397 400.672 194.053 400.912 194.821 400.912C195.45 400.912 195.973 400.768 196.389 400.48C196.816 400.181 197.114 399.787 197.285 399.296H198.853C198.618 400.139 198.149 400.827 197.445 401.36C196.741 401.883 195.866 402.144 194.821 402.144C193.989 402.144 193.242 401.957 192.581 401.584C191.93 401.211 191.418 400.683 191.045 400C190.672 399.307 190.485 398.507 190.485 397.6C190.485 396.693 190.666 395.899 191.029 395.216C191.392 394.533 191.898 394.011 192.549 393.648C193.21 393.275 193.968 393.088 194.821 393.088C195.653 393.088 196.389 393.269 197.029 393.632C197.669 393.995 198.16 394.496 198.501 395.136C198.853 395.765 199.029 396.48 199.029 397.28ZM197.525 396.976C197.525 396.421 197.402 395.947 197.157 395.552C196.912 395.147 196.576 394.843 196.149 394.64C195.733 394.427 195.269 394.32 194.757 394.32C194.021 394.32 193.392 394.555 192.869 395.024C192.357 395.493 192.064 396.144 191.989 396.976H197.525ZM202.407 390.16V402H200.951V390.16H202.407ZM206.344 390.16V402H204.888V390.16H206.344ZM209.578 391.808C209.3 391.808 209.066 391.712 208.874 391.52C208.682 391.328 208.586 391.093 208.586 390.816C208.586 390.539 208.682 390.304 208.874 390.112C209.066 389.92 209.3 389.824 209.578 389.824C209.844 389.824 210.068 389.92 210.25 390.112C210.442 390.304 210.538 390.539 210.538 390.816C210.538 391.093 210.442 391.328 210.25 391.52C210.068 391.712 209.844 391.808 209.578 391.808ZM210.282 393.232V402H208.826V393.232H210.282ZM217.035 393.072C218.102 393.072 218.966 393.397 219.627 394.048C220.289 394.688 220.619 395.616 220.619 396.832V402H219.179V397.04C219.179 396.165 218.961 395.499 218.523 395.04C218.086 394.571 217.489 394.336 216.731 394.336C215.963 394.336 215.35 394.576 214.891 395.056C214.443 395.536 214.219 396.235 214.219 397.152V402H212.763V393.232H214.219V394.48C214.507 394.032 214.897 393.685 215.387 393.44C215.889 393.195 216.438 393.072 217.035 393.072ZM226.614 393.088C227.371 393.088 228.032 393.253 228.598 393.584C229.174 393.915 229.6 394.331 229.878 394.832V393.232H231.35V402.192C231.35 402.992 231.179 403.701 230.838 404.32C230.496 404.949 230.006 405.44 229.366 405.792C228.736 406.144 228 406.32 227.158 406.32C226.006 406.32 225.046 406.048 224.278 405.504C223.51 404.96 223.056 404.219 222.918 403.28H224.358C224.518 403.813 224.848 404.24 225.35 404.56C225.851 404.891 226.454 405.056 227.158 405.056C227.958 405.056 228.608 404.805 229.11 404.304C229.622 403.803 229.878 403.099 229.878 402.192V400.352C229.59 400.864 229.163 401.291 228.598 401.632C228.032 401.973 227.371 402.144 226.614 402.144C225.835 402.144 225.126 401.952 224.486 401.568C223.856 401.184 223.36 400.645 222.998 399.952C222.635 399.259 222.454 398.469 222.454 397.584C222.454 396.688 222.635 395.904 222.998 395.232C223.36 394.549 223.856 394.021 224.486 393.648C225.126 393.275 225.835 393.088 226.614 393.088ZM229.878 397.6C229.878 396.939 229.744 396.363 229.478 395.872C229.211 395.381 228.848 395.008 228.39 394.752C227.942 394.485 227.446 394.352 226.902 394.352C226.358 394.352 225.862 394.48 225.414 394.736C224.966 394.992 224.608 395.365 224.342 395.856C224.075 396.347 223.942 396.923 223.942 397.584C223.942 398.256 224.075 398.843 224.342 399.344C224.608 399.835 224.966 400.213 225.414 400.48C225.862 400.736 226.358 400.864 226.902 400.864C227.446 400.864 227.942 400.736 228.39 400.48C228.848 400.213 229.211 399.835 229.478 399.344C229.744 398.843 229.878 398.261 229.878 397.6ZM239.532 394.848C239.82 394.347 240.246 393.931 240.812 393.6C241.388 393.259 242.054 393.088 242.812 393.088C243.59 393.088 244.294 393.275 244.924 393.648C245.564 394.021 246.065 394.549 246.428 395.232C246.79 395.904 246.972 396.688 246.972 397.584C246.972 398.469 246.79 399.259 246.428 399.952C246.065 400.645 245.564 401.184 244.924 401.568C244.294 401.952 243.59 402.144 242.812 402.144C242.065 402.144 241.404 401.979 240.828 401.648C240.262 401.307 239.83 400.885 239.532 400.384V406.16H238.076V393.232H239.532V394.848ZM245.484 397.584C245.484 396.923 245.35 396.347 245.084 395.856C244.817 395.365 244.454 394.992 243.996 394.736C243.548 394.48 243.052 394.352 242.508 394.352C241.974 394.352 241.478 394.485 241.02 394.752C240.572 395.008 240.209 395.387 239.932 395.888C239.665 396.379 239.532 396.949 239.532 397.6C239.532 398.261 239.665 398.843 239.932 399.344C240.209 399.835 240.572 400.213 241.02 400.48C241.478 400.736 241.974 400.864 242.508 400.864C243.052 400.864 243.548 400.736 243.996 400.48C244.454 400.213 244.817 399.835 245.084 399.344C245.35 398.843 245.484 398.256 245.484 397.584ZM256.888 397.28C256.888 397.557 256.872 397.851 256.84 398.16H249.832C249.886 399.024 250.179 399.701 250.712 400.192C251.256 400.672 251.912 400.912 252.68 400.912C253.31 400.912 253.832 400.768 254.248 400.48C254.675 400.181 254.974 399.787 255.144 399.296H256.712C256.478 400.139 256.008 400.827 255.304 401.36C254.6 401.883 253.726 402.144 252.68 402.144C251.848 402.144 251.102 401.957 250.44 401.584C249.79 401.211 249.278 400.683 248.904 400C248.531 399.307 248.344 398.507 248.344 397.6C248.344 396.693 248.526 395.899 248.888 395.216C249.251 394.533 249.758 394.011 250.408 393.648C251.07 393.275 251.827 393.088 252.68 393.088C253.512 393.088 254.248 393.269 254.888 393.632C255.528 393.995 256.019 394.496 256.36 395.136C256.712 395.765 256.888 396.48 256.888 397.28ZM255.384 396.976C255.384 396.421 255.262 395.947 255.016 395.552C254.771 395.147 254.435 394.843 254.008 394.64C253.592 394.427 253.128 394.32 252.616 394.32C251.88 394.32 251.251 394.555 250.728 395.024C250.216 395.493 249.923 396.144 249.848 396.976H255.384ZM262.634 402.144C261.813 402.144 261.066 401.957 260.394 401.584C259.733 401.211 259.21 400.683 258.826 400C258.453 399.307 258.266 398.507 258.266 397.6C258.266 396.704 258.458 395.915 258.842 395.232C259.237 394.539 259.77 394.011 260.442 393.648C261.114 393.275 261.866 393.088 262.698 393.088C263.53 393.088 264.282 393.275 264.954 393.648C265.626 394.011 266.154 394.533 266.538 395.216C266.933 395.899 267.13 396.693 267.13 397.6C267.13 398.507 266.927 399.307 266.522 400C266.127 400.683 265.589 401.211 264.906 401.584C264.223 401.957 263.466 402.144 262.634 402.144ZM262.634 400.864C263.157 400.864 263.647 400.741 264.106 400.496C264.565 400.251 264.933 399.883 265.21 399.392C265.498 398.901 265.642 398.304 265.642 397.6C265.642 396.896 265.503 396.299 265.226 395.808C264.949 395.317 264.586 394.955 264.138 394.72C263.69 394.475 263.205 394.352 262.682 394.352C262.149 394.352 261.658 394.475 261.21 394.72C260.773 394.955 260.421 395.317 260.154 395.808C259.887 396.299 259.754 396.896 259.754 397.6C259.754 398.315 259.882 398.917 260.138 399.408C260.405 399.899 260.757 400.267 261.194 400.512C261.631 400.747 262.111 400.864 262.634 400.864ZM270.501 394.848C270.789 394.347 271.215 393.931 271.781 393.6C272.357 393.259 273.023 393.088 273.781 393.088C274.559 393.088 275.263 393.275 275.892 393.648C276.532 394.021 277.034 394.549 277.397 395.232C277.759 395.904 277.941 396.688 277.941 397.584C277.941 398.469 277.759 399.259 277.397 399.952C277.034 400.645 276.532 401.184 275.892 401.568C275.263 401.952 274.559 402.144 273.781 402.144C273.034 402.144 272.373 401.979 271.797 401.648C271.231 401.307 270.799 400.885 270.501 400.384V406.16H269.045V393.232H270.501V394.848ZM276.453 397.584C276.453 396.923 276.319 396.347 276.053 395.856C275.786 395.365 275.423 394.992 274.965 394.736C274.517 394.48 274.021 394.352 273.477 394.352C272.943 394.352 272.447 394.485 271.989 394.752C271.541 395.008 271.178 395.387 270.901 395.888C270.634 396.379 270.501 396.949 270.501 397.6C270.501 398.261 270.634 398.843 270.901 399.344C271.178 399.835 271.541 400.213 271.989 400.48C272.447 400.736 272.943 400.864 273.477 400.864C274.021 400.864 274.517 400.736 274.965 400.48C275.423 400.213 275.786 399.835 276.053 399.344C276.319 398.843 276.453 398.256 276.453 397.584ZM281.313 390.16V402H279.857V390.16H281.313ZM291.795 397.28C291.795 397.557 291.779 397.851 291.747 398.16H284.739C284.792 399.024 285.085 399.701 285.619 400.192C286.163 400.672 286.819 400.912 287.587 400.912C288.216 400.912 288.739 400.768 289.155 400.48C289.581 400.181 289.88 399.787 290.051 399.296H291.619C291.384 400.139 290.915 400.827 290.211 401.36C289.507 401.883 288.632 402.144 287.587 402.144C286.755 402.144 286.008 401.957 285.347 401.584C284.696 401.211 284.184 400.683 283.811 400C283.437 399.307 283.251 398.507 283.251 397.6C283.251 396.693 283.432 395.899 283.795 395.216C284.157 394.533 284.664 394.011 285.315 393.648C285.976 393.275 286.733 393.088 287.587 393.088C288.419 393.088 289.155 393.269 289.795 393.632C290.435 393.995 290.925 394.496 291.267 395.136C291.619 395.765 291.795 396.48 291.795 397.28ZM290.291 396.976C290.291 396.421 290.168 395.947 289.923 395.552C289.677 395.147 289.341 394.843 288.915 394.64C288.499 394.427 288.035 394.32 287.523 394.32C286.787 394.32 286.157 394.555 285.635 395.024C285.123 395.493 284.829 396.144 284.755 396.976H290.291ZM299.758 394.432V399.6C299.758 400.027 299.849 400.331 300.03 400.512C300.211 400.683 300.526 400.768 300.974 400.768H302.046V402H300.734C299.923 402 299.315 401.813 298.91 401.44C298.505 401.067 298.302 400.453 298.302 399.6V394.432H297.166V393.232H298.302V391.024H299.758V393.232H302.046V394.432H299.758ZM308.162 393.072C308.823 393.072 309.421 393.216 309.954 393.504C310.487 393.781 310.903 394.203 311.202 394.768C311.511 395.333 311.666 396.021 311.666 396.832V402H310.226V397.04C310.226 396.165 310.007 395.499 309.57 395.04C309.133 394.571 308.535 394.336 307.778 394.336C307.01 394.336 306.397 394.576 305.938 395.056C305.49 395.536 305.266 396.235 305.266 397.152V402H303.81V390.16H305.266V394.48C305.554 394.032 305.949 393.685 306.45 393.44C306.962 393.195 307.533 393.072 308.162 393.072ZM313.501 397.584C313.501 396.688 313.682 395.904 314.045 395.232C314.407 394.549 314.903 394.021 315.533 393.648C316.173 393.275 316.882 393.088 317.661 393.088C318.429 393.088 319.095 393.253 319.661 393.584C320.226 393.915 320.647 394.331 320.925 394.832V393.232H322.397V402H320.925V400.368C320.637 400.88 320.205 401.307 319.629 401.648C319.063 401.979 318.402 402.144 317.645 402.144C316.866 402.144 316.162 401.952 315.533 401.568C314.903 401.184 314.407 400.645 314.045 399.952C313.682 399.259 313.501 398.469 313.501 397.584ZM320.925 397.6C320.925 396.939 320.791 396.363 320.525 395.872C320.258 395.381 319.895 395.008 319.437 394.752C318.989 394.485 318.493 394.352 317.949 394.352C317.405 394.352 316.909 394.48 316.461 394.736C316.013 394.992 315.655 395.365 315.389 395.856C315.122 396.347 314.989 396.923 314.989 397.584C314.989 398.256 315.122 398.843 315.389 399.344C315.655 399.835 316.013 400.213 316.461 400.48C316.909 400.736 317.405 400.864 317.949 400.864C318.493 400.864 318.989 400.736 319.437 400.48C319.895 400.213 320.258 399.835 320.525 399.344C320.791 398.843 320.925 398.261 320.925 397.6ZM326.633 394.432V399.6C326.633 400.027 326.724 400.331 326.905 400.512C327.086 400.683 327.401 400.768 327.849 400.768H328.921V402H327.609C326.798 402 326.19 401.813 325.785 401.44C325.38 401.067 325.177 400.453 325.177 399.6V394.432H324.041V393.232H325.177V391.024H326.633V393.232H328.921V394.432H326.633ZM342.503 393.232L337.223 406.128H335.719L337.447 401.904L333.911 393.232H335.527L338.279 400.336L340.999 393.232H342.503ZM347.79 402.144C346.969 402.144 346.222 401.957 345.55 401.584C344.889 401.211 344.366 400.683 343.982 400C343.609 399.307 343.422 398.507 343.422 397.6C343.422 396.704 343.614 395.915 343.998 395.232C344.393 394.539 344.926 394.011 345.598 393.648C346.27 393.275 347.022 393.088 347.854 393.088C348.686 393.088 349.438 393.275 350.11 393.648C350.782 394.011 351.31 394.533 351.694 395.216C352.089 395.899 352.286 396.693 352.286 397.6C352.286 398.507 352.084 399.307 351.678 400C351.284 400.683 350.745 401.211 350.062 401.584C349.38 401.957 348.622 402.144 347.79 402.144ZM347.79 400.864C348.313 400.864 348.804 400.741 349.262 400.496C349.721 400.251 350.089 399.883 350.366 399.392C350.654 398.901 350.798 398.304 350.798 397.6C350.798 396.896 350.66 396.299 350.382 395.808C350.105 395.317 349.742 394.955 349.294 394.72C348.846 394.475 348.361 394.352 347.838 394.352C347.305 394.352 346.814 394.475 346.366 394.72C345.929 394.955 345.577 395.317 345.31 395.808C345.044 396.299 344.91 396.896 344.91 397.6C344.91 398.315 345.038 398.917 345.294 399.408C345.561 399.899 345.913 400.267 346.35 400.512C346.788 400.747 347.268 400.864 347.79 400.864ZM361.977 393.232V402H360.521V400.704C360.243 401.152 359.854 401.504 359.353 401.76C358.862 402.005 358.318 402.128 357.721 402.128C357.038 402.128 356.425 401.989 355.881 401.712C355.337 401.424 354.905 400.997 354.585 400.432C354.275 399.867 354.121 399.179 354.121 398.368V393.232H355.561V398.176C355.561 399.04 355.779 399.707 356.217 400.176C356.654 400.635 357.251 400.864 358.009 400.864C358.787 400.864 359.401 400.624 359.849 400.144C360.297 399.664 360.521 398.965 360.521 398.048V393.232H361.977ZM57.6568 417.584C57.6568 416.688 57.8381 415.904 58.2008 415.232C58.5634 414.549 59.0594 414.021 59.6888 413.648C60.3288 413.275 61.0381 413.088 61.8168 413.088C62.5848 413.088 63.2514 413.253 63.8168 413.584C64.3821 413.915 64.8034 414.331 65.0808 414.832V413.232H66.5528V422H65.0808V420.368C64.7928 420.88 64.3608 421.307 63.7848 421.648C63.2194 421.979 62.5581 422.144 61.8008 422.144C61.0221 422.144 60.3181 421.952 59.6888 421.568C59.0594 421.184 58.5634 420.645 58.2008 419.952C57.8381 419.259 57.6568 418.469 57.6568 417.584ZM65.0808 417.6C65.0808 416.939 64.9474 416.363 64.6808 415.872C64.4141 415.381 64.0514 415.008 63.5928 414.752C63.1448 414.485 62.6488 414.352 62.1048 414.352C61.5608 414.352 61.0648 414.48 60.6168 414.736C60.1688 414.992 59.8114 415.365 59.5448 415.856C59.2781 416.347 59.1448 416.923 59.1448 417.584C59.1448 418.256 59.2781 418.843 59.5448 419.344C59.8114 419.835 60.1688 420.213 60.6168 420.48C61.0648 420.736 61.5608 420.864 62.1048 420.864C62.6488 420.864 63.1448 420.736 63.5928 420.48C64.0514 420.213 64.4141 419.835 64.6808 419.344C64.9474 418.843 65.0808 418.261 65.0808 417.6ZM70.4693 414.656C70.7253 414.155 71.0879 413.765 71.5573 413.488C72.0373 413.211 72.6186 413.072 73.3013 413.072V414.576H72.9173C71.2853 414.576 70.4693 415.461 70.4693 417.232V422H69.0133V413.232H70.4693V414.656ZM82.982 417.28C82.982 417.557 82.966 417.851 82.934 418.16H75.926C75.9793 419.024 76.2727 419.701 76.806 420.192C77.35 420.672 78.006 420.912 78.774 420.912C79.4033 420.912 79.926 420.768 80.342 420.48C80.7687 420.181 81.0673 419.787 81.238 419.296H82.806C82.5713 420.139 82.102 420.827 81.398 421.36C80.694 421.883 79.8193 422.144 78.774 422.144C77.942 422.144 77.1953 421.957 76.534 421.584C75.8833 421.211 75.3713 420.683 74.998 420C74.6247 419.307 74.438 418.507 74.438 417.6C74.438 416.693 74.6193 415.899 74.982 415.216C75.3447 414.533 75.8513 414.011 76.502 413.648C77.1633 413.275 77.9207 413.088 78.774 413.088C79.606 413.088 80.342 413.269 80.982 413.632C81.622 413.995 82.1127 414.496 82.454 415.136C82.806 415.765 82.982 416.48 82.982 417.28ZM81.478 416.976C81.478 416.421 81.3553 415.947 81.11 415.552C80.8647 415.147 80.5287 414.843 80.102 414.64C79.686 414.427 79.222 414.32 78.71 414.32C77.974 414.32 77.3447 414.555 76.822 415.024C76.31 415.493 76.0167 416.144 75.942 416.976H81.478ZM90.6255 414.656C90.8815 414.155 91.2442 413.765 91.7135 413.488C92.1935 413.211 92.7748 413.072 93.4575 413.072V414.576H93.0735C91.4415 414.576 90.6255 415.461 90.6255 417.232V422H89.1695V413.232H90.6255V414.656ZM95.8903 411.808C95.6129 411.808 95.3783 411.712 95.1863 411.52C94.9943 411.328 94.8983 411.093 94.8983 410.816C94.8983 410.539 94.9943 410.304 95.1863 410.112C95.3783 409.92 95.6129 409.824 95.8903 409.824C96.1569 409.824 96.3809 409.92 96.5623 410.112C96.7543 410.304 96.8503 410.539 96.8503 410.816C96.8503 411.093 96.7543 411.328 96.5623 411.52C96.3809 411.712 96.1569 411.808 95.8903 411.808ZM96.5943 413.232V422H95.1383V413.232H96.5943ZM98.5318 417.6C98.5318 416.693 98.7131 415.904 99.0758 415.232C99.4384 414.549 99.9398 414.021 100.58 413.648C101.23 413.275 101.972 413.088 102.804 413.088C103.881 413.088 104.766 413.349 105.46 413.872C106.164 414.395 106.628 415.12 106.852 416.048H105.284C105.134 415.515 104.841 415.093 104.404 414.784C103.977 414.475 103.444 414.32 102.804 414.32C101.972 414.32 101.3 414.608 100.788 415.184C100.276 415.749 100.02 416.555 100.02 417.6C100.02 418.656 100.276 419.472 100.788 420.048C101.3 420.624 101.972 420.912 102.804 420.912C103.444 420.912 103.977 420.763 104.404 420.464C104.83 420.165 105.124 419.739 105.284 419.184H106.852C106.617 420.08 106.148 420.8 105.444 421.344C104.74 421.877 103.86 422.144 102.804 422.144C101.972 422.144 101.23 421.957 100.58 421.584C99.9398 421.211 99.4384 420.683 99.0758 420C98.7131 419.317 98.5318 418.517 98.5318 417.6ZM113.147 413.072C113.808 413.072 114.405 413.216 114.939 413.504C115.472 413.781 115.888 414.203 116.187 414.768C116.496 415.333 116.651 416.021 116.651 416.832V422H115.211V417.04C115.211 416.165 114.992 415.499 114.555 415.04C114.117 414.571 113.52 414.336 112.763 414.336C111.995 414.336 111.381 414.576 110.923 415.056C110.475 415.536 110.251 416.235 110.251 417.152V422H108.795V410.16H110.251V414.48C110.539 414.032 110.933 413.685 111.435 413.44C111.947 413.195 112.517 413.072 113.147 413.072ZM134.975 413.232L132.239 422H130.735L128.623 415.04L126.511 422H125.007L122.255 413.232H123.743L125.759 420.592L127.935 413.232H129.423L131.551 420.608L133.535 413.232H134.975ZM137.172 411.808C136.894 411.808 136.66 411.712 136.468 411.52C136.276 411.328 136.18 411.093 136.18 410.816C136.18 410.539 136.276 410.304 136.468 410.112C136.66 409.92 136.894 409.824 137.172 409.824C137.438 409.824 137.662 409.92 137.844 410.112C138.036 410.304 138.132 410.539 138.132 410.816C138.132 411.093 138.036 411.328 137.844 411.52C137.662 411.712 137.438 411.808 137.172 411.808ZM137.876 413.232V422H136.42V413.232H137.876ZM141.813 410.16V422H140.357V410.16H141.813ZM145.751 410.16V422H144.295V410.16H145.751ZM163.042 413.072C163.724 413.072 164.332 413.216 164.866 413.504C165.399 413.781 165.82 414.203 166.13 414.768C166.439 415.333 166.594 416.021 166.594 416.832V422H165.154V417.04C165.154 416.165 164.935 415.499 164.498 415.04C164.071 414.571 163.49 414.336 162.754 414.336C161.996 414.336 161.394 414.581 160.946 415.072C160.498 415.552 160.274 416.251 160.274 417.168V422H158.834V417.04C158.834 416.165 158.615 415.499 158.178 415.04C157.751 414.571 157.17 414.336 156.434 414.336C155.676 414.336 155.074 414.581 154.626 415.072C154.178 415.552 153.954 416.251 153.954 417.168V422H152.498V413.232H153.954V414.496C154.242 414.037 154.626 413.685 155.106 413.44C155.596 413.195 156.135 413.072 156.722 413.072C157.458 413.072 158.108 413.237 158.674 413.568C159.239 413.899 159.66 414.384 159.938 415.024C160.183 414.405 160.588 413.925 161.154 413.584C161.719 413.243 162.348 413.072 163.042 413.072ZM168.438 417.584C168.438 416.688 168.619 415.904 168.982 415.232C169.345 414.549 169.841 414.021 170.47 413.648C171.11 413.275 171.819 413.088 172.598 413.088C173.366 413.088 174.033 413.253 174.598 413.584C175.163 413.915 175.585 414.331 175.862 414.832V413.232H177.334V422H175.862V420.368C175.574 420.88 175.142 421.307 174.566 421.648C174.001 421.979 173.339 422.144 172.582 422.144C171.803 422.144 171.099 421.952 170.47 421.568C169.841 421.184 169.345 420.645 168.982 419.952C168.619 419.259 168.438 418.469 168.438 417.584ZM175.862 417.6C175.862 416.939 175.729 416.363 175.462 415.872C175.195 415.381 174.833 415.008 174.374 414.752C173.926 414.485 173.43 414.352 172.886 414.352C172.342 414.352 171.846 414.48 171.398 414.736C170.95 414.992 170.593 415.365 170.326 415.856C170.059 416.347 169.926 416.923 169.926 417.584C169.926 418.256 170.059 418.843 170.326 419.344C170.593 419.835 170.95 420.213 171.398 420.48C171.846 420.736 172.342 420.864 172.886 420.864C173.43 420.864 173.926 420.736 174.374 420.48C174.833 420.213 175.195 419.835 175.462 419.344C175.729 418.843 175.862 418.261 175.862 417.6ZM184.691 422L181.251 418.128V422H179.795V410.16H181.251V417.12L184.627 413.232H186.659L182.531 417.6L186.675 422H184.691ZM196.029 417.28C196.029 417.557 196.013 417.851 195.981 418.16H188.973C189.026 419.024 189.32 419.701 189.853 420.192C190.397 420.672 191.053 420.912 191.821 420.912C192.45 420.912 192.973 420.768 193.389 420.48C193.816 420.181 194.114 419.787 194.285 419.296H195.853C195.618 420.139 195.149 420.827 194.445 421.36C193.741 421.883 192.866 422.144 191.821 422.144C190.989 422.144 190.242 421.957 189.581 421.584C188.93 421.211 188.418 420.683 188.045 420C187.672 419.307 187.485 418.507 187.485 417.6C187.485 416.693 187.666 415.899 188.029 415.216C188.392 414.533 188.898 414.011 189.549 413.648C190.21 413.275 190.968 413.088 191.821 413.088C192.653 413.088 193.389 413.269 194.029 413.632C194.669 413.995 195.16 414.496 195.501 415.136C195.853 415.765 196.029 416.48 196.029 417.28ZM194.525 416.976C194.525 416.421 194.402 415.947 194.157 415.552C193.912 415.147 193.576 414.843 193.149 414.64C192.733 414.427 192.269 414.32 191.757 414.32C191.021 414.32 190.392 414.555 189.869 415.024C189.357 415.493 189.064 416.144 188.989 416.976H194.525ZM203.992 414.432V419.6C203.992 420.027 204.083 420.331 204.264 420.512C204.446 420.683 204.76 420.768 205.208 420.768H206.28V422H204.968C204.158 422 203.55 421.813 203.144 421.44C202.739 421.067 202.536 420.453 202.536 419.6V414.432H201.4V413.232H202.536V411.024H203.992V413.232H206.28V414.432H203.992ZM212.397 413.072C213.058 413.072 213.655 413.216 214.189 413.504C214.722 413.781 215.138 414.203 215.437 414.768C215.746 415.333 215.901 416.021 215.901 416.832V422H214.461V417.04C214.461 416.165 214.242 415.499 213.805 415.04C213.367 414.571 212.77 414.336 212.013 414.336C211.245 414.336 210.631 414.576 210.173 415.056C209.725 415.536 209.501 416.235 209.501 417.152V422H208.045V410.16H209.501V414.48C209.789 414.032 210.183 413.685 210.685 413.44C211.197 413.195 211.767 413.072 212.397 413.072ZM226.279 417.28C226.279 417.557 226.263 417.851 226.231 418.16H219.223C219.276 419.024 219.57 419.701 220.103 420.192C220.647 420.672 221.303 420.912 222.071 420.912C222.7 420.912 223.223 420.768 223.639 420.48C224.066 420.181 224.364 419.787 224.535 419.296H226.103C225.868 420.139 225.399 420.827 224.695 421.36C223.991 421.883 223.116 422.144 222.071 422.144C221.239 422.144 220.492 421.957 219.831 421.584C219.18 421.211 218.668 420.683 218.295 420C217.922 419.307 217.735 418.507 217.735 417.6C217.735 416.693 217.916 415.899 218.279 415.216C218.642 414.533 219.148 414.011 219.799 413.648C220.46 413.275 221.218 413.088 222.071 413.088C222.903 413.088 223.639 413.269 224.279 413.632C224.919 413.995 225.41 414.496 225.751 415.136C226.103 415.765 226.279 416.48 226.279 417.28ZM224.775 416.976C224.775 416.421 224.652 415.947 224.407 415.552C224.162 415.147 223.826 414.843 223.399 414.64C222.983 414.427 222.519 414.32 222.007 414.32C221.271 414.32 220.642 414.555 220.119 415.024C219.607 415.493 219.314 416.144 219.239 416.976H224.775ZM238.745 413.072C239.427 413.072 240.035 413.216 240.569 413.504C241.102 413.781 241.523 414.203 241.833 414.768C242.142 415.333 242.297 416.021 242.297 416.832V422H240.857V417.04C240.857 416.165 240.638 415.499 240.201 415.04C239.774 414.571 239.193 414.336 238.457 414.336C237.699 414.336 237.097 414.581 236.649 415.072C236.201 415.552 235.977 416.251 235.977 417.168V422H234.537V417.04C234.537 416.165 234.318 415.499 233.881 415.04C233.454 414.571 232.873 414.336 232.137 414.336C231.379 414.336 230.777 414.581 230.329 415.072C229.881 415.552 229.657 416.251 229.657 417.168V422H228.201V413.232H229.657V414.496C229.945 414.037 230.329 413.685 230.809 413.44C231.299 413.195 231.838 413.072 232.425 413.072C233.161 413.072 233.811 413.237 234.377 413.568C234.942 413.899 235.363 414.384 235.641 415.024C235.886 414.405 236.291 413.925 236.857 413.584C237.422 413.243 238.051 413.072 238.745 413.072ZM250.407 410.16V422H248.951V410.16H250.407ZM253.64 411.808C253.363 411.808 253.128 411.712 252.936 411.52C252.744 411.328 252.648 411.093 252.648 410.816C252.648 410.539 252.744 410.304 252.936 410.112C253.128 409.92 253.363 409.824 253.64 409.824C253.907 409.824 254.131 409.92 254.312 410.112C254.504 410.304 254.6 410.539 254.6 410.816C254.6 411.093 254.504 411.328 254.312 411.52C254.131 411.712 253.907 411.808 253.64 411.808ZM254.344 413.232V422H252.888V413.232H254.344ZM261.722 422L258.282 418.128V422H256.826V410.16H258.282V417.12L261.658 413.232H263.69L259.562 417.6L263.706 422H261.722ZM273.06 417.28C273.06 417.557 273.044 417.851 273.012 418.16H266.004C266.057 419.024 266.351 419.701 266.884 420.192C267.428 420.672 268.084 420.912 268.852 420.912C269.481 420.912 270.004 420.768 270.42 420.48C270.847 420.181 271.145 419.787 271.316 419.296H272.884C272.649 420.139 272.18 420.827 271.476 421.36C270.772 421.883 269.897 422.144 268.852 422.144C268.02 422.144 267.273 421.957 266.612 421.584C265.961 421.211 265.449 420.683 265.076 420C264.703 419.307 264.516 418.507 264.516 417.6C264.516 416.693 264.697 415.899 265.06 415.216C265.423 414.533 265.929 414.011 266.58 413.648C267.241 413.275 267.999 413.088 268.852 413.088C269.684 413.088 270.42 413.269 271.06 413.632C271.7 413.995 272.191 414.496 272.532 415.136C272.884 415.765 273.06 416.48 273.06 417.28ZM271.556 416.976C271.556 416.421 271.433 415.947 271.188 415.552C270.943 415.147 270.607 414.843 270.18 414.64C269.764 414.427 269.3 414.32 268.788 414.32C268.052 414.32 267.423 414.555 266.9 415.024C266.388 415.493 266.095 416.144 266.02 416.976H271.556ZM286.8 413.232L281.52 426.128H280.016L281.744 421.904L278.208 413.232H279.824L282.576 420.336L285.296 413.232H286.8ZM292.087 422.144C291.266 422.144 290.519 421.957 289.847 421.584C289.186 421.211 288.663 420.683 288.279 420C287.906 419.307 287.719 418.507 287.719 417.6C287.719 416.704 287.911 415.915 288.295 415.232C288.69 414.539 289.223 414.011 289.895 413.648C290.567 413.275 291.319 413.088 292.151 413.088C292.983 413.088 293.735 413.275 294.407 413.648C295.079 414.011 295.607 414.533 295.991 415.216C296.386 415.899 296.583 416.693 296.583 417.6C296.583 418.507 296.381 419.307 295.975 420C295.581 420.683 295.042 421.211 294.359 421.584C293.677 421.957 292.919 422.144 292.087 422.144ZM292.087 420.864C292.61 420.864 293.101 420.741 293.559 420.496C294.018 420.251 294.386 419.883 294.663 419.392C294.951 418.901 295.095 418.304 295.095 417.6C295.095 416.896 294.957 416.299 294.679 415.808C294.402 415.317 294.039 414.955 293.591 414.72C293.143 414.475 292.658 414.352 292.135 414.352C291.602 414.352 291.111 414.475 290.663 414.72C290.226 414.955 289.874 415.317 289.607 415.808C289.341 416.299 289.207 416.896 289.207 417.6C289.207 418.315 289.335 418.917 289.591 419.408C289.858 419.899 290.21 420.267 290.647 420.512C291.085 420.747 291.565 420.864 292.087 420.864ZM306.274 413.232V422H304.818V420.704C304.54 421.152 304.151 421.504 303.65 421.76C303.159 422.005 302.615 422.128 302.018 422.128C301.335 422.128 300.722 421.989 300.178 421.712C299.634 421.424 299.202 420.997 298.882 420.432C298.572 419.867 298.418 419.179 298.418 418.368V413.232H299.858V418.176C299.858 419.04 300.076 419.707 300.514 420.176C300.951 420.635 301.548 420.864 302.306 420.864C303.084 420.864 303.698 420.624 304.146 420.144C304.594 419.664 304.818 418.965 304.818 418.048V413.232H306.274ZM323.542 413.072C324.224 413.072 324.832 413.216 325.366 413.504C325.899 413.781 326.32 414.203 326.63 414.768C326.939 415.333 327.094 416.021 327.094 416.832V422H325.654V417.04C325.654 416.165 325.435 415.499 324.998 415.04C324.571 414.571 323.99 414.336 323.254 414.336C322.496 414.336 321.894 414.581 321.446 415.072C320.998 415.552 320.774 416.251 320.774 417.168V422H319.334V417.04C319.334 416.165 319.115 415.499 318.678 415.04C318.251 414.571 317.67 414.336 316.934 414.336C316.176 414.336 315.574 414.581 315.126 415.072C314.678 415.552 314.454 416.251 314.454 417.168V422H312.998V413.232H314.454V414.496C314.742 414.037 315.126 413.685 315.606 413.44C316.096 413.195 316.635 413.072 317.222 413.072C317.958 413.072 318.608 413.237 319.174 413.568C319.739 413.899 320.16 414.384 320.438 415.024C320.683 414.405 321.088 413.925 321.654 413.584C322.219 413.243 322.848 413.072 323.542 413.072ZM333.306 422.144C332.485 422.144 331.738 421.957 331.066 421.584C330.405 421.211 329.882 420.683 329.498 420C329.125 419.307 328.938 418.507 328.938 417.6C328.938 416.704 329.13 415.915 329.514 415.232C329.909 414.539 330.442 414.011 331.114 413.648C331.786 413.275 332.538 413.088 333.37 413.088C334.202 413.088 334.954 413.275 335.626 413.648C336.298 414.011 336.826 414.533 337.21 415.216C337.605 415.899 337.802 416.693 337.802 417.6C337.802 418.507 337.599 419.307 337.194 420C336.799 420.683 336.261 421.211 335.578 421.584C334.895 421.957 334.138 422.144 333.306 422.144ZM333.306 420.864C333.829 420.864 334.319 420.741 334.778 420.496C335.237 420.251 335.605 419.883 335.882 419.392C336.17 418.901 336.314 418.304 336.314 417.6C336.314 416.896 336.175 416.299 335.898 415.808C335.621 415.317 335.258 414.955 334.81 414.72C334.362 414.475 333.877 414.352 333.354 414.352C332.821 414.352 332.33 414.475 331.882 414.72C331.445 414.955 331.093 415.317 330.826 415.808C330.559 416.299 330.426 416.896 330.426 417.6C330.426 418.315 330.554 418.917 330.81 419.408C331.077 419.899 331.429 420.267 331.866 420.512C332.303 420.747 332.783 420.864 333.306 420.864ZM341.172 414.656C341.428 414.155 341.791 413.765 342.26 413.488C342.74 413.211 343.322 413.072 344.004 413.072V414.576H343.62C341.988 414.576 341.172 415.461 341.172 417.232V422H339.716V413.232H341.172V414.656ZM353.685 417.28C353.685 417.557 353.669 417.851 353.637 418.16H346.629C346.682 419.024 346.976 419.701 347.509 420.192C348.053 420.672 348.709 420.912 349.477 420.912C350.106 420.912 350.629 420.768 351.045 420.48C351.472 420.181 351.77 419.787 351.941 419.296H353.509C353.274 420.139 352.805 420.827 352.101 421.36C351.397 421.883 350.522 422.144 349.477 422.144C348.645 422.144 347.898 421.957 347.237 421.584C346.586 421.211 346.074 420.683 345.701 420C345.328 419.307 345.141 418.507 345.141 417.6C345.141 416.693 345.322 415.899 345.685 415.216C346.048 414.533 346.554 414.011 347.205 413.648C347.866 413.275 348.624 413.088 349.477 413.088C350.309 413.088 351.045 413.269 351.685 413.632C352.325 413.995 352.816 414.496 353.157 415.136C353.509 415.765 353.685 416.48 353.685 417.28ZM352.181 416.976C352.181 416.421 352.058 415.947 351.813 415.552C351.568 415.147 351.232 414.843 350.805 414.64C350.389 414.427 349.925 414.32 349.413 414.32C348.677 414.32 348.048 414.555 347.525 415.024C347.013 415.493 346.72 416.144 346.645 416.976H352.181ZM362.721 410.704C363.777 410.704 364.63 411.003 365.281 411.6C365.931 412.197 366.257 412.997 366.257 414C366.257 415.12 365.91 415.952 365.217 416.496C364.523 417.029 363.585 417.296 362.401 417.296L362.353 418.816H361.089L361.025 416.288H361.489C362.545 416.288 363.371 416.128 363.969 415.808C364.566 415.488 364.865 414.885 364.865 414C364.865 413.36 364.673 412.853 364.289 412.48C363.905 412.107 363.387 411.92 362.737 411.92C362.075 411.92 361.553 412.101 361.169 412.464C360.795 412.816 360.609 413.301 360.609 413.92H359.233C359.233 413.28 359.377 412.72 359.665 412.24C359.953 411.749 360.358 411.371 360.881 411.104C361.414 410.837 362.027 410.704 362.721 410.704ZM361.713 422.096C361.435 422.096 361.201 422 361.009 421.808C360.817 421.616 360.721 421.381 360.721 421.104C360.721 420.827 360.817 420.592 361.009 420.4C361.201 420.208 361.435 420.112 361.713 420.112C361.979 420.112 362.203 420.208 362.385 420.4C362.577 420.592 362.673 420.827 362.673 421.104C362.673 421.381 362.577 421.616 362.385 421.808C362.203 422 361.979 422.096 361.713 422.096Z" fill="#212121"/>
<g filter="url(#filter0_d_168_6720)">
<rect x="48.5" y="450" width="327" height="53" rx="16" fill="white" shape-rendering="crispEdges"/>
<path d="M211.535 481H209.939L205.137 473.734V481H203.541V471.256H205.137L209.939 478.508V471.256H211.535V481ZM216.977 481.126C216.249 481.126 215.591 480.963 215.003 480.636C214.415 480.3 213.953 479.833 213.617 479.236C213.281 478.629 213.113 477.929 213.113 477.136C213.113 476.352 213.286 475.657 213.631 475.05C213.976 474.443 214.448 473.977 215.045 473.65C215.642 473.323 216.31 473.16 217.047 473.16C217.784 473.16 218.452 473.323 219.049 473.65C219.646 473.977 220.118 474.443 220.463 475.05C220.808 475.657 220.981 476.352 220.981 477.136C220.981 477.92 220.804 478.615 220.449 479.222C220.094 479.829 219.609 480.3 218.993 480.636C218.386 480.963 217.714 481.126 216.977 481.126ZM216.977 479.74C217.388 479.74 217.77 479.642 218.125 479.446C218.489 479.25 218.783 478.956 219.007 478.564C219.231 478.172 219.343 477.696 219.343 477.136C219.343 476.576 219.236 476.105 219.021 475.722C218.806 475.33 218.522 475.036 218.167 474.84C217.812 474.644 217.43 474.546 217.019 474.546C216.608 474.546 216.226 474.644 215.871 474.84C215.526 475.036 215.25 475.33 215.045 475.722C214.84 476.105 214.737 476.576 214.737 477.136C214.737 477.967 214.947 478.611 215.367 479.068C215.796 479.516 216.333 479.74 216.977 479.74Z" fill="#212121"/>
</g>
<g filter="url(#filter1_d_168_6720)">
<rect x="48.5" y="519" width="327" height="53" rx="16" fill="white" shape-rendering="crispEdges"/>
<path d="M207.962 540.27L204.742 546.472V550H203.146V546.472L199.912 540.27H201.69L203.944 545.044L206.198 540.27H207.962ZM216.299 545.954C216.299 546.243 216.28 546.505 216.243 546.738H210.349C210.395 547.354 210.624 547.849 211.035 548.222C211.445 548.595 211.949 548.782 212.547 548.782C213.405 548.782 214.012 548.423 214.367 547.704H216.089C215.855 548.413 215.431 548.997 214.815 549.454C214.208 549.902 213.452 550.126 212.547 550.126C211.809 550.126 211.147 549.963 210.559 549.636C209.98 549.3 209.523 548.833 209.187 548.236C208.86 547.629 208.697 546.929 208.697 546.136C208.697 545.343 208.855 544.647 209.173 544.05C209.499 543.443 209.952 542.977 210.531 542.65C211.119 542.323 211.791 542.16 212.547 542.16C213.275 542.16 213.923 542.319 214.493 542.636C215.062 542.953 215.505 543.401 215.823 543.98C216.14 544.549 216.299 545.207 216.299 545.954ZM214.633 545.45C214.623 544.862 214.413 544.391 214.003 544.036C213.592 543.681 213.083 543.504 212.477 543.504C211.926 543.504 211.455 543.681 211.063 544.036C210.671 544.381 210.437 544.853 210.363 545.45H214.633ZM220.669 550.126C220.063 550.126 219.517 550.019 219.031 549.804C218.555 549.58 218.177 549.281 217.897 548.908C217.617 548.525 217.468 548.101 217.449 547.634H219.101C219.129 547.961 219.283 548.236 219.563 548.46C219.853 548.675 220.212 548.782 220.641 548.782C221.089 548.782 221.435 548.698 221.677 548.53C221.929 548.353 222.055 548.129 222.055 547.858C222.055 547.569 221.915 547.354 221.635 547.214C221.365 547.074 220.931 546.92 220.333 546.752C219.755 546.593 219.283 546.439 218.919 546.29C218.555 546.141 218.238 545.912 217.967 545.604C217.706 545.296 217.575 544.89 217.575 544.386C217.575 543.975 217.697 543.602 217.939 543.266C218.182 542.921 218.527 542.65 218.975 542.454C219.433 542.258 219.955 542.16 220.543 542.16C221.421 542.16 222.125 542.384 222.657 542.832C223.199 543.271 223.488 543.873 223.525 544.638H221.929C221.901 544.293 221.761 544.017 221.509 543.812C221.257 543.607 220.917 543.504 220.487 543.504C220.067 543.504 219.745 543.583 219.521 543.742C219.297 543.901 219.185 544.111 219.185 544.372C219.185 544.577 219.26 544.75 219.409 544.89C219.559 545.03 219.741 545.142 219.955 545.226C220.17 545.301 220.487 545.399 220.907 545.52C221.467 545.669 221.925 545.823 222.279 545.982C222.643 546.131 222.956 546.355 223.217 546.654C223.479 546.953 223.614 547.349 223.623 547.844C223.623 548.283 223.502 548.675 223.259 549.02C223.017 549.365 222.671 549.636 222.223 549.832C221.785 550.028 221.267 550.126 220.669 550.126Z" fill="#212121"/>
</g>
<g filter="url(#filter2_d_168_6720)">
<rect x="48.5" y="588" width="327" height="53" rx="16" fill="white" shape-rendering="crispEdges"/>
<path d="M175.162 609.27V619H173.566V609.27H175.162ZM180.362 615.108C180.362 614.333 180.52 613.647 180.838 613.05C181.164 612.453 181.603 611.991 182.154 611.664C182.714 611.328 183.334 611.16 184.016 611.16C184.52 611.16 185.014 611.272 185.5 611.496C185.994 611.711 186.386 612 186.676 612.364V608.64H188.286V619H186.676V617.838C186.414 618.211 186.05 618.519 185.584 618.762C185.126 619.005 184.599 619.126 184.002 619.126C183.33 619.126 182.714 618.958 182.154 618.622C181.603 618.277 181.164 617.801 180.838 617.194C180.52 616.578 180.362 615.883 180.362 615.108ZM186.676 615.136C186.676 614.604 186.564 614.142 186.34 613.75C186.125 613.358 185.84 613.059 185.486 612.854C185.131 612.649 184.748 612.546 184.338 612.546C183.927 612.546 183.544 612.649 183.19 612.854C182.835 613.05 182.546 613.344 182.322 613.736C182.107 614.119 182 614.576 182 615.108C182 615.64 182.107 616.107 182.322 616.508C182.546 616.909 182.835 617.217 183.19 617.432C183.554 617.637 183.936 617.74 184.338 617.74C184.748 617.74 185.131 617.637 185.486 617.432C185.84 617.227 186.125 616.928 186.34 616.536C186.564 616.135 186.676 615.668 186.676 615.136ZM193.728 619.126C193 619.126 192.342 618.963 191.754 618.636C191.166 618.3 190.704 617.833 190.368 617.236C190.032 616.629 189.864 615.929 189.864 615.136C189.864 614.352 190.037 613.657 190.382 613.05C190.727 612.443 191.199 611.977 191.796 611.65C192.393 611.323 193.061 611.16 193.798 611.16C194.535 611.16 195.203 611.323 195.8 611.65C196.397 611.977 196.869 612.443 197.214 613.05C197.559 613.657 197.732 614.352 197.732 615.136C197.732 615.92 197.555 616.615 197.2 617.222C196.845 617.829 196.36 618.3 195.744 618.636C195.137 618.963 194.465 619.126 193.728 619.126ZM193.728 617.74C194.139 617.74 194.521 617.642 194.876 617.446C195.24 617.25 195.534 616.956 195.758 616.564C195.982 616.172 196.094 615.696 196.094 615.136C196.094 614.576 195.987 614.105 195.772 613.722C195.557 613.33 195.273 613.036 194.918 612.84C194.563 612.644 194.181 612.546 193.77 612.546C193.359 612.546 192.977 612.644 192.622 612.84C192.277 613.036 192.001 613.33 191.796 613.722C191.591 614.105 191.488 614.576 191.488 615.136C191.488 615.967 191.698 616.611 192.118 617.068C192.547 617.516 193.084 617.74 193.728 617.74ZM203.202 611.16C203.808 611.16 204.35 611.286 204.826 611.538C205.311 611.79 205.689 612.163 205.96 612.658C206.23 613.153 206.366 613.75 206.366 614.45V619H204.784V614.688C204.784 613.997 204.611 613.47 204.266 613.106C203.92 612.733 203.449 612.546 202.852 612.546C202.254 612.546 201.778 612.733 201.424 613.106C201.078 613.47 200.906 613.997 200.906 614.688V619H199.31V611.286H200.906V612.168C201.167 611.851 201.498 611.603 201.9 611.426C202.31 611.249 202.744 611.16 203.202 611.16ZM208.654 609.27H210.39L208.92 612.602H207.8L208.654 609.27ZM213.654 612.588V616.858C213.654 617.147 213.72 617.357 213.85 617.488C213.99 617.609 214.224 617.67 214.55 617.67H215.53V619H214.27C213.552 619 213.001 618.832 212.618 618.496C212.236 618.16 212.044 617.614 212.044 616.858V612.588H211.134V611.286H212.044V609.368H213.654V611.286H215.53V612.588H213.654ZM220.106 615.136C220.106 614.343 220.265 613.647 220.582 613.05C220.909 612.443 221.357 611.977 221.926 611.65C222.495 611.323 223.149 611.16 223.886 611.16C224.819 611.16 225.589 611.384 226.196 611.832C226.812 612.271 227.227 612.901 227.442 613.722H225.72C225.58 613.339 225.356 613.041 225.048 612.826C224.74 612.611 224.353 612.504 223.886 612.504C223.233 612.504 222.71 612.737 222.318 613.204C221.935 613.661 221.744 614.305 221.744 615.136C221.744 615.967 221.935 616.615 222.318 617.082C222.71 617.549 223.233 617.782 223.886 617.782C224.81 617.782 225.421 617.376 225.72 616.564H227.442C227.218 617.348 226.798 617.973 226.182 618.44C225.566 618.897 224.801 619.126 223.886 619.126C223.149 619.126 222.495 618.963 221.926 618.636C221.357 618.3 220.909 617.833 220.582 617.236C220.265 616.629 220.106 615.929 220.106 615.136ZM228.5 615.108C228.5 614.333 228.659 613.647 228.976 613.05C229.303 612.453 229.742 611.991 230.292 611.664C230.852 611.328 231.468 611.16 232.14 611.16C232.747 611.16 233.274 611.281 233.722 611.524C234.18 611.757 234.544 612.051 234.814 612.406V611.286H236.424V619H234.814V617.852C234.544 618.216 234.175 618.519 233.708 618.762C233.242 619.005 232.71 619.126 232.112 619.126C231.45 619.126 230.843 618.958 230.292 618.622C229.742 618.277 229.303 617.801 228.976 617.194C228.659 616.578 228.5 615.883 228.5 615.108ZM234.814 615.136C234.814 614.604 234.702 614.142 234.478 613.75C234.264 613.358 233.979 613.059 233.624 612.854C233.27 612.649 232.887 612.546 232.476 612.546C232.066 612.546 231.683 612.649 231.328 612.854C230.974 613.05 230.684 613.344 230.46 613.736C230.246 614.119 230.138 614.576 230.138 615.108C230.138 615.64 230.246 616.107 230.46 616.508C230.684 616.909 230.974 617.217 231.328 617.432C231.692 617.637 232.075 617.74 232.476 617.74C232.887 617.74 233.27 617.637 233.624 617.432C233.979 617.227 234.264 616.928 234.478 616.536C234.702 616.135 234.814 615.668 234.814 615.136ZM240.117 612.406C240.35 612.014 240.658 611.711 241.041 611.496C241.433 611.272 241.895 611.16 242.427 611.16V612.812H242.021C241.395 612.812 240.919 612.971 240.593 613.288C240.275 613.605 240.117 614.156 240.117 614.94V619H238.521V611.286H240.117V612.406ZM250.964 614.954C250.964 615.243 250.945 615.505 250.908 615.738H245.014C245.06 616.354 245.289 616.849 245.7 617.222C246.11 617.595 246.614 617.782 247.212 617.782C248.07 617.782 248.677 617.423 249.032 616.704H250.754C250.52 617.413 250.096 617.997 249.48 618.454C248.873 618.902 248.117 619.126 247.212 619.126C246.474 619.126 245.812 618.963 245.224 618.636C244.645 618.3 244.188 617.833 243.852 617.236C243.525 616.629 243.362 615.929 243.362 615.136C243.362 614.343 243.52 613.647 243.838 613.05C244.164 612.443 244.617 611.977 245.196 611.65C245.784 611.323 246.456 611.16 247.212 611.16C247.94 611.16 248.588 611.319 249.158 611.636C249.727 611.953 250.17 612.401 250.488 612.98C250.805 613.549 250.964 614.207 250.964 614.954ZM249.298 614.45C249.288 613.862 249.078 613.391 248.668 613.036C248.257 612.681 247.748 612.504 247.142 612.504C246.591 612.504 246.12 612.681 245.728 613.036C245.336 613.381 245.102 613.853 245.028 614.45H249.298Z" fill="#212121"/>
</g>
<path fill-rule="evenodd" clip-rule="evenodd" d="M273.475 308.33C273.418 308.316 273.361 308.304 273.303 308.294L264.67 306.781C264.148 303.398 261.46 300.602 257.887 299.916L253.787 299.128C251.526 298.694 249.227 299.137 247.317 300.377C246.654 300.807 246.073 301.318 245.57 301.887C245.374 299.438 244.044 297.111 241.788 295.666L237.641 293.011C247.058 284.32 253.112 270.872 253.112 255.804V255.04C271.717 251.508 279.44 246.439 279.921 246.114C280.826 245.501 281.256 244.423 281.01 243.386C280.763 242.348 279.889 241.556 278.797 241.381L250.198 236.788V230.962C250.198 229.554 249.172 228.373 247.801 228.068L242.191 193.938C241.777 191.416 240.355 189.214 238.188 187.737C236.021 186.26 233.388 185.698 230.773 186.155L212.498 189.347L194.222 186.155C191.607 185.698 188.975 186.261 186.807 187.737C184.64 189.215 183.218 191.416 182.804 193.938L177.194 228.068C175.823 228.373 174.797 229.554 174.797 230.962V236.788L146.198 241.381C145.106 241.556 144.232 242.349 143.985 243.386C143.739 244.423 144.169 245.5 145.075 246.114C145.555 246.439 153.278 251.508 171.883 255.04V255.804C171.883 270.872 177.937 284.32 187.354 293.011L183.208 295.666C180.951 297.111 179.622 299.438 179.425 301.888C178.923 301.318 178.341 300.807 177.679 300.377C175.769 299.137 173.47 298.693 171.209 299.128L167.108 299.916C163.536 300.602 160.848 303.398 160.326 306.781L151.693 308.294C151.635 308.304 151.578 308.316 151.521 308.33C141.205 310.807 134 319.671 134 329.884V339.778C134 344.311 137.84 348 142.56 348H282.436C287.156 348 290.996 344.311 290.996 339.778V329.884C290.996 319.671 283.791 310.807 273.475 308.33ZM249.064 306.643C249.218 305.856 249.684 305.175 250.375 304.726C251.066 304.278 251.896 304.117 252.715 304.275L256.816 305.062C258.258 305.34 259.305 306.566 259.305 307.978V342.751H242.016L249.064 306.643ZM239.811 303.835C235.747 311.647 231.444 319.917 229.175 324.273C224.489 320.316 220.219 317.888 217.29 316.493L236.159 298.369L238.758 300.034C240.054 300.863 240.506 302.498 239.811 303.835ZM244.735 233.237V236.386H180.261V233.237H244.735ZM188.201 194.757C188.384 193.643 189.012 192.67 189.969 192.018C190.927 191.365 192.089 191.118 193.244 191.318L211.941 194.584C214.818 195.19 218.958 197.733 220.312 198.664C220.794 198.996 221.351 199.156 221.902 199.156C222.752 199.156 223.591 198.776 224.125 198.062C225.004 196.884 224.723 195.245 223.497 194.4C223.296 194.261 222.551 193.756 221.481 193.112L231.75 191.319C232.906 191.118 234.068 191.366 235.025 192.018C235.983 192.671 236.611 193.643 236.794 194.757L242.256 227.989H182.738L188.201 194.757ZM177.817 241.631L177.833 241.632C177.853 241.633 177.873 241.634 177.893 241.634H247.102C247.138 241.634 247.172 241.631 247.208 241.629L269.405 245.194C260.366 248.544 242.445 253.181 212.498 253.181C182.545 253.181 164.623 248.543 155.59 245.195L177.788 241.629C177.797 241.629 177.807 241.63 177.817 241.631ZM212.498 303.214C217.356 303.214 222.018 302.212 226.34 300.377L212.498 313.674L198.655 300.377C202.977 302.212 207.639 303.214 212.498 303.214ZM186.238 300.033L188.837 298.369L207.706 316.493C204.776 317.887 200.506 320.315 195.82 324.273C194.173 321.111 191.006 315.026 185.184 303.835C184.489 302.498 184.941 300.863 186.238 300.033ZM168.179 305.063L172.28 304.275C173.098 304.118 173.929 304.278 174.62 304.727C175.311 305.175 175.777 305.856 175.931 306.643L182.98 342.752H165.69V307.979C165.69 306.566 166.737 305.34 168.179 305.063ZM139.464 339.778V329.884C139.464 322.11 144.928 315.36 152.763 313.441L160.226 312.134V342.752H142.56C140.852 342.752 139.464 341.418 139.464 339.778ZM285.532 339.778C285.532 341.418 284.143 342.752 282.436 342.752H264.769V312.134L272.232 313.441C280.068 315.36 285.532 322.11 285.532 329.884V339.778ZM177.348 255.979C182.563 256.785 188.492 257.455 195.195 257.89L200.659 258.181C204.388 258.34 208.327 258.429 212.498 258.429C216.668 258.429 220.608 258.34 224.336 258.181L229.8 257.89C236.504 257.455 242.433 256.785 247.647 255.979C247.568 279.147 231.832 297.966 212.498 297.966C193.164 297.966 177.427 279.147 177.348 255.979ZM194.575 331.171C193.195 330.956 192.738 330.081 192.209 329.068L182.061 309.571L188.538 342.752H236.457L242.933 309.574C241.098 313.101 238.922 317.284 237.027 320.925L232.786 329.068C232.257 330.082 231.799 330.957 230.42 331.172C230.274 331.195 230.127 331.206 229.982 331.206C229.269 331.206 228.578 330.938 228.063 330.449C223.096 325.741 215.747 320.183 212.607 318.6C209.464 320.183 201.899 325.741 196.932 330.449C196.417 330.937 195.725 331.205 195.013 331.205C194.868 331.205 194.721 331.194 194.575 331.171Z" fill="#851D2D"/>
<path d="M212.497 286.42C207.351 286.42 202.542 285.206 199.304 283.089C198.057 282.274 197.733 280.641 198.583 279.443C199.432 278.246 201.131 277.935 202.378 278.751C204.697 280.267 208.48 281.172 212.497 281.172C216.514 281.172 220.297 280.267 222.616 278.751C223.865 277.935 225.564 278.246 226.412 279.444C227.262 280.642 226.938 282.274 225.691 283.09C222.452 285.206 217.644 286.42 212.497 286.42Z" fill="#851D2D"/>
<rect width="423" height="44" fill="#FAFAFA"/>
<rect opacity="0.35" x="384.834" y="18.5" width="21" height="10.3333" rx="2.16667" stroke="black"/>
<path opacity="0.4" d="M407.334 21.6667V25.6667C408.139 25.328 408.662 24.5399 408.662 23.6667C408.662 22.7936 408.139 22.0055 407.334 21.6667Z" fill="black"/>
<rect x="386.334" y="20" width="18" height="7.33333" rx="1.33333" fill="black"/>
<path d="M369.448 26.4267C370.729 25.3444 372.605 25.3444 373.886 26.4267C373.95 26.4849 373.987 26.5675 373.989 26.6542C373.991 26.7409 373.956 26.824 373.895 26.8847L371.89 28.9072C371.831 28.9666 371.751 28.9999 371.667 28.9999C371.583 28.9999 371.503 28.9666 371.444 28.9072L369.438 26.8847C369.377 26.824 369.343 26.7407 369.345 26.6542C369.347 26.5675 369.384 26.4848 369.448 26.4267ZM366.772 23.7294C369.532 21.165 373.804 21.1651 376.563 23.7294C376.626 23.7896 376.661 23.8724 376.662 23.9589C376.663 24.0453 376.629 24.1281 376.568 24.1894L375.409 25.3603C375.29 25.4796 375.097 25.4814 374.975 25.3652C374.069 24.5454 372.889 24.0917 371.667 24.0917C370.446 24.0923 369.268 24.5461 368.362 25.3652C368.24 25.4815 368.046 25.4798 367.927 25.3603L366.769 24.1894C366.707 24.1282 366.673 24.0453 366.674 23.9589C366.675 23.8724 366.71 23.7895 366.772 23.7294ZM364.097 21.039C368.328 16.9869 375.004 16.9871 379.236 21.039C379.298 21.0992 379.333 21.1817 379.333 21.2675C379.333 21.3533 379.3 21.4361 379.239 21.497L378.079 22.6669C377.96 22.787 377.765 22.7881 377.644 22.6699C376.031 21.1384 373.892 20.2842 371.667 20.2841C369.442 20.2841 367.302 21.1382 365.689 22.6699C365.568 22.7882 365.374 22.787 365.255 22.6669L364.094 21.497C364.033 21.4361 364 21.3532 364 21.2675C364.001 21.1817 364.035 21.0991 364.097 21.039Z" fill="black"/>
<path d="M344 24.667C344.552 24.667 345 25.1147 345 25.667V27.667C345 28.2191 344.552 28.667 344 28.667H343C342.448 28.667 342 28.2191 342 27.667V25.667C342 25.1147 342.448 24.667 343 24.667H344ZM348.667 22.667C349.219 22.6672 349.667 23.1148 349.667 23.667V27.667C349.667 28.219 349.219 28.6668 348.667 28.667H347.667C347.115 28.667 346.667 28.2191 346.667 27.667V23.667C346.667 23.1147 347.115 22.667 347.667 22.667H348.667ZM353.333 20.333C353.885 20.333 354.333 20.7809 354.333 21.333V27.667C354.333 28.2191 353.885 28.667 353.333 28.667H352.333C351.781 28.6668 351.333 28.219 351.333 27.667V21.333C351.333 20.781 351.781 20.3332 352.333 20.333H353.333ZM358 18C358.552 18 359 18.4477 359 19V27.667C359 28.2191 358.552 28.667 358 28.667H357C356.448 28.667 356 28.2191 356 27.667V19C356 18.4477 356.448 18 357 18H358Z" fill="black"/>
<path d="M36.856 18.1675C34.5635 18.1675 32.9302 19.7349 32.9302 21.8809V21.8955C32.9302 23.9023 34.3511 25.3818 36.3799 25.3818C37.8301 25.3818 38.7529 24.6421 39.1411 23.8071H39.2876C39.2876 23.8877 39.2803 23.9683 39.2803 24.0488C39.1997 26.0703 38.4893 27.7109 36.812 27.7109C35.8818 27.7109 35.23 27.2275 34.9517 26.4878L34.9297 26.4146H33.0693L33.084 26.4951C33.4209 28.1138 34.8711 29.2637 36.812 29.2637C39.4707 29.2637 41.0747 27.1543 41.0747 23.5947V23.5801C41.0747 19.7715 39.1118 18.1675 36.856 18.1675ZM36.8486 23.9316C35.6475 23.9316 34.7759 23.0527 34.7759 21.8296V21.8149C34.7759 20.6357 35.7061 19.7056 36.8706 19.7056C38.0425 19.7056 38.958 20.6504 38.958 21.8589V21.8735C38.958 23.0674 38.0425 23.9316 36.8486 23.9316ZM44.2331 23.7046C44.907 23.7046 45.3977 23.1992 45.3977 22.5547C45.3977 21.9028 44.907 21.3975 44.2331 21.3975C43.5666 21.3975 43.0686 21.9028 43.0686 22.5547C43.0686 23.1992 43.5666 23.7046 44.2331 23.7046ZM44.2331 29.1465C44.907 29.1465 45.3977 28.6338 45.3977 27.9893C45.3977 27.3374 44.907 26.832 44.2331 26.832C43.5666 26.832 43.0686 27.3374 43.0686 27.9893C43.0686 28.6338 43.5666 29.1465 44.2331 29.1465ZM52.2988 29H54.1079V26.9712H55.5288V25.4111H54.1079V18.4312H51.4346C49.999 20.6138 48.4975 23.0454 47.1279 25.4258V26.9712H52.2988V29ZM48.8857 25.4551V25.3452C49.9111 23.5508 51.1343 21.5952 52.2182 19.9399H52.3281V25.4551H48.8857ZM59.6687 29H61.5583V18.4312H59.676L56.9148 20.3721V22.1519L59.5442 20.2915H59.6687V29Z" fill="black"/>
<rect width="375" height="34" transform="translate(22 868)" fill="#FAFAFA"/>
<rect x="143" y="889" width="134" height="5" rx="2.5" fill="black"/>
<defs>
<filter id="filter0_d_168_6720" x="44.5" y="446" width="335" height="61" filterUnits="userSpaceOnUse" color-interpolation-filters="sRGB">
<feFlood flood-opacity="0" result="BackgroundImageFix"/>
<feColorMatrix in="SourceAlpha" type="matrix" values="0 0 0 0 0 0 0 0 0 0 0 0 0 0 0 0 0 0 127 0" result="hardAlpha"/>
<feOffset/>
<feGaussianBlur stdDeviation="2"/>
<feComposite in2="hardAlpha" operator="out"/>
<feColorMatrix type="matrix" values="0 0 0 0 0 0 0 0 0 0 0 0 0 0 0 0 0 0 0.15 0"/>
<feBlend mode="normal" in2="BackgroundImageFix" result="effect1_dropShadow_168_6720"/>
<feBlend mode="normal" in="SourceGraphic" in2="effect1_dropShadow_168_6720" result="shape"/>
</filter>
<filter id="filter1_d_168_6720" x="44.5" y="515" width="335" height="61" filterUnits="userSpaceOnUse" color-interpolation-filters="sRGB">
<feFlood flood-opacity="0" result="BackgroundImageFix"/>
<feColorMatrix in="SourceAlpha" type="matrix" values="0 0 0 0 0 0 0 0 0 0 0 0 0 0 0 0 0 0 127 0" result="hardAlpha"/>
<feOffset/>
<feGaussianBlur stdDeviation="2"/>
<feComposite in2="hardAlpha" operator="out"/>
<feColorMatrix type="matrix" values="0 0 0 0 0 0 0 0 0 0 0 0 0 0 0 0 0 0 0.15 0"/>
<feBlend mode="normal" in2="BackgroundImageFix" result="effect1_dropShadow_168_6720"/>
<feBlend mode="normal" in="SourceGraphic" in2="effect1_dropShadow_168_6720" result="shape"/>
</filter>
<filter id="filter2_d_168_6720" x="44.5" y="584" width="335" height="61" filterUnits="userSpaceOnUse" color-interpolation-filters="sRGB">
<feFlood flood-opacity="0" result="BackgroundImageFix"/>
<feColorMatrix in="SourceAlpha" type="matrix" values="0 0 0 0 0 0 0 0 0 0 0 0 0 0 0 0 0 0 127 0" result="hardAlpha"/>
<feOffset/>
<feGaussianBlur stdDeviation="2"/>
<feComposite in2="hardAlpha" operator="out"/>
<feColorMatrix type="matrix" values="0 0 0 0 0 0 0 0 0 0 0 0 0 0 0 0 0 0 0.15 0"/>
<feBlend mode="normal" in2="BackgroundImageFix" result="effect1_dropShadow_168_6720"/>
<feBlend mode="normal" in="SourceGraphic" in2="effect1_dropShadow_168_6720" result="shape"/>
</filter>
</defs>
</svg>
