<svg width="393" height="852" viewBox="0 0 393 852" fill="none" xmlns="http://www.w3.org/2000/svg">
<g clip-path="url(#clip0_160_7374)">
<rect width="393" height="852" rx="40" fill="white"/>
<rect x="96.5" y="87.5" width="200" height="10" rx="5" fill="#E5E5E5"/>
<rect x="96.5" y="87.5" width="57" height="10" rx="5" fill="#851D2D"/>
<path d="M25.25 91.5H42.75" stroke="#35383F" stroke-width="2" stroke-linecap="round" stroke-linejoin="round"/>
<path d="M25.25 91.5L30.25 96.5" stroke="#35383F" stroke-width="2" stroke-linecap="round" stroke-linejoin="round"/>
<path d="M25.25 91.5L30.25 86.5" stroke="#35383F" stroke-width="2" stroke-linecap="round" stroke-linejoin="round"/>
<path d="M30.144 157L24.48 134.6H28.544L32.8 153.544H32.864L37.76 134.6H42.112L47.008 153.576H47.072L51.232 134.6H55.328L49.6 157H44.48L39.904 139.656H39.84L35.232 157H30.144ZM57.6045 157V134.28H61.4125V143.688H61.4765C62.0312 142.749 62.7565 142.024 63.6525 141.512C64.5698 141 65.6152 140.744 66.7885 140.744C68.0685 140.744 69.1565 141.021 70.0525 141.576C70.9698 142.109 71.6738 142.92 72.1645 144.008C72.6552 145.075 72.9005 146.397 72.9005 147.976V157H69.0925V148.36C69.0925 146.952 68.8045 145.875 68.2285 145.128C67.6738 144.36 66.7885 143.976 65.5725 143.976C64.7832 143.976 64.0685 144.168 63.4285 144.552C62.8098 144.936 62.3192 145.491 61.9565 146.216C61.6152 146.92 61.4445 147.784 61.4445 148.808V157H57.6045ZM81.383 157.384C80.0817 157.384 79.0043 157.171 78.151 156.744C77.2977 156.296 76.6683 155.709 76.263 154.984C75.8577 154.237 75.655 153.427 75.655 152.552C75.655 151.549 75.911 150.685 76.423 149.96C76.9563 149.213 77.735 148.637 78.759 148.232C79.783 147.805 81.0523 147.592 82.567 147.592H86.631C86.631 146.739 86.503 146.035 86.247 145.48C86.0123 144.925 85.639 144.52 85.127 144.264C84.6363 143.987 84.0177 143.848 83.271 143.848C82.3963 143.848 81.6283 144.061 80.967 144.488C80.327 144.893 79.943 145.512 79.815 146.344H76.039C76.1457 145.192 76.519 144.2 77.159 143.368C77.8203 142.536 78.6843 141.896 79.751 141.448C80.8177 140.979 82.0017 140.744 83.303 140.744C84.8177 140.744 86.1083 141.011 87.175 141.544C88.2417 142.056 89.0523 142.792 89.607 143.752C90.183 144.712 90.471 145.875 90.471 147.24V157H87.271L86.855 154.44H86.791C86.535 154.909 86.2257 155.325 85.863 155.688C85.5003 156.051 85.095 156.36 84.647 156.616C84.199 156.851 83.6977 157.032 83.143 157.16C82.6097 157.309 82.023 157.384 81.383 157.384ZM82.407 154.344C83.047 154.344 83.6123 154.237 84.103 154.024C84.5937 153.789 85.0097 153.469 85.351 153.064C85.6923 152.659 85.959 152.2 86.151 151.688C86.3643 151.176 86.4923 150.643 86.535 150.088V150.056H82.983C82.215 150.056 81.5857 150.152 81.095 150.344C80.6043 150.536 80.2417 150.803 80.007 151.144C79.7937 151.464 79.687 151.837 79.687 152.264C79.687 152.712 79.7937 153.096 80.007 153.416C80.2417 153.715 80.5617 153.949 80.967 154.12C81.3723 154.269 81.8523 154.344 82.407 154.344ZM100.328 157C99.2395 157 98.2902 156.829 97.4795 156.488C96.6902 156.147 96.0715 155.581 95.6235 154.792C95.1968 154.003 94.9835 152.936 94.9835 151.592V144.232H92.2635V141.128H94.9835L95.3995 136.968H98.8235V141.128H103.176V144.232H98.8235V151.592C98.8235 152.445 98.9942 153.032 99.3355 153.352C99.6768 153.651 100.274 153.8 101.128 153.8H103.048V157H100.328ZM113.079 157V141.128H116.919V157H113.079ZM114.999 138.632C114.295 138.632 113.709 138.419 113.239 137.992C112.791 137.544 112.567 137 112.567 136.36C112.567 135.699 112.791 135.155 113.239 134.728C113.709 134.301 114.295 134.088 114.999 134.088C115.703 134.088 116.279 134.301 116.727 134.728C117.197 135.155 117.431 135.699 117.431 136.36C117.431 137 117.197 137.544 116.727 137.992C116.279 138.419 115.703 138.632 114.999 138.632ZM127.13 157.384C125.764 157.384 124.548 157.16 123.482 156.712C122.415 156.243 121.562 155.603 120.922 154.792C120.303 153.981 119.93 153.043 119.802 151.976H123.641C123.77 152.403 123.972 152.808 124.25 153.192C124.527 153.576 124.9 153.885 125.37 154.12C125.86 154.333 126.436 154.44 127.098 154.44C127.716 154.44 128.228 154.355 128.634 154.184C129.039 153.992 129.338 153.757 129.53 153.48C129.722 153.181 129.818 152.861 129.818 152.52C129.818 152.051 129.679 151.688 129.402 151.432C129.124 151.176 128.719 150.963 128.186 150.792C127.652 150.6 127.023 150.419 126.298 150.248C125.636 150.077 124.954 149.885 124.25 149.672C123.546 149.437 122.906 149.16 122.33 148.84C121.754 148.52 121.284 148.104 120.922 147.592C120.58 147.059 120.41 146.408 120.41 145.64C120.41 144.723 120.655 143.891 121.146 143.144C121.636 142.397 122.351 141.811 123.29 141.384C124.228 140.957 125.359 140.744 126.682 140.744C128.516 140.744 129.988 141.181 131.098 142.056C132.228 142.909 132.89 144.115 133.082 145.672H129.434C129.327 145.032 129.028 144.541 128.538 144.2C128.068 143.859 127.439 143.688 126.65 143.688C125.839 143.688 125.21 143.848 124.762 144.168C124.335 144.488 124.122 144.893 124.122 145.384C124.122 145.704 124.26 145.992 124.538 146.248C124.815 146.483 125.21 146.685 125.722 146.856C126.255 147.027 126.874 147.208 127.578 147.4C128.687 147.656 129.7 147.955 130.618 148.296C131.535 148.616 132.271 149.075 132.826 149.672C133.38 150.269 133.658 151.112 133.658 152.2C133.679 153.203 133.423 154.099 132.89 154.888C132.356 155.656 131.599 156.264 130.618 156.712C129.636 157.16 128.474 157.384 127.13 157.384ZM145.812 163.72L149.62 155.208H148.692L142.228 141.128H146.388L151.22 151.912H151.284L155.796 141.128H159.86L149.876 163.72H145.812ZM168.092 157.384C166.577 157.384 165.212 157.032 163.996 156.328C162.78 155.624 161.809 154.653 161.084 153.416C160.38 152.157 160.028 150.707 160.028 149.064C160.028 147.421 160.38 145.971 161.084 144.712C161.809 143.453 162.78 142.483 163.996 141.8C165.233 141.096 166.609 140.744 168.124 140.744C169.66 140.744 171.036 141.096 172.252 141.8C173.468 142.483 174.428 143.453 175.132 144.712C175.857 145.949 176.22 147.4 176.22 149.064C176.22 150.707 175.857 152.157 175.132 153.416C174.428 154.653 173.457 155.624 172.22 156.328C171.004 157.032 169.628 157.384 168.092 157.384ZM168.092 154.152C168.86 154.152 169.553 153.96 170.172 153.576C170.812 153.192 171.324 152.627 171.708 151.88C172.092 151.133 172.284 150.195 172.284 149.064C172.284 147.933 172.092 146.995 171.708 146.248C171.345 145.48 170.844 144.915 170.204 144.552C169.564 144.168 168.881 143.976 168.156 143.976C167.409 143.976 166.716 144.168 166.076 144.552C165.436 144.915 164.913 145.48 164.508 146.248C164.124 146.995 163.932 147.933 163.932 149.064C163.932 150.195 164.124 151.133 164.508 151.88C164.913 152.627 165.425 153.192 166.044 153.576C166.684 153.96 167.366 154.152 168.092 154.152ZM185.054 157.384C183.774 157.384 182.665 157.117 181.726 156.584C180.809 156.029 180.105 155.219 179.614 154.152C179.124 153.064 178.878 151.731 178.878 150.152V141.128H182.718V149.768C182.718 151.197 183.006 152.285 183.582 153.032C184.158 153.779 185.054 154.152 186.27 154.152C187.06 154.152 187.753 153.96 188.35 153.576C188.969 153.192 189.449 152.648 189.79 151.944C190.153 151.219 190.334 150.344 190.334 149.32V141.128H194.174V157H190.846L190.526 154.376H190.462C189.95 155.293 189.236 156.029 188.318 156.584C187.422 157.117 186.334 157.384 185.054 157.384ZM197.571 157V141.128H200.931L201.283 144.36H201.347C201.774 143.443 202.264 142.728 202.819 142.216C203.374 141.683 204.014 141.309 204.739 141.096C205.464 140.861 206.286 140.744 207.203 140.744V144.776H206.147C205.422 144.776 204.76 144.872 204.163 145.064C203.587 145.235 203.096 145.501 202.691 145.864C202.286 146.227 201.966 146.717 201.731 147.336C201.518 147.933 201.411 148.669 201.411 149.544V157H197.571ZM25.792 205.72V183.128H29.088L29.44 185.72H29.504C29.888 185.144 30.3467 184.632 30.88 184.184C31.4133 183.736 32.0427 183.384 32.768 183.128C33.4933 182.872 34.2933 182.744 35.168 182.744C36.6827 182.744 38.0053 183.107 39.136 183.832C40.288 184.557 41.184 185.549 41.824 186.808C42.464 188.045 42.784 189.475 42.784 191.096C42.784 192.675 42.464 194.093 41.824 195.352C41.184 196.611 40.288 197.603 39.136 198.328C37.984 199.032 36.6293 199.384 35.072 199.384C33.8133 199.384 32.7253 199.139 31.808 198.648C30.8907 198.157 30.1653 197.528 29.632 196.76V205.72H25.792ZM34.24 196.12C35.1787 196.12 35.9893 195.907 36.672 195.48C37.376 195.053 37.92 194.467 38.304 193.72C38.7093 192.952 38.912 192.067 38.912 191.064C38.912 190.083 38.7093 189.219 38.304 188.472C37.92 187.704 37.376 187.107 36.672 186.68C35.9893 186.232 35.1787 186.008 34.24 186.008C33.3227 186.008 32.512 186.232 31.808 186.68C31.104 187.107 30.5493 187.704 30.144 188.472C29.76 189.219 29.568 190.083 29.568 191.064C29.568 192.067 29.76 192.952 30.144 193.72C30.5493 194.467 31.104 195.053 31.808 195.48C32.512 195.907 33.3227 196.12 34.24 196.12ZM45.6648 199V183.128H49.0248L49.3768 186.36H49.4408C49.8674 185.443 50.3581 184.728 50.9128 184.216C51.4674 183.683 52.1074 183.309 52.8328 183.096C53.5581 182.861 54.3794 182.744 55.2968 182.744V186.776H54.2408C53.5154 186.776 52.8541 186.872 52.2568 187.064C51.6808 187.235 51.1901 187.501 50.7848 187.864C50.3794 188.227 50.0594 188.717 49.8248 189.336C49.6114 189.933 49.5048 190.669 49.5048 191.544V199H45.6648ZM64.7503 199.384C63.1503 199.384 61.7316 199.043 60.4943 198.36C59.2783 197.656 58.3183 196.696 57.6143 195.48C56.9316 194.243 56.5903 192.803 56.5903 191.16C56.5903 189.496 56.9316 188.035 57.6143 186.776C58.2969 185.517 59.2463 184.536 60.4623 183.832C61.6996 183.107 63.1289 182.744 64.7503 182.744C66.3289 182.744 67.7049 183.096 68.8783 183.8C70.0516 184.483 70.9689 185.4 71.6303 186.552C72.2916 187.704 72.6223 189.005 72.6223 190.456C72.6223 190.669 72.6116 190.904 72.5903 191.16C72.5903 191.416 72.5796 191.693 72.5583 191.992H59.3743V189.528H68.7503C68.6863 188.376 68.2809 187.469 67.5343 186.808C66.7876 186.147 65.8596 185.816 64.7503 185.816C63.9609 185.816 63.2249 185.997 62.5423 186.36C61.8809 186.701 61.3476 187.224 60.9423 187.928C60.5583 188.632 60.3663 189.528 60.3663 190.616V191.544C60.3663 192.525 60.5583 193.368 60.9423 194.072C61.3263 194.776 61.8489 195.32 62.5103 195.704C63.1716 196.067 63.9076 196.248 64.7183 196.248C65.5929 196.248 66.3289 196.045 66.9263 195.64C67.5236 195.235 67.9716 194.701 68.2703 194.04H72.1423C71.8649 195.064 71.3743 195.981 70.6703 196.792C69.9876 197.581 69.1449 198.211 68.1423 198.68C67.1396 199.149 66.0089 199.384 64.7503 199.384ZM76.313 199V181.432C76.313 180.195 76.5263 179.203 76.953 178.456C77.3797 177.688 77.9877 177.133 78.777 176.792C79.5663 176.451 80.4943 176.28 81.561 176.28H83.289V179.48H82.169C81.465 179.48 80.953 179.629 80.633 179.928C80.3343 180.205 80.185 180.696 80.185 181.4V199H76.313ZM74.105 186.232V183.128H83.673V186.232H74.105ZM93.4378 199.384C91.8378 199.384 90.4191 199.043 89.1818 198.36C87.9658 197.656 87.0058 196.696 86.3018 195.48C85.6191 194.243 85.2778 192.803 85.2778 191.16C85.2778 189.496 85.6191 188.035 86.3018 186.776C86.9844 185.517 87.9338 184.536 89.1498 183.832C90.3871 183.107 91.8164 182.744 93.4378 182.744C95.0164 182.744 96.3924 183.096 97.5658 183.8C98.7391 184.483 99.6564 185.4 100.318 186.552C100.979 187.704 101.31 189.005 101.31 190.456C101.31 190.669 101.299 190.904 101.278 191.16C101.278 191.416 101.267 191.693 101.246 191.992H88.0618V189.528H97.4378C97.3738 188.376 96.9684 187.469 96.2218 186.808C95.4751 186.147 94.5471 185.816 93.4378 185.816C92.6484 185.816 91.9124 185.997 91.2298 186.36C90.5684 186.701 90.0351 187.224 89.6298 187.928C89.2458 188.632 89.0538 189.528 89.0538 190.616V191.544C89.0538 192.525 89.2458 193.368 89.6298 194.072C90.0138 194.776 90.5364 195.32 91.1978 195.704C91.8591 196.067 92.5951 196.248 93.4058 196.248C94.2804 196.248 95.0164 196.045 95.6138 195.64C96.2111 195.235 96.6591 194.701 96.9578 194.04H100.83C100.552 195.064 100.062 195.981 99.3578 196.792C98.6751 197.581 97.8324 198.211 96.8298 198.68C95.8271 199.149 94.6964 199.384 93.4378 199.384ZM104.009 199V183.128H107.369L107.721 186.36H107.785C108.211 185.443 108.702 184.728 109.257 184.216C109.811 183.683 110.451 183.309 111.177 183.096C111.902 182.861 112.723 182.744 113.641 182.744V186.776H112.585C111.859 186.776 111.198 186.872 110.601 187.064C110.025 187.235 109.534 187.501 109.129 187.864C108.723 188.227 108.403 188.717 108.169 189.336C107.955 189.933 107.849 190.669 107.849 191.544V199H104.009ZM123.094 199.384C121.494 199.384 120.075 199.043 118.838 198.36C117.622 197.656 116.662 196.696 115.958 195.48C115.275 194.243 114.934 192.803 114.934 191.16C114.934 189.496 115.275 188.035 115.958 186.776C116.641 185.517 117.59 184.536 118.806 183.832C120.043 183.107 121.473 182.744 123.094 182.744C124.673 182.744 126.049 183.096 127.222 183.8C128.395 184.483 129.313 185.4 129.974 186.552C130.635 187.704 130.966 189.005 130.966 190.456C130.966 190.669 130.955 190.904 130.934 191.16C130.934 191.416 130.923 191.693 130.902 191.992H117.718V189.528H127.094C127.03 188.376 126.625 187.469 125.878 186.808C125.131 186.147 124.203 185.816 123.094 185.816C122.305 185.816 121.569 185.997 120.886 186.36C120.225 186.701 119.691 187.224 119.286 187.928C118.902 188.632 118.71 189.528 118.71 190.616V191.544C118.71 192.525 118.902 193.368 119.286 194.072C119.67 194.776 120.193 195.32 120.854 195.704C121.515 196.067 122.251 196.248 123.062 196.248C123.937 196.248 124.673 196.045 125.27 195.64C125.867 195.235 126.315 194.701 126.614 194.04H130.486C130.209 195.064 129.718 195.981 129.014 196.792C128.331 197.581 127.489 198.211 126.486 198.68C125.483 199.149 124.353 199.384 123.094 199.384ZM133.665 199V183.128H137.025L137.313 185.752H137.377C137.889 184.835 138.593 184.109 139.489 183.576C140.406 183.021 141.505 182.744 142.785 182.744C144.086 182.744 145.195 183.021 146.113 183.576C147.03 184.109 147.734 184.92 148.225 186.008C148.715 187.075 148.961 188.397 148.961 189.976V199H145.153V190.36C145.153 188.952 144.854 187.875 144.257 187.128C143.681 186.36 142.785 185.976 141.569 185.976C140.779 185.976 140.075 186.168 139.457 186.552C138.859 186.936 138.379 187.491 138.017 188.216C137.675 188.92 137.505 189.784 137.505 190.808V199H133.665ZM159.845 199.384C158.203 199.384 156.763 199.032 155.526 198.328C154.31 197.624 153.35 196.653 152.646 195.416C151.963 194.157 151.622 192.707 151.622 191.064C151.622 189.421 151.974 187.981 152.678 186.744C153.382 185.507 154.352 184.536 155.59 183.832C156.827 183.107 158.246 182.744 159.845 182.744C161.851 182.744 163.536 183.267 164.902 184.312C166.267 185.357 167.142 186.787 167.526 188.6H163.494C163.28 187.747 162.843 187.096 162.182 186.648C161.52 186.2 160.731 185.976 159.814 185.976C159.046 185.976 158.331 186.168 157.67 186.552C157.03 186.936 156.507 187.512 156.102 188.28C155.718 189.048 155.526 189.976 155.526 191.064C155.526 191.875 155.632 192.589 155.846 193.208C156.08 193.827 156.39 194.36 156.774 194.808C157.158 195.235 157.606 195.565 158.118 195.8C158.651 196.013 159.216 196.12 159.814 196.12C160.432 196.12 160.987 196.024 161.478 195.832C161.968 195.619 162.384 195.32 162.726 194.936C163.088 194.552 163.344 194.083 163.494 193.528H167.526C167.142 195.299 166.267 196.717 164.902 197.784C163.536 198.851 161.851 199.384 159.845 199.384ZM178.063 199.384C176.463 199.384 175.044 199.043 173.807 198.36C172.591 197.656 171.631 196.696 170.927 195.48C170.244 194.243 169.903 192.803 169.903 191.16C169.903 189.496 170.244 188.035 170.927 186.776C171.609 185.517 172.559 184.536 173.775 183.832C175.012 183.107 176.441 182.744 178.063 182.744C179.641 182.744 181.017 183.096 182.191 183.8C183.364 184.483 184.281 185.4 184.943 186.552C185.604 187.704 185.935 189.005 185.935 190.456C185.935 190.669 185.924 190.904 185.903 191.16C185.903 191.416 185.892 191.693 185.871 191.992H172.687V189.528H182.063C181.999 188.376 181.593 187.469 180.847 186.808C180.1 186.147 179.172 185.816 178.063 185.816C177.273 185.816 176.537 185.997 175.855 186.36C175.193 186.701 174.66 187.224 174.255 187.928C173.871 188.632 173.679 189.528 173.679 190.616V191.544C173.679 192.525 173.871 193.368 174.255 194.072C174.639 194.776 175.161 195.32 175.823 195.704C176.484 196.067 177.22 196.248 178.031 196.248C178.905 196.248 179.641 196.045 180.239 195.64C180.836 195.235 181.284 194.701 181.583 194.04H185.455C185.177 195.064 184.687 195.981 183.983 196.792C183.3 197.581 182.457 198.211 181.455 198.68C180.452 199.149 179.321 199.384 178.063 199.384ZM190.729 192.152L190.536 186.872H191.913C192.766 186.872 193.555 186.829 194.281 186.744C195.027 186.637 195.678 186.445 196.233 186.168C196.787 185.869 197.225 185.464 197.545 184.952C197.865 184.419 198.025 183.725 198.025 182.872C198.025 182.147 197.875 181.528 197.577 181.016C197.278 180.504 196.862 180.109 196.329 179.832C195.795 179.555 195.166 179.416 194.441 179.416C193.694 179.416 193.054 179.555 192.521 179.832C191.987 180.109 191.571 180.504 191.273 181.016C190.974 181.528 190.825 182.136 190.825 182.84H187.209C187.209 181.56 187.497 180.419 188.073 179.416C188.649 178.413 189.481 177.635 190.569 177.08C191.657 176.504 192.958 176.216 194.473 176.216C195.902 176.216 197.161 176.483 198.249 177.016C199.337 177.549 200.19 178.317 200.809 179.32C201.427 180.301 201.737 181.496 201.737 182.904C201.737 184.397 201.406 185.624 200.745 186.584C200.105 187.544 199.219 188.259 198.089 188.728C196.958 189.197 195.657 189.432 194.185 189.432L193.993 192.152H190.729ZM192.393 199.16C191.689 199.16 191.102 198.936 190.633 198.488C190.185 198.04 189.961 197.507 189.961 196.888C189.961 196.227 190.185 195.683 190.633 195.256C191.102 194.808 191.689 194.584 192.393 194.584C193.075 194.584 193.641 194.808 194.089 195.256C194.537 195.683 194.76 196.227 194.76 196.888C194.76 197.507 194.537 198.04 194.089 198.488C193.641 198.936 193.075 199.16 192.393 199.16Z" fill="#3D3D3D"/>
<path d="M30.84 239.216C29.604 239.216 28.536 238.946 27.636 238.406C26.748 237.854 26.058 237.092 25.566 236.12C25.086 235.136 24.846 233.996 24.846 232.7C24.846 231.404 25.086 230.27 25.566 229.298C26.058 228.314 26.748 227.552 27.636 227.012C28.536 226.46 29.604 226.184 30.84 226.184C32.28 226.184 33.45 226.526 34.35 227.21C35.25 227.894 35.826 228.86 36.078 230.108H34.404C34.212 229.328 33.822 228.704 33.234 228.236C32.646 227.756 31.848 227.516 30.84 227.516C29.94 227.516 29.154 227.726 28.482 228.146C27.822 228.554 27.306 229.148 26.934 229.928C26.574 230.696 26.394 231.62 26.394 232.7C26.394 233.78 26.574 234.71 26.934 235.49C27.306 236.258 27.822 236.852 28.482 237.272C29.154 237.68 29.94 237.884 30.84 237.884C31.848 237.884 32.646 237.656 33.234 237.2C33.822 236.732 34.212 236.114 34.404 235.346H36.078C35.826 236.558 35.25 237.506 34.35 238.19C33.45 238.874 32.28 239.216 30.84 239.216ZM38.1619 239V226.04H39.6739V231.512C39.9739 230.972 40.3939 230.546 40.9339 230.234C41.4859 229.922 42.0919 229.766 42.7519 229.766C43.4359 229.766 44.0359 229.91 44.5519 230.198C45.0679 230.474 45.4639 230.9 45.7399 231.476C46.0279 232.052 46.1719 232.784 46.1719 233.672V239H44.6779V233.834C44.6779 232.922 44.4859 232.232 44.1019 231.764C43.7179 231.296 43.1599 231.062 42.4279 231.062C41.9119 231.062 41.4439 231.188 41.0239 231.44C40.6039 231.692 40.2739 232.058 40.0339 232.538C39.7939 233.006 39.6739 233.582 39.6739 234.266V239H38.1619ZM52.5659 239.216C51.7259 239.216 50.9699 239.024 50.2979 238.64C49.6259 238.244 49.0919 237.692 48.6959 236.984C48.3119 236.276 48.1199 235.448 48.1199 234.5C48.1199 233.54 48.3179 232.706 48.7139 231.998C49.1099 231.29 49.6439 230.744 50.3159 230.36C50.9999 229.964 51.7619 229.766 52.6019 229.766C53.4539 229.766 54.2159 229.964 54.8879 230.36C55.5599 230.744 56.0879 231.29 56.4719 231.998C56.8559 232.706 57.0479 233.54 57.0479 234.5C57.0479 235.448 56.8499 236.276 56.4539 236.984C56.0699 237.692 55.5359 238.244 54.8519 238.64C54.1799 239.024 53.4179 239.216 52.5659 239.216ZM52.5659 237.92C53.0939 237.92 53.5799 237.794 54.0239 237.542C54.4679 237.29 54.8219 236.906 55.0859 236.39C55.3619 235.874 55.4999 235.244 55.4999 234.5C55.4999 233.732 55.3679 233.096 55.1039 232.592C54.8399 232.088 54.4859 231.71 54.0419 231.458C53.5979 231.194 53.1179 231.062 52.6019 231.062C52.0979 231.062 51.6179 231.194 51.1619 231.458C50.7179 231.71 50.3579 232.088 50.0819 232.592C49.8059 233.096 49.6679 233.732 49.6679 234.5C49.6679 235.244 49.8059 235.874 50.0819 236.39C50.3579 236.906 50.7119 237.29 51.1439 237.542C51.5879 237.794 52.0619 237.92 52.5659 237.92ZM63.2358 239.216C62.3958 239.216 61.6398 239.024 60.9678 238.64C60.2958 238.244 59.7618 237.692 59.3658 236.984C58.9818 236.276 58.7898 235.448 58.7898 234.5C58.7898 233.54 58.9878 232.706 59.3838 231.998C59.7798 231.29 60.3138 230.744 60.9858 230.36C61.6698 229.964 62.4318 229.766 63.2718 229.766C64.1238 229.766 64.8858 229.964 65.5578 230.36C66.2298 230.744 66.7578 231.29 67.1418 231.998C67.5258 232.706 67.7178 233.54 67.7178 234.5C67.7178 235.448 67.5198 236.276 67.1238 236.984C66.7398 237.692 66.2058 238.244 65.5218 238.64C64.8498 239.024 64.0878 239.216 63.2358 239.216ZM63.2358 237.92C63.7638 237.92 64.2498 237.794 64.6938 237.542C65.1378 237.29 65.4918 236.906 65.7558 236.39C66.0318 235.874 66.1698 235.244 66.1698 234.5C66.1698 233.732 66.0378 233.096 65.7738 232.592C65.5098 232.088 65.1558 231.71 64.7118 231.458C64.2678 231.194 63.7878 231.062 63.2718 231.062C62.7678 231.062 62.2878 231.194 61.8318 231.458C61.3878 231.71 61.0278 232.088 60.7518 232.592C60.4758 233.096 60.3378 233.732 60.3378 234.5C60.3378 235.244 60.4758 235.874 60.7518 236.39C61.0278 236.906 61.3818 237.29 61.8138 237.542C62.2578 237.794 62.7318 237.92 63.2358 237.92ZM73.2577 239.216C72.5257 239.216 71.8777 239.096 71.3137 238.856C70.7617 238.604 70.3177 238.25 69.9817 237.794C69.6457 237.338 69.4357 236.804 69.3517 236.192H70.8997C70.9717 236.516 71.1037 236.81 71.2957 237.074C71.4877 237.338 71.7517 237.548 72.0877 237.704C72.4237 237.86 72.8197 237.938 73.2757 237.938C73.7077 237.938 74.0557 237.878 74.3197 237.758C74.5957 237.626 74.7997 237.458 74.9317 237.254C75.0757 237.038 75.1477 236.804 75.1477 236.552C75.1477 236.18 75.0577 235.898 74.8777 235.706C74.7097 235.514 74.4577 235.364 74.1217 235.256C73.7857 235.148 73.3837 235.052 72.9157 234.968C72.5317 234.896 72.1477 234.8 71.7637 234.68C71.3917 234.548 71.0497 234.392 70.7377 234.212C70.4377 234.02 70.1977 233.78 70.0177 233.492C69.8377 233.204 69.7477 232.85 69.7477 232.43C69.7477 231.914 69.8797 231.458 70.1437 231.062C70.4197 230.654 70.7977 230.336 71.2777 230.108C71.7697 229.88 72.3517 229.766 73.0237 229.766C73.9837 229.766 74.7637 230 75.3637 230.468C75.9637 230.936 76.3177 231.614 76.4257 232.502H74.9317C74.8717 232.046 74.6737 231.692 74.3377 231.44C74.0137 231.176 73.5697 231.044 73.0057 231.044C72.4417 231.044 72.0097 231.158 71.7097 231.386C71.4217 231.614 71.2777 231.914 71.2777 232.286C71.2777 232.526 71.3617 232.736 71.5297 232.916C71.6977 233.096 71.9377 233.252 72.2497 233.384C72.5737 233.504 72.9637 233.612 73.4197 233.708C74.0077 233.816 74.5477 233.96 75.0397 234.14C75.5317 234.32 75.9277 234.584 76.2277 234.932C76.5397 235.28 76.6957 235.778 76.6957 236.426C76.7077 236.978 76.5697 237.464 76.2817 237.884C75.9937 238.304 75.5917 238.634 75.0757 238.874C74.5717 239.102 73.9657 239.216 73.2577 239.216ZM82.8693 239.216C82.0173 239.216 81.2613 239.024 80.6013 238.64C79.9413 238.244 79.4193 237.692 79.0353 236.984C78.6633 236.264 78.4773 235.436 78.4773 234.5C78.4773 233.54 78.6633 232.712 79.0353 232.016C79.4073 231.308 79.9233 230.756 80.5833 230.36C81.2553 229.964 82.0293 229.766 82.9053 229.766C83.7813 229.766 84.5313 229.964 85.1553 230.36C85.7793 230.756 86.2533 231.272 86.5773 231.908C86.9133 232.544 87.0813 233.24 87.0813 233.996C87.0813 234.116 87.0813 234.248 87.0813 234.392C87.0813 234.524 87.0753 234.674 87.0633 234.842H79.6113V233.672H85.5873C85.5513 232.844 85.2753 232.202 84.7593 231.746C84.2553 231.278 83.6253 231.044 82.8693 231.044C82.3533 231.044 81.8733 231.164 81.4293 231.404C80.9853 231.632 80.6253 231.968 80.3493 232.412C80.0853 232.856 79.9533 233.414 79.9533 234.086V234.59C79.9533 235.322 80.0913 235.94 80.3673 236.444C80.6433 236.948 81.0033 237.326 81.4473 237.578C81.8913 237.818 82.3653 237.938 82.8693 237.938C83.4933 237.938 84.0093 237.8 84.4173 237.524C84.8373 237.236 85.1433 236.846 85.3353 236.354H86.8293C86.6733 236.906 86.4153 237.398 86.0553 237.83C85.6953 238.25 85.2453 238.586 84.7053 238.838C84.1773 239.09 83.5653 239.216 82.8693 239.216ZM97.4486 239C96.9086 239 96.4406 238.916 96.0446 238.748C95.6486 238.58 95.3426 238.298 95.1266 237.902C94.9226 237.494 94.8206 236.948 94.8206 236.264V231.26H93.2546V229.982H94.8206L95.0186 227.822H96.3326V229.982H98.9606V231.26H96.3326V236.264C96.3326 236.828 96.4466 237.212 96.6746 237.416C96.9026 237.608 97.3046 237.704 97.8806 237.704H98.8346V239H97.4486ZM100.898 239V226.04H102.41V231.512C102.71 230.972 103.13 230.546 103.67 230.234C104.222 229.922 104.828 229.766 105.488 229.766C106.172 229.766 106.772 229.91 107.288 230.198C107.804 230.474 108.2 230.9 108.476 231.476C108.764 232.052 108.908 232.784 108.908 233.672V239H107.414V233.834C107.414 232.922 107.222 232.232 106.838 231.764C106.454 231.296 105.896 231.062 105.164 231.062C104.648 231.062 104.18 231.188 103.76 231.44C103.34 231.692 103.01 232.058 102.77 232.538C102.53 233.006 102.41 233.582 102.41 234.266V239H100.898ZM115.248 239.216C114.396 239.216 113.64 239.024 112.98 238.64C112.32 238.244 111.798 237.692 111.414 236.984C111.042 236.264 110.856 235.436 110.856 234.5C110.856 233.54 111.042 232.712 111.414 232.016C111.786 231.308 112.302 230.756 112.962 230.36C113.634 229.964 114.408 229.766 115.284 229.766C116.16 229.766 116.91 229.964 117.534 230.36C118.158 230.756 118.632 231.272 118.956 231.908C119.292 232.544 119.46 233.24 119.46 233.996C119.46 234.116 119.46 234.248 119.46 234.392C119.46 234.524 119.454 234.674 119.442 234.842H111.99V233.672H117.966C117.93 232.844 117.654 232.202 117.138 231.746C116.634 231.278 116.004 231.044 115.248 231.044C114.732 231.044 114.252 231.164 113.808 231.404C113.364 231.632 113.004 231.968 112.728 232.412C112.464 232.856 112.332 233.414 112.332 234.086V234.59C112.332 235.322 112.47 235.94 112.746 236.444C113.022 236.948 113.382 237.326 113.826 237.578C114.27 237.818 114.744 237.938 115.248 237.938C115.872 237.938 116.388 237.8 116.796 237.524C117.216 237.236 117.522 236.846 117.714 236.354H119.208C119.052 236.906 118.794 237.398 118.434 237.83C118.074 238.25 117.624 238.586 117.084 238.838C116.556 239.09 115.944 239.216 115.248 239.216ZM129.845 243.176C129.029 243.176 128.309 243.068 127.685 242.852C127.061 242.648 126.569 242.33 126.209 241.898C125.861 241.466 125.687 240.932 125.687 240.296C125.687 240.032 125.741 239.744 125.849 239.432C125.969 239.12 126.167 238.814 126.443 238.514C126.731 238.214 127.133 237.944 127.649 237.704L128.693 238.316C128.069 238.58 127.655 238.88 127.451 239.216C127.259 239.552 127.163 239.864 127.163 240.152C127.163 240.548 127.277 240.878 127.505 241.142C127.745 241.406 128.063 241.604 128.459 241.736C128.867 241.868 129.329 241.934 129.845 241.934C130.349 241.934 130.787 241.856 131.159 241.7C131.531 241.556 131.819 241.352 132.023 241.088C132.227 240.824 132.329 240.518 132.329 240.17C132.329 239.762 132.173 239.414 131.861 239.126C131.549 238.85 130.961 238.688 130.097 238.64C129.389 238.592 128.795 238.526 128.315 238.442C127.847 238.358 127.451 238.262 127.127 238.154C126.815 238.034 126.551 237.902 126.335 237.758C126.131 237.614 125.945 237.464 125.777 237.308V236.894L127.541 235.148L128.837 235.616L127.037 237.254L127.271 236.624C127.403 236.72 127.529 236.81 127.649 236.894C127.769 236.978 127.931 237.05 128.135 237.11C128.351 237.17 128.639 237.224 128.999 237.272C129.359 237.32 129.839 237.368 130.439 237.416C131.255 237.476 131.909 237.62 132.401 237.848C132.905 238.076 133.265 238.382 133.481 238.766C133.709 239.15 133.823 239.6 133.823 240.116C133.823 240.62 133.679 241.106 133.391 241.574C133.115 242.042 132.683 242.426 132.095 242.726C131.507 243.026 130.757 243.176 129.845 243.176ZM129.827 236.174C129.071 236.174 128.423 236.03 127.883 235.742C127.355 235.454 126.953 235.07 126.677 234.59C126.401 234.11 126.263 233.57 126.263 232.97C126.263 232.382 126.401 231.848 126.677 231.368C126.965 230.888 127.373 230.504 127.901 230.216C128.429 229.916 129.071 229.766 129.827 229.766C130.583 229.766 131.225 229.916 131.753 230.216C132.281 230.504 132.683 230.888 132.959 231.368C133.235 231.848 133.373 232.382 133.373 232.97C133.373 233.57 133.235 234.11 132.959 234.59C132.683 235.07 132.281 235.454 131.753 235.742C131.225 236.03 130.583 236.174 129.827 236.174ZM129.827 234.932C130.463 234.932 130.967 234.764 131.339 234.428C131.723 234.092 131.915 233.606 131.915 232.97C131.915 232.346 131.723 231.866 131.339 231.53C130.967 231.194 130.463 231.026 129.827 231.026C129.191 231.026 128.675 231.194 128.279 231.53C127.895 231.866 127.703 232.346 127.703 232.97C127.703 233.606 127.895 234.092 128.279 234.428C128.663 234.764 129.179 234.932 129.827 234.932ZM131.285 231.26L130.835 229.982H134.543V231.116L131.285 231.26ZM139.91 239.216C139.058 239.216 138.302 239.024 137.642 238.64C136.982 238.244 136.46 237.692 136.076 236.984C135.704 236.264 135.518 235.436 135.518 234.5C135.518 233.54 135.704 232.712 136.076 232.016C136.448 231.308 136.964 230.756 137.624 230.36C138.296 229.964 139.07 229.766 139.946 229.766C140.822 229.766 141.572 229.964 142.196 230.36C142.82 230.756 143.294 231.272 143.618 231.908C143.954 232.544 144.122 233.24 144.122 233.996C144.122 234.116 144.122 234.248 144.122 234.392C144.122 234.524 144.116 234.674 144.104 234.842H136.652V233.672H142.628C142.592 232.844 142.316 232.202 141.8 231.746C141.296 231.278 140.666 231.044 139.91 231.044C139.394 231.044 138.914 231.164 138.47 231.404C138.026 231.632 137.666 231.968 137.39 232.412C137.126 232.856 136.994 233.414 136.994 234.086V234.59C136.994 235.322 137.132 235.94 137.408 236.444C137.684 236.948 138.044 237.326 138.488 237.578C138.932 237.818 139.406 237.938 139.91 237.938C140.534 237.938 141.05 237.8 141.458 237.524C141.878 237.236 142.184 236.846 142.376 236.354H143.87C143.714 236.906 143.456 237.398 143.096 237.83C142.736 238.25 142.286 238.586 141.746 238.838C141.218 239.09 140.606 239.216 139.91 239.216ZM146.144 239V229.982H147.512L147.602 231.584C147.89 231.02 148.304 230.576 148.844 230.252C149.384 229.928 149.996 229.766 150.68 229.766C151.376 229.766 151.982 229.91 152.498 230.198C153.014 230.474 153.416 230.9 153.704 231.476C153.992 232.052 154.136 232.778 154.136 233.654V239H152.624V233.816C152.624 232.904 152.426 232.22 152.03 231.764C151.634 231.296 151.07 231.062 150.338 231.062C149.822 231.062 149.36 231.188 148.952 231.44C148.556 231.692 148.238 232.052 147.998 232.52C147.77 232.988 147.656 233.564 147.656 234.248V239H146.144ZM160.495 239.216C159.619 239.216 158.845 239.012 158.173 238.604C157.513 238.184 156.997 237.62 156.625 236.912C156.265 236.192 156.085 235.382 156.085 234.482C156.085 233.57 156.265 232.76 156.625 232.052C156.997 231.344 157.519 230.786 158.191 230.378C158.863 229.97 159.637 229.766 160.513 229.766C161.245 229.766 161.893 229.916 162.457 230.216C163.021 230.516 163.453 230.936 163.753 231.476V226.04H165.265V239H163.897L163.771 237.524C163.579 237.812 163.333 238.088 163.033 238.352C162.733 238.604 162.373 238.814 161.953 238.982C161.533 239.138 161.047 239.216 160.495 239.216ZM160.657 237.902C161.257 237.902 161.785 237.764 162.241 237.488C162.709 237.2 163.069 236.804 163.321 236.3C163.573 235.784 163.699 235.184 163.699 234.5C163.699 233.816 163.573 233.222 163.321 232.718C163.069 232.202 162.709 231.8 162.241 231.512C161.785 231.224 161.257 231.08 160.657 231.08C160.081 231.08 159.559 231.224 159.091 231.512C158.635 231.8 158.275 232.202 158.011 232.718C157.759 233.222 157.633 233.816 157.633 234.5C157.633 235.184 157.759 235.784 158.011 236.3C158.275 236.804 158.635 237.2 159.091 237.488C159.559 237.764 160.081 237.902 160.657 237.902ZM171.779 239.216C170.927 239.216 170.171 239.024 169.511 238.64C168.851 238.244 168.329 237.692 167.945 236.984C167.573 236.264 167.387 235.436 167.387 234.5C167.387 233.54 167.573 232.712 167.945 232.016C168.317 231.308 168.833 230.756 169.493 230.36C170.165 229.964 170.939 229.766 171.815 229.766C172.691 229.766 173.441 229.964 174.065 230.36C174.689 230.756 175.163 231.272 175.487 231.908C175.823 232.544 175.991 233.24 175.991 233.996C175.991 234.116 175.991 234.248 175.991 234.392C175.991 234.524 175.985 234.674 175.973 234.842H168.521V233.672H174.497C174.461 232.844 174.185 232.202 173.669 231.746C173.165 231.278 172.535 231.044 171.779 231.044C171.263 231.044 170.783 231.164 170.339 231.404C169.895 231.632 169.535 231.968 169.259 232.412C168.995 232.856 168.863 233.414 168.863 234.086V234.59C168.863 235.322 169.001 235.94 169.277 236.444C169.553 236.948 169.913 237.326 170.357 237.578C170.801 237.818 171.275 237.938 171.779 237.938C172.403 237.938 172.919 237.8 173.327 237.524C173.747 237.236 174.053 236.846 174.245 236.354H175.739C175.583 236.906 175.325 237.398 174.965 237.83C174.605 238.25 174.155 238.586 173.615 238.838C173.087 239.09 172.475 239.216 171.779 239.216ZM178.013 239V229.982H179.381L179.507 231.71C179.699 231.302 179.951 230.954 180.263 230.666C180.587 230.378 180.971 230.156 181.415 230C181.859 229.844 182.363 229.766 182.927 229.766V231.35H182.441C182.045 231.35 181.667 231.404 181.307 231.512C180.959 231.608 180.647 231.77 180.371 231.998C180.107 232.226 179.897 232.538 179.741 232.934C179.597 233.318 179.525 233.804 179.525 234.392V239H178.013ZM188.043 239.216C187.311 239.216 186.663 239.096 186.099 238.856C185.547 238.604 185.103 238.25 184.767 237.794C184.431 237.338 184.221 236.804 184.137 236.192H185.685C185.757 236.516 185.889 236.81 186.081 237.074C186.273 237.338 186.537 237.548 186.873 237.704C187.209 237.86 187.605 237.938 188.061 237.938C188.493 237.938 188.841 237.878 189.105 237.758C189.381 237.626 189.585 237.458 189.717 237.254C189.861 237.038 189.933 236.804 189.933 236.552C189.933 236.18 189.843 235.898 189.663 235.706C189.495 235.514 189.243 235.364 188.907 235.256C188.571 235.148 188.169 235.052 187.701 234.968C187.317 234.896 186.933 234.8 186.549 234.68C186.177 234.548 185.835 234.392 185.523 234.212C185.223 234.02 184.983 233.78 184.803 233.492C184.623 233.204 184.533 232.85 184.533 232.43C184.533 231.914 184.665 231.458 184.929 231.062C185.205 230.654 185.583 230.336 186.063 230.108C186.555 229.88 187.137 229.766 187.809 229.766C188.769 229.766 189.549 230 190.149 230.468C190.749 230.936 191.103 231.614 191.211 232.502H189.717C189.657 232.046 189.459 231.692 189.123 231.44C188.799 231.176 188.355 231.044 187.791 231.044C187.227 231.044 186.795 231.158 186.495 231.386C186.207 231.614 186.063 231.914 186.063 232.286C186.063 232.526 186.147 232.736 186.315 232.916C186.483 233.096 186.723 233.252 187.035 233.384C187.359 233.504 187.749 233.612 188.205 233.708C188.793 233.816 189.333 233.96 189.825 234.14C190.317 234.32 190.713 234.584 191.013 234.932C191.325 235.28 191.481 235.778 191.481 236.426C191.493 236.978 191.355 237.464 191.067 237.884C190.779 238.304 190.377 238.634 189.861 238.874C189.357 239.102 188.751 239.216 188.043 239.216ZM201.986 239C201.446 239 200.978 238.916 200.582 238.748C200.186 238.58 199.88 238.298 199.664 237.902C199.46 237.494 199.358 236.948 199.358 236.264V231.26H197.792V229.982H199.358L199.556 227.822H200.87V229.982H203.498V231.26H200.87V236.264C200.87 236.828 200.984 237.212 201.212 237.416C201.44 237.608 201.842 237.704 202.418 237.704H203.372V239H201.986ZM205.435 239V226.04H206.947V231.512C207.247 230.972 207.667 230.546 208.207 230.234C208.759 229.922 209.365 229.766 210.025 229.766C210.709 229.766 211.309 229.91 211.825 230.198C212.341 230.474 212.737 230.9 213.013 231.476C213.301 232.052 213.445 232.784 213.445 233.672V239H211.951V233.834C211.951 232.922 211.759 232.232 211.375 231.764C210.991 231.296 210.433 231.062 209.701 231.062C209.185 231.062 208.717 231.188 208.297 231.44C207.877 231.692 207.547 232.058 207.307 232.538C207.067 233.006 206.947 233.582 206.947 234.266V239H205.435ZM218.741 239.216C217.997 239.216 217.379 239.09 216.887 238.838C216.407 238.586 216.047 238.25 215.807 237.83C215.567 237.398 215.447 236.93 215.447 236.426C215.447 235.814 215.603 235.298 215.915 234.878C216.239 234.458 216.689 234.14 217.265 233.924C217.853 233.696 218.537 233.582 219.317 233.582H221.729C221.729 233.018 221.639 232.55 221.459 232.178C221.291 231.806 221.039 231.524 220.703 231.332C220.367 231.14 219.959 231.044 219.479 231.044C218.903 231.044 218.399 231.194 217.967 231.494C217.547 231.782 217.289 232.202 217.193 232.754H215.645C215.717 232.118 215.933 231.578 216.293 231.134C216.665 230.69 217.133 230.354 217.697 230.126C218.261 229.886 218.855 229.766 219.479 229.766C220.307 229.766 220.997 229.922 221.549 230.234C222.113 230.534 222.533 230.96 222.809 231.512C223.097 232.052 223.241 232.694 223.241 233.438V239H221.891L221.801 237.398C221.681 237.65 221.525 237.89 221.333 238.118C221.153 238.334 220.937 238.526 220.685 238.694C220.445 238.85 220.163 238.976 219.839 239.072C219.515 239.168 219.149 239.216 218.741 239.216ZM218.975 237.938C219.407 237.938 219.791 237.854 220.127 237.686C220.463 237.506 220.751 237.266 220.991 236.966C221.243 236.666 221.429 236.33 221.549 235.958C221.669 235.574 221.729 235.184 221.729 234.788V234.752H219.443C218.867 234.752 218.399 234.824 218.039 234.968C217.679 235.1 217.421 235.286 217.265 235.526C217.109 235.766 217.031 236.042 217.031 236.354C217.031 236.678 217.103 236.96 217.247 237.2C217.403 237.44 217.625 237.626 217.913 237.758C218.201 237.878 218.555 237.938 218.975 237.938ZM228.863 239C228.323 239 227.855 238.916 227.459 238.748C227.063 238.58 226.757 238.298 226.541 237.902C226.337 237.494 226.235 236.948 226.235 236.264V231.26H224.669V229.982H226.235L226.433 227.822H227.747V229.982H230.375V231.26H227.747V236.264C227.747 236.828 227.861 237.212 228.089 237.416C228.317 237.608 228.719 237.704 229.295 237.704H230.249V239H228.863ZM238.084 242.96L240.298 237.992H239.776L236.212 229.982H237.85L240.82 236.876L243.934 229.982H245.5L239.668 242.96H238.084ZM250.32 239.216C249.48 239.216 248.724 239.024 248.052 238.64C247.38 238.244 246.846 237.692 246.45 236.984C246.066 236.276 245.874 235.448 245.874 234.5C245.874 233.54 246.072 232.706 246.468 231.998C246.864 231.29 247.398 230.744 248.07 230.36C248.754 229.964 249.516 229.766 250.356 229.766C251.208 229.766 251.97 229.964 252.642 230.36C253.314 230.744 253.842 231.29 254.226 231.998C254.61 232.706 254.802 233.54 254.802 234.5C254.802 235.448 254.604 236.276 254.208 236.984C253.824 237.692 253.29 238.244 252.606 238.64C251.934 239.024 251.172 239.216 250.32 239.216ZM250.32 237.92C250.848 237.92 251.334 237.794 251.778 237.542C252.222 237.29 252.576 236.906 252.84 236.39C253.116 235.874 253.254 235.244 253.254 234.5C253.254 233.732 253.122 233.096 252.858 232.592C252.594 232.088 252.24 231.71 251.796 231.458C251.352 231.194 250.872 231.062 250.356 231.062C249.852 231.062 249.372 231.194 248.916 231.458C248.472 231.71 248.112 232.088 247.836 232.592C247.56 233.096 247.422 233.732 247.422 234.5C247.422 235.244 247.56 235.874 247.836 236.39C248.112 236.906 248.466 237.29 248.898 237.542C249.342 237.794 249.816 237.92 250.32 237.92ZM260.216 239.216C259.52 239.216 258.908 239.078 258.38 238.802C257.864 238.514 257.462 238.082 257.174 237.506C256.898 236.93 256.76 236.204 256.76 235.328V229.982H258.272V235.166C258.272 236.09 258.464 236.78 258.848 237.236C259.244 237.692 259.808 237.92 260.54 237.92C261.056 237.92 261.512 237.8 261.908 237.56C262.316 237.308 262.634 236.948 262.862 236.48C263.102 236 263.222 235.424 263.222 234.752V229.982H264.734V239H263.366L263.276 237.416C263 237.98 262.592 238.424 262.052 238.748C261.512 239.06 260.9 239.216 260.216 239.216ZM273.857 239L271.211 229.982H272.723L274.793 237.65L274.469 237.632L276.755 229.982H278.465L280.751 237.632L280.409 237.65L282.479 229.982H284.009L281.363 239H279.815L277.439 230.99H277.781L275.405 239H273.857ZM285.842 239V229.982H287.354V239H285.842ZM286.598 228.038C286.298 228.038 286.046 227.942 285.842 227.75C285.65 227.546 285.554 227.294 285.554 226.994C285.554 226.694 285.65 226.454 285.842 226.274C286.046 226.082 286.298 225.986 286.598 225.986C286.886 225.986 287.132 226.082 287.336 226.274C287.54 226.454 287.642 226.694 287.642 226.994C287.642 227.294 287.54 227.546 287.336 227.75C287.132 227.942 286.886 228.038 286.598 228.038ZM293.406 239.216C292.674 239.216 292.026 239.096 291.462 238.856C290.91 238.604 290.466 238.25 290.13 237.794C289.794 237.338 289.584 236.804 289.5 236.192H291.048C291.12 236.516 291.252 236.81 291.444 237.074C291.636 237.338 291.9 237.548 292.236 237.704C292.572 237.86 292.968 237.938 293.424 237.938C293.856 237.938 294.204 237.878 294.468 237.758C294.744 237.626 294.948 237.458 295.08 237.254C295.224 237.038 295.296 236.804 295.296 236.552C295.296 236.18 295.206 235.898 295.026 235.706C294.858 235.514 294.606 235.364 294.27 235.256C293.934 235.148 293.532 235.052 293.064 234.968C292.68 234.896 292.296 234.8 291.912 234.68C291.54 234.548 291.198 234.392 290.886 234.212C290.586 234.02 290.346 233.78 290.166 233.492C289.986 233.204 289.896 232.85 289.896 232.43C289.896 231.914 290.028 231.458 290.292 231.062C290.568 230.654 290.946 230.336 291.426 230.108C291.918 229.88 292.5 229.766 293.172 229.766C294.132 229.766 294.912 230 295.512 230.468C296.112 230.936 296.466 231.614 296.574 232.502H295.08C295.02 232.046 294.822 231.692 294.486 231.44C294.162 231.176 293.718 231.044 293.154 231.044C292.59 231.044 292.158 231.158 291.858 231.386C291.57 231.614 291.426 231.914 291.426 232.286C291.426 232.526 291.51 232.736 291.678 232.916C291.846 233.096 292.086 233.252 292.398 233.384C292.722 233.504 293.112 233.612 293.568 233.708C294.156 233.816 294.696 233.96 295.188 234.14C295.68 234.32 296.076 234.584 296.376 234.932C296.688 235.28 296.844 235.778 296.844 236.426C296.856 236.978 296.718 237.464 296.43 237.884C296.142 238.304 295.74 238.634 295.224 238.874C294.72 239.102 294.114 239.216 293.406 239.216ZM299.004 239V226.04H300.516V231.512C300.816 230.972 301.236 230.546 301.776 230.234C302.328 229.922 302.934 229.766 303.594 229.766C304.278 229.766 304.878 229.91 305.394 230.198C305.91 230.474 306.306 230.9 306.582 231.476C306.87 232.052 307.014 232.784 307.014 233.672V239H305.52V233.834C305.52 232.922 305.328 232.232 304.944 231.764C304.56 231.296 304.002 231.062 303.27 231.062C302.754 231.062 302.286 231.188 301.866 231.44C301.446 231.692 301.116 232.058 300.876 232.538C300.636 233.006 300.516 233.582 300.516 234.266V239H299.004ZM317.685 239C317.145 239 316.677 238.916 316.281 238.748C315.885 238.58 315.579 238.298 315.363 237.902C315.159 237.494 315.057 236.948 315.057 236.264V231.26H313.491V229.982H315.057L315.255 227.822H316.569V229.982H319.197V231.26H316.569V236.264C316.569 236.828 316.683 237.212 316.911 237.416C317.139 237.608 317.541 237.704 318.117 237.704H319.071V239H317.685ZM324.956 239.216C324.116 239.216 323.36 239.024 322.688 238.64C322.016 238.244 321.482 237.692 321.086 236.984C320.702 236.276 320.51 235.448 320.51 234.5C320.51 233.54 320.708 232.706 321.104 231.998C321.5 231.29 322.034 230.744 322.706 230.36C323.39 229.964 324.152 229.766 324.992 229.766C325.844 229.766 326.606 229.964 327.278 230.36C327.95 230.744 328.478 231.29 328.862 231.998C329.246 232.706 329.438 233.54 329.438 234.5C329.438 235.448 329.24 236.276 328.844 236.984C328.46 237.692 327.926 238.244 327.242 238.64C326.57 239.024 325.808 239.216 324.956 239.216ZM324.956 237.92C325.484 237.92 325.97 237.794 326.414 237.542C326.858 237.29 327.212 236.906 327.476 236.39C327.752 235.874 327.89 235.244 327.89 234.5C327.89 233.732 327.758 233.096 327.494 232.592C327.23 232.088 326.876 231.71 326.432 231.458C325.988 231.194 325.508 231.062 324.992 231.062C324.488 231.062 324.008 231.194 323.552 231.458C323.108 231.71 322.748 232.088 322.472 232.592C322.196 233.096 322.058 233.732 322.058 234.5C322.058 235.244 322.196 235.874 322.472 236.39C322.748 236.906 323.102 237.29 323.534 237.542C323.978 237.794 324.452 237.92 324.956 237.92ZM25.242 267V257.982H26.61L26.718 259.278C27.006 258.81 27.39 258.444 27.87 258.18C28.35 257.904 28.89 257.766 29.49 257.766C29.946 257.766 30.366 257.832 30.75 257.964C31.134 258.084 31.47 258.276 31.758 258.54C32.046 258.792 32.28 259.116 32.46 259.512C32.772 258.96 33.204 258.534 33.756 258.234C34.308 257.922 34.89 257.766 35.502 257.766C36.21 257.766 36.828 257.91 37.356 258.198C37.884 258.474 38.286 258.9 38.562 259.476C38.85 260.052 38.994 260.778 38.994 261.654V267H37.5V261.816C37.5 260.904 37.314 260.22 36.942 259.764C36.57 259.296 36.042 259.062 35.358 259.062C34.878 259.062 34.452 259.188 34.08 259.44C33.708 259.692 33.414 260.052 33.198 260.52C32.982 260.988 32.874 261.564 32.874 262.248V267H31.362V261.816C31.362 260.904 31.176 260.22 30.804 259.764C30.432 259.296 29.904 259.062 29.22 259.062C28.764 259.062 28.344 259.188 27.96 259.44C27.588 259.692 27.294 260.052 27.078 260.52C26.862 260.988 26.754 261.564 26.754 262.248V267H25.242ZM45.3224 267.216C44.4704 267.216 43.7144 267.024 43.0544 266.64C42.3944 266.244 41.8724 265.692 41.4884 264.984C41.1164 264.264 40.9304 263.436 40.9304 262.5C40.9304 261.54 41.1164 260.712 41.4884 260.016C41.8604 259.308 42.3764 258.756 43.0364 258.36C43.7084 257.964 44.4824 257.766 45.3584 257.766C46.2344 257.766 46.9844 257.964 47.6084 258.36C48.2324 258.756 48.7064 259.272 49.0304 259.908C49.3664 260.544 49.5344 261.24 49.5344 261.996C49.5344 262.116 49.5344 262.248 49.5344 262.392C49.5344 262.524 49.5284 262.674 49.5164 262.842H42.0644V261.672H48.0404C48.0044 260.844 47.7284 260.202 47.2124 259.746C46.7084 259.278 46.0784 259.044 45.3224 259.044C44.8064 259.044 44.3264 259.164 43.8824 259.404C43.4384 259.632 43.0784 259.968 42.8024 260.412C42.5384 260.856 42.4064 261.414 42.4064 262.086V262.59C42.4064 263.322 42.5444 263.94 42.8204 264.444C43.0964 264.948 43.4564 265.326 43.9004 265.578C44.3444 265.818 44.8184 265.938 45.3224 265.938C45.9464 265.938 46.4624 265.8 46.8704 265.524C47.2904 265.236 47.5964 264.846 47.7884 264.354H49.2824C49.1264 264.906 48.8684 265.398 48.5084 265.83C48.1484 266.25 47.6984 266.586 47.1584 266.838C46.6304 267.09 46.0184 267.216 45.3224 267.216ZM55.5705 267.216C54.7185 267.216 53.9625 267.024 53.3025 266.64C52.6425 266.244 52.1205 265.692 51.7365 264.984C51.3645 264.264 51.1785 263.436 51.1785 262.5C51.1785 261.54 51.3645 260.712 51.7365 260.016C52.1085 259.308 52.6245 258.756 53.2845 258.36C53.9565 257.964 54.7305 257.766 55.6065 257.766C56.4825 257.766 57.2325 257.964 57.8565 258.36C58.4805 258.756 58.9545 259.272 59.2785 259.908C59.6145 260.544 59.7825 261.24 59.7825 261.996C59.7825 262.116 59.7825 262.248 59.7825 262.392C59.7825 262.524 59.7765 262.674 59.7645 262.842H52.3125V261.672H58.2885C58.2525 260.844 57.9765 260.202 57.4605 259.746C56.9565 259.278 56.3265 259.044 55.5705 259.044C55.0545 259.044 54.5745 259.164 54.1305 259.404C53.6865 259.632 53.3265 259.968 53.0505 260.412C52.7865 260.856 52.6545 261.414 52.6545 262.086V262.59C52.6545 263.322 52.7925 263.94 53.0685 264.444C53.3445 264.948 53.7045 265.326 54.1485 265.578C54.5925 265.818 55.0665 265.938 55.5705 265.938C56.1945 265.938 56.7105 265.8 57.1185 265.524C57.5385 265.236 57.8445 264.846 58.0365 264.354H59.5305C59.3745 264.906 59.1165 265.398 58.7565 265.83C58.3965 266.25 57.9465 266.586 57.4065 266.838C56.8785 267.09 56.2665 267.216 55.5705 267.216ZM65.0697 267C64.5297 267 64.0617 266.916 63.6657 266.748C63.2697 266.58 62.9637 266.298 62.7477 265.902C62.5437 265.494 62.4417 264.948 62.4417 264.264V259.26H60.8757V257.982H62.4417L62.6397 255.822H63.9537V257.982H66.5817V259.26H63.9537V264.264C63.9537 264.828 64.0677 265.212 64.2957 265.416C64.5237 265.608 64.9257 265.704 65.5017 265.704H66.4557V267H65.0697ZM77.3686 267.216C76.5286 267.216 75.7726 267.024 75.1006 266.64C74.4286 266.244 73.8946 265.692 73.4986 264.984C73.1146 264.276 72.9226 263.448 72.9226 262.5C72.9226 261.54 73.1206 260.706 73.5166 259.998C73.9126 259.29 74.4466 258.744 75.1186 258.36C75.8026 257.964 76.5646 257.766 77.4046 257.766C78.2566 257.766 79.0186 257.964 79.6906 258.36C80.3626 258.744 80.8906 259.29 81.2746 259.998C81.6586 260.706 81.8506 261.54 81.8506 262.5C81.8506 263.448 81.6526 264.276 81.2566 264.984C80.8726 265.692 80.3386 266.244 79.6546 266.64C78.9826 267.024 78.2206 267.216 77.3686 267.216ZM77.3686 265.92C77.8966 265.92 78.3826 265.794 78.8266 265.542C79.2706 265.29 79.6246 264.906 79.8886 264.39C80.1646 263.874 80.3026 263.244 80.3026 262.5C80.3026 261.732 80.1706 261.096 79.9066 260.592C79.6426 260.088 79.2886 259.71 78.8446 259.458C78.4006 259.194 77.9206 259.062 77.4046 259.062C76.9006 259.062 76.4206 259.194 75.9646 259.458C75.5206 259.71 75.1606 260.088 74.8846 260.592C74.6086 261.096 74.4706 261.732 74.4706 262.5C74.4706 263.244 74.6086 263.874 74.8846 264.39C75.1606 264.906 75.5146 265.29 75.9466 265.542C76.3906 265.794 76.8646 265.92 77.3686 265.92ZM83.9705 267V257.982H85.3385L85.4285 259.584C85.7165 259.02 86.1305 258.576 86.6705 258.252C87.2105 257.928 87.8225 257.766 88.5065 257.766C89.2025 257.766 89.8085 257.91 90.3245 258.198C90.8405 258.474 91.2425 258.9 91.5305 259.476C91.8185 260.052 91.9625 260.778 91.9625 261.654V267H90.4505V261.816C90.4505 260.904 90.2525 260.22 89.8565 259.764C89.4605 259.296 88.8965 259.062 88.1645 259.062C87.6485 259.062 87.1865 259.188 86.7785 259.44C86.3825 259.692 86.0645 260.052 85.8245 260.52C85.5965 260.988 85.4825 261.564 85.4825 262.248V267H83.9705ZM107.206 267V254.4H108.718V267H107.206ZM99.1601 267V254.4H100.672V267H99.1601ZM100.384 261.204V259.962H107.584V261.204H100.384ZM114.275 267.216C113.531 267.216 112.913 267.09 112.421 266.838C111.941 266.586 111.581 266.25 111.341 265.83C111.101 265.398 110.981 264.93 110.981 264.426C110.981 263.814 111.137 263.298 111.449 262.878C111.773 262.458 112.223 262.14 112.799 261.924C113.387 261.696 114.071 261.582 114.851 261.582H117.263C117.263 261.018 117.173 260.55 116.993 260.178C116.825 259.806 116.573 259.524 116.237 259.332C115.901 259.14 115.493 259.044 115.013 259.044C114.437 259.044 113.933 259.194 113.501 259.494C113.081 259.782 112.823 260.202 112.727 260.754H111.179C111.251 260.118 111.467 259.578 111.827 259.134C112.199 258.69 112.667 258.354 113.231 258.126C113.795 257.886 114.389 257.766 115.013 257.766C115.841 257.766 116.531 257.922 117.083 258.234C117.647 258.534 118.067 258.96 118.343 259.512C118.631 260.052 118.775 260.694 118.775 261.438V267H117.425L117.335 265.398C117.215 265.65 117.059 265.89 116.867 266.118C116.687 266.334 116.471 266.526 116.219 266.694C115.979 266.85 115.697 266.976 115.373 267.072C115.049 267.168 114.683 267.216 114.275 267.216ZM114.509 265.938C114.941 265.938 115.325 265.854 115.661 265.686C115.997 265.506 116.285 265.266 116.525 264.966C116.777 264.666 116.963 264.33 117.083 263.958C117.203 263.574 117.263 263.184 117.263 262.788V262.752H114.977C114.401 262.752 113.933 262.824 113.573 262.968C113.213 263.1 112.955 263.286 112.799 263.526C112.643 263.766 112.565 264.042 112.565 264.354C112.565 264.678 112.637 264.96 112.781 265.2C112.937 265.44 113.159 265.626 113.447 265.758C113.735 265.878 114.089 265.938 114.509 265.938ZM121.078 267V257.982H122.446L122.572 259.71C122.764 259.302 123.016 258.954 123.328 258.666C123.652 258.378 124.036 258.156 124.48 258C124.924 257.844 125.428 257.766 125.992 257.766V259.35H125.506C125.11 259.35 124.732 259.404 124.372 259.512C124.024 259.608 123.712 259.77 123.436 259.998C123.172 260.226 122.962 260.538 122.806 260.934C122.662 261.318 122.59 261.804 122.59 262.392V267H121.078ZM130.297 267L126.877 257.982H128.461L131.179 265.542L133.897 257.982H135.445L132.043 267H130.297ZM140.684 267.216C139.832 267.216 139.076 267.024 138.416 266.64C137.756 266.244 137.234 265.692 136.85 264.984C136.478 264.264 136.292 263.436 136.292 262.5C136.292 261.54 136.478 260.712 136.85 260.016C137.222 259.308 137.738 258.756 138.398 258.36C139.07 257.964 139.844 257.766 140.72 257.766C141.596 257.766 142.346 257.964 142.97 258.36C143.594 258.756 144.068 259.272 144.392 259.908C144.728 260.544 144.896 261.24 144.896 261.996C144.896 262.116 144.896 262.248 144.896 262.392C144.896 262.524 144.89 262.674 144.878 262.842H137.426V261.672H143.402C143.366 260.844 143.09 260.202 142.574 259.746C142.07 259.278 141.44 259.044 140.684 259.044C140.168 259.044 139.688 259.164 139.244 259.404C138.8 259.632 138.44 259.968 138.164 260.412C137.9 260.856 137.768 261.414 137.768 262.086V262.59C137.768 263.322 137.906 263.94 138.182 264.444C138.458 264.948 138.818 265.326 139.262 265.578C139.706 265.818 140.18 265.938 140.684 265.938C141.308 265.938 141.824 265.8 142.232 265.524C142.652 265.236 142.958 264.846 143.15 264.354H144.644C144.488 264.906 144.23 265.398 143.87 265.83C143.51 266.25 143.06 266.586 142.52 266.838C141.992 267.09 141.38 267.216 140.684 267.216ZM150.338 267.216C149.606 267.216 148.958 267.096 148.394 266.856C147.842 266.604 147.398 266.25 147.062 265.794C146.726 265.338 146.516 264.804 146.432 264.192H147.98C148.052 264.516 148.184 264.81 148.376 265.074C148.568 265.338 148.832 265.548 149.168 265.704C149.504 265.86 149.9 265.938 150.356 265.938C150.788 265.938 151.136 265.878 151.4 265.758C151.676 265.626 151.88 265.458 152.012 265.254C152.156 265.038 152.228 264.804 152.228 264.552C152.228 264.18 152.138 263.898 151.958 263.706C151.79 263.514 151.538 263.364 151.202 263.256C150.866 263.148 150.464 263.052 149.996 262.968C149.612 262.896 149.228 262.8 148.844 262.68C148.472 262.548 148.13 262.392 147.818 262.212C147.518 262.02 147.278 261.78 147.098 261.492C146.918 261.204 146.828 260.85 146.828 260.43C146.828 259.914 146.96 259.458 147.224 259.062C147.5 258.654 147.878 258.336 148.358 258.108C148.85 257.88 149.432 257.766 150.104 257.766C151.064 257.766 151.844 258 152.444 258.468C153.044 258.936 153.398 259.614 153.506 260.502H152.012C151.952 260.046 151.754 259.692 151.418 259.44C151.094 259.176 150.65 259.044 150.086 259.044C149.522 259.044 149.09 259.158 148.79 259.386C148.502 259.614 148.358 259.914 148.358 260.286C148.358 260.526 148.442 260.736 148.61 260.916C148.778 261.096 149.018 261.252 149.33 261.384C149.654 261.504 150.044 261.612 150.5 261.708C151.088 261.816 151.628 261.96 152.12 262.14C152.612 262.32 153.008 262.584 153.308 262.932C153.62 263.28 153.776 263.778 153.776 264.426C153.788 264.978 153.65 265.464 153.362 265.884C153.074 266.304 152.672 266.634 152.156 266.874C151.652 267.102 151.046 267.216 150.338 267.216ZM159.095 267C158.555 267 158.087 266.916 157.691 266.748C157.295 266.58 156.989 266.298 156.773 265.902C156.569 265.494 156.467 264.948 156.467 264.264V259.26H154.901V257.982H156.467L156.665 255.822H157.979V257.982H160.607V259.26H157.979V264.264C157.979 264.828 158.093 265.212 158.321 265.416C158.549 265.608 158.951 265.704 159.527 265.704H160.481V267H159.095ZM162.905 263.454L162.725 254.4H164.363L164.183 263.454H162.905ZM163.535 267.09C163.247 267.09 163.001 266.994 162.797 266.802C162.605 266.598 162.509 266.352 162.509 266.064C162.509 265.776 162.605 265.536 162.797 265.344C163.001 265.14 163.247 265.038 163.535 265.038C163.847 265.038 164.093 265.14 164.273 265.344C164.465 265.536 164.561 265.776 164.561 266.064C164.561 266.352 164.465 266.598 164.273 266.802C164.093 266.994 163.847 267.09 163.535 267.09Z" fill="#5F5F5F"/>
<rect x="24.5" y="299.5" width="344" height="58" rx="29" fill="white"/>
<rect x="24.5" y="299.5" width="344" height="58" rx="29" stroke="#E5E5E5"/>
<path d="M166.198 335L170.842 322.4H172.444L177.07 335H175.468L171.634 324.29L167.782 335H166.198ZM168.322 331.76L168.754 330.536H174.46L174.892 331.76H168.322ZM181.931 335.216C181.175 335.216 180.515 335.09 179.951 334.838C179.399 334.586 178.955 334.238 178.619 333.794C178.295 333.338 178.097 332.804 178.025 332.192H179.573C179.633 332.504 179.759 332.792 179.951 333.056C180.143 333.32 180.401 333.536 180.725 333.704C181.061 333.86 181.469 333.938 181.949 333.938C182.369 333.938 182.717 333.878 182.993 333.758C183.269 333.626 183.473 333.452 183.605 333.236C183.749 333.02 183.821 332.786 183.821 332.534C183.821 332.162 183.731 331.88 183.551 331.688C183.383 331.496 183.131 331.346 182.795 331.238C182.459 331.118 182.051 331.016 181.571 330.932C181.175 330.86 180.785 330.764 180.401 330.644C180.017 330.524 179.675 330.368 179.375 330.176C179.075 329.972 178.835 329.726 178.655 329.438C178.487 329.15 178.403 328.796 178.403 328.376C178.403 327.86 178.535 327.404 178.799 327.008C179.063 326.6 179.441 326.282 179.933 326.054C180.437 325.826 181.019 325.712 181.679 325.712C182.651 325.712 183.437 325.946 184.037 326.414C184.637 326.882 184.991 327.56 185.099 328.448H183.605C183.545 327.992 183.347 327.638 183.011 327.386C182.687 327.122 182.237 326.99 181.661 326.99C181.097 326.99 180.665 327.104 180.365 327.332C180.077 327.56 179.933 327.86 179.933 328.232C179.933 328.472 180.011 328.688 180.167 328.88C180.335 329.06 180.575 329.216 180.887 329.348C181.211 329.48 181.607 329.588 182.075 329.672C182.675 329.78 183.221 329.924 183.713 330.104C184.205 330.284 184.601 330.554 184.901 330.914C185.213 331.262 185.369 331.76 185.369 332.408C185.369 332.972 185.225 333.464 184.937 333.884C184.661 334.304 184.265 334.634 183.749 334.874C183.233 335.102 182.627 335.216 181.931 335.216ZM191.164 335.216C190.312 335.216 189.556 335.018 188.896 334.622C188.248 334.226 187.738 333.674 187.366 332.966C186.994 332.246 186.808 331.412 186.808 330.464C186.808 329.504 186.988 328.67 187.348 327.962C187.72 327.254 188.236 326.702 188.896 326.306C189.568 325.91 190.336 325.712 191.2 325.712C192.088 325.712 192.838 325.91 193.45 326.306C194.074 326.702 194.548 327.224 194.872 327.872C195.208 328.508 195.376 329.21 195.376 329.978C195.376 330.098 195.376 330.224 195.376 330.356C195.376 330.488 195.37 330.638 195.358 330.806H187.942V329.636H193.9C193.864 328.808 193.588 328.16 193.072 327.692C192.568 327.224 191.932 326.99 191.164 326.99C190.648 326.99 190.168 327.11 189.724 327.35C189.292 327.578 188.944 327.92 188.68 328.376C188.416 328.82 188.284 329.378 188.284 330.05V330.554C188.284 331.298 188.416 331.922 188.68 332.426C188.956 332.93 189.31 333.308 189.742 333.56C190.186 333.812 190.66 333.938 191.164 333.938C191.8 333.938 192.322 333.8 192.73 333.524C193.15 333.236 193.45 332.852 193.63 332.372H195.124C194.98 332.912 194.728 333.398 194.368 333.83C194.008 334.262 193.558 334.604 193.018 334.856C192.49 335.096 191.872 335.216 191.164 335.216ZM195.735 335L198.813 330.464L195.735 325.928H197.391L199.839 329.636L202.323 325.928H203.943L200.865 330.464L203.943 335H202.323L199.839 331.274L197.391 335H195.735ZM208.499 335.216C207.803 335.216 207.191 335.078 206.663 334.802C206.147 334.526 205.745 334.1 205.457 333.524C205.181 332.948 205.043 332.228 205.043 331.364V325.928H206.555V331.202C206.555 332.102 206.753 332.78 207.149 333.236C207.545 333.692 208.103 333.92 208.823 333.92C209.327 333.92 209.783 333.8 210.191 333.56C210.599 333.308 210.917 332.954 211.145 332.498C211.385 332.03 211.505 331.46 211.505 330.788V325.928H213.017V335H211.649L211.559 333.416C211.283 333.98 210.875 334.424 210.335 334.748C209.795 335.06 209.183 335.216 208.499 335.216ZM218.115 335.216C217.383 335.216 216.771 335.09 216.279 334.838C215.787 334.574 215.421 334.232 215.181 333.812C214.941 333.38 214.821 332.912 214.821 332.408C214.821 331.796 214.977 331.28 215.289 330.86C215.613 330.428 216.063 330.104 216.639 329.888C217.227 329.66 217.917 329.546 218.709 329.546H221.103C221.103 328.982 221.013 328.514 220.833 328.142C220.665 327.758 220.413 327.47 220.077 327.278C219.753 327.086 219.345 326.99 218.853 326.99C218.277 326.99 217.779 327.134 217.359 327.422C216.939 327.71 216.681 328.136 216.585 328.7H215.037C215.109 328.052 215.325 327.512 215.685 327.08C216.057 326.636 216.525 326.3 217.089 326.072C217.653 325.832 218.241 325.712 218.853 325.712C219.693 325.712 220.389 325.868 220.941 326.18C221.505 326.48 221.925 326.906 222.201 327.458C222.477 327.998 222.615 328.64 222.615 329.384V335H221.265L221.175 333.398C221.055 333.65 220.899 333.89 220.707 334.118C220.527 334.334 220.311 334.526 220.059 334.694C219.807 334.85 219.519 334.976 219.195 335.072C218.883 335.168 218.523 335.216 218.115 335.216ZM218.349 333.938C218.769 333.938 219.147 333.854 219.483 333.686C219.831 333.506 220.125 333.266 220.365 332.966C220.605 332.654 220.785 332.312 220.905 331.94C221.037 331.568 221.103 331.178 221.103 330.77V330.716H218.835C218.247 330.716 217.773 330.788 217.413 330.932C217.053 331.064 216.795 331.256 216.639 331.508C216.483 331.748 216.405 332.024 216.405 332.336C216.405 332.66 216.477 332.942 216.621 333.182C216.777 333.422 216.999 333.608 217.287 333.74C217.587 333.872 217.941 333.938 218.349 333.938ZM224.594 335V322.04H226.106V335H224.594Z" fill="#5F5F5F"/>
<rect x="24.5" y="374.5" width="344" height="58" rx="29" fill="white"/>
<rect x="24.5" y="374.5" width="344" height="58" rx="29" stroke="#851D2D"/>
<path d="M162.554 410V397.4H167.72C168.596 397.4 169.334 397.538 169.934 397.814C170.534 398.09 170.984 398.474 171.284 398.966C171.596 399.446 171.752 400.004 171.752 400.64C171.752 401.276 171.614 401.81 171.338 402.242C171.062 402.674 170.696 403.01 170.24 403.25C169.796 403.478 169.304 403.61 168.764 403.646L169.052 403.448C169.628 403.472 170.138 403.628 170.582 403.916C171.038 404.192 171.392 404.564 171.644 405.032C171.908 405.5 172.04 406.01 172.04 406.562C172.04 407.234 171.878 407.828 171.554 408.344C171.23 408.86 170.762 409.268 170.15 409.568C169.538 409.856 168.788 410 167.9 410H162.554ZM164.984 408.02H167.504C168.164 408.02 168.674 407.87 169.034 407.57C169.394 407.27 169.574 406.838 169.574 406.274C169.574 405.71 169.388 405.272 169.016 404.96C168.644 404.636 168.128 404.474 167.468 404.474H164.984V408.02ZM164.984 402.656H167.324C167.96 402.656 168.44 402.512 168.764 402.224C169.1 401.936 169.268 401.528 169.268 401C169.268 400.484 169.1 400.082 168.764 399.794C168.44 399.494 167.954 399.344 167.306 399.344H164.984V402.656ZM173.672 410V400.928H176.102V410H173.672ZM174.896 399.686C174.464 399.686 174.104 399.56 173.816 399.308C173.54 399.044 173.402 398.714 173.402 398.318C173.402 397.922 173.54 397.598 173.816 397.346C174.104 397.082 174.464 396.95 174.896 396.95C175.34 396.95 175.7 397.082 175.976 397.346C176.264 397.598 176.408 397.922 176.408 398.318C176.408 398.714 176.264 399.044 175.976 399.308C175.7 399.56 175.34 399.686 174.896 399.686ZM181.906 410.216C181.078 410.216 180.358 410.084 179.746 409.82C179.134 409.556 178.654 409.19 178.306 408.722C177.958 408.254 177.76 407.726 177.712 407.138H180.124C180.184 407.366 180.286 407.576 180.43 407.768C180.574 407.948 180.766 408.092 181.006 408.2C181.246 408.308 181.534 408.362 181.87 408.362C182.194 408.362 182.458 408.32 182.662 408.236C182.866 408.14 183.016 408.014 183.112 407.858C183.22 407.702 183.274 407.54 183.274 407.372C183.274 407.12 183.202 406.928 183.058 406.796C182.914 406.652 182.704 406.538 182.428 406.454C182.152 406.37 181.816 406.286 181.42 406.202C180.988 406.118 180.562 406.016 180.142 405.896C179.734 405.764 179.368 405.602 179.044 405.41C178.72 405.218 178.462 404.972 178.27 404.672C178.078 404.372 177.982 404 177.982 403.556C177.982 403.016 178.126 402.536 178.414 402.116C178.702 401.684 179.122 401.342 179.674 401.09C180.226 400.838 180.892 400.712 181.672 400.712C182.764 400.712 183.628 400.958 184.264 401.45C184.9 401.942 185.278 402.62 185.398 403.484H183.112C183.04 403.208 182.878 402.992 182.626 402.836C182.386 402.668 182.062 402.584 181.654 402.584C181.222 402.584 180.892 402.662 180.664 402.818C180.436 402.974 180.322 403.178 180.322 403.43C180.322 403.598 180.394 403.748 180.538 403.88C180.694 404.012 180.91 404.126 181.186 404.222C181.462 404.306 181.798 404.39 182.194 404.474C182.89 404.618 183.502 404.786 184.03 404.978C184.558 405.158 184.972 405.422 185.272 405.77C185.572 406.106 185.722 406.598 185.722 407.246C185.722 407.822 185.566 408.338 185.254 408.794C184.942 409.238 184.498 409.586 183.922 409.838C183.358 410.09 182.686 410.216 181.906 410.216ZM191.774 410.216C190.862 410.216 190.052 410.024 189.344 409.64C188.648 409.244 188.102 408.698 187.706 408.002C187.322 407.294 187.13 406.478 187.13 405.554C187.13 404.606 187.322 403.772 187.706 403.052C188.102 402.32 188.648 401.75 189.344 401.342C190.04 400.922 190.85 400.712 191.774 400.712C192.674 400.712 193.46 400.91 194.132 401.306C194.804 401.702 195.326 402.236 195.698 402.908C196.07 403.58 196.256 404.342 196.256 405.194C196.256 405.314 196.256 405.452 196.256 405.608C196.256 405.752 196.244 405.902 196.22 406.058H188.858V404.582H193.808C193.772 403.994 193.562 403.532 193.178 403.196C192.806 402.86 192.338 402.692 191.774 402.692C191.366 402.692 190.988 402.788 190.64 402.98C190.292 403.16 190.016 403.442 189.812 403.826C189.62 404.21 189.524 404.696 189.524 405.284V405.806C189.524 406.298 189.614 406.73 189.794 407.102C189.986 407.462 190.25 407.744 190.586 407.948C190.922 408.14 191.312 408.236 191.756 408.236C192.2 408.236 192.566 408.14 192.854 407.948C193.154 407.756 193.376 407.51 193.52 407.21H196.004C195.836 407.774 195.554 408.284 195.158 408.74C194.762 409.196 194.276 409.556 193.7 409.82C193.124 410.084 192.482 410.216 191.774 410.216ZM196.39 410L199.648 405.464L196.39 400.928H199.018L201.196 404.042L203.374 400.928H205.984L202.726 405.464L205.984 410H203.374L201.196 406.868L199.018 410H196.39ZM210.543 410.216C209.811 410.216 209.181 410.066 208.653 409.766C208.137 409.454 207.741 409.004 207.465 408.416C207.189 407.816 207.051 407.078 207.051 406.202V400.928H209.481V405.95C209.481 406.682 209.631 407.234 209.931 407.606C210.243 407.978 210.717 408.164 211.353 408.164C211.761 408.164 212.121 408.074 212.433 407.894C212.745 407.702 212.991 407.432 213.171 407.084C213.363 406.724 213.459 406.286 213.459 405.77V400.928H215.871V410H213.747L213.549 408.524C213.285 409.04 212.895 409.454 212.379 409.766C211.863 410.066 211.251 410.216 210.543 410.216ZM220.951 410.216C220.195 410.216 219.571 410.096 219.079 409.856C218.587 409.604 218.221 409.274 217.981 408.866C217.753 408.446 217.639 407.984 217.639 407.48C217.639 406.928 217.777 406.442 218.053 406.022C218.341 405.602 218.767 405.272 219.331 405.032C219.907 404.792 220.627 404.672 221.491 404.672H223.741C223.741 404.228 223.681 403.862 223.561 403.574C223.441 403.274 223.255 403.052 223.003 402.908C222.751 402.764 222.415 402.692 221.995 402.692C221.539 402.692 221.149 402.794 220.825 402.998C220.513 403.19 220.321 403.49 220.249 403.898H217.891C217.951 403.25 218.161 402.692 218.521 402.224C218.893 401.744 219.379 401.372 219.979 401.108C220.591 400.844 221.269 400.712 222.013 400.712C222.865 400.712 223.603 400.856 224.227 401.144C224.851 401.432 225.331 401.846 225.667 402.386C226.003 402.926 226.171 403.592 226.171 404.384V410H224.119L223.849 408.614C223.717 408.854 223.561 409.07 223.381 409.262C223.201 409.454 222.991 409.622 222.751 409.766C222.511 409.91 222.241 410.018 221.941 410.09C221.641 410.174 221.311 410.216 220.951 410.216ZM221.527 408.344C221.839 408.344 222.115 408.29 222.355 408.182C222.607 408.062 222.823 407.906 223.003 407.714C223.183 407.51 223.321 407.282 223.417 407.03C223.525 406.766 223.597 406.484 223.633 406.184V406.166H221.779C221.407 406.166 221.101 406.214 220.861 406.31C220.633 406.394 220.465 406.52 220.357 406.688C220.249 406.856 220.195 407.048 220.195 407.264C220.195 407.504 220.249 407.702 220.357 407.858C220.465 408.014 220.621 408.134 220.825 408.218C221.029 408.302 221.263 408.344 221.527 408.344ZM228.077 410V397.04H230.507V410H228.077Z" fill="#851D2D"/>
<rect x="24.5" y="449.5" width="344" height="58" rx="29" stroke="#851D2D"/>
<path d="M186.076 485.216C184.876 485.216 183.832 484.952 182.944 484.424C182.056 483.884 181.366 483.134 180.874 482.174C180.382 481.202 180.136 480.074 180.136 478.79C180.136 477.494 180.388 476.354 180.892 475.37C181.396 474.374 182.122 473.594 183.07 473.03C184.018 472.466 185.152 472.184 186.472 472.184C187.948 472.184 189.172 472.538 190.144 473.246C191.128 473.954 191.764 474.938 192.052 476.198H189.334C189.154 475.646 188.818 475.214 188.326 474.902C187.846 474.578 187.222 474.416 186.454 474.416C185.638 474.416 184.942 474.596 184.366 474.956C183.79 475.316 183.352 475.82 183.052 476.468C182.752 477.116 182.602 477.89 182.602 478.79C182.602 479.702 182.752 480.476 183.052 481.112C183.352 481.748 183.778 482.234 184.33 482.57C184.894 482.894 185.554 483.056 186.31 483.056C187.414 483.056 188.248 482.762 188.812 482.174C189.388 481.574 189.73 480.8 189.838 479.852H186.742V478.034H192.286V485H190.036L189.856 483.398C189.592 483.794 189.28 484.13 188.92 484.406C188.572 484.67 188.164 484.868 187.696 485C187.228 485.144 186.688 485.216 186.076 485.216ZM197.206 485.216C196.45 485.216 195.826 485.096 195.334 484.856C194.842 484.604 194.476 484.274 194.236 483.866C194.008 483.446 193.894 482.984 193.894 482.48C193.894 481.928 194.032 481.442 194.308 481.022C194.596 480.602 195.022 480.272 195.586 480.032C196.162 479.792 196.882 479.672 197.746 479.672H199.996C199.996 479.228 199.936 478.862 199.816 478.574C199.696 478.274 199.51 478.052 199.258 477.908C199.006 477.764 198.67 477.692 198.25 477.692C197.794 477.692 197.404 477.794 197.08 477.998C196.768 478.19 196.576 478.49 196.504 478.898H194.146C194.206 478.25 194.416 477.692 194.776 477.224C195.148 476.744 195.634 476.372 196.234 476.108C196.846 475.844 197.524 475.712 198.268 475.712C199.12 475.712 199.858 475.856 200.482 476.144C201.106 476.432 201.586 476.846 201.922 477.386C202.258 477.926 202.426 478.592 202.426 479.384V485H200.374L200.104 483.614C199.972 483.854 199.816 484.07 199.636 484.262C199.456 484.454 199.246 484.622 199.006 484.766C198.766 484.91 198.496 485.018 198.196 485.09C197.896 485.174 197.566 485.216 197.206 485.216ZM197.782 483.344C198.094 483.344 198.37 483.29 198.61 483.182C198.862 483.062 199.078 482.906 199.258 482.714C199.438 482.51 199.576 482.282 199.672 482.03C199.78 481.766 199.852 481.484 199.888 481.184V481.166H198.034C197.662 481.166 197.356 481.214 197.116 481.31C196.888 481.394 196.72 481.52 196.612 481.688C196.504 481.856 196.45 482.048 196.45 482.264C196.45 482.504 196.504 482.702 196.612 482.858C196.72 483.014 196.876 483.134 197.08 483.218C197.284 483.302 197.518 483.344 197.782 483.344ZM205.168 488.96L207.364 483.992H206.824L203.188 475.928H205.834L208.426 481.778L210.766 475.928H213.34L207.742 488.96H205.168Z" fill="#851D2D"/>
<rect x="24.5" y="524.5" width="344" height="58" rx="29" fill="white"/>
<rect x="24.5" y="524.5" width="344" height="58" rx="29" stroke="#E5E5E5"/>
<path d="M166.098 560V547.4H167.61V560H166.098ZM169.867 560V550.928H171.235L171.307 552.512C171.595 551.948 172.003 551.51 172.531 551.198C173.071 550.874 173.683 550.712 174.367 550.712C175.075 550.712 175.687 550.856 176.203 551.144C176.719 551.42 177.121 551.846 177.409 552.422C177.697 552.986 177.841 553.706 177.841 554.582V560H176.329V554.744C176.329 553.832 176.125 553.148 175.717 552.692C175.321 552.236 174.757 552.008 174.025 552.008C173.521 552.008 173.071 552.134 172.675 552.386C172.279 552.626 171.961 552.98 171.721 553.448C171.493 553.904 171.379 554.474 171.379 555.158V560H169.867ZM183.407 560C182.867 560 182.399 559.916 182.003 559.748C181.607 559.58 181.301 559.298 181.085 558.902C180.881 558.494 180.779 557.948 180.779 557.264V552.206H179.195V550.928H180.779L180.977 548.732H182.291V550.928H184.919V552.206H182.291V557.264C182.291 557.828 182.405 558.212 182.633 558.416C182.861 558.608 183.263 558.704 183.839 558.704H184.811V560H183.407ZM190.264 560.216C189.412 560.216 188.656 560.018 187.996 559.622C187.348 559.226 186.838 558.674 186.466 557.966C186.094 557.246 185.908 556.412 185.908 555.464C185.908 554.504 186.088 553.67 186.448 552.962C186.82 552.254 187.336 551.702 187.996 551.306C188.668 550.91 189.436 550.712 190.3 550.712C191.188 550.712 191.938 550.91 192.55 551.306C193.174 551.702 193.648 552.224 193.972 552.872C194.308 553.508 194.476 554.21 194.476 554.978C194.476 555.098 194.476 555.224 194.476 555.356C194.476 555.488 194.47 555.638 194.458 555.806H187.042V554.636H193C192.964 553.808 192.688 553.16 192.172 552.692C191.668 552.224 191.032 551.99 190.264 551.99C189.748 551.99 189.268 552.11 188.824 552.35C188.392 552.578 188.044 552.92 187.78 553.376C187.516 553.82 187.384 554.378 187.384 555.05V555.554C187.384 556.298 187.516 556.922 187.78 557.426C188.056 557.93 188.41 558.308 188.842 558.56C189.286 558.812 189.76 558.938 190.264 558.938C190.9 558.938 191.422 558.8 191.83 558.524C192.25 558.236 192.55 557.852 192.73 557.372H194.224C194.08 557.912 193.828 558.398 193.468 558.83C193.108 559.262 192.658 559.604 192.118 559.856C191.59 560.096 190.972 560.216 190.264 560.216ZM196.156 560V550.928H197.524L197.632 552.656C197.836 552.248 198.094 551.9 198.406 551.612C198.73 551.324 199.114 551.102 199.558 550.946C200.014 550.79 200.53 550.712 201.106 550.712V552.296H200.548C200.164 552.296 199.798 552.35 199.45 552.458C199.102 552.554 198.79 552.716 198.514 552.944C198.25 553.172 198.04 553.484 197.884 553.88C197.74 554.264 197.668 554.744 197.668 555.32V560H196.156ZM205.878 560.216C205.122 560.216 204.462 560.09 203.898 559.838C203.346 559.586 202.902 559.238 202.566 558.794C202.242 558.338 202.044 557.804 201.972 557.192H203.52C203.58 557.504 203.706 557.792 203.898 558.056C204.09 558.32 204.348 558.536 204.672 558.704C205.008 558.86 205.416 558.938 205.896 558.938C206.316 558.938 206.664 558.878 206.94 558.758C207.216 558.626 207.42 558.452 207.552 558.236C207.696 558.02 207.768 557.786 207.768 557.534C207.768 557.162 207.678 556.88 207.498 556.688C207.33 556.496 207.078 556.346 206.742 556.238C206.406 556.118 205.998 556.016 205.518 555.932C205.122 555.86 204.732 555.764 204.348 555.644C203.964 555.524 203.622 555.368 203.322 555.176C203.022 554.972 202.782 554.726 202.602 554.438C202.434 554.15 202.35 553.796 202.35 553.376C202.35 552.86 202.482 552.404 202.746 552.008C203.01 551.6 203.388 551.282 203.88 551.054C204.384 550.826 204.966 550.712 205.626 550.712C206.598 550.712 207.384 550.946 207.984 551.414C208.584 551.882 208.938 552.56 209.046 553.448H207.552C207.492 552.992 207.294 552.638 206.958 552.386C206.634 552.122 206.184 551.99 205.608 551.99C205.044 551.99 204.612 552.104 204.312 552.332C204.024 552.56 203.88 552.86 203.88 553.232C203.88 553.472 203.958 553.688 204.114 553.88C204.282 554.06 204.522 554.216 204.834 554.348C205.158 554.48 205.554 554.588 206.022 554.672C206.622 554.78 207.168 554.924 207.66 555.104C208.152 555.284 208.548 555.554 208.848 555.914C209.16 556.262 209.316 556.76 209.316 557.408C209.316 557.972 209.172 558.464 208.884 558.884C208.608 559.304 208.212 559.634 207.696 559.874C207.18 560.102 206.574 560.216 205.878 560.216ZM215.111 560.216C214.259 560.216 213.503 560.018 212.843 559.622C212.195 559.226 211.685 558.674 211.313 557.966C210.941 557.246 210.755 556.412 210.755 555.464C210.755 554.504 210.935 553.67 211.295 552.962C211.667 552.254 212.183 551.702 212.843 551.306C213.515 550.91 214.283 550.712 215.147 550.712C216.035 550.712 216.785 550.91 217.397 551.306C218.021 551.702 218.495 552.224 218.819 552.872C219.155 553.508 219.323 554.21 219.323 554.978C219.323 555.098 219.323 555.224 219.323 555.356C219.323 555.488 219.317 555.638 219.305 555.806H211.889V554.636H217.847C217.811 553.808 217.535 553.16 217.019 552.692C216.515 552.224 215.879 551.99 215.111 551.99C214.595 551.99 214.115 552.11 213.671 552.35C213.239 552.578 212.891 552.92 212.627 553.376C212.363 553.82 212.231 554.378 212.231 555.05V555.554C212.231 556.298 212.363 556.922 212.627 557.426C212.903 557.93 213.257 558.308 213.689 558.56C214.133 558.812 214.607 558.938 215.111 558.938C215.747 558.938 216.269 558.8 216.677 558.524C217.097 558.236 217.397 557.852 217.577 557.372H219.071C218.927 557.912 218.675 558.398 218.315 558.83C217.955 559.262 217.505 559.604 216.965 559.856C216.437 560.096 215.819 560.216 215.111 560.216ZM219.682 560L222.76 555.464L219.682 550.928H221.338L223.786 554.636L226.27 550.928H227.89L224.812 555.464L227.89 560H226.27L223.786 556.274L221.338 560H219.682Z" fill="#5F5F5F"/>
<rect x="24.5" y="599.5" width="344" height="58" rx="29" fill="white"/>
<rect x="24.5" y="599.5" width="344" height="58" rx="29" stroke="#E5E5E5"/>
<path d="M166.885 635V622.4H168.397V633.794H174.265V635H166.885ZM179.519 635.216C178.667 635.216 177.911 635.018 177.251 634.622C176.603 634.226 176.093 633.674 175.721 632.966C175.349 632.246 175.163 631.412 175.163 630.464C175.163 629.504 175.343 628.67 175.703 627.962C176.075 627.254 176.591 626.702 177.251 626.306C177.923 625.91 178.691 625.712 179.555 625.712C180.443 625.712 181.193 625.91 181.805 626.306C182.429 626.702 182.903 627.224 183.227 627.872C183.563 628.508 183.731 629.21 183.731 629.978C183.731 630.098 183.731 630.224 183.731 630.356C183.731 630.488 183.725 630.638 183.713 630.806H176.297V629.636H182.255C182.219 628.808 181.943 628.16 181.427 627.692C180.923 627.224 180.287 626.99 179.519 626.99C179.003 626.99 178.523 627.11 178.079 627.35C177.647 627.578 177.299 627.92 177.035 628.376C176.771 628.82 176.639 629.378 176.639 630.05V630.554C176.639 631.298 176.771 631.922 177.035 632.426C177.311 632.93 177.665 633.308 178.097 633.56C178.541 633.812 179.015 633.938 179.519 633.938C180.155 633.938 180.677 633.8 181.085 633.524C181.505 633.236 181.805 632.852 181.985 632.372H183.479C183.335 632.912 183.083 633.398 182.723 633.83C182.363 634.262 181.913 634.604 181.373 634.856C180.845 635.096 180.227 635.216 179.519 635.216ZM188.831 635.216C188.075 635.216 187.415 635.09 186.851 634.838C186.299 634.586 185.855 634.238 185.519 633.794C185.195 633.338 184.997 632.804 184.925 632.192H186.473C186.533 632.504 186.659 632.792 186.851 633.056C187.043 633.32 187.301 633.536 187.625 633.704C187.961 633.86 188.369 633.938 188.849 633.938C189.269 633.938 189.617 633.878 189.893 633.758C190.169 633.626 190.373 633.452 190.505 633.236C190.649 633.02 190.721 632.786 190.721 632.534C190.721 632.162 190.631 631.88 190.451 631.688C190.283 631.496 190.031 631.346 189.695 631.238C189.359 631.118 188.951 631.016 188.471 630.932C188.075 630.86 187.685 630.764 187.301 630.644C186.917 630.524 186.575 630.368 186.275 630.176C185.975 629.972 185.735 629.726 185.555 629.438C185.387 629.15 185.303 628.796 185.303 628.376C185.303 627.86 185.435 627.404 185.699 627.008C185.963 626.6 186.341 626.282 186.833 626.054C187.337 625.826 187.919 625.712 188.579 625.712C189.551 625.712 190.337 625.946 190.937 626.414C191.537 626.882 191.891 627.56 191.999 628.448H190.505C190.445 627.992 190.247 627.638 189.911 627.386C189.587 627.122 189.137 626.99 188.561 626.99C187.997 626.99 187.565 627.104 187.265 627.332C186.977 627.56 186.833 627.86 186.833 628.232C186.833 628.472 186.911 628.688 187.067 628.88C187.235 629.06 187.475 629.216 187.787 629.348C188.111 629.48 188.507 629.588 188.975 629.672C189.575 629.78 190.121 629.924 190.613 630.104C191.105 630.284 191.501 630.554 191.801 630.914C192.113 631.262 192.269 631.76 192.269 632.408C192.269 632.972 192.125 633.464 191.837 633.884C191.561 634.304 191.165 634.634 190.649 634.874C190.133 635.102 189.527 635.216 188.831 635.216ZM198.838 635.216C198.322 635.216 197.854 635.144 197.434 635C197.026 634.844 196.666 634.64 196.354 634.388C196.042 634.136 195.784 633.842 195.58 633.506L195.454 635H194.086V622.04H195.598V627.422C195.886 626.954 196.3 626.552 196.84 626.216C197.38 625.88 198.046 625.712 198.838 625.712C199.714 625.712 200.482 625.922 201.142 626.342C201.802 626.75 202.312 627.314 202.672 628.034C203.044 628.742 203.23 629.552 203.23 630.464C203.23 631.376 203.044 632.192 202.672 632.912C202.312 633.632 201.802 634.196 201.142 634.604C200.482 635.012 199.714 635.216 198.838 635.216ZM198.658 633.902C199.246 633.902 199.768 633.758 200.224 633.47C200.68 633.182 201.034 632.786 201.286 632.282C201.55 631.766 201.682 631.16 201.682 630.464C201.682 629.78 201.55 629.18 201.286 628.664C201.034 628.148 200.68 627.746 200.224 627.458C199.768 627.17 199.246 627.026 198.658 627.026C198.058 627.026 197.53 627.17 197.074 627.458C196.618 627.746 196.264 628.148 196.012 628.664C195.76 629.18 195.634 629.78 195.634 630.464C195.634 631.16 195.76 631.766 196.012 632.282C196.264 632.786 196.618 633.182 197.074 633.47C197.53 633.758 198.058 633.902 198.658 633.902ZM205.138 635V625.928H206.65V635H205.138ZM205.894 624.002C205.594 624.002 205.342 623.906 205.138 623.714C204.946 623.51 204.85 623.258 204.85 622.958C204.85 622.658 204.946 622.418 205.138 622.238C205.342 622.046 205.594 621.95 205.894 621.95C206.182 621.95 206.428 622.046 206.632 622.238C206.836 622.418 206.938 622.658 206.938 622.958C206.938 623.258 206.836 623.51 206.632 623.714C206.428 623.906 206.182 624.002 205.894 624.002ZM211.91 635.216C211.178 635.216 210.566 635.09 210.074 634.838C209.582 634.574 209.216 634.232 208.976 633.812C208.736 633.38 208.616 632.912 208.616 632.408C208.616 631.796 208.772 631.28 209.084 630.86C209.408 630.428 209.858 630.104 210.434 629.888C211.022 629.66 211.712 629.546 212.504 629.546H214.898C214.898 628.982 214.808 628.514 214.628 628.142C214.46 627.758 214.208 627.47 213.872 627.278C213.548 627.086 213.14 626.99 212.648 626.99C212.072 626.99 211.574 627.134 211.154 627.422C210.734 627.71 210.476 628.136 210.38 628.7H208.832C208.904 628.052 209.12 627.512 209.48 627.08C209.852 626.636 210.32 626.3 210.884 626.072C211.448 625.832 212.036 625.712 212.648 625.712C213.488 625.712 214.184 625.868 214.736 626.18C215.3 626.48 215.72 626.906 215.996 627.458C216.272 627.998 216.41 628.64 216.41 629.384V635H215.06L214.97 633.398C214.85 633.65 214.694 633.89 214.502 634.118C214.322 634.334 214.106 634.526 213.854 634.694C213.602 634.85 213.314 634.976 212.99 635.072C212.678 635.168 212.318 635.216 211.91 635.216ZM212.144 633.938C212.564 633.938 212.942 633.854 213.278 633.686C213.626 633.506 213.92 633.266 214.16 632.966C214.4 632.654 214.58 632.312 214.7 631.94C214.832 631.568 214.898 631.178 214.898 630.77V630.716H212.63C212.042 630.716 211.568 630.788 211.208 630.932C210.848 631.064 210.59 631.256 210.434 631.508C210.278 631.748 210.2 632.024 210.2 632.336C210.2 632.66 210.272 632.942 210.416 633.182C210.572 633.422 210.794 633.608 211.082 633.74C211.382 633.872 211.736 633.938 212.144 633.938ZM218.389 635V625.928H219.757L219.829 627.512C220.117 626.948 220.525 626.51 221.053 626.198C221.593 625.874 222.205 625.712 222.889 625.712C223.597 625.712 224.209 625.856 224.725 626.144C225.241 626.42 225.643 626.846 225.931 627.422C226.219 627.986 226.363 628.706 226.363 629.582V635H224.851V629.744C224.851 628.832 224.647 628.148 224.239 627.692C223.843 627.236 223.279 627.008 222.547 627.008C222.043 627.008 221.593 627.134 221.197 627.386C220.801 627.626 220.483 627.98 220.243 628.448C220.015 628.904 219.901 629.474 219.901 630.158V635H218.389Z" fill="#5F5F5F"/>
<rect x="24.5" y="674.5" width="344" height="58" rx="29" fill="white"/>
<rect x="24.5" y="674.5" width="344" height="58" rx="29" stroke="#E5E5E5"/>
<path d="M179.075 710V698.642H175.313V697.4H184.349V698.642H180.587V710H179.075ZM184.743 710V700.928H186.111L186.219 702.656C186.423 702.248 186.681 701.9 186.993 701.612C187.317 701.324 187.701 701.102 188.145 700.946C188.601 700.79 189.117 700.712 189.693 700.712V702.296H189.135C188.751 702.296 188.385 702.35 188.037 702.458C187.689 702.554 187.377 702.716 187.101 702.944C186.837 703.172 186.627 703.484 186.471 703.88C186.327 704.264 186.255 704.744 186.255 705.32V710H184.743ZM193.997 710.216C193.265 710.216 192.653 710.09 192.161 709.838C191.669 709.574 191.303 709.232 191.063 708.812C190.823 708.38 190.703 707.912 190.703 707.408C190.703 706.796 190.859 706.28 191.171 705.86C191.495 705.428 191.945 705.104 192.521 704.888C193.109 704.66 193.799 704.546 194.591 704.546H196.985C196.985 703.982 196.895 703.514 196.715 703.142C196.547 702.758 196.295 702.47 195.959 702.278C195.635 702.086 195.227 701.99 194.735 701.99C194.159 701.99 193.661 702.134 193.241 702.422C192.821 702.71 192.563 703.136 192.467 703.7H190.919C190.991 703.052 191.207 702.512 191.567 702.08C191.939 701.636 192.407 701.3 192.971 701.072C193.535 700.832 194.123 700.712 194.735 700.712C195.575 700.712 196.271 700.868 196.823 701.18C197.387 701.48 197.807 701.906 198.083 702.458C198.359 702.998 198.497 703.64 198.497 704.384V710H197.147L197.057 708.398C196.937 708.65 196.781 708.89 196.589 709.118C196.409 709.334 196.193 709.526 195.941 709.694C195.689 709.85 195.401 709.976 195.077 710.072C194.765 710.168 194.405 710.216 193.997 710.216ZM194.231 708.938C194.651 708.938 195.029 708.854 195.365 708.686C195.713 708.506 196.007 708.266 196.247 707.966C196.487 707.654 196.667 707.312 196.787 706.94C196.919 706.568 196.985 706.178 196.985 705.77V705.716H194.717C194.129 705.716 193.655 705.788 193.295 705.932C192.935 706.064 192.677 706.256 192.521 706.508C192.365 706.748 192.287 707.024 192.287 707.336C192.287 707.66 192.359 707.942 192.503 708.182C192.659 708.422 192.881 708.608 193.169 708.74C193.469 708.872 193.823 708.938 194.231 708.938ZM200.476 710V700.928H201.844L201.916 702.512C202.204 701.948 202.612 701.51 203.14 701.198C203.68 700.874 204.292 700.712 204.976 700.712C205.684 700.712 206.296 700.856 206.812 701.144C207.328 701.42 207.73 701.846 208.018 702.422C208.306 702.986 208.45 703.706 208.45 704.582V710H206.938V704.744C206.938 703.832 206.734 703.148 206.326 702.692C205.93 702.236 205.366 702.008 204.634 702.008C204.13 702.008 203.68 702.134 203.284 702.386C202.888 702.626 202.57 702.98 202.33 703.448C202.102 703.904 201.988 704.474 201.988 705.158V710H200.476ZM213.872 710.216C213.116 710.216 212.456 710.09 211.892 709.838C211.34 709.586 210.896 709.238 210.56 708.794C210.236 708.338 210.038 707.804 209.966 707.192H211.514C211.574 707.504 211.7 707.792 211.892 708.056C212.084 708.32 212.342 708.536 212.666 708.704C213.002 708.86 213.41 708.938 213.89 708.938C214.31 708.938 214.658 708.878 214.934 708.758C215.21 708.626 215.414 708.452 215.546 708.236C215.69 708.02 215.762 707.786 215.762 707.534C215.762 707.162 215.672 706.88 215.492 706.688C215.324 706.496 215.072 706.346 214.736 706.238C214.4 706.118 213.992 706.016 213.512 705.932C213.116 705.86 212.726 705.764 212.342 705.644C211.958 705.524 211.616 705.368 211.316 705.176C211.016 704.972 210.776 704.726 210.596 704.438C210.428 704.15 210.344 703.796 210.344 703.376C210.344 702.86 210.476 702.404 210.74 702.008C211.004 701.6 211.382 701.282 211.874 701.054C212.378 700.826 212.96 700.712 213.62 700.712C214.592 700.712 215.378 700.946 215.978 701.414C216.578 701.882 216.932 702.56 217.04 703.448H215.546C215.486 702.992 215.288 702.638 214.952 702.386C214.628 702.122 214.178 701.99 213.602 701.99C213.038 701.99 212.606 702.104 212.306 702.332C212.018 702.56 211.874 702.86 211.874 703.232C211.874 703.472 211.952 703.688 212.108 703.88C212.276 704.06 212.516 704.216 212.828 704.348C213.152 704.48 213.548 704.588 214.016 704.672C214.616 704.78 215.162 704.924 215.654 705.104C216.146 705.284 216.542 705.554 216.842 705.914C217.154 706.262 217.31 706.76 217.31 707.408C217.31 707.972 217.166 708.464 216.878 708.884C216.602 709.304 216.206 709.634 215.69 709.874C215.174 710.102 214.568 710.216 213.872 710.216Z" fill="#5F5F5F"/>
<g filter="url(#filter0_d_160_7374)">
<rect width="393" height="118" transform="translate(0 734)" fill="white"/>
<rect x="24" y="763.5" width="345" height="59" rx="29.5" fill="#851D2D"/>
<path d="M164.084 799.716C162.824 799.716 161.738 799.446 160.826 798.906C159.926 798.354 159.23 797.592 158.738 796.62C158.258 795.636 158.018 794.502 158.018 793.218C158.018 791.934 158.258 790.8 158.738 789.816C159.23 788.832 159.926 788.064 160.826 787.512C161.738 786.96 162.824 786.684 164.084 786.684C165.608 786.684 166.856 787.062 167.828 787.818C168.8 788.574 169.406 789.642 169.646 791.022H167C166.844 790.35 166.514 789.828 166.01 789.456C165.518 789.072 164.87 788.88 164.066 788.88C163.322 788.88 162.68 789.06 162.14 789.42C161.612 789.768 161.204 790.266 160.916 790.914C160.628 791.55 160.484 792.318 160.484 793.218C160.484 794.106 160.628 794.874 160.916 795.522C161.204 796.17 161.612 796.668 162.14 797.016C162.68 797.364 163.322 797.538 164.066 797.538C164.87 797.538 165.518 797.364 166.01 797.016C166.502 796.656 166.826 796.158 166.982 795.522H169.646C169.406 796.83 168.8 797.856 167.828 798.6C166.856 799.344 165.608 799.716 164.084 799.716ZM175.591 799.716C174.727 799.716 173.947 799.518 173.251 799.122C172.567 798.714 172.021 798.156 171.613 797.448C171.217 796.728 171.019 795.906 171.019 794.982C171.019 794.034 171.217 793.206 171.613 792.498C172.021 791.778 172.573 791.22 173.269 790.824C173.965 790.416 174.745 790.212 175.609 790.212C176.485 790.212 177.265 790.416 177.949 790.824C178.645 791.22 179.191 791.778 179.587 792.498C179.995 793.206 180.199 794.028 180.199 794.964C180.199 795.9 179.995 796.728 179.587 797.448C179.191 798.156 178.645 798.714 177.949 799.122C177.253 799.518 176.467 799.716 175.591 799.716ZM175.591 797.61C175.999 797.61 176.359 797.514 176.671 797.322C176.995 797.13 177.247 796.836 177.427 796.44C177.619 796.044 177.715 795.552 177.715 794.964C177.715 794.376 177.619 793.89 177.427 793.506C177.247 793.11 176.995 792.816 176.671 792.624C176.359 792.42 176.005 792.318 175.609 792.318C175.225 792.318 174.871 792.42 174.547 792.624C174.223 792.816 173.965 793.11 173.773 793.506C173.593 793.89 173.503 794.376 173.503 794.964C173.503 795.552 173.593 796.044 173.773 796.44C173.965 796.836 174.217 797.13 174.529 797.322C174.853 797.514 175.207 797.61 175.591 797.61ZM181.933 799.5V790.428H184.075L184.255 791.904C184.531 791.4 184.921 790.992 185.425 790.68C185.941 790.368 186.553 790.212 187.261 790.212C188.017 790.212 188.653 790.368 189.169 790.68C189.685 790.992 190.075 791.448 190.339 792.048C190.615 792.648 190.753 793.386 190.753 794.262V799.5H188.341V794.496C188.341 793.776 188.185 793.224 187.873 792.84C187.573 792.456 187.105 792.264 186.469 792.264C186.061 792.264 185.695 792.36 185.371 792.552C185.059 792.744 184.813 793.02 184.633 793.38C184.453 793.728 184.363 794.154 184.363 794.658V799.5H181.933ZM196.768 799.5C196.132 799.5 195.574 799.404 195.094 799.212C194.626 799.008 194.26 798.678 193.996 798.222C193.732 797.754 193.6 797.118 193.6 796.314V792.462H192.052V790.428H193.6L193.87 787.962H196.03V790.428H198.424V792.462H196.03V796.35C196.03 796.758 196.12 797.04 196.3 797.196C196.48 797.352 196.786 797.43 197.218 797.43H198.406V799.5H196.768ZM200.164 799.5V790.428H202.594V799.5H200.164ZM201.388 789.186C200.956 789.186 200.596 789.06 200.308 788.808C200.032 788.544 199.894 788.214 199.894 787.818C199.894 787.422 200.032 787.098 200.308 786.846C200.596 786.582 200.956 786.45 201.388 786.45C201.832 786.45 202.192 786.582 202.468 786.846C202.756 787.098 202.9 787.422 202.9 787.818C202.9 788.214 202.756 788.544 202.468 788.808C202.192 789.06 201.832 789.186 201.388 789.186ZM204.689 799.5V790.428H206.831L207.011 791.904C207.287 791.4 207.677 790.992 208.181 790.68C208.697 790.368 209.309 790.212 210.017 790.212C210.773 790.212 211.409 790.368 211.925 790.68C212.441 790.992 212.831 791.448 213.095 792.048C213.371 792.648 213.509 793.386 213.509 794.262V799.5H211.097V794.496C211.097 793.776 210.941 793.224 210.629 792.84C210.329 792.456 209.861 792.264 209.225 792.264C208.817 792.264 208.451 792.36 208.127 792.552C207.815 792.744 207.569 793.02 207.389 793.38C207.209 793.728 207.119 794.154 207.119 794.658V799.5H204.689ZM218.822 799.716C218.09 799.716 217.46 799.566 216.932 799.266C216.416 798.954 216.02 798.504 215.744 797.916C215.468 797.316 215.33 796.578 215.33 795.702V790.428H217.76V795.45C217.76 796.182 217.91 796.734 218.21 797.106C218.522 797.478 218.996 797.664 219.632 797.664C220.04 797.664 220.4 797.574 220.712 797.394C221.024 797.202 221.27 796.932 221.45 796.584C221.642 796.224 221.738 795.786 221.738 795.27V790.428H224.15V799.5H222.026L221.828 798.024C221.564 798.54 221.174 798.954 220.658 799.266C220.142 799.566 219.53 799.716 218.822 799.716ZM230.526 799.716C229.614 799.716 228.804 799.524 228.096 799.14C227.4 798.744 226.854 798.198 226.458 797.502C226.074 796.794 225.882 795.978 225.882 795.054C225.882 794.106 226.074 793.272 226.458 792.552C226.854 791.82 227.4 791.25 228.096 790.842C228.792 790.422 229.602 790.212 230.526 790.212C231.426 790.212 232.212 790.41 232.884 790.806C233.556 791.202 234.078 791.736 234.45 792.408C234.822 793.08 235.008 793.842 235.008 794.694C235.008 794.814 235.008 794.952 235.008 795.108C235.008 795.252 234.996 795.402 234.972 795.558H227.61V794.082H232.56C232.524 793.494 232.314 793.032 231.93 792.696C231.558 792.36 231.09 792.192 230.526 792.192C230.118 792.192 229.74 792.288 229.392 792.48C229.044 792.66 228.768 792.942 228.564 793.326C228.372 793.71 228.276 794.196 228.276 794.784V795.306C228.276 795.798 228.366 796.23 228.546 796.602C228.738 796.962 229.002 797.244 229.338 797.448C229.674 797.64 230.064 797.736 230.508 797.736C230.952 797.736 231.318 797.64 231.606 797.448C231.906 797.256 232.128 797.01 232.272 796.71H234.756C234.588 797.274 234.306 797.784 233.91 798.24C233.514 798.696 233.028 799.056 232.452 799.32C231.876 799.584 231.234 799.716 230.526 799.716Z" fill="white"/>
</g>
<rect x="129" y="833" width="134" height="5" rx="2.5" fill="#959595"/>
<path d="M32.9455 29.89C32.9455 28.16 33.2555 26.805 33.8755 25.825C34.5055 24.845 35.5455 24.355 36.9955 24.355C38.4455 24.355 39.4805 24.845 40.1005 25.825C40.7305 26.805 41.0455 28.16 41.0455 29.89C41.0455 31.63 40.7305 32.995 40.1005 33.985C39.4805 34.975 38.4455 35.47 36.9955 35.47C35.5455 35.47 34.5055 34.975 33.8755 33.985C33.2555 32.995 32.9455 31.63 32.9455 29.89ZM38.9755 29.89C38.9755 29.15 38.9255 28.53 38.8255 28.03C38.7355 27.52 38.5455 27.105 38.2555 26.785C37.9755 26.465 37.5555 26.305 36.9955 26.305C36.4355 26.305 36.0105 26.465 35.7205 26.785C35.4405 27.105 35.2505 27.52 35.1505 28.03C35.0605 28.53 35.0155 29.15 35.0155 29.89C35.0155 30.65 35.0605 31.29 35.1505 31.81C35.2405 32.32 35.4305 32.735 35.7205 33.055C36.0105 33.365 36.4355 33.52 36.9955 33.52C37.5555 33.52 37.9805 33.365 38.2705 33.055C38.5605 32.735 38.7505 32.32 38.8405 31.81C38.9305 31.29 38.9755 30.65 38.9755 29.89ZM44.9028 32.425C44.9828 32.865 45.1628 33.205 45.4428 33.445C45.7328 33.675 46.1178 33.79 46.5978 33.79C47.2178 33.79 47.6678 33.535 47.9478 33.025C48.2278 32.505 48.3678 31.635 48.3678 30.415C48.1378 30.735 47.8128 30.985 47.3928 31.165C46.9828 31.345 46.5378 31.435 46.0578 31.435C45.4178 31.435 44.8378 31.305 44.3178 31.045C43.8078 30.775 43.4028 30.38 43.1028 29.86C42.8028 29.33 42.6528 28.69 42.6528 27.94C42.6528 26.83 42.9828 25.95 43.6428 25.3C44.3028 24.64 45.2028 24.31 46.3428 24.31C47.7628 24.31 48.7628 24.765 49.3428 25.675C49.9328 26.585 50.2278 27.955 50.2278 29.785C50.2278 31.085 50.1128 32.15 49.8828 32.98C49.6628 33.81 49.2778 34.44 48.7278 34.87C48.1878 35.3 47.4478 35.515 46.5078 35.515C45.7678 35.515 45.1378 35.375 44.6178 35.095C44.0978 34.805 43.6978 34.43 43.4178 33.97C43.1478 33.5 42.9928 32.985 42.9528 32.425H44.9028ZM46.4928 29.725C47.0128 29.725 47.4228 29.565 47.7228 29.245C48.0228 28.925 48.1728 28.495 48.1728 27.955C48.1728 27.365 48.0128 26.91 47.6928 26.59C47.3828 26.26 46.9578 26.095 46.4178 26.095C45.8778 26.095 45.4478 26.265 45.1278 26.605C44.8178 26.935 44.6628 27.375 44.6628 27.925C44.6628 28.455 44.8128 28.89 45.1128 29.23C45.4228 29.56 45.8828 29.725 46.4928 29.725ZM52.8625 35.605C52.4825 35.605 52.1675 35.49 51.9175 35.26C51.6775 35.02 51.5575 34.725 51.5575 34.375C51.5575 34.025 51.6775 33.735 51.9175 33.505C52.1675 33.265 52.4825 33.145 52.8625 33.145C53.2325 33.145 53.5375 33.265 53.7775 33.505C54.0175 33.735 54.1375 34.025 54.1375 34.375C54.1375 34.725 54.0175 35.02 53.7775 35.26C53.5375 35.49 53.2325 35.605 52.8625 35.605ZM52.8625 29.395C52.4825 29.395 52.1675 29.28 51.9175 29.05C51.6775 28.81 51.5575 28.515 51.5575 28.165C51.5575 27.815 51.6775 27.525 51.9175 27.295C52.1675 27.055 52.4825 26.935 52.8625 26.935C53.2325 26.935 53.5375 27.055 53.7775 27.295C54.0175 27.525 54.1375 27.815 54.1375 28.165C54.1375 28.515 54.0175 28.81 53.7775 29.05C53.5375 29.28 53.2325 29.395 52.8625 29.395ZM55.3729 33.37V31.72L60.2779 24.7H62.7229V31.54H64.0429V33.37H62.7229V35.5H60.6229V33.37H55.3729ZM60.7579 26.95L57.6829 31.54H60.7579V26.95ZM64.9549 26.5V24.565H68.5699V35.5H66.4099V26.5H64.9549Z" fill="#3D3D3D"/>
<path d="M297.5 31.5H298.5C299.052 31.5 299.5 31.9477 299.5 32.5V34.5C299.5 35.0523 299.052 35.5 298.5 35.5H297.5C296.948 35.5 296.5 35.0523 296.5 34.5V32.5C296.5 31.9477 296.948 31.5 297.5 31.5Z" fill="#3D3D3D"/>
<path d="M302 29.5H303C303.552 29.5 304 29.9477 304 30.5V34.5C304 35.0523 303.552 35.5 303 35.5H302C301.448 35.5 301 35.0523 301 34.5V30.5C301 29.9477 301.448 29.5 302 29.5Z" fill="#3D3D3D"/>
<path d="M306.5 27.5H307.5C308.052 27.5 308.5 27.9298 308.5 28.46V34.54C308.5 35.0702 308.052 35.5 307.5 35.5H306.5C305.948 35.5 305.5 35.0702 305.5 34.54V28.46C305.5 27.9298 305.948 27.5 306.5 27.5Z" fill="#3D3D3D"/>
<path d="M311 24.5H312C312.552 24.5 313 24.9617 313 25.5312V34.4688C313 35.0383 312.552 35.5 312 35.5H311C310.448 35.5 310 35.0383 310 34.4688V25.5312C310 24.9617 310.448 24.5 311 24.5V24.5Z" fill="#3D3D3D"/>
<path d="M323.33 32.9267C324.583 31.8444 326.418 31.8444 327.671 32.9267C327.734 32.9849 327.771 33.0675 327.772 33.1542C327.774 33.2408 327.74 33.324 327.68 33.3847L325.718 35.4072C325.66 35.4664 325.582 35.4999 325.5 35.4999C325.418 35.4998 325.34 35.4665 325.282 35.4072L323.32 33.3847C323.26 33.324 323.227 33.2407 323.229 33.1542C323.23 33.0675 323.267 32.9849 323.33 32.9267ZM320.712 30.2294C323.411 27.665 327.592 27.665 330.291 30.2294C330.352 30.2894 330.387 30.3717 330.388 30.4579C330.389 30.5445 330.355 30.628 330.295 30.6894L329.161 31.8603C329.044 31.9795 328.855 31.9814 328.735 31.8652C327.849 31.0456 326.696 30.5917 325.5 30.5917C324.305 30.5923 323.153 31.0462 322.268 31.8652C322.148 31.9815 321.959 31.9796 321.842 31.8603L320.708 30.6894C320.648 30.6282 320.616 30.5452 320.616 30.4589C320.617 30.3725 320.651 30.2895 320.712 30.2294ZM318.095 27.539C322.235 23.487 328.765 23.487 332.905 27.539C332.965 27.5992 333 27.6817 333 27.7675C333 27.8533 332.967 27.9361 332.908 27.997L331.772 29.1669C331.655 29.2868 331.466 29.288 331.348 29.1699C329.77 27.6383 327.676 26.7842 325.5 26.7841C323.324 26.7842 321.231 27.6385 319.653 29.1699C319.535 29.2882 319.344 29.2871 319.228 29.1669L318.092 27.997C318.033 27.9361 318 27.8532 318 27.7675C318.001 27.6817 318.035 27.5991 318.095 27.539Z" fill="#3D3D3D"/>
<rect x="338.5" y="24.5" width="21.6077" height="11" rx="2.16667" stroke="#3D3D3D"/>
<path d="M361.635 27.8823V32.1176C362.462 31.7589 363 30.9245 363 30C363 29.0755 362.462 28.241 361.635 27.8823Z" fill="#3D3D3D"/>
<rect x="340.055" y="26.1177" width="18.4972" height="7.76471" rx="1.33333" fill="#3D3D3D"/>
</g>
<defs>
<filter id="filter0_d_160_7374" x="-10" y="720" width="413" height="138" filterUnits="userSpaceOnUse" color-interpolation-filters="sRGB">
<feFlood flood-opacity="0" result="BackgroundImageFix"/>
<feColorMatrix in="SourceAlpha" type="matrix" values="0 0 0 0 0 0 0 0 0 0 0 0 0 0 0 0 0 0 127 0" result="hardAlpha"/>
<feOffset dy="-4"/>
<feGaussianBlur stdDeviation="5"/>
<feComposite in2="hardAlpha" operator="out"/>
<feColorMatrix type="matrix" values="0 0 0 0 0 0 0 0 0 0 0 0 0 0 0 0 0 0 0.05 0"/>
<feBlend mode="normal" in2="BackgroundImageFix" result="effect1_dropShadow_160_7374"/>
<feBlend mode="normal" in="SourceGraphic" in2="effect1_dropShadow_160_7374" result="shape"/>
</filter>
<clipPath id="clip0_160_7374">
<rect width="393" height="852" rx="40" fill="white"/>
</clipPath>
</defs>
</svg>
